<svg width="399" height="231" viewBox="0 0 399 231" fill="none" xmlns="http://www.w3.org/2000/svg">
<rect width="399" height="231" fill="#D1D4D9" fill-opacity="0.7"/>
<path d="M399 0H0V38H399V0Z" fill="#D1D4D9"/>
<path d="M125.893 5H11.1679C8.36431 5 6.09155 7.23858 6.09155 10V28C6.09155 30.7614 8.36431 33 11.1679 33H125.893C128.697 33 130.969 30.7614 130.969 28V10C130.969 7.23858 128.697 5 125.893 5Z" fill="white"/>
<path d="M67.7952 13.8182V17.3182H66.7015V13.8182H67.7952ZM70.3407 13.8182V17.3182H69.247V13.8182H70.3407Z" fill="#3A3A3C"/>
<path d="M256.863 5H142.137C139.334 5 137.061 7.23858 137.061 10V28C137.061 30.7614 139.334 33 142.137 33H256.863C259.666 33 261.939 30.7614 261.939 28V10C261.939 7.23858 259.666 5 256.863 5Z" fill="white"/>
<path d="M200.113 13.8182V24H198.88V13.8182H200.113Z" fill="#3A3A3C"/>
<path d="M387.832 5H273.107C270.303 5 268.031 7.23858 268.031 10V28C268.031 30.7614 270.303 33 273.107 33H387.832C390.636 33 392.908 30.7614 392.908 28V10C392.908 7.23858 390.636 5 387.832 5Z" fill="white"/>
<path d="M318.444 14.9119V13.8182H326.081V14.9119H322.879V24H321.646V14.9119H318.444ZM328.998 19.4062V24H327.825V13.8182H328.998V17.5568H329.097C329.276 17.1624 329.545 16.8492 329.903 16.6172C330.264 16.3819 330.745 16.2642 331.344 16.2642C331.865 16.2642 332.321 16.3686 332.712 16.5774C333.103 16.7829 333.406 17.0994 333.621 17.527C333.84 17.9512 333.95 18.4915 333.95 19.1477V24H332.776V19.2273C332.776 18.6207 332.619 18.1518 332.304 17.8203C331.992 17.4856 331.56 17.3182 331.006 17.3182C330.622 17.3182 330.277 17.3994 329.972 17.5618C329.671 17.7242 329.432 17.9612 329.256 18.2727C329.084 18.5843 328.998 18.9621 328.998 19.4062ZM339.298 24.1591C338.562 24.1591 337.927 23.9967 337.394 23.6719C336.863 23.3438 336.454 22.8864 336.166 22.2997C335.881 21.7098 335.738 21.0237 335.738 20.2415C335.738 19.4593 335.881 18.7699 336.166 18.1733C336.454 17.5734 336.855 17.1061 337.369 16.7713C337.886 16.4332 338.489 16.2642 339.178 16.2642C339.576 16.2642 339.969 16.3305 340.357 16.4631C340.745 16.5956 341.097 16.8111 341.416 17.1094C341.734 17.4044 341.987 17.7955 342.176 18.2827C342.365 18.7699 342.46 19.3698 342.46 20.0824V20.5795H336.573V19.5653H341.267C341.267 19.1345 341.18 18.75 341.008 18.4119C340.839 18.0739 340.597 17.8071 340.282 17.6115C339.971 17.416 339.603 17.3182 339.178 17.3182C338.711 17.3182 338.307 17.4342 337.965 17.6662C337.627 17.8949 337.367 18.1932 337.185 18.5611C337.003 18.929 336.911 19.3234 336.911 19.7443V20.4205C336.911 20.9972 337.011 21.486 337.21 21.8871C337.412 22.2848 337.692 22.5881 338.05 22.7969C338.408 23.0024 338.824 23.1051 339.298 23.1051C339.606 23.1051 339.884 23.062 340.133 22.9759C340.385 22.8864 340.602 22.7538 340.784 22.5781C340.967 22.3991 341.107 22.1771 341.207 21.9119L342.34 22.2301C342.221 22.6146 342.021 22.9527 341.739 23.2443C341.457 23.5327 341.109 23.758 340.695 23.9205C340.28 24.0795 339.815 24.1591 339.298 24.1591Z" fill="#3A3A3C"/>
<path d="M32 43H8C5.23858 43 3 45.2386 3 48V80C3 82.7614 5.23858 85 8 85H32C34.7614 85 37 82.7614 37 80V48C37 45.2386 34.7614 43 32 43Z" fill="white"/>
<path d="M23.1719 75.5V69.1562H23.0156C22.8802 69.375 22.6875 69.651 22.4375 69.9844C22.1875 70.3125 21.8307 70.6068 21.3672 70.8672C20.9036 71.1224 20.2865 71.25 19.5156 71.25C18.5156 71.25 17.6328 70.9974 16.8672 70.4922C16.1016 69.9818 15.5026 69.263 15.0703 68.3359C14.638 67.4036 14.4219 66.3021 14.4219 65.0313C14.4219 63.7708 14.638 62.6771 15.0703 61.75C15.5026 60.8229 16.1042 60.1068 16.875 59.6016C17.6458 59.0964 18.5365 58.8438 19.5469 58.8438C20.3281 58.8438 20.9453 58.974 21.3984 59.2344C21.8568 59.4896 22.2057 59.7812 22.4453 60.1094C22.6901 60.4323 22.8802 60.6979 23.0156 60.9062H23.2344V59H25.0156V75.5H23.1719ZM19.7656 69.5938C20.5052 69.5938 21.1302 69.401 21.6406 69.0156C22.151 68.625 22.5391 68.0859 22.8047 67.3984C23.0703 66.7057 23.2031 65.9062 23.2031 65C23.2031 64.1042 23.0729 63.3203 22.8125 62.6484C22.5521 61.9714 22.1667 61.4453 21.6563 61.0703C21.1458 60.6901 20.5156 60.5 19.7656 60.5C18.9844 60.5 18.3333 60.7005 17.8125 61.1016C17.2969 61.4974 16.9089 62.0365 16.6484 62.7187C16.3932 63.3958 16.2656 64.1562 16.2656 65C16.2656 65.8542 16.3958 66.6302 16.6563 67.3281C16.9219 68.0208 17.3125 68.5729 17.8281 68.9844C18.349 69.3906 18.9948 69.5938 19.7656 69.5938Z" fill="black"/>
<path d="M72 43H48C45.2386 43 43 45.2386 43 48V80C43 82.7614 45.2386 85 48 85H72C74.7614 85 77 82.7614 77 80V48C77 45.2386 74.7614 43 72 43Z" fill="white"/>
<path d="M55.4688 71L51.8125 59H53.75L56.3438 68.1875H56.4688L59.0312 59H61L63.5313 68.1562H63.6563L66.25 59H68.1875L64.5313 71H62.7188L60.0938 61.7812H59.9063L57.2813 71H55.4688Z" fill="black"/>
<path d="M112 43H88C85.2386 43 83 45.2386 83 48V80C83 82.7614 85.2386 85 88 85H112C114.761 85 117 82.7614 117 80V48C117 45.2386 114.761 43 112 43Z" fill="white"/>
<path d="M100.316 71.25C99.1602 71.25 98.1628 70.9948 97.3242 70.4844C96.4909 69.9688 95.8477 69.25 95.3945 68.3281C94.9466 67.401 94.7227 66.3229 94.7227 65.0938C94.7227 63.8646 94.9466 62.7812 95.3945 61.8437C95.8477 60.901 96.4779 60.1667 97.2852 59.6406C98.0977 59.1094 99.0456 58.8438 100.129 58.8438C100.754 58.8438 101.371 58.9479 101.98 59.1562C102.59 59.3646 103.145 59.7031 103.645 60.1719C104.145 60.6354 104.543 61.25 104.84 62.0156C105.137 62.7812 105.285 63.724 105.285 64.8437V65.625H96.0352V64.0312H103.41C103.41 63.3542 103.275 62.75 103.004 62.2187C102.738 61.6875 102.358 61.2682 101.863 60.9609C101.374 60.6536 100.796 60.5 100.129 60.5C99.3945 60.5 98.7591 60.6823 98.2227 61.0469C97.6914 61.4062 97.2826 61.875 96.9961 62.4531C96.7096 63.0312 96.5664 63.651 96.5664 64.3125V65.375C96.5664 66.2813 96.7227 67.0495 97.0352 67.6797C97.3529 68.3047 97.793 68.7812 98.3555 69.1094C98.918 69.4323 99.5716 69.5938 100.316 69.5938C100.801 69.5938 101.238 69.526 101.629 69.3906C102.025 69.25 102.366 69.0417 102.652 68.7656C102.939 68.4844 103.16 68.1354 103.316 67.7187L105.098 68.2188C104.91 68.8229 104.595 69.3542 104.152 69.8125C103.71 70.2656 103.163 70.6198 102.512 70.875C101.861 71.125 101.129 71.25 100.316 71.25Z" fill="black"/>
<path d="M152 43H128C125.239 43 123 45.2386 123 48V80C123 82.7614 125.239 85 128 85H152C154.761 85 157 82.7614 157 80V48C157 45.2386 154.761 43 152 43Z" fill="white"/>
<path d="M137.595 71V59H139.376V60.8125H139.501C139.72 60.2188 140.116 59.737 140.688 59.3672C141.261 58.9974 141.907 58.8125 142.626 58.8125C142.761 58.8125 142.931 58.8151 143.134 58.8203C143.337 58.8255 143.491 58.8333 143.595 58.8438V60.7187C143.532 60.7031 143.389 60.6797 143.165 60.6484C142.946 60.612 142.715 60.5937 142.47 60.5937C141.886 60.5937 141.366 60.7161 140.907 60.9609C140.454 61.2005 140.095 61.5339 139.829 61.9609C139.569 62.3828 139.438 62.8646 139.438 63.4062V71H137.595Z" fill="black"/>
<path d="M192 43H168C165.239 43 163 45.2386 163 48V80C163 82.7614 165.239 85 168 85H192C194.761 85 197 82.7614 197 80V48C197 45.2386 194.761 43 192 43Z" fill="white"/>
<path d="M182.91 59V60.5625H176.691V59H182.91ZM178.504 56.125H180.348V67.5625C180.348 68.0833 180.423 68.474 180.574 68.7344C180.73 68.9896 180.928 69.1615 181.168 69.25C181.413 69.3333 181.671 69.375 181.941 69.375C182.145 69.375 182.311 69.3646 182.441 69.3437C182.572 69.3177 182.676 69.2969 182.754 69.2812L183.129 70.9375C183.004 70.9844 182.829 71.0313 182.605 71.0781C182.382 71.1302 182.098 71.1563 181.754 71.1563C181.233 71.1563 180.723 71.0443 180.223 70.8203C179.728 70.5964 179.316 70.2552 178.988 69.7969C178.665 69.3385 178.504 68.7604 178.504 68.0625V56.125Z" fill="black"/>
<path d="M232 43H208C205.239 43 203 45.2386 203 48V80C203 82.7614 205.239 85 208 85H232C234.761 85 237 82.7614 237 80V48C237 45.2386 234.761 43 232 43Z" fill="white"/>
<path d="M216.752 75.5C216.439 75.5 216.161 75.474 215.916 75.4219C215.671 75.375 215.502 75.3281 215.408 75.2813L215.877 73.6563C216.325 73.7708 216.721 73.8125 217.064 73.7812C217.408 73.75 217.713 73.5964 217.979 73.3203C218.249 73.0495 218.497 72.6094 218.721 72L219.064 71.0625L214.627 59H216.627L219.939 68.5625H220.064L223.377 59H225.377L220.283 72.75C220.054 73.3698 219.77 73.8828 219.432 74.2891C219.093 74.7005 218.7 75.0052 218.252 75.2031C217.809 75.401 217.309 75.5 216.752 75.5Z" fill="black"/>
<path d="M272 43H248C245.239 43 243 45.2386 243 48V80C243 82.7614 245.239 85 248 85H272C274.761 85 277 82.7614 277 80V48C277 45.2386 274.761 43 272 43Z" fill="white"/>
<path d="M262.858 66.0937V59H264.702V71H262.858V68.9687H262.733C262.452 69.5781 262.015 70.0964 261.421 70.5234C260.827 70.9453 260.077 71.1563 259.171 71.1563C258.421 71.1563 257.754 70.9922 257.171 70.6641C256.588 70.3307 256.129 69.8307 255.796 69.1641C255.463 68.4922 255.296 67.6458 255.296 66.625V59H257.14V66.5C257.14 67.375 257.384 68.0729 257.874 68.5938C258.369 69.1146 258.999 69.375 259.765 69.375C260.223 69.375 260.689 69.2578 261.163 69.0234C261.642 68.7891 262.043 68.4297 262.366 67.9453C262.694 67.4609 262.858 66.8437 262.858 66.0937Z" fill="black"/>
<path d="M312 43H288C285.239 43 283 45.2386 283 48V80C283 82.7614 285.239 85 288 85H312C314.761 85 317 82.7614 317 80V48C317 45.2386 314.761 43 312 43Z" fill="white"/>
<path d="M299.077 71V59H300.921V71H299.077ZM300.015 57C299.655 57 299.345 56.8776 299.085 56.6328C298.83 56.388 298.702 56.0938 298.702 55.75C298.702 55.4063 298.83 55.112 299.085 54.8672C299.345 54.6224 299.655 54.5 300.015 54.5C300.374 54.5 300.681 54.6224 300.937 54.8672C301.197 55.112 301.327 55.4063 301.327 55.75C301.327 56.0938 301.197 56.388 300.937 56.6328C300.681 56.8776 300.374 57 300.015 57Z" fill="black"/>
<path d="M352 43H328C325.239 43 323 45.2386 323 48V80C323 82.7614 325.239 85 328 85H352C354.761 85 357 82.7614 357 80V48C357 45.2386 354.761 43 352 43Z" fill="white"/>
<path d="M339.999 71.25C338.916 71.25 337.965 70.9922 337.147 70.4766C336.335 69.9609 335.7 69.2396 335.241 68.3125C334.788 67.3854 334.562 66.3021 334.562 65.0625C334.562 63.8125 334.788 62.7214 335.241 61.7891C335.7 60.8568 336.335 60.1328 337.147 59.6172C337.965 59.1016 338.916 58.8438 339.999 58.8438C341.082 58.8438 342.03 59.1016 342.843 59.6172C343.66 60.1328 344.296 60.8568 344.749 61.7891C345.207 62.7214 345.437 63.8125 345.437 65.0625C345.437 66.3021 345.207 67.3854 344.749 68.3125C344.296 69.2396 343.66 69.9609 342.843 70.4766C342.03 70.9922 341.082 71.25 339.999 71.25ZM339.999 69.5938C340.822 69.5938 341.499 69.3828 342.03 68.9609C342.562 68.5391 342.955 67.9844 343.21 67.2969C343.465 66.6094 343.593 65.8646 343.593 65.0625C343.593 64.2604 343.465 63.513 343.21 62.8203C342.955 62.1276 342.562 61.5677 342.03 61.1406C341.499 60.7135 340.822 60.5 339.999 60.5C339.176 60.5 338.499 60.7135 337.968 61.1406C337.437 61.5677 337.043 62.1276 336.788 62.8203C336.533 63.513 336.405 64.2604 336.405 65.0625C336.405 65.8646 336.533 66.6094 336.788 67.2969C337.043 67.9844 337.437 68.5391 337.968 68.9609C338.499 69.3828 339.176 69.5938 339.999 69.5938Z" fill="black"/>
<path d="M392 43H368C365.239 43 363 45.2386 363 48V80C363 82.7614 365.239 85 368 85H392C394.761 85 397 82.7614 397 80V48C397 45.2386 394.761 43 392 43Z" fill="white"/>
<path d="M374.984 75.5V59H376.766V60.9062H376.984C377.12 60.6979 377.307 60.4323 377.547 60.1094C377.792 59.7812 378.141 59.4896 378.594 59.2344C379.052 58.974 379.672 58.8438 380.453 58.8438C381.464 58.8438 382.354 59.0964 383.125 59.6016C383.896 60.1068 384.497 60.8229 384.93 61.75C385.362 62.6771 385.578 63.7708 385.578 65.0313C385.578 66.3021 385.362 67.4036 384.93 68.3359C384.497 69.263 383.898 69.9818 383.133 70.4922C382.367 70.9974 381.484 71.25 380.484 71.25C379.714 71.25 379.096 71.1224 378.633 70.8672C378.169 70.6068 377.813 70.3125 377.563 69.9844C377.313 69.651 377.12 69.375 376.984 69.1562H376.828V75.5H374.984ZM376.797 65C376.797 65.9062 376.93 66.7057 377.195 67.3984C377.461 68.0859 377.849 68.625 378.359 69.0156C378.87 69.401 379.495 69.5938 380.234 69.5938C381.005 69.5938 381.648 69.3906 382.164 68.9844C382.685 68.5729 383.076 68.0208 383.336 67.3281C383.602 66.6302 383.734 65.8542 383.734 65C383.734 64.1562 383.604 63.3958 383.344 62.7187C383.089 62.0365 382.701 61.4974 382.18 61.1016C381.664 60.7005 381.016 60.5 380.234 60.5C379.484 60.5 378.854 60.6901 378.344 61.0703C377.833 61.4453 377.448 61.9714 377.188 62.6484C376.927 63.3203 376.797 64.1042 376.797 65Z" fill="black"/>
<path d="M52 90H28C25.2386 90 23 92.2386 23 95V127C23 129.761 25.2386 132 28 132H52C54.7614 132 57 129.761 57 127V95C57 92.2386 54.7614 90 52 90Z" fill="white"/>
<path d="M39.0205 118.281C38.2601 118.281 37.57 118.138 36.9502 117.852C36.3304 117.56 35.8382 117.141 35.4736 116.594C35.109 116.042 34.9268 115.375 34.9268 114.594C34.9268 113.906 35.0622 113.349 35.333 112.922C35.6038 112.49 35.9658 112.151 36.4189 111.906C36.8721 111.661 37.3721 111.479 37.9189 111.359C38.471 111.234 39.0257 111.135 39.583 111.063C40.3122 110.969 40.9033 110.898 41.3564 110.852C41.8148 110.799 42.1481 110.714 42.3564 110.594C42.57 110.474 42.6768 110.266 42.6768 109.969V109.906C42.6768 109.135 42.4658 108.536 42.0439 108.109C41.6273 107.682 40.9945 107.469 40.1455 107.469C39.2653 107.469 38.5752 107.661 38.0752 108.047C37.5752 108.432 37.2236 108.844 37.0205 109.281L35.2705 108.656C35.583 107.927 35.9997 107.359 36.5205 106.953C37.0465 106.542 37.6195 106.255 38.2393 106.094C38.8643 105.927 39.4788 105.844 40.083 105.844C40.4684 105.844 40.9111 105.891 41.4111 105.984C41.9163 106.073 42.4033 106.258 42.8721 106.539C43.346 106.82 43.7393 107.245 44.0518 107.812C44.3643 108.38 44.5205 109.141 44.5205 110.094V118H42.6768V116.375H42.583C42.458 116.635 42.2497 116.914 41.958 117.211C41.6663 117.508 41.2783 117.76 40.7939 117.969C40.3096 118.177 39.7184 118.281 39.0205 118.281ZM39.3018 116.625C40.0309 116.625 40.6455 116.482 41.1455 116.195C41.6507 115.909 42.0309 115.539 42.2861 115.086C42.5465 114.633 42.6768 114.156 42.6768 113.656V111.969C42.5986 112.062 42.4268 112.148 42.1611 112.227C41.9007 112.299 41.5986 112.365 41.2549 112.422C40.9163 112.474 40.5856 112.521 40.2627 112.562C39.945 112.599 39.6872 112.63 39.4893 112.656C39.0101 112.719 38.5622 112.82 38.1455 112.961C37.734 113.096 37.4007 113.302 37.1455 113.578C36.8955 113.849 36.7705 114.219 36.7705 114.687C36.7705 115.328 37.0075 115.812 37.4814 116.141C37.9606 116.464 38.5674 116.625 39.3018 116.625Z" fill="black"/>
<path d="M92 90H68C65.2386 90 63 92.2386 63 95V127C63 129.761 65.2386 132 68 132H92C94.7614 132 97 129.761 97 127V95C97 92.2386 94.7614 90 92 90Z" fill="white"/>
<path d="M84.4404 108.687L82.7842 109.156C82.68 108.88 82.5264 108.612 82.3232 108.352C82.1253 108.086 81.8545 107.867 81.5107 107.695C81.167 107.523 80.7269 107.437 80.1904 107.437C79.4561 107.437 78.8441 107.607 78.3545 107.945C77.8701 108.279 77.6279 108.703 77.6279 109.219C77.6279 109.677 77.7946 110.039 78.1279 110.305C78.4613 110.57 78.9821 110.792 79.6904 110.969L81.4717 111.406C82.5446 111.667 83.3441 112.065 83.8701 112.602C84.3962 113.133 84.6592 113.818 84.6592 114.656C84.6592 115.344 84.4613 115.958 84.0654 116.5C83.6748 117.042 83.1279 117.469 82.4248 117.781C81.7217 118.094 80.904 118.25 79.9717 118.25C78.7477 118.25 77.7347 117.984 76.9326 117.453C76.1305 116.922 75.6227 116.146 75.4092 115.125L77.1592 114.687C77.3258 115.333 77.641 115.818 78.1045 116.141C78.5732 116.464 79.1852 116.625 79.9404 116.625C80.7998 116.625 81.4821 116.443 81.9873 116.078C82.4977 115.708 82.7529 115.266 82.7529 114.75C82.7529 114.333 82.6071 113.984 82.3154 113.703C82.0238 113.417 81.5758 113.203 80.9717 113.062L78.9717 112.594C77.8727 112.333 77.0654 111.93 76.5498 111.383C76.0394 110.831 75.7842 110.141 75.7842 109.312C75.7842 108.635 75.9743 108.036 76.3545 107.516C76.7399 106.995 77.2633 106.586 77.9248 106.289C78.5915 105.992 79.3467 105.844 80.1904 105.844C81.3779 105.844 82.3102 106.104 82.9873 106.625C83.6696 107.146 84.154 107.833 84.4404 108.687Z" fill="black"/>
<path d="M132 90H108C105.239 90 103 92.2386 103 95V127C103 129.761 105.239 132 108 132H132C134.761 132 137 129.761 137 127V95C137 92.2386 134.761 90 132 90Z" fill="white"/>
<path d="M119.387 118.25C118.387 118.25 117.504 117.997 116.738 117.492C115.973 116.982 115.374 116.263 114.941 115.336C114.509 114.404 114.293 113.302 114.293 112.031C114.293 110.771 114.509 109.677 114.941 108.75C115.374 107.823 115.975 107.107 116.746 106.602C117.517 106.096 118.408 105.844 119.418 105.844C120.199 105.844 120.816 105.974 121.27 106.234C121.728 106.49 122.077 106.781 122.316 107.109C122.561 107.432 122.751 107.698 122.887 107.906H123.043V102H124.887V118H123.105V116.156H122.887C122.751 116.375 122.559 116.651 122.309 116.984C122.059 117.312 121.702 117.607 121.238 117.867C120.775 118.122 120.158 118.25 119.387 118.25ZM119.637 116.594C120.376 116.594 121.001 116.401 121.512 116.016C122.022 115.625 122.41 115.086 122.676 114.398C122.941 113.706 123.074 112.906 123.074 112C123.074 111.104 122.944 110.32 122.684 109.648C122.423 108.971 122.038 108.445 121.527 108.07C121.017 107.69 120.387 107.5 119.637 107.5C118.855 107.5 118.204 107.701 117.684 108.102C117.168 108.497 116.78 109.036 116.52 109.719C116.264 110.396 116.137 111.156 116.137 112C116.137 112.854 116.267 113.63 116.527 114.328C116.793 115.021 117.184 115.573 117.699 115.984C118.22 116.391 118.866 116.594 119.637 116.594Z" fill="black"/>
<path d="M172 90H148C145.239 90 143 92.2386 143 95V127C143 129.761 145.239 132 148 132H172C174.761 132 177 129.761 177 127V95C177 92.2386 174.761 90 172 90Z" fill="white"/>
<path d="M163.067 106V107.562H156.599V106H163.067ZM158.536 118V104.344C158.536 103.656 158.698 103.083 159.021 102.625C159.343 102.167 159.763 101.823 160.278 101.594C160.794 101.365 161.338 101.25 161.911 101.25C162.364 101.25 162.734 101.286 163.021 101.359C163.307 101.432 163.521 101.5 163.661 101.562L163.13 103.156C163.036 103.125 162.906 103.086 162.739 103.039C162.578 102.992 162.364 102.969 162.099 102.969C161.489 102.969 161.049 103.122 160.778 103.43C160.513 103.737 160.38 104.187 160.38 104.781V118H158.536Z" fill="black"/>
<path d="M212 90H188C185.239 90 183 92.2386 183 95V127C183 129.761 185.239 132 188 132H212C214.761 132 217 129.761 217 127V95C217 92.2386 214.761 90 212 90Z" fill="white"/>
<path d="M199.828 122.75C198.938 122.75 198.172 122.635 197.531 122.406C196.891 122.182 196.357 121.885 195.93 121.516C195.508 121.151 195.172 120.76 194.922 120.344L196.391 119.313C196.557 119.531 196.768 119.781 197.023 120.062C197.279 120.349 197.628 120.596 198.07 120.805C198.518 121.018 199.104 121.125 199.828 121.125C200.797 121.125 201.596 120.891 202.227 120.422C202.857 119.953 203.172 119.219 203.172 118.219V115.781H203.016C202.88 116 202.688 116.271 202.438 116.594C202.193 116.911 201.839 117.195 201.375 117.445C200.917 117.69 200.297 117.812 199.516 117.812C198.547 117.812 197.677 117.583 196.906 117.125C196.141 116.667 195.534 116 195.086 115.125C194.643 114.25 194.422 113.187 194.422 111.937C194.422 110.708 194.638 109.638 195.07 108.727C195.503 107.81 196.104 107.102 196.875 106.602C197.646 106.096 198.536 105.844 199.547 105.844C200.328 105.844 200.948 105.974 201.406 106.234C201.87 106.49 202.224 106.781 202.469 107.109C202.719 107.432 202.911 107.698 203.047 107.906H203.234V106H205.016V118.344C205.016 119.375 204.781 120.214 204.313 120.859C203.849 121.51 203.224 121.987 202.438 122.289C201.656 122.596 200.786 122.75 199.828 122.75ZM199.766 116.156C200.505 116.156 201.13 115.987 201.641 115.648C202.151 115.31 202.539 114.823 202.805 114.188C203.07 113.552 203.203 112.792 203.203 111.906C203.203 111.042 203.073 110.279 202.813 109.617C202.552 108.956 202.167 108.437 201.656 108.062C201.146 107.687 200.516 107.5 199.766 107.5C198.984 107.5 198.333 107.698 197.813 108.094C197.297 108.49 196.909 109.021 196.648 109.688C196.393 110.354 196.266 111.094 196.266 111.906C196.266 112.74 196.396 113.477 196.656 114.117C196.922 114.753 197.313 115.253 197.828 115.617C198.349 115.977 198.995 116.156 199.766 116.156Z" fill="black"/>
<path d="M252 90H228C225.239 90 223 92.2386 223 95V127C223 129.761 225.239 132 228 132H252C254.761 132 257 129.761 257 127V95C257 92.2386 254.761 90 252 90Z" fill="white"/>
<path d="M237.032 110.781V118H235.188V102H237.032V107.875H237.188C237.47 107.255 237.892 106.763 238.454 106.398C239.022 106.029 239.777 105.844 240.72 105.844C241.537 105.844 242.254 106.008 242.868 106.336C243.483 106.659 243.959 107.156 244.298 107.828C244.642 108.495 244.813 109.344 244.813 110.375V118H242.97V110.5C242.97 109.547 242.722 108.81 242.228 108.289C241.738 107.763 241.058 107.5 240.188 107.5C239.584 107.5 239.043 107.628 238.563 107.883C238.09 108.138 237.715 108.51 237.438 109C237.168 109.49 237.032 110.083 237.032 110.781Z" fill="black"/>
<path d="M292 90H268C265.239 90 263 92.2386 263 95V127C263 129.761 265.239 132 268 132H292C294.761 132 297 129.761 297 127V95C297 92.2386 294.761 90 292 90Z" fill="white"/>
<path d="M279.077 106H280.921V118.875C280.921 119.615 280.793 120.255 280.538 120.797C280.288 121.339 279.908 121.758 279.397 122.055C278.892 122.352 278.254 122.5 277.483 122.5C277.421 122.5 277.358 122.5 277.296 122.5C277.233 122.5 277.171 122.5 277.108 122.5V120.781C277.171 120.781 277.228 120.781 277.28 120.781C277.332 120.781 277.39 120.781 277.452 120.781C278.015 120.781 278.426 120.615 278.687 120.281C278.947 119.953 279.077 119.484 279.077 118.875V106ZM279.983 104C279.624 104 279.314 103.878 279.054 103.633C278.799 103.388 278.671 103.094 278.671 102.75C278.671 102.406 278.799 102.112 279.054 101.867C279.314 101.622 279.624 101.5 279.983 101.5C280.343 101.5 280.65 101.622 280.905 101.867C281.166 102.112 281.296 102.406 281.296 102.75C281.296 103.094 281.166 103.388 280.905 103.633C280.65 103.878 280.343 104 279.983 104Z" fill="black"/>
<path d="M332 90H308C305.239 90 303 92.2386 303 95V127C303 129.761 305.239 132 308 132H332C334.761 132 337 129.761 337 127V95C337 92.2386 334.761 90 332 90Z" fill="white"/>
<path d="M317.423 113.625L317.392 111.344H317.767L323.017 106H325.298L319.704 111.656H319.548L317.423 113.625ZM315.704 118V102H317.548V118H315.704ZM323.329 118L318.642 112.062L319.954 110.781L325.673 118H323.329Z" fill="black"/>
<path d="M372 90H348C345.239 90 343 92.2386 343 95V127C343 129.761 345.239 132 348 132H372C374.761 132 377 129.761 377 127V95C377 92.2386 374.761 90 372 90Z" fill="white"/>
<path d="M360.921 102V118H359.077V102H360.921Z" fill="black"/>
<path d="M41 137H9C6.23858 137 4 139.239 4 142V174C4 176.761 6.23858 179 9 179H41C43.7614 179 46 176.761 46 174V142C46 139.239 43.7614 137 41 137Z" fill="#AEB3BE"/>
<path d="M25 146L32 155H29V160H21V155H18L25 146Z" stroke="black" stroke-width="1.5" stroke-linejoin="round"/>
<path d="M85 137H61C58.2386 137 56 139.239 56 142V174C56 176.761 58.2386 179 61 179H85C87.7614 179 90 176.761 90 174V142C90 139.239 87.7614 137 85 137Z" fill="white"/>
<path d="M68.3926 165V163.594L75.2051 154.844V154.719H68.6113V153H77.5801V154.469L70.9551 163.156V163.281H77.7988V165H68.3926Z" fill="black"/>
<path d="M125 137H101C98.2386 137 96 139.239 96 142V174C96 176.761 98.2386 179 101 179H125C127.761 179 130 176.761 130 174V142C130 139.239 127.761 137 125 137Z" fill="white"/>
<path d="M110.122 153L112.997 157.906L115.872 153H117.997L114.122 159L117.997 165H115.872L112.997 160.344L110.122 165H107.997L111.81 159L107.997 153H110.122Z" fill="black"/>
<path d="M165 137H141C138.239 137 136 139.239 136 142V174C136 176.761 138.239 179 141 179H165C167.761 179 170 176.761 170 174V142C170 139.239 167.761 137 165 137Z" fill="white"/>
<path d="M153.418 165.25C152.293 165.25 151.324 164.984 150.512 164.453C149.699 163.922 149.074 163.19 148.637 162.258C148.199 161.326 147.98 160.26 147.98 159.062C147.98 157.844 148.204 156.768 148.652 155.836C149.105 154.898 149.736 154.167 150.543 153.641C151.355 153.109 152.303 152.844 153.387 152.844C154.23 152.844 154.991 153 155.668 153.312C156.345 153.625 156.9 154.062 157.332 154.625C157.764 155.187 158.033 155.844 158.137 156.594H156.293C156.152 156.047 155.84 155.562 155.355 155.141C154.876 154.714 154.23 154.5 153.418 154.5C152.699 154.5 152.069 154.687 151.527 155.062C150.991 155.432 150.572 155.956 150.27 156.633C149.973 157.305 149.824 158.094 149.824 159C149.824 159.927 149.97 160.734 150.262 161.422C150.559 162.109 150.975 162.643 151.512 163.023C152.053 163.404 152.689 163.594 153.418 163.594C153.897 163.594 154.332 163.51 154.723 163.344C155.113 163.177 155.444 162.938 155.715 162.625C155.986 162.312 156.178 161.937 156.293 161.5H158.137C158.033 162.208 157.775 162.846 157.363 163.414C156.957 163.977 156.418 164.424 155.746 164.758C155.079 165.086 154.303 165.25 153.418 165.25Z" fill="black"/>
<path d="M205 137H181C178.239 137 176 139.239 176 142V174C176 176.761 178.239 179 181 179H205C207.761 179 210 176.761 210 174V142C210 139.239 207.761 137 205 137Z" fill="white"/>
<path d="M198.377 153L193.939 165H192.064L187.627 153H189.627L192.939 162.562H193.064L196.377 153H198.377Z" fill="black"/>
<path d="M245 137H221C218.239 137 216 139.239 216 142V174C216 176.761 218.239 179 221 179H245C247.761 179 250 176.761 250 174V142C250 139.239 247.761 137 245 137Z" fill="white"/>
<path d="M228.105 165V149H229.949V154.906H230.105C230.241 154.698 230.428 154.432 230.668 154.109C230.913 153.781 231.262 153.49 231.715 153.234C232.173 152.974 232.793 152.844 233.574 152.844C234.585 152.844 235.475 153.096 236.246 153.602C237.017 154.107 237.618 154.823 238.051 155.75C238.483 156.677 238.699 157.771 238.699 159.031C238.699 160.302 238.483 161.404 238.051 162.336C237.618 163.263 237.02 163.982 236.254 164.492C235.488 164.997 234.605 165.25 233.605 165.25C232.835 165.25 232.217 165.122 231.754 164.867C231.29 164.607 230.934 164.312 230.684 163.984C230.434 163.651 230.241 163.375 230.105 163.156H229.887V165H228.105ZM229.918 159C229.918 159.906 230.051 160.706 230.316 161.398C230.582 162.086 230.97 162.625 231.48 163.016C231.991 163.401 232.616 163.594 233.355 163.594C234.126 163.594 234.77 163.391 235.285 162.984C235.806 162.573 236.197 162.021 236.457 161.328C236.723 160.63 236.855 159.854 236.855 159C236.855 158.156 236.725 157.396 236.465 156.719C236.21 156.036 235.822 155.497 235.301 155.102C234.785 154.701 234.137 154.5 233.355 154.5C232.605 154.5 231.975 154.69 231.465 155.07C230.954 155.445 230.569 155.971 230.309 156.648C230.048 157.32 229.918 158.104 229.918 159Z" fill="black"/>
<path d="M285 137H261C258.239 137 256 139.239 256 142V174C256 176.761 258.239 179 261 179H285C287.761 179 290 176.761 290 174V142C290 139.239 287.761 137 285 137Z" fill="white"/>
<path d="M270.097 157.781V165H268.253V153H270.034V154.875H270.19C270.472 154.266 270.899 153.776 271.472 153.406C272.045 153.031 272.784 152.844 273.69 152.844C274.503 152.844 275.214 153.01 275.823 153.344C276.433 153.672 276.907 154.172 277.245 154.844C277.584 155.51 277.753 156.354 277.753 157.375V165H275.909V157.5C275.909 156.557 275.664 155.823 275.175 155.297C274.685 154.766 274.013 154.5 273.159 154.5C272.571 154.5 272.045 154.628 271.581 154.883C271.123 155.138 270.761 155.51 270.495 156C270.229 156.49 270.097 157.083 270.097 157.781Z" fill="black"/>
<path d="M325 137H301C298.239 137 296 139.239 296 142V174C296 176.761 298.239 179 301 179H325C327.761 179 330 176.761 330 174V142C330 139.239 327.761 137 325 137Z" fill="white"/>
<path d="M305.127 165V153H306.908V154.875H307.064C307.314 154.234 307.718 153.737 308.275 153.383C308.833 153.023 309.502 152.844 310.283 152.844C311.075 152.844 311.734 153.023 312.26 153.383C312.791 153.737 313.205 154.234 313.502 154.875H313.627C313.934 154.255 314.395 153.763 315.01 153.398C315.624 153.029 316.361 152.844 317.221 152.844C318.294 152.844 319.171 153.18 319.854 153.852C320.536 154.518 320.877 155.557 320.877 156.969V165H319.033V156.969C319.033 156.083 318.791 155.451 318.307 155.07C317.822 154.69 317.252 154.5 316.596 154.5C315.752 154.5 315.098 154.755 314.635 155.266C314.171 155.771 313.939 156.411 313.939 157.187V165H312.064V156.781C312.064 156.099 311.843 155.549 311.4 155.133C310.958 154.711 310.387 154.5 309.689 154.5C309.21 154.5 308.762 154.628 308.346 154.883C307.934 155.138 307.601 155.492 307.346 155.945C307.096 156.393 306.971 156.911 306.971 157.5V165H305.127Z" fill="black"/>
<path d="M389 137H345C342.239 137 340 139.239 340 142V174C340 176.761 342.239 179 345 179H389C391.761 179 394 176.761 394 174V142C394 139.239 391.761 137 389 137Z" fill="#AEB3BE"/>
<path d="M357 158L363 152H377V164H363L357 158Z" stroke="black" stroke-width="1.4" stroke-linejoin="round"/>
<path d="M368 156L373 161" stroke="black" stroke-width="1.4" stroke-linecap="round"/>
<path d="M373 156L368 161" stroke="black" stroke-width="1.4" stroke-linecap="round"/>
<path d="M41 184H9C6.23858 184 4 186.239 4 189V221C4 223.761 6.23858 226 9 226H41C43.7614 226 46 223.761 46 221V189C46 186.239 43.7614 184 41 184Z" fill="#AEB3BE"/>
<path d="M17.1618 199.091V210H15.8407V200.476H15.7768L13.1135 202.244V200.902L15.8407 199.091H17.1618ZM20.2992 210V209.041L23.9 205.099C24.3226 204.638 24.6706 204.237 24.9441 203.896C25.2175 203.551 25.4199 203.228 25.5513 202.926C25.6863 202.621 25.7537 202.301 25.7537 201.967C25.7537 201.584 25.6614 201.252 25.4767 200.971C25.2956 200.691 25.0471 200.474 24.731 200.321C24.415 200.169 24.0598 200.092 23.6657 200.092C23.2466 200.092 22.8809 200.179 22.5684 200.353C22.2594 200.524 22.0197 200.763 21.8493 201.072C21.6824 201.381 21.5989 201.744 21.5989 202.159H20.3418C20.3418 201.52 20.4892 200.959 20.7839 200.476C21.0787 199.993 21.4799 199.616 21.9877 199.347C22.4991 199.077 23.0726 198.942 23.7083 198.942C24.3475 198.942 24.9139 199.077 25.4075 199.347C25.9011 199.616 26.2882 199.98 26.5687 200.439C26.8493 200.897 26.9895 201.406 26.9895 201.967C26.9895 202.369 26.9167 202.761 26.7711 203.145C26.6291 203.525 26.3805 203.949 26.0254 204.418C25.6738 204.883 25.1855 205.451 24.5605 206.122L22.1103 208.743V208.828H27.1813V210H20.2992ZM33.0673 210.149C32.3642 210.149 31.7374 210.028 31.187 209.787C30.6401 209.545 30.2051 209.21 29.8819 208.78C29.5623 208.347 29.3883 207.844 29.3599 207.273H30.7022C30.7306 207.624 30.8514 207.928 31.0645 208.184C31.2775 208.436 31.5563 208.631 31.9007 208.77C32.2452 208.908 32.627 208.977 33.046 208.977C33.5147 208.977 33.9302 208.896 34.2924 208.732C34.6547 208.569 34.9387 208.342 35.1447 208.05C35.3507 207.759 35.4537 207.422 35.4537 207.038C35.4537 206.637 35.3542 206.284 35.1554 205.978C34.9565 205.669 34.6653 205.428 34.2818 205.254C33.8983 205.08 33.4295 204.993 32.8755 204.993H32.002V203.821H32.8755C33.3088 203.821 33.6887 203.743 34.0154 203.587C34.3457 203.43 34.6032 203.21 34.7878 202.926C34.976 202.642 35.0701 202.308 35.0701 201.925C35.0701 201.555 34.9885 201.234 34.8251 200.961C34.6618 200.687 34.4309 200.474 34.1326 200.321C33.8379 200.169 33.4899 200.092 33.0886 200.092C32.7122 200.092 32.3571 200.162 32.0233 200.3C31.693 200.435 31.4231 200.632 31.2136 200.891C31.0041 201.147 30.8904 201.456 30.8727 201.818H29.5943C29.6156 201.246 29.7878 200.746 30.111 200.316C30.4341 199.883 30.8567 199.545 31.3787 199.304C31.9043 199.062 32.4814 198.942 33.1099 198.942C33.7846 198.942 34.3635 199.078 34.8464 199.352C35.3294 199.622 35.7005 199.979 35.9597 200.423C36.2189 200.866 36.3485 201.346 36.3485 201.861C36.3485 202.475 36.187 202.999 35.8638 203.432C35.5442 203.865 35.1092 204.165 34.5588 204.332V204.418C35.2477 204.531 35.7857 204.824 36.1728 205.297C36.5598 205.765 36.7534 206.346 36.7534 207.038C36.7534 207.631 36.5918 208.164 36.2686 208.636C35.949 209.105 35.5123 209.474 34.9583 209.744C34.4043 210.014 33.774 210.149 33.0673 210.149Z" fill="black"/>
<path d="M83 184H57C54.2386 184 52 186.239 52 189V221C52 223.761 54.2386 226 57 226H83C85.7614 226 88 223.761 88 221V189C88 186.239 85.7614 184 83 184Z" fill="#AEB3BE"/>
<path d="M70 212C73.866 212 77 208.866 77 205C77 201.134 73.866 198 70 198C66.134 198 63 201.134 63 205C63 208.866 66.134 212 70 212Z" stroke="black" stroke-width="1.2"/>
<path d="M70 212C71.933 212 73.5 208.866 73.5 205C73.5 201.134 71.933 198 70 198C68.067 198 66.5 201.134 66.5 205C66.5 208.866 68.067 212 70 212Z" stroke="black" stroke-width="0.8"/>
<path d="M63 205H77" stroke="black" stroke-width="0.8"/>
<path d="M257 184H99C96.2386 184 94 186.239 94 189V221C94 223.761 96.2386 226 99 226H257C259.761 226 262 223.761 262 221V189C262 186.239 259.761 184 257 184Z" fill="white"/>
<path d="M163.676 203.651L162.547 203.97C162.476 203.782 162.371 203.599 162.233 203.422C162.098 203.24 161.913 203.091 161.679 202.974C161.445 202.857 161.145 202.798 160.779 202.798C160.278 202.798 159.861 202.914 159.527 203.145C159.197 203.372 159.032 203.661 159.032 204.013C159.032 204.325 159.145 204.572 159.373 204.753C159.6 204.934 159.955 205.085 160.438 205.206L161.652 205.504C162.384 205.682 162.929 205.953 163.288 206.319C163.646 206.681 163.826 207.148 163.826 207.72C163.826 208.189 163.691 208.608 163.421 208.977C163.154 209.347 162.782 209.638 162.302 209.851C161.823 210.064 161.265 210.17 160.63 210.17C159.795 210.17 159.104 209.989 158.558 209.627C158.011 209.265 157.664 208.736 157.519 208.04L158.712 207.741C158.826 208.182 159.04 208.512 159.357 208.732C159.676 208.952 160.093 209.062 160.608 209.062C161.194 209.062 161.659 208.938 162.004 208.69C162.352 208.437 162.526 208.136 162.526 207.784C162.526 207.5 162.426 207.262 162.228 207.07C162.029 206.875 161.723 206.729 161.311 206.634L159.948 206.314C159.199 206.136 158.648 205.861 158.297 205.488C157.949 205.112 157.775 204.641 157.775 204.077C157.775 203.615 157.904 203.207 158.163 202.852C158.426 202.496 158.783 202.218 159.234 202.015C159.689 201.813 160.203 201.712 160.779 201.712C161.588 201.712 162.224 201.889 162.686 202.244C163.151 202.599 163.481 203.068 163.676 203.651ZM165.718 213.068V201.818H166.932V203.118H167.082C167.174 202.976 167.302 202.795 167.465 202.575C167.632 202.351 167.87 202.152 168.179 201.978C168.491 201.8 168.914 201.712 169.447 201.712C170.136 201.712 170.743 201.884 171.268 202.228C171.794 202.573 172.204 203.061 172.499 203.693C172.794 204.325 172.941 205.071 172.941 205.93C172.941 206.797 172.794 207.548 172.499 208.184C172.204 208.816 171.796 209.306 171.274 209.654C170.752 209.998 170.15 210.17 169.468 210.17C168.942 210.17 168.522 210.083 168.206 209.909C167.889 209.732 167.646 209.531 167.476 209.308C167.305 209.08 167.174 208.892 167.082 208.743H166.975V213.068H165.718ZM166.954 205.909C166.954 206.527 167.044 207.072 167.225 207.544C167.407 208.013 167.671 208.381 168.019 208.647C168.367 208.91 168.793 209.041 169.297 209.041C169.823 209.041 170.262 208.903 170.613 208.626C170.968 208.345 171.235 207.969 171.412 207.496C171.593 207.021 171.684 206.491 171.684 205.909C171.684 205.334 171.595 204.815 171.418 204.354C171.244 203.888 170.979 203.521 170.624 203.251C170.272 202.978 169.83 202.841 169.297 202.841C168.786 202.841 168.356 202.971 168.008 203.23C167.66 203.485 167.398 203.844 167.22 204.306C167.043 204.764 166.954 205.298 166.954 205.909ZM177.266 210.192C176.748 210.192 176.277 210.094 175.855 209.899C175.432 209.7 175.097 209.414 174.848 209.041C174.599 208.665 174.475 208.21 174.475 207.678C174.475 207.209 174.567 206.829 174.752 206.538C174.937 206.243 175.184 206.012 175.492 205.845C175.801 205.678 176.142 205.554 176.515 205.472C176.892 205.387 177.27 205.32 177.65 205.27C178.147 205.206 178.55 205.158 178.859 205.126C179.171 205.091 179.399 205.032 179.541 204.95C179.686 204.869 179.759 204.727 179.759 204.524V204.482C179.759 203.956 179.615 203.548 179.328 203.256C179.044 202.965 178.612 202.82 178.033 202.82C177.433 202.82 176.963 202.951 176.622 203.214C176.281 203.477 176.041 203.757 175.903 204.055L174.709 203.629C174.922 203.132 175.207 202.745 175.562 202.468C175.92 202.187 176.311 201.992 176.734 201.882C177.16 201.768 177.579 201.712 177.991 201.712C178.253 201.712 178.555 201.744 178.896 201.808C179.241 201.868 179.573 201.994 179.892 202.186C180.215 202.377 180.484 202.667 180.697 203.054C180.91 203.441 181.016 203.96 181.016 204.609V210H179.759V208.892H179.695C179.61 209.07 179.468 209.26 179.269 209.462C179.07 209.664 178.806 209.837 178.475 209.979C178.145 210.121 177.742 210.192 177.266 210.192ZM177.458 209.062C177.955 209.062 178.374 208.965 178.715 208.77C179.06 208.574 179.319 208.322 179.493 208.013C179.67 207.704 179.759 207.379 179.759 207.038V205.888C179.706 205.952 179.589 206.01 179.408 206.064C179.23 206.113 179.024 206.158 178.79 206.197C178.559 206.232 178.333 206.264 178.113 206.293C177.897 206.317 177.721 206.339 177.586 206.357C177.259 206.399 176.954 206.468 176.67 206.564C176.389 206.657 176.162 206.797 175.988 206.985C175.817 207.17 175.732 207.422 175.732 207.741C175.732 208.178 175.894 208.509 176.217 208.732C176.544 208.952 176.957 209.062 177.458 209.062ZM186.635 210.17C185.868 210.17 185.207 209.989 184.653 209.627C184.099 209.265 183.673 208.766 183.375 208.13C183.076 207.495 182.927 206.768 182.927 205.952C182.927 205.121 183.08 204.387 183.385 203.752C183.694 203.113 184.124 202.614 184.674 202.255C185.228 201.893 185.875 201.712 186.613 201.712C187.189 201.712 187.707 201.818 188.169 202.031C188.63 202.244 189.009 202.543 189.303 202.926C189.598 203.31 189.781 203.757 189.852 204.268H188.595C188.499 203.896 188.286 203.565 187.956 203.278C187.629 202.987 187.189 202.841 186.635 202.841C186.145 202.841 185.715 202.969 185.346 203.224C184.98 203.477 184.694 203.833 184.488 204.295C184.286 204.753 184.184 205.291 184.184 205.909C184.184 206.541 184.284 207.092 184.483 207.56C184.685 208.029 184.969 208.393 185.335 208.652C185.704 208.912 186.137 209.041 186.635 209.041C186.961 209.041 187.258 208.984 187.524 208.871C187.79 208.757 188.016 208.594 188.201 208.381C188.385 208.168 188.517 207.912 188.595 207.614H189.852C189.781 208.097 189.605 208.532 189.325 208.919C189.048 209.302 188.68 209.608 188.222 209.835C187.767 210.059 187.238 210.17 186.635 210.17ZM195.12 210.17C194.332 210.17 193.652 209.996 193.08 209.648C192.512 209.297 192.073 208.807 191.764 208.178C191.459 207.546 191.306 206.811 191.306 205.973C191.306 205.135 191.459 204.396 191.764 203.757C192.073 203.114 192.503 202.614 193.053 202.255C193.607 201.893 194.254 201.712 194.992 201.712C195.418 201.712 195.839 201.783 196.255 201.925C196.67 202.067 197.048 202.298 197.389 202.617C197.73 202.933 198.002 203.352 198.204 203.874C198.407 204.396 198.508 205.039 198.508 205.803V206.335H192.201V205.249H197.229C197.229 204.787 197.137 204.375 196.952 204.013C196.771 203.651 196.512 203.365 196.175 203.155C195.841 202.946 195.447 202.841 194.992 202.841C194.491 202.841 194.058 202.965 193.692 203.214C193.33 203.459 193.051 203.778 192.856 204.173C192.661 204.567 192.563 204.989 192.563 205.44V206.165C192.563 206.783 192.67 207.306 192.883 207.736C193.099 208.162 193.4 208.487 193.783 208.711C194.167 208.931 194.612 209.041 195.12 209.041C195.45 209.041 195.749 208.995 196.015 208.903C196.285 208.807 196.517 208.665 196.713 208.477C196.908 208.285 197.059 208.047 197.165 207.763L198.38 208.104C198.252 208.516 198.037 208.878 197.735 209.19C197.434 209.499 197.061 209.741 196.617 209.915C196.173 210.085 195.674 210.17 195.12 210.17Z" fill="#8A8A8E"/>
<path d="M299 184H273C270.239 184 268 186.239 268 189V221C268 223.761 270.239 226 273 226H299C301.761 226 304 223.761 304 221V189C304 186.239 301.761 184 299 184Z" fill="white"/>
<path d="M286.55 214.835C285.101 214.835 283.82 214.636 282.707 214.239C281.595 213.846 280.659 213.266 279.902 212.499C279.144 211.732 278.571 210.792 278.183 209.679C277.795 208.566 277.601 207.293 277.601 205.858C277.601 204.471 277.797 203.23 278.19 202.136C278.588 201.043 279.163 200.115 279.916 199.352C280.674 198.585 281.592 198 282.672 197.598C283.756 197.196 284.982 196.994 286.351 196.994C287.681 196.994 288.846 197.212 289.845 197.648C290.849 198.079 291.687 198.663 292.359 199.402C293.036 200.136 293.543 200.962 293.879 201.881C294.22 202.799 294.39 203.746 294.39 204.722C294.39 205.408 294.357 206.104 294.291 206.81C294.225 207.515 294.085 208.164 293.872 208.756C293.659 209.343 293.33 209.816 292.885 210.176C292.444 210.536 291.848 210.716 291.095 210.716C290.764 210.716 290.399 210.664 290.001 210.56C289.604 210.455 289.251 210.283 288.943 210.041C288.635 209.8 288.453 209.475 288.396 209.068H288.311C288.197 209.343 288.022 209.603 287.785 209.849C287.553 210.096 287.248 210.292 286.869 210.439C286.495 210.586 286.038 210.65 285.498 210.631C284.883 210.607 284.341 210.47 283.872 210.219C283.403 209.963 283.01 209.617 282.693 209.182C282.381 208.741 282.144 208.232 281.983 207.655C281.827 207.072 281.748 206.445 281.748 205.773C281.748 205.134 281.843 204.549 282.032 204.018C282.222 203.488 282.485 203.024 282.821 202.626C283.162 202.229 283.559 201.911 284.014 201.675C284.473 201.433 284.968 201.284 285.498 201.227C285.972 201.18 286.403 201.201 286.791 201.291C287.179 201.376 287.499 201.507 287.75 201.682C288.001 201.852 288.159 202.042 288.226 202.25H288.311V201.455H289.817V207.875C289.817 208.273 289.928 208.623 290.15 208.926C290.373 209.229 290.697 209.381 291.123 209.381C291.606 209.381 291.976 209.215 292.231 208.884C292.492 208.552 292.669 208.041 292.764 207.349C292.863 206.658 292.913 205.773 292.913 204.693C292.913 204.059 292.826 203.434 292.65 202.818C292.48 202.198 292.22 201.618 291.869 201.078C291.523 200.538 291.086 200.062 290.555 199.651C290.025 199.239 289.402 198.917 288.687 198.685C287.977 198.448 287.17 198.33 286.265 198.33C285.153 198.33 284.156 198.502 283.275 198.848C282.399 199.189 281.654 199.688 281.038 200.347C280.427 201 279.961 201.795 279.639 202.733C279.322 203.666 279.163 204.726 279.163 205.915C279.163 207.122 279.322 208.195 279.639 209.132C279.961 210.07 280.434 210.86 281.059 211.504C281.689 212.148 282.468 212.636 283.396 212.967C284.324 213.304 285.394 213.472 286.606 213.472C287.127 213.472 287.641 213.422 288.148 213.322C288.654 213.223 289.102 213.114 289.49 212.996C289.878 212.877 290.157 212.79 290.328 212.733L290.726 214.04C290.432 214.163 290.049 214.286 289.575 214.409C289.106 214.532 288.604 214.634 288.069 214.714C287.539 214.795 287.032 214.835 286.55 214.835ZM285.726 209.182C286.36 209.182 286.874 209.054 287.267 208.798C287.66 208.543 287.946 208.157 288.126 207.641C288.306 207.125 288.396 206.473 288.396 205.688C288.396 204.892 288.297 204.272 288.098 203.827C287.899 203.382 287.605 203.069 287.217 202.889C286.829 202.709 286.351 202.619 285.782 202.619C285.243 202.619 284.781 202.761 284.398 203.045C284.019 203.325 283.728 203.699 283.524 204.168C283.325 204.632 283.226 205.138 283.226 205.688C283.226 206.294 283.306 206.864 283.467 207.399C283.628 207.929 283.891 208.36 284.256 208.692C284.62 209.018 285.11 209.182 285.726 209.182Z" fill="black"/>
<path d="M389 184H315C312.239 184 310 186.239 310 189V221C310 223.761 312.239 226 315 226H389C391.761 226 394 223.761 394 221V189C394 186.239 391.761 184 389 184Z" fill="#1B3C2A"/>
<path d="M338.069 210H334.703V199.091H338.218C339.277 199.091 340.182 199.309 340.935 199.746C341.688 200.179 342.265 200.803 342.666 201.616C343.068 202.425 343.268 203.395 343.268 204.524C343.268 205.661 343.066 206.639 342.661 207.459C342.256 208.276 341.667 208.904 340.892 209.345C340.118 209.782 339.177 210 338.069 210ZM336.024 208.828H337.984C338.886 208.828 339.634 208.654 340.227 208.306C340.82 207.958 341.262 207.463 341.553 206.82C341.844 206.177 341.99 205.412 341.99 204.524C341.99 203.643 341.846 202.885 341.558 202.25C341.271 201.61 340.841 201.12 340.269 200.779C339.698 200.435 338.986 200.263 338.133 200.263H336.024V208.828ZM348.638 210.17C347.899 210.17 347.251 209.995 346.693 209.643C346.139 209.292 345.706 208.8 345.394 208.168C345.085 207.536 344.93 206.797 344.93 205.952C344.93 205.099 345.085 204.355 345.394 203.72C345.706 203.084 346.139 202.591 346.693 202.239C347.251 201.887 347.899 201.712 348.638 201.712C349.376 201.712 350.022 201.887 350.576 202.239C351.134 202.591 351.567 203.084 351.876 203.72C352.189 204.355 352.345 205.099 352.345 205.952C352.345 206.797 352.189 207.536 351.876 208.168C351.567 208.8 351.134 209.292 350.576 209.643C350.022 209.995 349.376 210.17 348.638 210.17ZM348.638 209.041C349.199 209.041 349.66 208.897 350.022 208.61C350.385 208.322 350.653 207.944 350.827 207.475C351.001 207.006 351.088 206.499 351.088 205.952C351.088 205.405 351.001 204.895 350.827 204.423C350.653 203.951 350.385 203.569 350.022 203.278C349.66 202.987 349.199 202.841 348.638 202.841C348.076 202.841 347.615 202.987 347.253 203.278C346.89 203.569 346.622 203.951 346.448 204.423C346.274 204.895 346.187 205.405 346.187 205.952C346.187 206.499 346.274 207.006 346.448 207.475C346.622 207.944 346.89 208.322 347.253 208.61C347.615 208.897 348.076 209.041 348.638 209.041ZM355.521 205.078V210H354.264V201.818H355.478V203.097H355.585C355.777 202.681 356.068 202.347 356.458 202.095C356.849 201.839 357.353 201.712 357.971 201.712C358.525 201.712 359.01 201.825 359.425 202.053C359.841 202.276 360.164 202.617 360.395 203.075C360.626 203.53 360.741 204.105 360.741 204.801V210H359.484V204.886C359.484 204.244 359.317 203.743 358.983 203.384C358.65 203.022 358.191 202.841 357.609 202.841C357.208 202.841 356.849 202.928 356.533 203.102C356.221 203.276 355.974 203.53 355.793 203.864C355.612 204.197 355.521 204.602 355.521 205.078ZM366.469 210.17C365.68 210.17 365 209.996 364.429 209.648C363.86 209.297 363.422 208.807 363.113 208.178C362.807 207.546 362.655 206.811 362.655 205.973C362.655 205.135 362.807 204.396 363.113 203.757C363.422 203.114 363.851 202.614 364.402 202.255C364.956 201.893 365.602 201.712 366.341 201.712C366.767 201.712 367.188 201.783 367.603 201.925C368.019 202.067 368.397 202.298 368.738 202.617C369.079 202.933 369.35 203.352 369.553 203.874C369.755 204.396 369.856 205.039 369.856 205.803V206.335H363.55V205.249H368.578C368.578 204.787 368.486 204.375 368.301 204.013C368.12 203.651 367.861 203.365 367.523 203.155C367.19 202.946 366.795 202.841 366.341 202.841C365.84 202.841 365.407 202.965 365.041 203.214C364.679 203.459 364.4 203.778 364.205 204.173C364.009 204.567 363.912 204.989 363.912 205.44V206.165C363.912 206.783 364.018 207.306 364.231 207.736C364.448 208.162 364.748 208.487 365.132 208.711C365.515 208.931 365.961 209.041 366.469 209.041C366.799 209.041 367.097 208.995 367.364 208.903C367.633 208.807 367.866 208.665 368.061 208.477C368.257 208.285 368.408 208.047 368.514 207.763L369.729 208.104C369.601 208.516 369.386 208.878 369.084 209.19C368.782 209.499 368.409 209.741 367.965 209.915C367.522 210.085 367.023 210.17 366.469 210.17Z" fill="white"/>
</svg>
