<svg width="363" height="50" viewBox="0 0 363 50" fill="none" xmlns="http://www.w3.org/2000/svg">
<path d="M347.263 0.5H14.8206C6.91156 0.5 0.5 6.30464 0.5 13.465V35.6908C0.5 42.8512 6.91156 48.6558 14.8206 48.6558H347.263C355.172 48.6558 361.584 42.8512 361.584 35.6908V13.465C361.584 6.30464 355.172 0.5 347.263 0.5Z" fill="white" stroke="#D4D1C8"/>
<path d="M28.8664 39.9864C37.9053 39.9864 45.2328 33.3525 45.2328 25.1692C45.2328 16.9859 37.9053 10.3521 28.8664 10.3521C19.8275 10.3521 12.5 16.9859 12.5 25.1692C12.5 33.3525 19.8275 39.9864 28.8664 39.9864Z" fill="#E8EDDA"/>
<path d="M28.8664 31.6515C32.8209 31.6515 36.0267 28.7492 36.0267 25.169C36.0267 21.5888 32.8209 18.6865 28.8664 18.6865C24.9118 18.6865 21.7061 21.5888 21.7061 25.169C21.7061 28.7492 24.9118 31.6515 28.8664 31.6515Z" stroke="#5A7A3A" stroke-width="1.3"/>
<path d="M28.8662 21.4648V25.1691L31.9349 27.0213" stroke="#5A7A3A" stroke-width="1.3" stroke-linecap="round" stroke-linejoin="round"/>
<path d="M55.7139 22.5L58.2899 12.7H61.5099L64.0859 22.5H62.1819L61.6499 20.344H58.1499L57.6179 22.5H55.7139ZM58.5839 18.636H61.2159L60.0259 13.862H59.7739L58.5839 18.636ZM68.577 22.696C67.905 22.696 67.2936 22.556 66.743 22.276C66.2016 21.996 65.7723 21.59 65.455 21.058C65.1376 20.526 64.979 19.882 64.979 19.126V18.93C64.979 18.174 65.1376 17.53 65.455 16.998C65.7723 16.466 66.2016 16.06 66.743 15.78C67.2936 15.5 67.905 15.36 68.577 15.36C69.2396 15.36 69.809 15.4767 70.285 15.71C70.761 15.9433 71.1436 16.2653 71.433 16.676C71.7316 17.0773 71.9276 17.5347 72.021 18.048L70.313 18.412C70.2756 18.132 70.1916 17.88 70.061 17.656C69.9303 17.432 69.7436 17.2547 69.501 17.124C69.2676 16.9933 68.9736 16.928 68.619 16.928C68.2643 16.928 67.9423 17.0073 67.653 17.166C67.373 17.3153 67.149 17.544 66.981 17.852C66.8223 18.1507 66.743 18.5193 66.743 18.958V19.098C66.743 19.5367 66.8223 19.91 66.981 20.218C67.149 20.5167 67.373 20.7453 67.653 20.904C67.9423 21.0533 68.2643 21.128 68.619 21.128C69.151 21.128 69.5523 20.9927 69.823 20.722C70.103 20.442 70.2803 20.078 70.355 19.63L72.063 20.036C71.9416 20.5307 71.7316 20.9833 71.433 21.394C71.1436 21.7953 70.761 22.1127 70.285 22.346C69.809 22.5793 69.2396 22.696 68.577 22.696ZM75.9457 22.5C75.4883 22.5 75.115 22.36 74.8257 22.08C74.5457 21.7907 74.4057 21.408 74.4057 20.932V17.012H72.6697V15.556H74.4057V13.4H76.1697V15.556H78.0737V17.012H76.1697V20.624C76.1697 20.904 76.3003 21.044 76.5617 21.044H77.9057V22.5H75.9457ZM79.6704 22.5V15.556H81.4344V22.5H79.6704ZM80.5524 14.744C80.2351 14.744 79.9644 14.6413 79.7404 14.436C79.5258 14.2307 79.4184 13.96 79.4184 13.624C79.4184 13.288 79.5258 13.0173 79.7404 12.812C79.9644 12.6067 80.2351 12.504 80.5524 12.504C80.8791 12.504 81.1498 12.6067 81.3644 12.812C81.5791 13.0173 81.6864 13.288 81.6864 13.624C81.6864 13.96 81.5791 14.2307 81.3644 14.436C81.1498 14.6413 80.8791 14.744 80.5524 14.744ZM84.8452 22.5L82.6332 15.556H84.5092L86.1192 21.212H86.3712L87.9812 15.556H89.8572L87.6452 22.5H84.8452ZM91.0591 22.5V15.556H92.8231V22.5H91.0591ZM91.9411 14.744C91.6238 14.744 91.3531 14.6413 91.1291 14.436C90.9144 14.2307 90.8071 13.96 90.8071 13.624C90.8071 13.288 90.9144 13.0173 91.1291 12.812C91.3531 12.6067 91.6238 12.504 91.9411 12.504C92.2678 12.504 92.5384 12.6067 92.7531 12.812C92.9678 13.0173 93.0751 13.288 93.0751 13.624C93.0751 13.96 92.9678 14.2307 92.7531 14.436C92.5384 14.6413 92.2678 14.744 91.9411 14.744ZM97.4379 22.5C96.9805 22.5 96.6072 22.36 96.3179 22.08C96.0379 21.7907 95.8979 21.408 95.8979 20.932V17.012H94.1619V15.556H95.8979V13.4H97.6619V15.556H99.5659V17.012H97.6619V20.624C97.6619 20.904 97.7925 21.044 98.0539 21.044H99.3979V22.5H97.4379ZM101.919 25.3V23.76H105.699C105.96 23.76 106.091 23.62 106.091 23.34V21.59H105.839C105.764 21.7487 105.647 21.9073 105.489 22.066C105.33 22.2247 105.115 22.3553 104.845 22.458C104.574 22.5607 104.229 22.612 103.809 22.612C103.267 22.612 102.791 22.4907 102.381 22.248C101.979 21.996 101.667 21.6507 101.443 21.212C101.219 20.7733 101.107 20.2693 101.107 19.7V15.556H102.871V19.56C102.871 20.0827 102.997 20.4747 103.249 20.736C103.51 20.9973 103.879 21.128 104.355 21.128C104.896 21.128 105.316 20.9507 105.615 20.596C105.913 20.232 106.063 19.728 106.063 19.084V15.556H107.827V23.732C107.827 24.208 107.687 24.586 107.407 24.866C107.127 25.1553 106.753 25.3 106.287 25.3H101.919ZM113.288 22.5V12.7H115.136V20.82H119.616V22.5H113.288ZM124.096 22.696C123.405 22.696 122.794 22.5513 122.262 22.262C121.739 21.9633 121.329 21.548 121.03 21.016C120.741 20.4747 120.596 19.84 120.596 19.112V18.944C120.596 18.216 120.741 17.586 121.03 17.054C121.319 16.5127 121.725 16.0973 122.248 15.808C122.771 15.5093 123.377 15.36 124.068 15.36C124.749 15.36 125.342 15.514 125.846 15.822C126.35 16.1207 126.742 16.5407 127.022 17.082C127.302 17.614 127.442 18.2347 127.442 18.944V19.546H122.388C122.407 20.022 122.584 20.4093 122.92 20.708C123.256 21.0067 123.667 21.156 124.152 21.156C124.647 21.156 125.011 21.0487 125.244 20.834C125.477 20.6193 125.655 20.3813 125.776 20.12L127.218 20.876C127.087 21.1187 126.896 21.3847 126.644 21.674C126.401 21.954 126.075 22.1967 125.664 22.402C125.253 22.598 124.731 22.696 124.096 22.696ZM122.402 18.23H125.65C125.613 17.8287 125.449 17.5067 125.16 17.264C124.88 17.0213 124.511 16.9 124.054 16.9C123.578 16.9 123.2 17.0213 122.92 17.264C122.64 17.5067 122.467 17.8287 122.402 18.23ZM130.263 22.5L128.051 15.556H129.927L131.537 21.212H131.789L133.399 15.556H135.275L133.063 22.5H130.263ZM139.436 22.696C138.745 22.696 138.134 22.5513 137.602 22.262C137.079 21.9633 136.669 21.548 136.37 21.016C136.081 20.4747 135.936 19.84 135.936 19.112V18.944C135.936 18.216 136.081 17.586 136.37 17.054C136.659 16.5127 137.065 16.0973 137.588 15.808C138.111 15.5093 138.717 15.36 139.408 15.36C140.089 15.36 140.682 15.514 141.186 15.822C141.69 16.1207 142.082 16.5407 142.362 17.082C142.642 17.614 142.782 18.2347 142.782 18.944V19.546H137.728C137.747 20.022 137.924 20.4093 138.26 20.708C138.596 21.0067 139.007 21.156 139.492 21.156C139.987 21.156 140.351 21.0487 140.584 20.834C140.817 20.6193 140.995 20.3813 141.116 20.12L142.558 20.876C142.427 21.1187 142.236 21.3847 141.984 21.674C141.741 21.954 141.415 22.1967 141.004 22.402C140.593 22.598 140.071 22.696 139.436 22.696ZM137.742 18.23H140.99C140.953 17.8287 140.789 17.5067 140.5 17.264C140.22 17.0213 139.851 16.9 139.394 16.9C138.918 16.9 138.54 17.0213 138.26 17.264C137.98 17.5067 137.807 17.8287 137.742 18.23ZM144.352 22.5V12.7H146.116V22.5H144.352Z" fill="#1B3C2A"/>
<path d="M59.2659 36.3249C58.7459 36.3249 58.2859 36.2689 57.8859 36.1569C57.4859 36.0449 57.1499 35.8809 56.8779 35.6649C56.6139 35.4409 56.4179 35.1689 56.2899 34.8489C56.1619 34.5289 56.1099 34.1569 56.1339 33.7329L57.1179 33.5169C57.0859 33.9329 57.1539 34.2809 57.3219 34.5609C57.4899 34.8409 57.7459 35.0529 58.0899 35.1969C58.4339 35.3329 58.8419 35.4009 59.3139 35.4009C59.7619 35.4009 60.1419 35.3449 60.4539 35.2329C60.7659 35.1209 60.9979 34.9649 61.1499 34.7649C61.3099 34.5649 61.3899 34.3369 61.3899 34.0809C61.3899 33.7929 61.2979 33.5649 61.1139 33.3969C60.9299 33.2289 60.6819 33.1009 60.3699 33.0129C60.0659 32.9169 59.7259 32.8289 59.3499 32.7489C58.9819 32.6689 58.6139 32.5769 58.2459 32.4729C57.8779 32.3689 57.5459 32.2369 57.2499 32.0769C56.9539 31.9089 56.7179 31.6929 56.5419 31.4289C56.3659 31.1569 56.2779 30.8129 56.2779 30.3969C56.2779 29.9249 56.3939 29.5169 56.6259 29.1729C56.8659 28.8289 57.2019 28.5649 57.6339 28.3809C58.0659 28.1889 58.5699 28.0929 59.1459 28.0929C59.7299 28.0929 60.2459 28.1849 60.6939 28.3689C61.1419 28.5529 61.4979 28.8249 61.7619 29.1849C62.0339 29.5369 62.1779 29.9729 62.1939 30.4929L61.1619 30.7449C61.1619 30.4569 61.1099 30.2049 61.0059 29.9889C60.9099 29.7649 60.7739 29.5849 60.5979 29.4489C60.4219 29.3049 60.2099 29.1969 59.9619 29.1249C59.7139 29.0449 59.4379 29.0049 59.1339 29.0049C58.7819 29.0049 58.4699 29.0609 58.1979 29.1729C57.9259 29.2849 57.7139 29.4369 57.5619 29.6289C57.4099 29.8209 57.3339 30.0489 57.3339 30.3129C57.3339 30.6249 57.4419 30.8729 57.6579 31.0569C57.8739 31.2329 58.1579 31.3729 58.5099 31.4769C58.8699 31.5809 59.2499 31.6769 59.6499 31.7649C59.9939 31.8369 60.3299 31.9249 60.6579 32.0289C60.9939 32.1249 61.2979 32.2569 61.5699 32.4249C61.8419 32.5849 62.0579 32.7969 62.2179 33.0609C62.3779 33.3249 62.4579 33.6609 62.4579 34.0689C62.4579 34.5249 62.3379 34.9209 62.0979 35.2569C61.8659 35.5929 61.5139 35.8569 61.0419 36.0489C60.5699 36.2329 59.9779 36.3249 59.2659 36.3249ZM66.7265 36.3249C66.2385 36.3249 65.8065 36.2529 65.4305 36.1089C65.0545 35.9569 64.7385 35.7409 64.4825 35.4609C64.2345 35.1809 64.0425 34.8489 63.9065 34.4649C63.7785 34.0809 63.7145 33.6489 63.7145 33.1689C63.7145 32.6809 63.7785 32.2329 63.9065 31.8249C64.0425 31.4169 64.2345 31.0609 64.4825 30.7569C64.7305 30.4529 65.0345 30.2209 65.3945 30.0609C65.7545 29.8929 66.1665 29.8089 66.6305 29.8089C67.0385 29.8089 67.4065 29.8769 67.7345 30.0129C68.0705 30.1489 68.3585 30.3609 68.5985 30.6489C68.8385 30.9289 69.0185 31.2849 69.1385 31.7169C69.2585 32.1409 69.3065 32.6449 69.2825 33.2289L64.4105 33.2649V32.5209L68.6225 32.4849L68.2385 32.9889C68.2785 32.4849 68.2305 32.0689 68.0945 31.7409C67.9665 31.4049 67.7745 31.1529 67.5185 30.9849C67.2625 30.8169 66.9665 30.7329 66.6305 30.7329C66.2545 30.7329 65.9265 30.8289 65.6465 31.0209C65.3745 31.2129 65.1625 31.4889 65.0105 31.8489C64.8585 32.2089 64.7825 32.6449 64.7825 33.1569C64.7825 33.8929 64.9465 34.4569 65.2745 34.8489C65.6105 35.2329 66.0985 35.4249 66.7385 35.4249C66.9945 35.4249 67.2145 35.3969 67.3985 35.3409C67.5825 35.2769 67.7385 35.1929 67.8665 35.0889C68.0025 34.9849 68.1145 34.8609 68.2025 34.7169C68.2905 34.5729 68.3585 34.4169 68.4065 34.2489L69.3665 34.4769C69.2865 34.7649 69.1705 35.0249 69.0185 35.2569C68.8745 35.4809 68.6905 35.6729 68.4665 35.8329C68.2505 35.9929 67.9985 36.1129 67.7105 36.1929C67.4225 36.2809 67.0945 36.3249 66.7265 36.3249ZM73.0786 36.3249C72.5426 36.3249 72.0866 36.1849 71.7106 35.9049C71.3346 35.6249 71.0506 35.2409 70.8586 34.7529C70.6666 34.2649 70.5706 33.7049 70.5706 33.0729C70.5706 32.4489 70.6626 31.8929 70.8466 31.4049C71.0386 30.9089 71.3186 30.5209 71.6866 30.2409C72.0546 29.9609 72.5066 29.8209 73.0426 29.8209C73.4906 29.8209 73.8546 29.9129 74.1346 30.0969C74.4146 30.2809 74.6386 30.5209 74.8066 30.8169C74.9746 31.1049 75.1026 31.4169 75.1906 31.7529H75.3946C75.3626 31.5289 75.3266 31.2929 75.2866 31.0449C75.2546 30.7889 75.2266 30.5409 75.2026 30.3009C75.1866 30.0529 75.1786 29.8329 75.1786 29.6409V27.7569H76.2826V33.0969V36.1689H75.2986L75.3586 34.5009H75.1546C75.0666 34.8529 74.9346 35.1689 74.7586 35.4489C74.5826 35.7209 74.3586 35.9369 74.0866 36.0969C73.8146 36.2489 73.4786 36.3249 73.0786 36.3249ZM73.3306 35.3649C73.6186 35.3649 73.8786 35.2969 74.1106 35.1609C74.3426 35.0249 74.5386 34.8489 74.6986 34.6329C74.8586 34.4089 74.9786 34.1689 75.0586 33.9129C75.1386 33.6569 75.1786 33.4089 75.1786 33.1689V33.0249C75.1786 32.8569 75.1546 32.6729 75.1066 32.4729C75.0666 32.2729 74.9986 32.0729 74.9026 31.8729C74.8066 31.6729 74.6866 31.4889 74.5426 31.3209C74.3986 31.1529 74.2266 31.0209 74.0266 30.9249C73.8266 30.8209 73.6026 30.7689 73.3546 30.7689C72.9946 30.7689 72.6906 30.8729 72.4426 31.0809C72.2026 31.2809 72.0186 31.5569 71.8906 31.9089C71.7626 32.2609 71.6986 32.6569 71.6986 33.0969C71.6986 33.5529 71.7626 33.9529 71.8906 34.2969C72.0266 34.6329 72.2146 34.8969 72.4546 35.0889C72.6946 35.2729 72.9866 35.3649 73.3306 35.3649ZM80.8594 36.3249C80.3714 36.3249 79.9394 36.2529 79.5634 36.1089C79.1874 35.9569 78.8714 35.7409 78.6154 35.4609C78.3674 35.1809 78.1754 34.8489 78.0394 34.4649C77.9114 34.0809 77.8474 33.6489 77.8474 33.1689C77.8474 32.6809 77.9114 32.2329 78.0394 31.8249C78.1754 31.4169 78.3674 31.0609 78.6154 30.7569C78.8634 30.4529 79.1674 30.2209 79.5274 30.0609C79.8874 29.8929 80.2994 29.8089 80.7634 29.8089C81.1714 29.8089 81.5394 29.8769 81.8674 30.0129C82.2034 30.1489 82.4914 30.3609 82.7314 30.6489C82.9714 30.9289 83.1514 31.2849 83.2714 31.7169C83.3914 32.1409 83.4394 32.6449 83.4154 33.2289L78.5434 33.2649V32.5209L82.7554 32.4849L82.3714 32.9889C82.4114 32.4849 82.3634 32.0689 82.2274 31.7409C82.0994 31.4049 81.9074 31.1529 81.6514 30.9849C81.3954 30.8169 81.0994 30.7329 80.7634 30.7329C80.3874 30.7329 80.0594 30.8289 79.7794 31.0209C79.5074 31.2129 79.2954 31.4889 79.1434 31.8489C78.9914 32.2089 78.9154 32.6449 78.9154 33.1569C78.9154 33.8929 79.0794 34.4569 79.4074 34.8489C79.7434 35.2329 80.2314 35.4249 80.8714 35.4249C81.1274 35.4249 81.3474 35.3969 81.5314 35.3409C81.7154 35.2769 81.8714 35.1929 81.9994 35.0889C82.1354 34.9849 82.2474 34.8609 82.3354 34.7169C82.4234 34.5729 82.4914 34.4169 82.5394 34.2489L83.4994 34.4769C83.4194 34.7649 83.3034 35.0249 83.1514 35.2569C83.0074 35.4809 82.8234 35.6729 82.5994 35.8329C82.3834 35.9929 82.1314 36.1129 81.8434 36.1929C81.5554 36.2809 81.2274 36.3249 80.8594 36.3249ZM84.9805 36.1689V32.2929V29.9649H85.9645L85.8565 31.9089H86.0605C86.1725 31.4289 86.3205 31.0369 86.5045 30.7329C86.6965 30.4209 86.9365 30.1889 87.2245 30.0369C87.5125 29.8849 87.8485 29.8089 88.2325 29.8089C88.9205 29.8089 89.4405 30.0569 89.7925 30.5529C90.1525 31.0409 90.3325 31.7689 90.3325 32.7369V36.1689H89.2285V32.8329C89.2285 32.1369 89.1165 31.6209 88.8925 31.2849C88.6765 30.9489 88.3565 30.7809 87.9325 30.7809C87.5485 30.7809 87.2205 30.9009 86.9485 31.1409C86.6845 31.3809 86.4765 31.6969 86.3245 32.0889C86.1725 32.4729 86.0885 32.8889 86.0725 33.3369V36.1689H84.9805ZM94.0607 36.2889C93.4847 36.2889 93.0567 36.1329 92.7767 35.8209C92.5047 35.5089 92.3687 35.0329 92.3687 34.3929V30.8769H91.4327L91.4447 29.9649H92.0327C92.2247 29.9649 92.3647 29.9329 92.4527 29.8689C92.5487 29.7969 92.6087 29.6769 92.6327 29.5089L92.7527 28.5609H93.4247V29.9649H95.2007V30.8889H93.4247V34.3689C93.4247 34.6889 93.4967 34.9209 93.6407 35.0649C93.7927 35.2009 94.0087 35.2689 94.2887 35.2689C94.4407 35.2689 94.5967 35.2489 94.7567 35.2089C94.9167 35.1689 95.0807 35.0889 95.2487 34.9689V36.0609C95.0167 36.1489 94.8007 36.2089 94.6007 36.2409C94.4007 36.2729 94.2207 36.2889 94.0607 36.2889ZM98.0335 36.3249C97.6895 36.3249 97.3815 36.2609 97.1095 36.1329C96.8375 35.9969 96.6215 35.8009 96.4615 35.5449C96.3095 35.2809 96.2335 34.9489 96.2335 34.5489C96.2335 34.2529 96.2855 33.9929 96.3895 33.7689C96.4935 33.5449 96.6575 33.3529 96.8815 33.1929C97.1135 33.0329 97.4095 32.9009 97.7695 32.7969C98.1375 32.6849 98.5815 32.5969 99.1015 32.5329C99.3975 32.4929 99.6375 32.4529 99.8215 32.4129C100.006 32.3729 100.142 32.3089 100.23 32.2209C100.318 32.1249 100.362 31.9809 100.362 31.7889C100.362 31.4929 100.258 31.2409 100.05 31.0329C99.8495 30.8249 99.5255 30.7209 99.0775 30.7209C98.8375 30.7209 98.5975 30.7609 98.3575 30.8409C98.1175 30.9209 97.9095 31.0569 97.7335 31.2489C97.5575 31.4329 97.4415 31.6929 97.3855 32.0289L96.3895 31.6809C96.4535 31.3929 96.5575 31.1369 96.7015 30.9129C96.8535 30.6809 97.0415 30.4849 97.2655 30.3249C97.4975 30.1569 97.7655 30.0289 98.0695 29.9409C98.3815 29.8529 98.7255 29.8089 99.1015 29.8089C99.6295 29.8089 100.066 29.8969 100.41 30.0729C100.762 30.2489 101.022 30.5209 101.19 30.8889C101.366 31.2489 101.454 31.7129 101.454 32.2809V33.6609C101.454 33.9089 101.458 34.1809 101.466 34.4769C101.482 34.7649 101.498 35.0569 101.514 35.3529C101.538 35.6409 101.566 35.9129 101.598 36.1689H100.59C100.558 35.9129 100.534 35.6609 100.518 35.4129C100.502 35.1569 100.486 34.9009 100.47 34.6449H100.314C100.194 34.9409 100.034 35.2169 99.8335 35.4729C99.6335 35.7289 99.3855 35.9369 99.0895 36.0969C98.7935 36.2489 98.4415 36.3249 98.0335 36.3249ZM98.3575 35.4369C98.5255 35.4369 98.6975 35.4089 98.8735 35.3529C99.0575 35.2969 99.2375 35.2089 99.4135 35.0889C99.5975 34.9609 99.7695 34.7969 99.9295 34.5969C100.098 34.3969 100.25 34.1569 100.386 33.8769L100.374 32.6649L100.698 32.7249C100.57 32.8529 100.398 32.9489 100.182 33.0129C99.9655 33.0769 99.7295 33.1289 99.4735 33.1689C99.2255 33.2089 98.9695 33.2529 98.7055 33.3009C98.4495 33.3409 98.2135 33.4049 97.9975 33.4929C97.7895 33.5729 97.6215 33.6889 97.4935 33.8409C97.3655 33.9929 97.3015 34.2009 97.3015 34.4649C97.3015 34.7849 97.3975 35.0289 97.5895 35.1969C97.7895 35.3569 98.0455 35.4369 98.3575 35.4369ZM103.309 36.1689V32.7969V29.9649H104.293L104.197 32.1009H104.401C104.473 31.6449 104.585 31.2449 104.737 30.9009C104.889 30.5569 105.093 30.2889 105.349 30.0969C105.605 29.9049 105.917 29.8089 106.285 29.8089C106.373 29.8089 106.465 29.8169 106.561 29.8329C106.665 29.8409 106.785 29.8649 106.921 29.9049L106.861 31.0569C106.741 31.0089 106.621 30.9769 106.501 30.9609C106.381 30.9369 106.269 30.9249 106.165 30.9249C105.845 30.9249 105.573 31.0249 105.349 31.2249C105.125 31.4249 104.933 31.6929 104.773 32.0289C104.621 32.3649 104.497 32.7409 104.401 33.1569V36.1689H103.309ZM110.322 38.2569C109.994 38.2569 109.67 38.2209 109.35 38.1489C109.038 38.0769 108.75 37.9649 108.486 37.8129C108.222 37.6609 108.006 37.4649 107.838 37.2249L108.39 36.4329C108.574 36.6969 108.834 36.9009 109.17 37.0449C109.506 37.1969 109.874 37.2729 110.274 37.2729C110.722 37.2729 111.094 37.1729 111.39 36.9729C111.694 36.7729 111.922 36.4689 112.074 36.0609C112.226 35.6529 112.306 35.1369 112.314 34.5129L112.446 33.2769H112.218C112.13 33.8529 111.99 34.3169 111.798 34.6689C111.606 35.0129 111.374 35.2609 111.102 35.4129C110.83 35.5649 110.514 35.6409 110.154 35.6409C109.706 35.6409 109.326 35.5289 109.014 35.3049C108.71 35.0809 108.478 34.7449 108.318 34.2969C108.158 33.8489 108.078 33.3049 108.078 32.6649V29.9649H109.17V32.4249C109.17 33.2009 109.278 33.7729 109.494 34.1409C109.718 34.5009 110.05 34.6809 110.49 34.6809C110.73 34.6809 110.946 34.6249 111.138 34.5129C111.33 34.3929 111.494 34.2169 111.63 33.9849C111.774 33.7449 111.886 33.4489 111.966 33.0969C112.054 32.7449 112.11 32.3289 112.134 31.8489V29.9649H113.226V34.5729C113.226 35.0689 113.186 35.5129 113.106 35.9049C113.034 36.2969 112.918 36.6409 112.758 36.9369C112.606 37.2329 112.414 37.4769 112.182 37.6689C111.95 37.8689 111.678 38.0169 111.366 38.1129C111.062 38.2089 110.714 38.2569 110.322 38.2569Z" fill="#5A7A5A"/>
<path d="M337.783 21.4648L343.921 27.0213L350.058 21.4648" stroke="#8A8F84" stroke-width="1.5" stroke-linecap="round" stroke-linejoin="round"/>
</svg>
