<svg width="402" height="81" viewBox="0 0 402 81" fill="none" xmlns="http://www.w3.org/2000/svg">
<path d="M402 0.5H0V80.5141H402V0.5Z" fill="url(#paint0_linear_591_10358)"/>
<path d="M0 0.5H402" stroke="#E0DDD4"/>
<path d="M30.9939 21.0164L40.2 10.7582L49.4061 21.0164M34.0626 18.9648V27.1713H38.1542V23.068H42.2458V27.1713H46.3374V18.9648" stroke="#1B3C2A" stroke-width="1.6" stroke-linecap="round" stroke-linejoin="round"/>
<mask id="path-4-inside-1_591_10358" fill="white">
<path d="M30.9438 40.2747V33.6747H32.3838V40.2747H30.9438ZM26.6138 40.2747V33.6747H28.0538V40.2747H26.6138ZM27.4538 37.5147V36.3447H31.5138V37.5147H27.4538ZM36.1699 40.4147C35.6432 40.4147 35.1766 40.3113 34.7699 40.1047C34.3699 39.8913 34.0566 39.578 33.8299 39.1647C33.6032 38.7513 33.4899 38.2413 33.4899 37.6347C33.4899 37.0213 33.6032 36.5113 33.8299 36.1047C34.0632 35.698 34.3799 35.3947 34.7799 35.1947C35.1866 34.988 35.6466 34.8847 36.1599 34.8847C36.6866 34.8847 37.1499 34.988 37.5499 35.1947C37.9566 35.4013 38.2732 35.7113 38.4999 36.1247C38.7332 36.5313 38.8499 37.0413 38.8499 37.6547C38.8499 38.2747 38.7332 38.7913 38.4999 39.2047C38.2666 39.6113 37.9466 39.9147 37.5399 40.1147C37.1332 40.3147 36.6766 40.4147 36.1699 40.4147ZM36.2199 39.3447C36.4799 39.3447 36.6966 39.2847 36.8699 39.1647C37.0499 39.0447 37.1832 38.8647 37.2699 38.6247C37.3632 38.378 37.4099 38.0813 37.4099 37.7347C37.4099 37.368 37.3599 37.058 37.2599 36.8047C37.1666 36.5447 37.0266 36.3447 36.8399 36.2047C36.6532 36.0647 36.4166 35.9947 36.1299 35.9947C35.8766 35.9947 35.6599 36.0547 35.4799 36.1747C35.2999 36.2947 35.1632 36.4747 35.0699 36.7147C34.9766 36.9547 34.9299 37.2547 34.9299 37.6147C34.9299 38.1813 35.0432 38.6113 35.2699 38.9047C35.4966 39.198 35.8132 39.3447 36.2199 39.3447ZM39.8934 40.2747V36.9047V35.0247H41.0434L41.0334 36.5847H41.2334C41.3268 36.198 41.4501 35.8813 41.6034 35.6347C41.7568 35.388 41.9401 35.2013 42.1534 35.0747C42.3734 34.948 42.6301 34.8847 42.9234 34.8847C43.2368 34.8847 43.4934 34.9547 43.6934 35.0947C43.9001 35.228 44.0601 35.4213 44.1734 35.6747C44.2934 35.9213 44.3701 36.2213 44.4034 36.5747H44.5634C44.6634 36.188 44.7968 35.8713 44.9634 35.6247C45.1368 35.3713 45.3434 35.1847 45.5834 35.0647C45.8234 34.9447 46.0834 34.8847 46.3634 34.8847C46.6568 34.8847 46.9101 34.9413 47.1234 35.0547C47.3434 35.168 47.5268 35.338 47.6734 35.5647C47.8201 35.7913 47.9301 36.0747 48.0034 36.4147C48.0768 36.748 48.1134 37.1347 48.1134 37.5747V40.2747H46.6634V37.7547C46.6634 37.388 46.6334 37.0847 46.5734 36.8447C46.5134 36.598 46.4201 36.4147 46.2934 36.2947C46.1668 36.1747 46.0034 36.1147 45.8034 36.1147C45.5834 36.1147 45.3934 36.188 45.2334 36.3347C45.0734 36.4813 44.9468 36.6847 44.8534 36.9447C44.7601 37.2047 44.7101 37.5013 44.7034 37.8347V40.2747H43.2934V37.7947C43.2934 37.4147 43.2601 37.1047 43.1934 36.8647C43.1268 36.618 43.0301 36.4313 42.9034 36.3047C42.7768 36.178 42.6134 36.1147 42.4134 36.1147C42.1868 36.1147 41.9934 36.1913 41.8334 36.3447C41.6801 36.4913 41.5601 36.698 41.4734 36.9647C41.3868 37.2247 41.3401 37.518 41.3334 37.8447V40.2747H39.8934ZM51.8158 40.4147C51.3825 40.4147 50.9958 40.3547 50.6558 40.2347C50.3225 40.1147 50.0358 39.9413 49.7958 39.7147C49.5625 39.488 49.3825 39.2113 49.2558 38.8847C49.1358 38.5513 49.0758 38.1713 49.0758 37.7447C49.0758 37.3313 49.1358 36.9513 49.2558 36.6047C49.3758 36.2513 49.5492 35.948 49.7758 35.6947C50.0025 35.4347 50.2792 35.2347 50.6058 35.0947C50.9325 34.9547 51.3025 34.8847 51.7158 34.8847C52.1158 34.8847 52.4692 34.9513 52.7758 35.0847C53.0892 35.2113 53.3492 35.4047 53.5558 35.6647C53.7692 35.9247 53.9258 36.2447 54.0258 36.6247C54.1258 36.998 54.1625 37.4313 54.1358 37.9247L50.0158 37.9547V37.1647L53.3158 37.1347L52.7958 37.5347C52.8425 37.1813 52.8192 36.8913 52.7258 36.6647C52.6325 36.438 52.4958 36.2713 52.3158 36.1647C52.1425 36.0513 51.9458 35.9947 51.7258 35.9947C51.4725 35.9947 51.2492 36.0647 51.0558 36.2047C50.8625 36.338 50.7125 36.5313 50.6058 36.7847C50.4992 37.038 50.4458 37.3513 50.4458 37.7247C50.4458 38.2847 50.5692 38.698 50.8158 38.9647C51.0692 39.2313 51.3992 39.3647 51.8058 39.3647C51.9992 39.3647 52.1592 39.3413 52.2858 39.2947C52.4125 39.2413 52.5192 39.1747 52.6058 39.0947C52.6925 39.0147 52.7592 38.9247 52.8058 38.8247C52.8592 38.7247 52.9025 38.6247 52.9358 38.5247L54.1758 38.8047C54.1225 39.0513 54.0358 39.2747 53.9158 39.4747C53.7958 39.668 53.6392 39.8347 53.4458 39.9747C53.2525 40.1147 53.0192 40.2213 52.7458 40.2947C52.4792 40.3747 52.1692 40.4147 51.8158 40.4147Z"/>
</mask>
<path d="M30.9438 40.2747V33.6747H32.3838V40.2747H30.9438ZM26.6138 40.2747V33.6747H28.0538V40.2747H26.6138ZM27.4538 37.5147V36.3447H31.5138V37.5147H27.4538ZM36.1699 40.4147C35.6432 40.4147 35.1766 40.3113 34.7699 40.1047C34.3699 39.8913 34.0566 39.578 33.8299 39.1647C33.6032 38.7513 33.4899 38.2413 33.4899 37.6347C33.4899 37.0213 33.6032 36.5113 33.8299 36.1047C34.0632 35.698 34.3799 35.3947 34.7799 35.1947C35.1866 34.988 35.6466 34.8847 36.1599 34.8847C36.6866 34.8847 37.1499 34.988 37.5499 35.1947C37.9566 35.4013 38.2732 35.7113 38.4999 36.1247C38.7332 36.5313 38.8499 37.0413 38.8499 37.6547C38.8499 38.2747 38.7332 38.7913 38.4999 39.2047C38.2666 39.6113 37.9466 39.9147 37.5399 40.1147C37.1332 40.3147 36.6766 40.4147 36.1699 40.4147ZM36.2199 39.3447C36.4799 39.3447 36.6966 39.2847 36.8699 39.1647C37.0499 39.0447 37.1832 38.8647 37.2699 38.6247C37.3632 38.378 37.4099 38.0813 37.4099 37.7347C37.4099 37.368 37.3599 37.058 37.2599 36.8047C37.1666 36.5447 37.0266 36.3447 36.8399 36.2047C36.6532 36.0647 36.4166 35.9947 36.1299 35.9947C35.8766 35.9947 35.6599 36.0547 35.4799 36.1747C35.2999 36.2947 35.1632 36.4747 35.0699 36.7147C34.9766 36.9547 34.9299 37.2547 34.9299 37.6147C34.9299 38.1813 35.0432 38.6113 35.2699 38.9047C35.4966 39.198 35.8132 39.3447 36.2199 39.3447ZM39.8934 40.2747V36.9047V35.0247H41.0434L41.0334 36.5847H41.2334C41.3268 36.198 41.4501 35.8813 41.6034 35.6347C41.7568 35.388 41.9401 35.2013 42.1534 35.0747C42.3734 34.948 42.6301 34.8847 42.9234 34.8847C43.2368 34.8847 43.4934 34.9547 43.6934 35.0947C43.9001 35.228 44.0601 35.4213 44.1734 35.6747C44.2934 35.9213 44.3701 36.2213 44.4034 36.5747H44.5634C44.6634 36.188 44.7968 35.8713 44.9634 35.6247C45.1368 35.3713 45.3434 35.1847 45.5834 35.0647C45.8234 34.9447 46.0834 34.8847 46.3634 34.8847C46.6568 34.8847 46.9101 34.9413 47.1234 35.0547C47.3434 35.168 47.5268 35.338 47.6734 35.5647C47.8201 35.7913 47.9301 36.0747 48.0034 36.4147C48.0768 36.748 48.1134 37.1347 48.1134 37.5747V40.2747H46.6634V37.7547C46.6634 37.388 46.6334 37.0847 46.5734 36.8447C46.5134 36.598 46.4201 36.4147 46.2934 36.2947C46.1668 36.1747 46.0034 36.1147 45.8034 36.1147C45.5834 36.1147 45.3934 36.188 45.2334 36.3347C45.0734 36.4813 44.9468 36.6847 44.8534 36.9447C44.7601 37.2047 44.7101 37.5013 44.7034 37.8347V40.2747H43.2934V37.7947C43.2934 37.4147 43.2601 37.1047 43.1934 36.8647C43.1268 36.618 43.0301 36.4313 42.9034 36.3047C42.7768 36.178 42.6134 36.1147 42.4134 36.1147C42.1868 36.1147 41.9934 36.1913 41.8334 36.3447C41.6801 36.4913 41.5601 36.698 41.4734 36.9647C41.3868 37.2247 41.3401 37.518 41.3334 37.8447V40.2747H39.8934ZM51.8158 40.4147C51.3825 40.4147 50.9958 40.3547 50.6558 40.2347C50.3225 40.1147 50.0358 39.9413 49.7958 39.7147C49.5625 39.488 49.3825 39.2113 49.2558 38.8847C49.1358 38.5513 49.0758 38.1713 49.0758 37.7447C49.0758 37.3313 49.1358 36.9513 49.2558 36.6047C49.3758 36.2513 49.5492 35.948 49.7758 35.6947C50.0025 35.4347 50.2792 35.2347 50.6058 35.0947C50.9325 34.9547 51.3025 34.8847 51.7158 34.8847C52.1158 34.8847 52.4692 34.9513 52.7758 35.0847C53.0892 35.2113 53.3492 35.4047 53.5558 35.6647C53.7692 35.9247 53.9258 36.2447 54.0258 36.6247C54.1258 36.998 54.1625 37.4313 54.1358 37.9247L50.0158 37.9547V37.1647L53.3158 37.1347L52.7958 37.5347C52.8425 37.1813 52.8192 36.8913 52.7258 36.6647C52.6325 36.438 52.4958 36.2713 52.3158 36.1647C52.1425 36.0513 51.9458 35.9947 51.7258 35.9947C51.4725 35.9947 51.2492 36.0647 51.0558 36.2047C50.8625 36.338 50.7125 36.5313 50.6058 36.7847C50.4992 37.038 50.4458 37.3513 50.4458 37.7247C50.4458 38.2847 50.5692 38.698 50.8158 38.9647C51.0692 39.2313 51.3992 39.3647 51.8058 39.3647C51.9992 39.3647 52.1592 39.3413 52.2858 39.2947C52.4125 39.2413 52.5192 39.1747 52.6058 39.0947C52.6925 39.0147 52.7592 38.9247 52.8058 38.8247C52.8592 38.7247 52.9025 38.6247 52.9358 38.5247L54.1758 38.8047C54.1225 39.0513 54.0358 39.2747 53.9158 39.4747C53.7958 39.668 53.6392 39.8347 53.4458 39.9747C53.2525 40.1147 53.0192 40.2213 52.7458 40.2947C52.4792 40.3747 52.1692 40.4147 51.8158 40.4147Z" fill="#8A8F84"/>
<path d="M30.9438 40.2747H29.9438V41.2747H30.9438V40.2747ZM30.9438 33.6747V32.6747H29.9438V33.6747H30.9438ZM32.3838 33.6747H33.3838V32.6747H32.3838V33.6747ZM32.3838 40.2747V41.2747H33.3838V40.2747H32.3838ZM26.6138 40.2747H25.6138V41.2747H26.6138V40.2747ZM26.6138 33.6747V32.6747H25.6138V33.6747H26.6138ZM28.0538 33.6747H29.0538V32.6747H28.0538V33.6747ZM28.0538 40.2747V41.2747H29.0538V40.2747H28.0538ZM27.4538 37.5147H26.4538V38.5147H27.4538V37.5147ZM27.4538 36.3447V35.3447H26.4538V36.3447H27.4538ZM31.5138 36.3447H32.5138V35.3447H31.5138V36.3447ZM31.5138 37.5147V38.5147H32.5138V37.5147H31.5138ZM30.9438 40.2747H31.9438V33.6747H30.9438H29.9438V40.2747H30.9438ZM30.9438 33.6747V34.6747H32.3838V33.6747V32.6747H30.9438V33.6747ZM32.3838 33.6747H31.3838V40.2747H32.3838H33.3838V33.6747H32.3838ZM32.3838 40.2747V39.2747H30.9438V40.2747V41.2747H32.3838V40.2747ZM26.6138 40.2747H27.6138V33.6747H26.6138H25.6138V40.2747H26.6138ZM26.6138 33.6747V34.6747H28.0538V33.6747V32.6747H26.6138V33.6747ZM28.0538 33.6747H27.0538V40.2747H28.0538H29.0538V33.6747H28.0538ZM28.0538 40.2747V39.2747H26.6138V40.2747V41.2747H28.0538V40.2747ZM27.4538 37.5147H28.4538V36.3447H27.4538H26.4538V37.5147H27.4538ZM27.4538 36.3447V37.3447H31.5138V36.3447V35.3447H27.4538V36.3447ZM31.5138 36.3447H30.5138V37.5147H31.5138H32.5138V36.3447H31.5138ZM31.5138 37.5147V36.5147H27.4538V37.5147V38.5147H31.5138V37.5147ZM34.7699 40.1047L34.2993 40.987L34.308 40.9917L34.3169 40.9961L34.7699 40.1047ZM33.8299 39.1647L34.7067 38.6838V38.6838L33.8299 39.1647ZM33.8299 36.1047L32.9625 35.6069L32.9564 35.6178L33.8299 36.1047ZM34.7799 35.1947L35.2271 36.0891L35.233 36.0861L34.7799 35.1947ZM37.5499 35.1947L37.0909 36.0831L37.0969 36.0861L37.5499 35.1947ZM38.4999 36.1247L37.6231 36.6055L37.6277 36.614L37.6325 36.6223L38.4999 36.1247ZM38.4999 39.2047L39.3673 39.7023L39.3707 39.6963L38.4999 39.2047ZM37.5399 40.1147L37.9812 41.012V41.012L37.5399 40.1147ZM36.8699 39.1647L36.3152 38.3326L36.3079 38.3375L36.3007 38.3425L36.8699 39.1647ZM37.2699 38.6247L36.3346 38.2708L36.3319 38.2779L36.3293 38.285L37.2699 38.6247ZM37.2599 36.8047L36.3187 37.1425L36.324 37.1573L36.3297 37.1718L37.2599 36.8047ZM36.8399 36.2047L36.2399 37.0047V37.0047L36.8399 36.2047ZM35.4799 36.1747L36.0346 37.0067V37.0067L35.4799 36.1747ZM35.0699 36.7147L36.0019 37.0771V37.0771L35.0699 36.7147ZM35.2699 38.9047L34.4786 39.5161V39.5161L35.2699 38.9047ZM36.1699 40.4147V39.4147C35.7763 39.4147 35.469 39.3382 35.223 39.2132L34.7699 40.1047L34.3169 40.9961C34.8841 41.2844 35.5102 41.4147 36.1699 41.4147V40.4147ZM34.7699 40.1047L35.2405 39.2223C35.0191 39.1042 34.8438 38.9338 34.7067 38.6838L33.8299 39.1647L32.9531 39.6455C33.2693 40.2221 33.7207 40.6784 34.2993 40.987L34.7699 40.1047ZM33.8299 39.1647L34.7067 38.6838C34.5808 38.4542 34.4899 38.1202 34.4899 37.6347H33.4899H32.4899C32.4899 38.3624 32.6257 39.0484 32.9531 39.6455L33.8299 39.1647ZM33.4899 37.6347H34.4899C34.4899 37.1394 34.5819 36.8095 34.7034 36.5915L33.8299 36.1047L32.9564 35.6178C32.6246 36.2132 32.4899 36.9033 32.4899 37.6347H33.4899ZM33.8299 36.1047L34.6973 36.6023C34.8376 36.3577 35.0119 36.1967 35.2271 36.0891L34.7799 35.1947L34.3327 34.3002C33.7479 34.5926 33.2888 35.0383 32.9625 35.607L33.8299 36.1047ZM34.7799 35.1947L35.233 36.0861C35.4825 35.9593 35.7841 35.8847 36.1599 35.8847V34.8847V33.8847C35.509 33.8847 34.8906 34.0167 34.3269 34.3032L34.7799 35.1947ZM36.1599 34.8847V35.8847C36.554 35.8847 36.8551 35.9612 37.0909 36.0831L37.5499 35.1947L38.0089 34.3062C37.4447 34.0147 36.8192 33.8847 36.1599 33.8847V34.8847ZM37.5499 35.1947L37.0969 36.0861C37.3179 36.1985 37.4897 36.3623 37.6231 36.6055L38.4999 36.1247L39.3767 35.6438C39.0567 35.0604 38.5952 34.6042 38.003 34.3032L37.5499 35.1947ZM38.4999 36.1247L37.6325 36.6223C37.7562 36.8378 37.8499 37.1636 37.8499 37.6547H38.8499H39.8499C39.8499 36.919 39.7103 36.2248 39.3673 35.627L38.4999 36.1247ZM38.8499 37.6547H37.8499C37.8499 38.1537 37.7557 38.4888 37.6291 38.7131L38.4999 39.2047L39.3707 39.6963C39.7108 39.0938 39.8499 38.3956 39.8499 37.6547H38.8499ZM38.4999 39.2047L37.6325 38.707C37.4946 38.9473 37.3202 39.1083 37.0986 39.2173L37.5399 40.1147L37.9812 41.012C38.573 40.721 39.0385 40.2753 39.3673 39.7023L38.4999 39.2047ZM37.5399 40.1147L37.0986 39.2173C36.8447 39.3422 36.5418 39.4147 36.1699 39.4147V40.4147V41.4147C36.8114 41.4147 37.4218 41.2872 37.9812 41.012L37.5399 40.1147ZM36.2199 39.3447V40.3447C36.6354 40.3447 37.063 40.2472 37.4391 39.9869L36.8699 39.1647L36.3007 38.3425C36.3121 38.3346 36.3181 38.3338 36.3105 38.3359C36.3014 38.3384 36.2735 38.3447 36.2199 38.3447V39.3447ZM36.8699 39.1647L37.4246 39.9967C37.8129 39.7378 38.0646 39.3682 38.2105 38.9643L37.2699 38.6247L36.3293 38.285C36.3145 38.3261 36.3028 38.3425 36.3013 38.3444C36.3006 38.3455 36.3016 38.344 36.3046 38.3411C36.3076 38.3382 36.3113 38.3352 36.3152 38.3326L36.8699 39.1647ZM37.2699 38.6247L38.2052 38.9785C38.3524 38.5895 38.4099 38.1663 38.4099 37.7347H37.4099H36.4099C36.4099 37.9964 36.3741 38.1665 36.3346 38.2708L37.2699 38.6247ZM37.4099 37.7347H38.4099C38.4099 37.2832 38.3492 36.8406 38.1901 36.4375L37.2599 36.8047L36.3297 37.1718C36.3706 37.2754 36.4099 37.4528 36.4099 37.7347H37.4099ZM37.2599 36.8047L38.2011 36.4668C38.054 36.0572 37.81 35.6822 37.4399 35.4047L36.8399 36.2047L36.2399 37.0047C36.2432 37.0071 36.2791 37.0322 36.3187 37.1425L37.2599 36.8047ZM36.8399 36.2047L37.4399 35.4047C37.0437 35.1075 36.5825 34.9947 36.1299 34.9947V35.9947V36.9947C36.1923 36.9947 36.226 37.0023 36.2388 37.0061C36.2497 37.0093 36.2471 37.0101 36.2399 37.0047L36.8399 36.2047ZM36.1299 35.9947V34.9947C35.7137 34.9947 35.296 35.0954 34.9252 35.3426L35.4799 36.1747L36.0346 37.0067C36.0328 37.0079 36.0342 37.0062 36.0443 37.0034C36.0555 37.0003 36.0822 36.9947 36.1299 36.9947V35.9947ZM35.4799 36.1747L34.9252 35.3426C34.5436 35.597 34.2912 35.9579 34.1379 36.3522L35.0699 36.7147L36.0019 37.0771C36.0195 37.0319 36.0339 37.0108 36.0388 37.0044C36.0429 36.9991 36.0414 37.0022 36.0346 37.0067L35.4799 36.1747ZM35.0699 36.7147L34.1379 36.3522C33.9856 36.7439 33.9299 37.1764 33.9299 37.6147H34.9299H35.9299C35.9299 37.3329 35.9675 37.1655 36.0019 37.0771L35.0699 36.7147ZM34.9299 37.6147H33.9299C33.9299 38.2919 34.0617 38.9766 34.4786 39.5161L35.2699 38.9047L36.0612 38.2932C36.0247 38.2461 35.9299 38.0708 35.9299 37.6147H34.9299ZM35.2699 38.9047L34.4786 39.5161C34.9148 40.0806 35.5381 40.3447 36.2199 40.3447V39.3447V38.3447C36.1379 38.3447 36.1043 38.3303 36.0977 38.3273C36.094 38.3256 36.0827 38.321 36.0612 38.2932L35.2699 38.9047ZM39.8934 40.2747H38.8934V41.2747H39.8934V40.2747ZM39.8934 35.0247V34.0247H38.8934V35.0247H39.8934ZM41.0434 35.0247L42.0434 35.0311L42.0498 34.0247H41.0434V35.0247ZM41.0334 36.5847L40.0334 36.5782L40.027 37.5847H41.0334V36.5847ZM41.2334 36.5847V37.5847H42.0208L42.2055 36.8193L41.2334 36.5847ZM41.6034 35.6347L42.4527 36.1626V36.1626L41.6034 35.6347ZM42.1534 35.0747L41.6544 34.208L41.6429 34.2148L42.1534 35.0747ZM43.6934 35.0947L43.12 35.9139L43.1354 35.9247L43.1513 35.935L43.6934 35.0947ZM44.1734 35.6747L43.2606 36.083L43.2672 36.0977L43.2742 36.1121L44.1734 35.6747ZM44.4034 36.5747L43.4078 36.6686L43.4933 37.5747H44.4034V36.5747ZM44.5634 36.5747V37.5747H45.3377L45.5316 36.825L44.5634 36.5747ZM44.9634 35.6247L44.1381 35.06L44.1348 35.0648L44.9634 35.6247ZM47.1234 35.0547L46.6542 35.9378L46.6655 35.9436L47.1234 35.0547ZM47.6734 35.5647L48.513 35.0214V35.0214L47.6734 35.5647ZM48.0034 36.4147L47.0259 36.6255L47.0268 36.6295L48.0034 36.4147ZM48.1134 40.2747V41.2747H49.1134V40.2747H48.1134ZM46.6634 40.2747H45.6634V41.2747H46.6634V40.2747ZM46.5734 36.8447L45.6017 37.081L45.6033 37.0872L46.5734 36.8447ZM46.2934 36.2947L46.9812 35.5687V35.5687L46.2934 36.2947ZM45.2334 36.3347L44.5577 35.5975V35.5975L45.2334 36.3347ZM44.7034 37.8347L43.7036 37.8147L43.7034 37.8247V37.8347H44.7034ZM44.7034 40.2747V41.2747H45.7034V40.2747H44.7034ZM43.2934 40.2747H42.2934V41.2747H43.2934V40.2747ZM43.1934 36.8647L42.228 37.1256L42.2299 37.1323L43.1934 36.8647ZM42.9034 36.3047L43.6105 35.5976V35.5976L42.9034 36.3047ZM41.8334 36.3447L42.5246 37.0673L42.5253 37.0666L41.8334 36.3447ZM41.4734 36.9647L42.4221 37.2809L42.4245 37.2737L41.4734 36.9647ZM41.3334 37.8447L40.3336 37.8243L40.3334 37.8345V37.8447H41.3334ZM41.3334 40.2747V41.2747H42.3334V40.2747H41.3334ZM39.8934 40.2747H40.8934V36.9047H39.8934H38.8934V40.2747H39.8934ZM39.8934 36.9047H40.8934V35.0247H39.8934H38.8934V36.9047H39.8934ZM39.8934 35.0247V36.0247H41.0434V35.0247V34.0247H39.8934V35.0247ZM41.0434 35.0247L40.0434 35.0182L40.0334 36.5782L41.0334 36.5847L42.0334 36.5911L42.0434 35.0311L41.0434 35.0247ZM41.0334 36.5847V37.5847H41.2334V36.5847V35.5847H41.0334V36.5847ZM41.2334 36.5847L42.2055 36.8193C42.2824 36.5008 42.3722 36.2921 42.4527 36.1626L41.6034 35.6347L40.7541 35.1067C40.528 35.4705 40.3711 35.8952 40.2613 36.35L41.2334 36.5847ZM41.6034 35.6347L42.4527 36.1626C42.5358 36.0289 42.6103 35.9664 42.664 35.9345L42.1534 35.0747L41.6429 34.2148C41.2699 34.4363 40.9777 34.7471 40.7541 35.1067L41.6034 35.6347ZM42.1534 35.0747L42.6524 35.9413C42.6984 35.9148 42.7776 35.8847 42.9234 35.8847V34.8847V33.8847C42.4825 33.8847 42.0485 33.9812 41.6545 34.208L42.1534 35.0747ZM42.9234 34.8847V35.8847C43.0896 35.8847 43.13 35.921 43.12 35.9139L43.6934 35.0947L44.2669 34.2754C43.8568 33.9884 43.3839 33.8847 42.9234 33.8847V34.8847ZM43.6934 35.0947L43.1513 35.935C43.1749 35.9502 43.2159 35.9831 43.2606 36.083L44.1734 35.6747L45.0862 35.2663C44.9043 34.8595 44.6253 34.5058 44.2355 34.2544L43.6934 35.0947ZM44.1734 35.6747L43.2742 36.1121C43.3289 36.2245 43.3826 36.4013 43.4078 36.6686L44.4034 36.5747L45.399 36.4807C45.3575 36.0414 45.258 35.6182 45.0727 35.2372L44.1734 35.6747ZM44.4034 36.5747V37.5747H44.5634V36.5747V35.5747H44.4034V36.5747ZM44.5634 36.5747L45.5316 36.825C45.6122 36.5134 45.7068 36.3106 45.792 36.1845L44.9634 35.6247L44.1348 35.0648C43.8867 35.432 43.7147 35.8626 43.5953 36.3243L44.5634 36.5747ZM44.9634 35.6247L45.7887 36.1893C45.8801 36.0558 45.9633 35.9927 46.0306 35.9591L45.5834 35.0647L45.1362 34.1702C44.7235 34.3766 44.3934 34.6868 44.1381 35.06L44.9634 35.6247ZM45.5834 35.0647L46.0306 35.9591C46.1257 35.9116 46.2317 35.8847 46.3634 35.8847V34.8847V33.8847C45.9351 33.8847 45.5212 33.9778 45.1362 34.1702L45.5834 35.0647ZM46.3634 34.8847V35.8847C46.5279 35.8847 46.6132 35.916 46.6543 35.9378L47.1234 35.0547L47.5926 34.1715C47.2069 33.9667 46.7856 33.8847 46.3634 33.8847V34.8847ZM47.1234 35.0547L46.6655 35.9436C46.7164 35.9699 46.7732 36.0141 46.8338 36.1079L47.6734 35.5647L48.513 35.0214C48.2804 34.6619 47.9705 34.3661 47.5814 34.1657L47.1234 35.0547ZM47.6734 35.5647L46.8338 36.1079C46.8989 36.2085 46.9711 36.3713 47.0259 36.6255L48.0034 36.4147L48.9809 36.2038C48.8891 35.778 48.7413 35.3742 48.513 35.0214L47.6734 35.5647ZM48.0034 36.4147L47.0268 36.6295C47.0809 36.8754 47.1134 37.1873 47.1134 37.5747H48.1134H49.1134C49.1134 37.082 49.0726 36.6205 48.9801 36.1998L48.0034 36.4147ZM48.1134 37.5747H47.1134V40.2747H48.1134H49.1134V37.5747H48.1134ZM48.1134 40.2747V39.2747H46.6634V40.2747V41.2747H48.1134V40.2747ZM46.6634 40.2747H47.6634V37.7547H46.6634H45.6634V40.2747H46.6634ZM46.6634 37.7547H47.6634C47.6634 37.3415 47.6304 36.9496 47.5436 36.6021L46.5734 36.8447L45.6033 37.0872C45.6364 37.2197 45.6634 37.4345 45.6634 37.7547H46.6634ZM46.5734 36.8447L47.5451 36.6083C47.4592 36.2551 47.2976 35.8685 46.9812 35.5687L46.2934 36.2947L45.6057 37.0206C45.5728 36.9895 45.5633 36.9681 45.5673 36.9758C45.5717 36.9846 45.586 37.0162 45.6018 37.081L46.5734 36.8447ZM46.2934 36.2947L46.9812 35.5687C46.6414 35.2469 46.219 35.1147 45.8034 35.1147V36.1147V37.1147C45.8031 37.1147 45.775 37.1145 45.7311 37.0983C45.6848 37.0813 45.6407 37.0538 45.6057 37.0206L46.2934 36.2947ZM45.8034 36.1147V35.1147C45.337 35.1147 44.9049 35.2792 44.5577 35.5975L45.2334 36.3347L45.9091 37.0718C45.9032 37.0773 45.885 37.0914 45.856 37.1026C45.8272 37.1137 45.8066 37.1147 45.8034 37.1147V36.1147ZM45.2334 36.3347L44.5577 35.5975C44.2499 35.8796 44.0458 36.2347 43.9122 36.6068L44.8534 36.9447L45.7946 37.2825C45.8477 37.1346 45.8969 37.083 45.9091 37.0718L45.2334 36.3347ZM44.8534 36.9447L43.9122 36.6068C43.7756 36.9875 43.712 37.3946 43.7036 37.8147L44.7034 37.8347L45.7032 37.8547C45.7082 37.608 45.7446 37.4218 45.7946 37.2825L44.8534 36.9447ZM44.7034 37.8347H43.7034V40.2747H44.7034H45.7034V37.8347H44.7034ZM44.7034 40.2747V39.2747H43.2934V40.2747V41.2747H44.7034V40.2747ZM43.2934 40.2747H44.2934V37.7947H43.2934H42.2934V40.2747H43.2934ZM43.2934 37.7947H44.2934C44.2934 37.3663 44.257 36.9571 44.1569 36.597L43.1934 36.8647L42.2299 37.1323C42.2632 37.2522 42.2934 37.463 42.2934 37.7947H43.2934ZM43.1934 36.8647L44.1588 36.6037C44.0648 36.2562 43.9025 35.8895 43.6105 35.5976L42.9034 36.3047L42.1963 37.0118C42.1757 36.9911 42.1738 36.982 42.1829 36.9995C42.1923 37.0177 42.2095 37.0569 42.2281 37.1256L43.1934 36.8647ZM42.9034 36.3047L43.6105 35.5976C43.2737 35.2607 42.8448 35.1147 42.4134 35.1147V36.1147V37.1147C42.4071 37.1147 42.3731 37.1134 42.3244 37.0945C42.2735 37.0748 42.229 37.0444 42.1963 37.0118L42.9034 36.3047ZM42.4134 36.1147V35.1147C41.9354 35.1147 41.4924 35.2864 41.1415 35.6227L41.8334 36.3447L42.5253 37.0666C42.5182 37.0735 42.4983 37.0894 42.467 37.1017C42.4527 37.1074 42.4397 37.1109 42.4292 37.1128C42.419 37.1147 42.4133 37.1147 42.4134 37.1147V36.1147ZM41.8334 36.3447L41.1422 35.622C40.8372 35.9138 40.6443 36.2804 40.5224 36.6556L41.4734 36.9647L42.4245 37.2737C42.4759 37.1156 42.523 37.0689 42.5246 37.0673L41.8334 36.3447ZM41.4734 36.9647L40.5247 36.6484C40.4008 37.0202 40.342 37.4157 40.3336 37.8243L41.3334 37.8447L42.3332 37.8651C42.3382 37.6203 42.3727 37.4291 42.4221 37.2809L41.4734 36.9647ZM41.3334 37.8447H40.3334V40.2747H41.3334H42.3334V37.8447H41.3334ZM41.3334 40.2747V39.2747H39.8934V40.2747V41.2747H41.3334V40.2747ZM50.6558 40.2347L50.3171 41.1756L50.323 41.1776L50.6558 40.2347ZM49.7958 39.7147L49.099 40.432L49.1092 40.4417L49.7958 39.7147ZM49.2558 38.8847L48.315 39.2234L48.3191 39.2348L48.3235 39.2462L49.2558 38.8847ZM49.2558 36.6047L50.2008 36.9318L50.2027 36.9262L49.2558 36.6047ZM49.7758 35.6947L50.5211 36.3615L50.5296 36.3518L49.7758 35.6947ZM50.6058 35.0947L50.9998 36.0138H50.9998L50.6058 35.0947ZM52.7758 35.0847L52.3771 36.0017L52.389 36.0069L52.4011 36.0118L52.7758 35.0847ZM53.5558 35.6647L52.773 36.2869L52.7778 36.293L52.7828 36.299L53.5558 35.6647ZM54.0258 36.6247L53.0588 36.8792L53.0599 36.8834L54.0258 36.6247ZM54.1358 37.9247L54.1431 38.9246L55.0836 38.9178L55.1344 37.9786L54.1358 37.9247ZM50.0158 37.9547H49.0158V38.962L50.0231 38.9546L50.0158 37.9547ZM50.0158 37.1647L50.0068 36.1647L49.0158 36.1737V37.1647H50.0158ZM53.3158 37.1347L53.9256 37.9273L56.2912 36.1076L53.3068 36.1347L53.3158 37.1347ZM52.7958 37.5347L51.8045 37.4037L51.4876 39.8026L53.4056 38.3273L52.7958 37.5347ZM52.7258 36.6647L53.6505 36.2839V36.2839L52.7258 36.6647ZM52.3158 36.1647L51.7686 37.0016L51.7871 37.0137L51.806 37.0249L52.3158 36.1647ZM51.0558 36.2047L51.6236 37.0279L51.633 37.0213L51.6424 37.0146L51.0558 36.2047ZM50.6058 36.7847L51.5275 37.1727V37.1727L50.6058 36.7847ZM50.8158 38.9647L50.0817 39.6438L50.0908 39.6534L50.8158 38.9647ZM52.2858 39.2947L52.6315 40.233L52.6529 40.2251L52.6739 40.2163L52.2858 39.2947ZM52.8058 38.8247L51.9235 38.3541L51.9109 38.3776L51.8997 38.4018L52.8058 38.8247ZM52.9358 38.5247L53.1561 37.5492L52.2733 37.3499L51.9872 38.2084L52.9358 38.5247ZM54.1758 38.8047L55.1533 39.016L55.3627 38.0475L54.3961 37.8292L54.1758 38.8047ZM53.9158 39.4747L54.7655 40.002L54.7695 39.9956L54.7733 39.9892L53.9158 39.4747ZM53.4458 39.9747L54.0324 40.7846H54.0324L53.4458 39.9747ZM52.7458 40.2947L52.4867 39.3288L52.4725 39.3326L52.4585 39.3368L52.7458 40.2947ZM51.8158 40.4147V39.4147C51.4737 39.4147 51.2026 39.3672 50.9887 39.2917L50.6558 40.2347L50.323 41.1776C50.789 41.3421 51.2914 41.4147 51.8158 41.4147V40.4147ZM50.6558 40.2347L50.9946 39.2938C50.7811 39.2169 50.6153 39.1131 50.4825 38.9876L49.7958 39.7147L49.1092 40.4417C49.4564 40.7696 49.8639 41.0124 50.3171 41.1755L50.6558 40.2347ZM49.7958 39.7147L50.4926 38.9974C50.3703 38.8785 50.2669 38.7261 50.1882 38.5231L49.2558 38.8847L48.3235 39.2462C48.4981 39.6965 48.7547 40.0975 49.0991 40.4319L49.7958 39.7147ZM49.2558 38.8847L50.1967 38.5459C50.1229 38.3409 50.0758 38.0788 50.0758 37.7447H49.0758H48.0758C48.0758 38.2639 48.1488 38.7618 48.315 39.2234L49.2558 38.8847ZM49.0758 37.7447H50.0758C50.0758 37.4287 50.1215 37.1608 50.2008 36.9318L49.2558 36.6047L48.3109 36.2775C48.1501 36.7418 48.0758 37.2339 48.0758 37.7447H49.0758ZM49.2558 36.6047L50.2027 36.9262C50.2837 36.6878 50.3926 36.505 50.5211 36.3615L49.7758 35.6947L49.0306 35.0279C48.7057 35.3909 48.468 35.8148 48.309 36.2831L49.2558 36.6047ZM49.7758 35.6947L50.5296 36.3518C50.6545 36.2085 50.8069 36.0965 50.9998 36.0138L50.6058 35.0947L50.2119 34.1755C49.7515 34.3729 49.3505 34.6608 49.0221 35.0375L49.7758 35.6947ZM50.6058 35.0947L50.9998 36.0138C51.1833 35.9351 51.4161 35.8847 51.7158 35.8847V34.8847V33.8847C51.1889 33.8847 50.6817 33.9742 50.2119 34.1755L50.6058 35.0947ZM51.7158 34.8847V35.8847C52.0051 35.8847 52.2184 35.9327 52.3771 36.0017L52.7758 35.0847L53.1746 34.1676C52.7199 33.9699 52.2266 33.8847 51.7158 33.8847V34.8847ZM52.7758 35.0847L52.4011 36.0118C52.5573 36.0749 52.6757 36.1645 52.773 36.2869L53.5558 35.6647L54.3387 35.0424C54.0226 34.6448 53.6211 34.3477 53.1506 34.1575L52.7758 35.0847ZM53.5558 35.6647L52.7828 36.299C52.8908 36.4306 52.9893 36.615 53.0588 36.8792L54.0258 36.6247L54.9929 36.3702C54.8624 35.8743 54.6476 35.4187 54.3289 35.0303L53.5558 35.6647ZM54.0258 36.6247L53.0599 36.8834C53.1262 37.1311 53.1598 37.4548 53.1373 37.8707L54.1358 37.9247L55.1344 37.9786C55.1652 37.4078 55.1255 36.8649 54.9918 36.3659L54.0258 36.6247ZM54.1358 37.9247L54.1286 36.9247L50.0086 36.9547L50.0158 37.9547L50.0231 38.9546L54.1431 38.9246L54.1358 37.9247ZM50.0158 37.9547H51.0158V37.1647H50.0158H49.0158V37.9547H50.0158ZM50.0158 37.1647L50.0249 38.1646L53.3249 38.1346L53.3158 37.1347L53.3068 36.1347L50.0068 36.1647L50.0158 37.1647ZM53.3158 37.1347L52.7061 36.342L52.1861 36.742L52.7958 37.5347L53.4056 38.3273L53.9256 37.9273L53.3158 37.1347ZM52.7958 37.5347L53.7872 37.6656C53.8471 37.2125 53.834 36.7295 53.6505 36.2839L52.7258 36.6647L51.8012 37.0454C51.8043 37.0531 51.8379 37.1501 51.8045 37.4037L52.7958 37.5347ZM52.7258 36.6647L53.6505 36.2839C53.4893 35.8923 53.223 35.5398 52.8256 35.3044L52.3158 36.1647L51.806 37.0249C51.8002 37.0215 51.7945 37.0174 51.7893 37.0129C51.7842 37.0085 51.7812 37.0051 51.7801 37.0037C51.7778 37.0009 51.7871 37.0112 51.8012 37.0454L52.7258 36.6647ZM52.3158 36.1647L52.8631 35.3277C52.5167 35.1012 52.1275 34.9947 51.7258 34.9947V35.9947V36.9947C51.7492 36.9947 51.7596 36.9975 51.7615 36.9981C51.7629 36.9985 51.7644 36.9989 51.7686 37.0016L52.3158 36.1647ZM51.7258 35.9947V34.9947C51.2756 34.9947 50.844 35.1234 50.4693 35.3947L51.0558 36.2047L51.6424 37.0146C51.6543 37.0059 51.6694 36.9947 51.7258 36.9947V35.9947ZM51.0558 36.2047L50.4881 35.3814C50.1125 35.6405 49.8521 35.9979 49.6842 36.3966L50.6058 36.7847L51.5275 37.1727C51.573 37.0647 51.6125 37.0355 51.6236 37.0279L51.0558 36.2047ZM50.6058 36.7847L49.6842 36.3966C49.5109 36.8083 49.4458 37.2629 49.4458 37.7247H50.4458H51.4458C51.4458 37.4397 51.4875 37.2677 51.5275 37.1727L50.6058 36.7847ZM50.4458 37.7247H49.4458C49.4458 38.4047 49.5919 39.1141 50.0817 39.6437L50.8158 38.9647L51.5499 38.2856C51.5465 38.2819 51.4458 38.1646 51.4458 37.7247H50.4458ZM50.8158 38.9647L50.0908 39.6534C50.5539 40.1409 51.1571 40.3647 51.8058 40.3647V39.3647V38.3647C51.6413 38.3647 51.5844 38.3218 51.5408 38.2759L50.8158 38.9647ZM51.8058 39.3647V40.3647C52.0704 40.3647 52.3575 40.334 52.6315 40.233L52.2858 39.2947L51.9401 38.3563C51.9533 38.3515 51.9508 38.3541 51.9265 38.3576C51.9025 38.3611 51.8632 38.3647 51.8058 38.3647V39.3647ZM52.2858 39.2947L52.6739 40.2163C52.8901 40.1253 53.0995 39.9999 53.2841 39.8295L52.6058 39.0947L51.9276 38.3599C51.9389 38.3494 51.9349 38.3574 51.8978 38.373L52.2858 39.2947ZM52.6058 39.0947L53.2841 39.8295C53.4597 39.6674 53.6067 39.4733 53.712 39.2475L52.8058 38.8247L51.8997 38.4018C51.9051 38.3901 51.9113 38.38 51.9173 38.3719C51.9232 38.364 51.9273 38.3601 51.9276 38.3599L52.6058 39.0947ZM52.8058 38.8247L53.6882 39.2952C53.766 39.1494 53.8322 38.9979 53.8845 38.8409L52.9358 38.5247L51.9872 38.2084C51.9728 38.2514 51.9524 38.2999 51.9235 38.3541L52.8058 38.8247ZM52.9358 38.5247L52.7156 39.5001L53.9556 39.7801L54.1758 38.8047L54.3961 37.8292L53.1561 37.5492L52.9358 38.5247ZM54.1758 38.8047L53.1984 38.5933C53.1663 38.7418 53.1176 38.8614 53.0583 38.9602L53.9158 39.4747L54.7733 39.9892C54.9541 39.6879 55.0787 39.3608 55.1533 39.016L54.1758 38.8047ZM53.9158 39.4747L53.0662 38.9473C53.0181 39.0249 52.9527 39.0971 52.8593 39.1647L53.4458 39.9747L54.0324 40.7846C54.3257 40.5722 54.5736 40.3111 54.7655 40.002L53.9158 39.4747ZM53.4458 39.9747L52.8593 39.1647C52.7812 39.2213 52.6637 39.2813 52.4867 39.3288L52.7458 40.2947L53.005 41.2605C53.3747 41.1613 53.7238 41.008 54.0324 40.7846L53.4458 39.9747ZM52.7458 40.2947L52.4585 39.3368C52.3062 39.3825 52.0967 39.4147 51.8158 39.4147V40.4147V41.4147C52.2417 41.4147 52.6522 41.3668 53.0332 41.2525L52.7458 40.2947Z" fill="#1B3C2A" mask="url(#path-4-inside-1_591_10358)"/>
<path d="M117.02 11.7841H113.951C113.104 11.7841 112.417 12.473 112.417 13.3228V16.4003C112.417 17.2501 113.104 17.939 113.951 17.939H117.02C117.867 17.939 118.554 17.2501 118.554 16.4003V13.3228C118.554 12.473 117.867 11.7841 117.02 11.7841Z" stroke="#8A8F84" stroke-width="1.4"/>
<path d="M127.249 11.7841H124.18C123.333 11.7841 122.646 12.473 122.646 13.3228V16.4003C122.646 17.2501 123.333 17.939 124.18 17.939H127.249C128.096 17.939 128.783 17.2501 128.783 16.4003V13.3228C128.783 12.473 128.096 11.7841 127.249 11.7841Z" stroke="#8A8F84" stroke-width="1.4"/>
<path d="M117.02 21.0165H113.951C113.104 21.0165 112.417 21.7054 112.417 22.5552V25.6327C112.417 26.4825 113.104 27.1714 113.951 27.1714H117.02C117.867 27.1714 118.554 26.4825 118.554 25.6327V22.5552C118.554 21.7054 117.867 21.0165 117.02 21.0165Z" stroke="#8A8F84" stroke-width="1.4"/>
<path d="M127.249 21.0165H124.18C123.333 21.0165 122.646 21.7054 122.646 22.5552V25.6327C122.646 26.4825 123.333 27.1714 124.18 27.1714H127.249C128.096 27.1714 128.783 26.4825 128.783 25.6327V22.5552C128.783 21.7054 128.096 21.0165 127.249 21.0165Z" stroke="#8A8F84" stroke-width="1.4"/>
<path d="M108.228 40.2747V33.6747H109.648L111.848 39.3147H111.898L114.088 33.6747H115.448V40.2747H114.578L114.638 34.6047H114.558L112.278 40.2747H111.388L109.128 34.5947H109.048L109.108 40.2747H108.228ZM119.343 40.4047C118.936 40.4047 118.576 40.3447 118.263 40.2247C117.949 40.098 117.686 39.918 117.473 39.6847C117.266 39.4513 117.106 39.1747 116.993 38.8547C116.886 38.5347 116.833 38.1747 116.833 37.7747C116.833 37.368 116.886 36.9947 116.993 36.6547C117.106 36.3147 117.266 36.018 117.473 35.7647C117.679 35.5113 117.933 35.318 118.233 35.1847C118.533 35.0447 118.876 34.9747 119.263 34.9747C119.603 34.9747 119.909 35.0313 120.183 35.1447C120.463 35.258 120.703 35.4347 120.903 35.6747C121.103 35.908 121.253 36.2047 121.353 36.5647C121.453 36.918 121.493 37.338 121.473 37.8247L117.413 37.8547V37.2347L120.923 37.2047L120.603 37.6247C120.636 37.2047 120.596 36.858 120.483 36.5847C120.376 36.3047 120.216 36.0947 120.003 35.9547C119.789 35.8147 119.543 35.7447 119.263 35.7447C118.949 35.7447 118.676 35.8247 118.443 35.9847C118.216 36.1447 118.039 36.3747 117.913 36.6747C117.786 36.9747 117.723 37.338 117.723 37.7647C117.723 38.378 117.859 38.848 118.133 39.1747C118.413 39.4947 118.819 39.6547 119.353 39.6547C119.566 39.6547 119.749 39.6313 119.903 39.5847C120.056 39.5313 120.186 39.4613 120.293 39.3747C120.406 39.288 120.499 39.1847 120.573 39.0647C120.646 38.9447 120.703 38.8147 120.743 38.6747L121.543 38.8647C121.476 39.1047 121.379 39.3213 121.253 39.5147C121.133 39.7013 120.979 39.8613 120.793 39.9947C120.613 40.128 120.403 40.228 120.163 40.2947C119.923 40.368 119.649 40.4047 119.343 40.4047ZM122.777 40.2747V37.0447V35.1047H123.597L123.507 36.7247H123.677C123.77 36.3247 123.894 35.998 124.047 35.7447C124.207 35.4847 124.407 35.2913 124.647 35.1647C124.887 35.038 125.167 34.9747 125.487 34.9747C126.06 34.9747 126.494 35.1813 126.787 35.5947C127.087 36.0013 127.237 36.608 127.237 37.4147V40.2747H126.317V37.4947C126.317 36.9147 126.224 36.4847 126.037 36.2047C125.857 35.9247 125.59 35.7847 125.237 35.7847C124.917 35.7847 124.644 35.8847 124.417 36.0847C124.197 36.2847 124.024 36.548 123.897 36.8747C123.77 37.1947 123.7 37.5413 123.687 37.9147V40.2747H122.777ZM130.413 40.4047C129.84 40.4047 129.407 40.208 129.113 39.8147C128.82 39.4147 128.673 38.8147 128.673 38.0147V35.1047H129.593V37.9347C129.593 38.4947 129.68 38.9113 129.853 39.1847C130.027 39.458 130.3 39.5947 130.673 39.5947C130.88 39.5947 131.063 39.5447 131.223 39.4447C131.39 39.3447 131.537 39.2013 131.663 39.0147C131.79 38.828 131.89 38.608 131.963 38.3547C132.043 38.1013 132.1 37.8247 132.133 37.5247V35.1047H133.043V38.1247V40.2747H132.233L132.313 38.6247H132.153C132.073 39.038 131.953 39.3747 131.793 39.6347C131.633 39.8947 131.437 40.088 131.203 40.2147C130.977 40.3413 130.713 40.4047 130.413 40.4047Z" fill="#8A8F84"/>
<path d="M193.84 12.8098L198.954 15.8873L204.069 12.8098L209.183 15.8873V29.223L204.069 26.1455L198.954 29.223L193.84 26.1455V12.8098Z" stroke="#8A8F84" stroke-width="1.4" stroke-linejoin="round"/>
<path d="M198.954 15.8873V29.223" stroke="#8A8F84" stroke-width="1.2"/>
<path d="M204.069 12.8098V26.1455" stroke="#8A8F84" stroke-width="1.2"/>
<path d="M188.882 40.2747V33.6747H190.302L192.502 39.3147H192.552L194.742 33.6747H196.102V40.2747H195.232L195.292 34.6047H195.212L192.932 40.2747H192.042L189.782 34.5947H189.702L189.762 40.2747H188.882ZM198.957 40.4047C198.67 40.4047 198.414 40.3513 198.187 40.2447C197.96 40.1313 197.78 39.968 197.647 39.7547C197.52 39.5347 197.457 39.258 197.457 38.9247C197.457 38.678 197.5 38.4613 197.587 38.2747C197.674 38.088 197.81 37.928 197.997 37.7947C198.19 37.6613 198.437 37.5513 198.737 37.4647C199.044 37.3713 199.414 37.298 199.847 37.2447C200.094 37.2113 200.294 37.178 200.447 37.1447C200.6 37.1113 200.714 37.058 200.787 36.9847C200.86 36.9047 200.897 36.7847 200.897 36.6247C200.897 36.378 200.81 36.168 200.637 35.9947C200.47 35.8213 200.2 35.7347 199.827 35.7347C199.627 35.7347 199.427 35.768 199.227 35.8347C199.027 35.9013 198.854 36.0147 198.707 36.1747C198.56 36.328 198.464 36.5447 198.417 36.8247L197.587 36.5347C197.64 36.2947 197.727 36.0813 197.847 35.8947C197.974 35.7013 198.13 35.538 198.317 35.4047C198.51 35.2647 198.734 35.158 198.987 35.0847C199.247 35.0113 199.534 34.9747 199.847 34.9747C200.287 34.9747 200.65 35.048 200.937 35.1947C201.23 35.3413 201.447 35.568 201.587 35.8747C201.734 36.1747 201.807 36.5613 201.807 37.0347V38.1847C201.807 38.3913 201.81 38.618 201.817 38.8647C201.83 39.1047 201.844 39.348 201.857 39.5947C201.877 39.8347 201.9 40.0613 201.927 40.2747H201.087C201.06 40.0613 201.04 39.8513 201.027 39.6447C201.014 39.4313 201 39.218 200.987 39.0047H200.857C200.757 39.2513 200.624 39.4813 200.457 39.6947C200.29 39.908 200.084 40.0813 199.837 40.2147C199.59 40.3413 199.297 40.4047 198.957 40.4047ZM199.227 39.6647C199.367 39.6647 199.51 39.6413 199.657 39.5947C199.81 39.548 199.96 39.4747 200.107 39.3747C200.26 39.268 200.404 39.1313 200.537 38.9647C200.677 38.798 200.804 38.598 200.917 38.3647L200.907 37.3547L201.177 37.4047C201.07 37.5113 200.927 37.5913 200.747 37.6447C200.567 37.698 200.37 37.7413 200.157 37.7747C199.95 37.808 199.737 37.8447 199.517 37.8847C199.304 37.918 199.107 37.9713 198.927 38.0447C198.754 38.1113 198.614 38.208 198.507 38.3347C198.4 38.4613 198.347 38.6347 198.347 38.8547C198.347 39.1213 198.427 39.3247 198.587 39.4647C198.754 39.598 198.967 39.6647 199.227 39.6647ZM203.353 41.9047V37.7047V35.1047H204.163L204.123 36.4247H204.273C204.353 36.138 204.463 35.888 204.603 35.6747C204.75 35.4547 204.933 35.2847 205.153 35.1647C205.38 35.038 205.656 34.9747 205.983 34.9747C206.456 34.9747 206.85 35.0947 207.163 35.3347C207.483 35.568 207.723 35.8913 207.883 36.3047C208.043 36.718 208.123 37.1813 208.123 37.6947C208.123 38.208 208.043 38.6713 207.883 39.0847C207.723 39.4913 207.486 39.8147 207.173 40.0547C206.866 40.288 206.49 40.4047 206.043 40.4047C205.676 40.4047 205.376 40.3313 205.143 40.1847C204.91 40.0313 204.723 39.8347 204.583 39.5947C204.443 39.348 204.333 39.0913 204.253 38.8247H204.083C204.123 39.0047 204.153 39.1913 204.173 39.3847C204.2 39.578 204.22 39.768 204.233 39.9547C204.253 40.1413 204.263 40.3213 204.263 40.4947V41.9047H203.353ZM205.813 39.6147C206.106 39.6147 206.353 39.5313 206.553 39.3647C206.753 39.1913 206.906 38.958 207.013 38.6647C207.12 38.3713 207.173 38.0413 207.173 37.6747C207.173 37.2813 207.116 36.9447 207.003 36.6647C206.896 36.3847 206.743 36.168 206.543 36.0147C206.343 35.8547 206.1 35.7747 205.813 35.7747C205.566 35.7747 205.346 35.8313 205.153 35.9447C204.966 36.0513 204.806 36.198 204.673 36.3847C204.54 36.5647 204.436 36.7647 204.363 36.9847C204.296 37.198 204.263 37.4113 204.263 37.6247V37.7447C204.263 37.878 204.283 38.028 204.323 38.1947C204.363 38.3613 204.423 38.528 204.503 38.6947C204.583 38.8547 204.683 39.0047 204.803 39.1447C204.93 39.2847 205.076 39.398 205.243 39.4847C205.41 39.5713 205.6 39.6147 205.813 39.6147ZM211.386 40.4047C211.026 40.4047 210.706 40.3647 210.426 40.2847C210.153 40.2113 209.919 40.1047 209.726 39.9647C209.539 39.818 209.396 39.648 209.296 39.4547C209.196 39.2547 209.146 39.0347 209.146 38.7947L209.906 38.5847C209.899 38.8047 209.956 38.998 210.076 39.1647C210.196 39.3247 210.373 39.448 210.606 39.5347C210.839 39.6213 211.116 39.6647 211.436 39.6647C211.836 39.6647 212.143 39.598 212.356 39.4647C212.576 39.3313 212.686 39.148 212.686 38.9147C212.686 38.728 212.626 38.5847 212.506 38.4847C212.386 38.378 212.219 38.2947 212.006 38.2347C211.793 38.168 211.546 38.108 211.266 38.0547C211.019 38.0013 210.776 37.9413 210.536 37.8747C210.303 37.808 210.086 37.7213 209.886 37.6147C209.693 37.5013 209.536 37.3547 209.416 37.1747C209.296 36.9947 209.236 36.7713 209.236 36.5047C209.236 36.1913 209.316 35.9213 209.476 35.6947C209.643 35.468 209.879 35.2913 210.186 35.1647C210.493 35.038 210.859 34.9747 211.286 34.9747C211.713 34.9747 212.076 35.0413 212.376 35.1747C212.676 35.3013 212.913 35.4813 213.086 35.7147C213.259 35.948 213.359 36.218 213.386 36.5247L212.596 36.7347C212.589 36.508 212.529 36.3213 212.416 36.1747C212.303 36.0213 212.146 35.908 211.946 35.8347C211.753 35.7547 211.523 35.7147 211.256 35.7147C210.896 35.7147 210.613 35.7813 210.406 35.9147C210.206 36.048 210.106 36.2313 210.106 36.4647C210.106 36.638 210.166 36.778 210.286 36.8847C210.413 36.9913 210.579 37.0747 210.786 37.1347C210.999 37.1947 211.239 37.2547 211.506 37.3147C211.773 37.368 212.026 37.428 212.266 37.4947C212.513 37.5613 212.729 37.648 212.916 37.7547C213.109 37.8613 213.263 38.0047 213.376 38.1847C213.489 38.358 213.546 38.5813 213.546 38.8547C213.546 39.1947 213.456 39.4813 213.276 39.7147C213.096 39.9413 212.843 40.1147 212.516 40.2347C212.196 40.348 211.819 40.4047 211.386 40.4047Z" fill="#8A8F84"/>
<path d="M273.217 27.1713L278.331 18.9647L283.446 23.068L289.583 12.8098" stroke="#8A8F84" stroke-width="1.6" stroke-linecap="round" stroke-linejoin="round"/>
<path d="M289.583 14.8615C290.713 14.8615 291.629 13.9429 291.629 12.8098C291.629 11.6767 290.713 10.7582 289.583 10.7582C288.453 10.7582 287.537 11.6767 287.537 12.8098C287.537 13.9429 288.453 14.8615 289.583 14.8615Z" fill="#8A8F84"/>
<path d="M267.308 40.4999V33.8999H269.598C269.938 33.8999 270.245 33.9265 270.518 33.9799C270.798 34.0332 271.045 34.1132 271.258 34.2199C271.478 34.3265 271.662 34.4565 271.808 34.6099C271.962 34.7632 272.075 34.9432 272.148 35.1499C272.228 35.3499 272.268 35.5732 272.268 35.8199C272.268 36.0532 272.232 36.2665 272.158 36.4599C272.092 36.6532 271.988 36.8232 271.848 36.9699C271.708 37.1165 271.535 37.2365 271.328 37.3299C271.122 37.4165 270.885 37.4765 270.618 37.5099V37.6399C270.852 37.6665 271.055 37.7299 271.228 37.8299C271.408 37.9232 271.562 38.0665 271.688 38.2599C271.822 38.4465 271.935 38.6999 272.028 39.0199L272.448 40.4999H271.458L271.118 39.1399C271.052 38.8732 270.945 38.6565 270.798 38.4899C270.658 38.3232 270.482 38.1999 270.268 38.1199C270.055 38.0399 269.808 37.9999 269.528 37.9999H268.218V40.4999H267.308ZM268.218 37.2499H269.528C270.122 37.2499 270.568 37.1432 270.868 36.9299C271.175 36.7165 271.328 36.3899 271.328 35.9499C271.328 35.5099 271.182 35.1865 270.888 34.9799C270.602 34.7665 270.155 34.6599 269.548 34.6599H268.218V37.2499ZM275.953 40.6299C275.546 40.6299 275.186 40.5699 274.873 40.4499C274.559 40.3232 274.296 40.1432 274.083 39.9099C273.876 39.6765 273.716 39.3999 273.603 39.0799C273.496 38.7599 273.443 38.3999 273.443 37.9999C273.443 37.5932 273.496 37.2199 273.603 36.8799C273.716 36.5399 273.876 36.2432 274.083 35.9899C274.289 35.7365 274.543 35.5432 274.843 35.4099C275.143 35.2699 275.486 35.1999 275.873 35.1999C276.213 35.1999 276.519 35.2565 276.793 35.3699C277.073 35.4832 277.313 35.6599 277.513 35.8999C277.713 36.1332 277.863 36.4299 277.963 36.7899C278.063 37.1432 278.103 37.5632 278.083 38.0499L274.023 38.0799V37.4599L277.533 37.4299L277.213 37.8499C277.246 37.4299 277.206 37.0832 277.093 36.8099C276.986 36.5299 276.826 36.3199 276.613 36.1799C276.399 36.0399 276.153 35.9699 275.873 35.9699C275.559 35.9699 275.286 36.0499 275.053 36.2099C274.826 36.3699 274.649 36.5999 274.523 36.8999C274.396 37.1999 274.333 37.5632 274.333 37.9899C274.333 38.6032 274.469 39.0732 274.743 39.3999C275.023 39.7199 275.429 39.8799 275.963 39.8799C276.176 39.8799 276.359 39.8565 276.513 39.8099C276.666 39.7565 276.796 39.6865 276.903 39.5999C277.016 39.5132 277.109 39.4099 277.183 39.2899C277.256 39.1699 277.313 39.0399 277.353 38.8999L278.153 39.0899C278.086 39.3299 277.989 39.5465 277.863 39.7399C277.743 39.9265 277.589 40.0865 277.403 40.2199C277.223 40.3532 277.013 40.4532 276.773 40.5199C276.533 40.5932 276.259 40.6299 275.953 40.6299ZM280.217 40.4999L278.837 35.3299H279.777L280.797 39.7299H280.957L282.047 35.3299H283.237L284.337 39.7299H284.487L285.497 35.3299H286.427L285.047 40.4999H283.767L282.687 36.0999H282.577L281.507 40.4999H280.217ZM288.643 40.6299C288.357 40.6299 288.1 40.5765 287.873 40.4699C287.647 40.3565 287.467 40.1932 287.333 39.9799C287.207 39.7599 287.143 39.4832 287.143 39.1499C287.143 38.9032 287.187 38.6865 287.273 38.4999C287.36 38.3132 287.497 38.1532 287.683 38.0199C287.877 37.8865 288.123 37.7765 288.423 37.6899C288.73 37.5965 289.1 37.5232 289.533 37.4699C289.78 37.4365 289.98 37.4032 290.133 37.3699C290.287 37.3365 290.4 37.2832 290.473 37.2099C290.547 37.1299 290.583 37.0099 290.583 36.8499C290.583 36.6032 290.497 36.3932 290.323 36.2199C290.157 36.0465 289.887 35.9599 289.513 35.9599C289.313 35.9599 289.113 35.9932 288.913 36.0599C288.713 36.1265 288.54 36.2399 288.393 36.3999C288.247 36.5532 288.15 36.7699 288.103 37.0499L287.273 36.7599C287.327 36.5199 287.413 36.3065 287.533 36.1199C287.66 35.9265 287.817 35.7632 288.003 35.6299C288.197 35.4899 288.42 35.3832 288.673 35.3099C288.933 35.2365 289.22 35.1999 289.533 35.1999C289.973 35.1999 290.337 35.2732 290.623 35.4199C290.917 35.5665 291.133 35.7932 291.273 36.0999C291.42 36.3999 291.493 36.7865 291.493 37.2599V38.4099C291.493 38.6165 291.497 38.8432 291.503 39.0899C291.517 39.3299 291.53 39.5732 291.543 39.8199C291.563 40.0599 291.587 40.2865 291.613 40.4999H290.773C290.747 40.2865 290.727 40.0765 290.713 39.8699C290.7 39.6565 290.687 39.4432 290.673 39.2299H290.543C290.443 39.4765 290.31 39.7065 290.143 39.9199C289.977 40.1332 289.77 40.3065 289.523 40.4399C289.277 40.5665 288.983 40.6299 288.643 40.6299ZM288.913 39.8899C289.053 39.8899 289.197 39.8665 289.343 39.8199C289.497 39.7732 289.647 39.6999 289.793 39.5999C289.947 39.4932 290.09 39.3565 290.223 39.1899C290.363 39.0232 290.49 38.8232 290.603 38.5899L290.593 37.5799L290.863 37.6299C290.757 37.7365 290.613 37.8165 290.433 37.8699C290.253 37.9232 290.057 37.9665 289.843 37.9999C289.637 38.0332 289.423 38.0699 289.203 38.1099C288.99 38.1432 288.793 38.1965 288.613 38.2699C288.44 38.3365 288.3 38.4332 288.193 38.5599C288.087 38.6865 288.033 38.8599 288.033 39.0799C288.033 39.3465 288.113 39.5499 288.273 39.6899C288.44 39.8232 288.653 39.8899 288.913 39.8899ZM293.039 40.4999V37.6899V35.3299H293.859L293.779 37.1099H293.949C294.009 36.7299 294.103 36.3965 294.229 36.1099C294.356 35.8232 294.526 35.5999 294.739 35.4399C294.953 35.2799 295.213 35.1999 295.519 35.1999C295.593 35.1999 295.669 35.2065 295.749 35.2199C295.836 35.2265 295.936 35.2465 296.049 35.2799L295.999 36.2399C295.899 36.1999 295.799 36.1732 295.699 36.1599C295.599 36.1399 295.506 36.1299 295.419 36.1299C295.153 36.1299 294.926 36.2132 294.739 36.3799C294.553 36.5465 294.393 36.7699 294.259 37.0499C294.133 37.3299 294.029 37.6432 293.949 37.9899V40.4999H293.039ZM298.785 40.6299C298.338 40.6299 297.958 40.5132 297.645 40.2799C297.332 40.0465 297.095 39.7265 296.935 39.3199C296.775 38.9132 296.695 38.4465 296.695 37.9199C296.695 37.3999 296.772 36.9365 296.925 36.5299C297.085 36.1165 297.318 35.7932 297.625 35.5599C297.932 35.3265 298.308 35.2099 298.755 35.2099C299.128 35.2099 299.432 35.2865 299.665 35.4399C299.898 35.5932 300.085 35.7932 300.225 36.0399C300.365 36.2799 300.472 36.5399 300.545 36.8199H300.715C300.688 36.6332 300.658 36.4365 300.625 36.2299C300.598 36.0165 300.575 35.8099 300.555 35.6099C300.542 35.4032 300.535 35.2199 300.535 35.0599V33.4899H301.455V37.9399V40.4999H300.635L300.685 39.1099H300.515C300.442 39.4032 300.332 39.6665 300.185 39.8999C300.038 40.1265 299.852 40.3065 299.625 40.4399C299.398 40.5665 299.118 40.6299 298.785 40.6299ZM298.995 39.8299C299.235 39.8299 299.452 39.7732 299.645 39.6599C299.838 39.5465 300.002 39.3999 300.135 39.2199C300.268 39.0332 300.368 38.8332 300.435 38.6199C300.502 38.4065 300.535 38.1999 300.535 37.9999V37.8799C300.535 37.7399 300.515 37.5865 300.475 37.4199C300.442 37.2532 300.385 37.0865 300.305 36.9199C300.225 36.7532 300.125 36.5999 300.005 36.4599C299.885 36.3199 299.742 36.2099 299.575 36.1299C299.408 36.0432 299.222 35.9999 299.015 35.9999C298.715 35.9999 298.462 36.0865 298.255 36.2599C298.055 36.4265 297.902 36.6565 297.795 36.9499C297.688 37.2432 297.635 37.5732 297.635 37.9399C297.635 38.3199 297.688 38.6532 297.795 38.9399C297.908 39.2199 298.065 39.4399 298.265 39.5999C298.465 39.7532 298.708 39.8299 298.995 39.8299ZM304.959 40.6299C304.599 40.6299 304.279 40.5899 303.999 40.5099C303.726 40.4365 303.492 40.3299 303.299 40.1899C303.112 40.0432 302.969 39.8732 302.869 39.6799C302.769 39.4799 302.719 39.2599 302.719 39.0199L303.479 38.8099C303.472 39.0299 303.529 39.2232 303.649 39.3899C303.769 39.5499 303.946 39.6732 304.179 39.7599C304.412 39.8465 304.689 39.8899 305.009 39.8899C305.409 39.8899 305.716 39.8232 305.929 39.6899C306.149 39.5565 306.259 39.3732 306.259 39.1399C306.259 38.9532 306.199 38.8099 306.079 38.7099C305.959 38.6032 305.792 38.5199 305.579 38.4599C305.366 38.3932 305.119 38.3332 304.839 38.2799C304.592 38.2265 304.349 38.1665 304.109 38.0999C303.876 38.0332 303.659 37.9465 303.459 37.8399C303.266 37.7265 303.109 37.5799 302.989 37.3999C302.869 37.2199 302.809 36.9965 302.809 36.7299C302.809 36.4165 302.889 36.1465 303.049 35.9199C303.216 35.6932 303.452 35.5165 303.759 35.3899C304.066 35.2632 304.432 35.1999 304.859 35.1999C305.286 35.1999 305.649 35.2665 305.949 35.3999C306.249 35.5265 306.486 35.7065 306.659 35.9399C306.832 36.1732 306.932 36.4432 306.959 36.7499L306.169 36.9599C306.162 36.7332 306.102 36.5465 305.989 36.3999C305.876 36.2465 305.719 36.1332 305.519 36.0599C305.326 35.9799 305.096 35.9399 304.829 35.9399C304.469 35.9399 304.186 36.0065 303.979 36.1399C303.779 36.2732 303.679 36.4565 303.679 36.6899C303.679 36.8632 303.739 37.0032 303.859 37.1099C303.986 37.2165 304.152 37.2999 304.359 37.3599C304.572 37.4199 304.812 37.4799 305.079 37.5399C305.346 37.5932 305.599 37.6532 305.839 37.7199C306.086 37.7865 306.302 37.8732 306.489 37.9799C306.682 38.0865 306.836 38.2299 306.949 38.4099C307.062 38.5832 307.119 38.8065 307.119 39.0799C307.119 39.4199 307.029 39.7065 306.849 39.9399C306.669 40.1665 306.416 40.3399 306.089 40.4599C305.769 40.5732 305.392 40.6299 304.959 40.6299Z" fill="#8A8F84"/>
<path d="M361.8 20.5035C364.342 20.5035 366.403 18.4368 366.403 15.8873C366.403 13.3379 364.342 11.2711 361.8 11.2711C359.258 11.2711 357.197 13.3379 357.197 15.8873C357.197 18.4368 359.258 20.5035 361.8 20.5035Z" stroke="#8A8F84" stroke-width="1.4"/>
<path d="M353.617 29.223C353.617 25.1198 356.345 23.0681 361.8 23.0681C367.256 23.0681 369.983 25.1198 369.983 29.223" stroke="#8A8F84" stroke-width="1.4" stroke-linecap="round"/>
<path d="M347.872 38.2547V37.4747H349.502C350.135 37.4747 350.612 37.3547 350.932 37.1147C351.252 36.8747 351.412 36.4813 351.412 35.9347C351.412 35.4347 351.262 35.0613 350.962 34.8147C350.668 34.5613 350.215 34.4347 349.602 34.4347H347.872V33.6747H349.622C350.055 33.6747 350.438 33.7247 350.772 33.8247C351.112 33.9247 351.398 34.0713 351.632 34.2647C351.865 34.458 352.042 34.698 352.162 34.9847C352.288 35.2647 352.352 35.5913 352.352 35.9647C352.352 36.4647 352.238 36.8847 352.012 37.2247C351.785 37.5647 351.452 37.8213 351.012 37.9947C350.572 38.168 350.032 38.2547 349.392 38.2547H347.872ZM347.392 40.2747V33.6747H348.302V40.2747H347.392ZM353.533 40.2747V37.4647V35.1047H354.353L354.273 36.8847H354.443C354.503 36.5047 354.596 36.1713 354.723 35.8847C354.849 35.598 355.019 35.3747 355.233 35.2147C355.446 35.0547 355.706 34.9747 356.013 34.9747C356.086 34.9747 356.163 34.9813 356.243 34.9947C356.329 35.0013 356.429 35.0213 356.543 35.0547L356.493 36.0147C356.393 35.9747 356.293 35.948 356.193 35.9347C356.093 35.9147 355.999 35.9047 355.913 35.9047C355.646 35.9047 355.419 35.988 355.233 36.1547C355.046 36.3213 354.886 36.5447 354.753 36.8247C354.626 37.1047 354.523 37.418 354.443 37.7647V40.2747H353.533ZM359.678 40.4047C359.185 40.4047 358.748 40.298 358.368 40.0847C357.995 39.8647 357.702 39.5513 357.488 39.1447C357.275 38.738 357.168 38.2447 357.168 37.6647C357.168 37.0647 357.278 36.568 357.498 36.1747C357.725 35.7747 358.025 35.4747 358.398 35.2747C358.778 35.0747 359.198 34.9747 359.658 34.9747C360.138 34.9747 360.565 35.0813 360.938 35.2947C361.318 35.5013 361.618 35.808 361.838 36.2147C362.058 36.6147 362.168 37.1113 362.168 37.7047C362.168 38.298 362.058 38.7947 361.838 39.1947C361.625 39.5947 361.328 39.898 360.948 40.1047C360.575 40.3047 360.152 40.4047 359.678 40.4047ZM359.718 39.6547C360.038 39.6547 360.312 39.578 360.538 39.4247C360.765 39.2647 360.942 39.0413 361.068 38.7547C361.195 38.468 361.258 38.128 361.258 37.7347C361.258 37.328 361.192 36.978 361.058 36.6847C360.932 36.3847 360.748 36.1547 360.508 35.9947C360.268 35.828 359.978 35.7447 359.638 35.7447C359.325 35.7447 359.052 35.818 358.818 35.9647C358.585 36.1113 358.405 36.328 358.278 36.6147C358.152 36.8947 358.088 37.238 358.088 37.6447C358.088 38.2713 358.235 38.7647 358.528 39.1247C358.822 39.478 359.218 39.6547 359.718 39.6547ZM363.874 40.2747V36.6247H362.944V35.8947L364.244 35.9747V35.7947C364.078 35.728 363.938 35.638 363.824 35.5247C363.718 35.4113 363.634 35.278 363.574 35.1247C363.521 34.9713 363.494 34.8047 363.494 34.6247C363.494 34.3513 363.554 34.1113 363.674 33.9047C363.801 33.698 363.981 33.5347 364.214 33.4147C364.448 33.2947 364.721 33.2347 365.034 33.2347C365.288 33.2347 365.514 33.2713 365.714 33.3447C365.921 33.4113 366.091 33.498 366.224 33.6047L366.114 34.4547C365.988 34.3413 365.834 34.2513 365.654 34.1847C365.474 34.1113 365.294 34.0747 365.114 34.0747C364.894 34.0747 364.714 34.1447 364.574 34.2847C364.434 34.418 364.364 34.6347 364.364 34.9347C364.364 35.0947 364.388 35.238 364.434 35.3647C364.481 35.4847 364.541 35.588 364.614 35.6747C364.688 35.7547 364.764 35.818 364.844 35.8647H366.134L366.124 36.6247H364.764V40.2747H363.874ZM367.215 40.2747V35.1047H368.125V40.2747H367.215ZM367.665 34.1947C367.451 34.1947 367.291 34.1513 367.185 34.0647C367.078 33.978 367.025 33.848 367.025 33.6747C367.025 33.5013 367.078 33.3713 367.185 33.2847C367.291 33.198 367.448 33.1547 367.655 33.1547C367.868 33.1547 368.028 33.198 368.135 33.2847C368.248 33.3713 368.305 33.5013 368.305 33.6747C368.305 33.848 368.248 33.978 368.135 34.0647C368.028 34.1513 367.871 34.1947 367.665 34.1947ZM369.724 40.2747V33.2647H370.624V40.2747H369.724ZM374.444 40.4047C374.037 40.4047 373.677 40.3447 373.364 40.2247C373.051 40.098 372.787 39.918 372.574 39.6847C372.367 39.4513 372.207 39.1747 372.094 38.8547C371.987 38.5347 371.934 38.1747 371.934 37.7747C371.934 37.368 371.987 36.9947 372.094 36.6547C372.207 36.3147 372.367 36.018 372.574 35.7647C372.781 35.5113 373.034 35.318 373.334 35.1847C373.634 35.0447 373.977 34.9747 374.364 34.9747C374.704 34.9747 375.011 35.0313 375.284 35.1447C375.564 35.258 375.804 35.4347 376.004 35.6747C376.204 35.908 376.354 36.2047 376.454 36.5647C376.554 36.918 376.594 37.338 376.574 37.8247L372.514 37.8547V37.2347L376.024 37.2047L375.704 37.6247C375.737 37.2047 375.697 36.858 375.584 36.5847C375.477 36.3047 375.317 36.0947 375.104 35.9547C374.891 35.8147 374.644 35.7447 374.364 35.7447C374.051 35.7447 373.777 35.8247 373.544 35.9847C373.317 36.1447 373.141 36.3747 373.014 36.6747C372.887 36.9747 372.824 37.338 372.824 37.7647C372.824 38.378 372.961 38.848 373.234 39.1747C373.514 39.4947 373.921 39.6547 374.454 39.6547C374.667 39.6547 374.851 39.6313 375.004 39.5847C375.157 39.5313 375.287 39.4613 375.394 39.3747C375.507 39.288 375.601 39.1847 375.674 39.0647C375.747 38.9447 375.804 38.8147 375.844 38.6747L376.644 38.8647C376.577 39.1047 376.481 39.3213 376.354 39.5147C376.234 39.7013 376.081 39.8613 375.894 39.9947C375.714 40.128 375.504 40.228 375.264 40.2947C375.024 40.368 374.751 40.4047 374.444 40.4047Z" fill="#8A8F84"/>
<defs>
<linearGradient id="paint0_linear_591_10358" x1="0" y1="0.5" x2="0" y2="80.5141" gradientUnits="userSpaceOnUse">
<stop stop-color="#F6F5F0" stop-opacity="0.97"/>
<stop offset="1" stop-color="#F0EFE8"/>
</linearGradient>
</defs>
</svg>
