<svg width="88" height="11" viewBox="0 0 88 11" fill="none" xmlns="http://www.w3.org/2000/svg">
<path d="M4.23 10.92C2.93 10.92 1.9 10.56 1.14 9.83996C0.38 9.10996 1.11759e-08 8.06996 1.11759e-08 6.71996V4.19996C1.11759e-08 2.84996 0.38 1.81496 1.14 1.09496C1.9 0.36496 2.93 -3.97563e-05 4.23 -3.97563e-05C5.52 -3.97563e-05 6.515 0.35496 7.215 1.06496C7.925 1.76496 8.28 2.72996 8.28 3.95996V4.04996H6.33V3.89996C6.33 3.27996 6.155 2.76996 5.805 2.36996C5.465 1.96996 4.94 1.76996 4.23 1.76996C3.53 1.76996 2.98 1.98496 2.58 2.41496C2.18 2.84496 1.98 3.42996 1.98 4.16996V6.74996C1.98 7.47996 2.18 8.06496 2.58 8.50496C2.98 8.93496 3.53 9.14996 4.23 9.14996C4.94 9.14996 5.465 8.94996 5.805 8.54996C6.155 8.13996 6.33 7.62996 6.33 7.01996V6.74996H8.28V6.95996C8.28 8.18996 7.925 9.15996 7.215 9.86996C6.515 10.57 5.52 10.92 4.23 10.92ZM12.7883 10.83C12.2083 10.83 11.6983 10.7 11.2583 10.44C10.8283 10.17 10.4933 9.79996 10.2533 9.32996C10.0133 8.85996 9.89332 8.31996 9.89332 7.70996V3.26996H11.7833V7.55996C11.7833 8.11996 11.9183 8.53996 12.1883 8.81996C12.4683 9.09996 12.8633 9.23996 13.3733 9.23996C13.9533 9.23996 14.4033 9.04996 14.7233 8.66996C15.0433 8.27996 15.2033 7.73996 15.2033 7.04996V3.26996H17.0933V10.71H15.2333V9.73496H14.9633C14.8433 9.98496 14.6183 10.23 14.2883 10.47C13.9583 10.71 13.4583 10.83 12.7883 10.83ZM22.2865 10.92C21.3165 10.92 20.5215 10.71 19.9015 10.29C19.2815 9.86996 18.9065 9.26996 18.7765 8.48996L20.5165 8.03996C20.5865 8.38996 20.7015 8.66496 20.8615 8.86496C21.0315 9.06496 21.2365 9.20996 21.4765 9.29996C21.7265 9.37996 21.9965 9.41996 22.2865 9.41996C22.7265 9.41996 23.0515 9.34496 23.2615 9.19496C23.4715 9.03496 23.5765 8.83996 23.5765 8.60996C23.5765 8.37996 23.4765 8.20496 23.2765 8.08496C23.0765 7.95496 22.7565 7.84996 22.3165 7.76996L21.8965 7.69496C21.3765 7.59496 20.9015 7.45996 20.4715 7.28996C20.0415 7.10996 19.6965 6.86496 19.4365 6.55496C19.1765 6.24496 19.0465 5.84496 19.0465 5.35496C19.0465 4.61496 19.3165 4.04996 19.8565 3.65996C20.3965 3.25996 21.1065 3.05996 21.9865 3.05996C22.8165 3.05996 23.5065 3.24496 24.0565 3.61496C24.6065 3.98496 24.9665 4.46996 25.1365 5.06996L23.3815 5.60996C23.3015 5.22996 23.1365 4.95996 22.8865 4.79996C22.6465 4.63996 22.3465 4.55996 21.9865 4.55996C21.6265 4.55996 21.3515 4.62496 21.1615 4.75496C20.9715 4.87496 20.8765 5.04496 20.8765 5.26496C20.8765 5.50496 20.9765 5.68496 21.1765 5.80496C21.3765 5.91496 21.6465 5.99996 21.9865 6.05996L22.4065 6.13496C22.9665 6.23496 23.4715 6.36996 23.9215 6.53996C24.3815 6.69996 24.7415 6.93496 25.0015 7.24496C25.2715 7.54496 25.4065 7.95496 25.4065 8.47496C25.4065 9.25496 25.1215 9.85996 24.5515 10.29C23.9915 10.71 23.2365 10.92 22.2865 10.92ZM29.7662 10.71C29.2762 10.71 28.8762 10.56 28.5662 10.26C28.2662 9.94996 28.1162 9.53996 28.1162 9.02996V4.82996H26.2562V3.26996H28.1162V0.95996H30.0062V3.26996H32.0462V4.82996H30.0062V8.69996C30.0062 8.99996 30.1462 9.14996 30.4262 9.14996H31.8662V10.71H29.7662ZM37.0334 10.92C36.2934 10.92 35.6284 10.77 35.0384 10.47C34.4484 10.17 33.9834 9.73496 33.6434 9.16496C33.3034 8.59496 33.1334 7.90996 33.1334 7.10996V6.86996C33.1334 6.06996 33.3034 5.38496 33.6434 4.81496C33.9834 4.24496 34.4484 3.80996 35.0384 3.50996C35.6284 3.20996 36.2934 3.05996 37.0334 3.05996C37.7734 3.05996 38.4384 3.20996 39.0284 3.50996C39.6184 3.80996 40.0834 4.24496 40.4234 4.81496C40.7634 5.38496 40.9334 6.06996 40.9334 6.86996V7.10996C40.9334 7.90996 40.7634 8.59496 40.4234 9.16496C40.0834 9.73496 39.6184 10.17 39.0284 10.47C38.4384 10.77 37.7734 10.92 37.0334 10.92ZM37.0334 9.23996C37.6134 9.23996 38.0934 9.05496 38.4734 8.68496C38.8534 8.30496 39.0434 7.76496 39.0434 7.06496V6.91496C39.0434 6.21496 38.8534 5.67996 38.4734 5.30996C38.1034 4.92996 37.6234 4.73996 37.0334 4.73996C36.4534 4.73996 35.9734 4.92996 35.5934 5.30996C35.2134 5.67996 35.0234 6.21496 35.0234 6.91496V7.06496C35.0234 7.76496 35.2134 8.30496 35.5934 8.68496C35.9734 9.05496 36.4534 9.23996 37.0334 9.23996ZM42.6779 10.71V3.26996H44.5379V4.07996H44.8079C44.9379 3.82996 45.1529 3.61496 45.4529 3.43496C45.7529 3.24496 46.1479 3.14996 46.6379 3.14996C47.1679 3.14996 47.5929 3.25496 47.9129 3.46496C48.2329 3.66496 48.4779 3.92996 48.6479 4.25996H48.9179C49.0879 3.93996 49.3279 3.67496 49.6379 3.46496C49.9479 3.25496 50.3879 3.14996 50.9579 3.14996C51.4179 3.14996 51.8329 3.24996 52.2029 3.44996C52.5829 3.63996 52.8829 3.93496 53.1029 4.33496C53.3329 4.72496 53.4479 5.21996 53.4479 5.81996V10.71H51.5579V5.95496C51.5579 5.54496 51.4529 5.23996 51.2429 5.03996C51.0329 4.82996 50.7379 4.72496 50.3579 4.72496C49.9279 4.72496 49.5929 4.86496 49.3529 5.14496C49.1229 5.41496 49.0079 5.80496 49.0079 6.31496V10.71H47.1179V5.95496C47.1179 5.54496 47.0129 5.23996 46.8029 5.03996C46.5929 4.82996 46.2979 4.72496 45.9179 4.72496C45.4879 4.72496 45.1529 4.86496 44.9129 5.14496C44.6829 5.41496 44.5679 5.80496 44.5679 6.31496V10.71H42.6779ZM59.2893 10.71V3.26996H61.1493V4.24496H61.4193C61.5393 3.98496 61.7643 3.73996 62.0943 3.50996C62.4243 3.26996 62.9243 3.14996 63.5943 3.14996C64.1743 3.14996 64.6793 3.28496 65.1093 3.55496C65.5493 3.81496 65.8893 4.17996 66.1293 4.64996C66.3693 5.10996 66.4893 5.64996 66.4893 6.26996V10.71H64.5993V6.41996C64.5993 5.85996 64.4593 5.43996 64.1793 5.15996C63.9093 4.87996 63.5193 4.73996 63.0093 4.73996C62.4293 4.73996 61.9793 4.93496 61.6593 5.32496C61.3393 5.70496 61.1793 6.23996 61.1793 6.92996V10.71H59.2893ZM72.0724 10.92C71.3324 10.92 70.6674 10.77 70.0774 10.47C69.4874 10.17 69.0224 9.73496 68.6824 9.16496C68.3424 8.59496 68.1724 7.90996 68.1724 7.10996V6.86996C68.1724 6.06996 68.3424 5.38496 68.6824 4.81496C69.0224 4.24496 69.4874 3.80996 70.0774 3.50996C70.6674 3.20996 71.3324 3.05996 72.0724 3.05996C72.8124 3.05996 73.4774 3.20996 74.0674 3.50996C74.6574 3.80996 75.1224 4.24496 75.4624 4.81496C75.8024 5.38496 75.9724 6.06996 75.9724 6.86996V7.10996C75.9724 7.90996 75.8024 8.59496 75.4624 9.16496C75.1224 9.73496 74.6574 10.17 74.0674 10.47C73.4774 10.77 72.8124 10.92 72.0724 10.92ZM72.0724 9.23996C72.6524 9.23996 73.1324 9.05496 73.5124 8.68496C73.8924 8.30496 74.0824 7.76496 74.0824 7.06496V6.91496C74.0824 6.21496 73.8924 5.67996 73.5124 5.30996C73.1424 4.92996 72.6624 4.73996 72.0724 4.73996C71.4924 4.73996 71.0124 4.92996 70.6324 5.30996C70.2524 5.67996 70.0624 6.21496 70.0624 6.91496V7.06496C70.0624 7.76496 70.2524 8.30496 70.6324 8.68496C71.0124 9.05496 71.4924 9.23996 72.0724 9.23996ZM78.2877 10.71L77.2377 3.26996H79.1127L79.7727 9.43496H80.0427L81.0027 3.26996H84.0327L84.9927 9.43496H85.2627L85.9227 3.26996H87.7977L86.7477 10.71H83.6127L82.6527 4.54496H82.3827L81.4227 10.71H78.2877Z" fill="white"/>
</svg>
