<svg width="84" height="112" viewBox="0 0 84 112" fill="none" xmlns="http://www.w3.org/2000/svg">
<rect x="0.5" y="0.5" width="83" height="111" rx="4.5" stroke="#9747FF" stroke-dasharray="10 5"/>
<path d="M51 20H33C25.8203 20 20 25.8203 20 33C20 40.1797 25.8203 46 33 46H51C58.1797 46 64 40.1797 64 33C64 25.8203 58.1797 20 51 20Z" fill="#E0DDD4"/>
<path d="M34 43C39.5228 43 44 38.5228 44 33C44 27.4772 39.5228 23 34 23C28.4772 23 24 27.4772 24 33C24 38.5228 28.4772 43 34 43Z" fill="white"/>
<path d="M51 66H33C25.8203 66 20 71.8203 20 79C20 86.1797 25.8203 92 33 92H51C58.1797 92 64 86.1797 64 79C64 71.8203 58.1797 66 51 66Z" fill="#8BAA3D"/>
<path d="M50 89C55.5228 89 60 84.5228 60 79C60 73.4772 55.5228 69 50 69C44.4772 69 40 73.4772 40 79C40 84.5228 44.4772 89 50 89Z" fill="white"/>
</svg>
