<svg width="124" height="346" viewBox="0 0 124 346" fill="none" xmlns="http://www.w3.org/2000/svg">
<rect x="0.5" y="0.5" width="123" height="344.987" rx="4.5" stroke="#9747FF" stroke-dasharray="10 5"/>
<path d="M62 104C85.196 104 104 85.196 104 62C104 38.804 85.196 20 62 20C38.804 20 20 38.804 20 62C20 85.196 38.804 104 62 104Z" stroke="#E8E5DC" stroke-width="1.2"/>
<path d="M77 136.812H47C39.8203 136.812 34 142.673 34 149.902C34 157.132 39.8203 162.993 47 162.993H77C84.1797 162.993 90 157.132 90 149.902C90 142.673 84.1797 136.812 77 136.812Z" fill="url(#paint0_linear_517_5023)"/>
<path d="M50.6526 152.451V150.931H49.1526V149.791H50.6526V148.271H51.8326V149.791H53.3326V150.931H51.8326V152.451H50.6526ZM56.9456 153.861L58.7856 146.861H61.0856L62.9256 153.861H61.5656L61.1856 152.321H58.6856L58.3056 153.861H56.9456ZM58.9956 151.101H60.8756L60.0256 147.691H59.8456L58.9956 151.101ZM65.8035 154.001C65.4102 154.001 65.0402 153.904 64.6935 153.711C64.3535 153.511 64.0802 153.221 63.8735 152.841C63.6668 152.461 63.5635 152.001 63.5635 151.461V151.301C63.5635 150.761 63.6668 150.301 63.8735 149.921C64.0802 149.541 64.3535 149.254 64.6935 149.061C65.0335 148.861 65.4035 148.761 65.8035 148.761C66.1035 148.761 66.3535 148.798 66.5535 148.871C66.7602 148.938 66.9268 149.024 67.0535 149.131C67.1802 149.238 67.2768 149.351 67.3435 149.471H67.5235V146.861H68.7835V153.861H67.5435V153.261H67.3635C67.2502 153.448 67.0735 153.618 66.8335 153.771C66.6002 153.924 66.2568 154.001 65.8035 154.001ZM66.1835 152.901C66.5702 152.901 66.8935 152.778 67.1535 152.531C67.4135 152.278 67.5435 151.911 67.5435 151.431V151.331C67.5435 150.851 67.4135 150.488 67.1535 150.241C66.9002 149.988 66.5768 149.861 66.1835 149.861C65.7968 149.861 65.4735 149.988 65.2135 150.241C64.9535 150.488 64.8235 150.851 64.8235 151.331V151.431C64.8235 151.911 64.9535 152.278 65.2135 152.531C65.4735 152.778 65.7968 152.901 66.1835 152.901ZM72.1805 154.001C71.7871 154.001 71.4171 153.904 71.0705 153.711C70.7305 153.511 70.4571 153.221 70.2505 152.841C70.0438 152.461 69.9405 152.001 69.9405 151.461V151.301C69.9405 150.761 70.0438 150.301 70.2505 149.921C70.4571 149.541 70.7305 149.254 71.0705 149.061C71.4105 148.861 71.7805 148.761 72.1805 148.761C72.4805 148.761 72.7305 148.798 72.9305 148.871C73.1371 148.938 73.3038 149.024 73.4305 149.131C73.5571 149.238 73.6538 149.351 73.7205 149.471H73.9005V146.861H75.1605V153.861H73.9205V153.261H73.7405C73.6271 153.448 73.4505 153.618 73.2105 153.771C72.9771 153.924 72.6338 154.001 72.1805 154.001ZM72.5605 152.901C72.9471 152.901 73.2705 152.778 73.5305 152.531C73.7905 152.278 73.9205 151.911 73.9205 151.431V151.331C73.9205 150.851 73.7905 150.488 73.5305 150.241C73.2771 149.988 72.9538 149.861 72.5605 149.861C72.1738 149.861 71.8505 149.988 71.5905 150.241C71.3305 150.488 71.2005 150.851 71.2005 151.331V151.431C71.2005 151.911 71.3305 152.278 71.5905 152.531C71.8505 152.778 72.1738 152.901 72.5605 152.901Z" fill="white"/>
<path d="M62 266.994C85.196 266.994 104 248.19 104 224.994C104 201.798 85.196 182.994 62 182.994C38.804 182.994 20 201.798 20 224.994C20 248.19 38.804 266.994 62 266.994Z" stroke="#9EBE44" stroke-width="1.2"/>
<path d="M77 299.806H47C39.8203 299.806 34 305.667 34 312.897C34 320.127 39.8203 325.988 47 325.988H77C84.1797 325.988 90 320.127 90 312.897C90 305.667 84.1797 299.806 77 299.806Z" fill="#1B3C2A"/>
<path d="M46.5599 317L48.3999 310H50.6999L52.5399 317H51.1799L50.7999 315.46H48.2999L47.9199 317H46.5599ZM48.6099 314.24H50.4899L49.6399 310.83H49.4599L48.6099 314.24ZM55.4178 317.14C55.0244 317.14 54.6544 317.043 54.3078 316.85C53.9678 316.65 53.6944 316.36 53.4878 315.98C53.2811 315.6 53.1778 315.14 53.1778 314.6V314.44C53.1778 313.9 53.2811 313.44 53.4878 313.06C53.6944 312.68 53.9678 312.393 54.3078 312.2C54.6478 312 55.0178 311.9 55.4178 311.9C55.7178 311.9 55.9678 311.937 56.1678 312.01C56.3744 312.077 56.5411 312.163 56.6678 312.27C56.7944 312.377 56.8911 312.49 56.9578 312.61H57.1378V310H58.3978V317H57.1578V316.4H56.9778C56.8644 316.587 56.6878 316.757 56.4478 316.91C56.2144 317.063 55.8711 317.14 55.4178 317.14ZM55.7978 316.04C56.1844 316.04 56.5078 315.917 56.7678 315.67C57.0278 315.417 57.1578 315.05 57.1578 314.57V314.47C57.1578 313.99 57.0278 313.627 56.7678 313.38C56.5144 313.127 56.1911 313 55.7978 313C55.4111 313 55.0878 313.127 54.8278 313.38C54.5678 313.627 54.4378 313.99 54.4378 314.47V314.57C54.4378 315.05 54.5678 315.417 54.8278 315.67C55.0878 315.917 55.4111 316.04 55.7978 316.04ZM61.7947 317.14C61.4014 317.14 61.0314 317.043 60.6847 316.85C60.3447 316.65 60.0714 316.36 59.8647 315.98C59.6581 315.6 59.5547 315.14 59.5547 314.6V314.44C59.5547 313.9 59.6581 313.44 59.8647 313.06C60.0714 312.68 60.3447 312.393 60.6847 312.2C61.0247 312 61.3947 311.9 61.7947 311.9C62.0947 311.9 62.3447 311.937 62.5447 312.01C62.7514 312.077 62.9181 312.163 63.0447 312.27C63.1714 312.377 63.2681 312.49 63.3347 312.61H63.5147V310H64.7747V317H63.5347V316.4H63.3547C63.2414 316.587 63.0647 316.757 62.8247 316.91C62.5914 317.063 62.2481 317.14 61.7947 317.14ZM62.1747 316.04C62.5614 316.04 62.8847 315.917 63.1447 315.67C63.4047 315.417 63.5347 315.05 63.5347 314.57V314.47C63.5347 313.99 63.4047 313.627 63.1447 313.38C62.8914 313.127 62.5681 313 62.1747 313C61.7881 313 61.4647 313.127 61.2047 313.38C60.9447 313.627 60.8147 313.99 60.8147 314.47V314.57C60.8147 315.05 60.9447 315.417 61.2047 315.67C61.4647 315.917 61.7881 316.04 62.1747 316.04ZM68.4317 317.14C67.9383 317.14 67.5017 317.037 67.1217 316.83C66.7483 316.617 66.455 316.32 66.2417 315.94C66.035 315.553 65.9317 315.1 65.9317 314.58V314.46C65.9317 313.94 66.035 313.49 66.2417 313.11C66.4483 312.723 66.7383 312.427 67.1117 312.22C67.485 312.007 67.9183 311.9 68.4117 311.9C68.8983 311.9 69.3217 312.01 69.6817 312.23C70.0417 312.443 70.3217 312.743 70.5217 313.13C70.7217 313.51 70.8217 313.953 70.8217 314.46V314.89H67.2117C67.225 315.23 67.3517 315.507 67.5917 315.72C67.8317 315.933 68.125 316.04 68.4717 316.04C68.825 316.04 69.085 315.963 69.2517 315.81C69.4183 315.657 69.545 315.487 69.6317 315.3L70.6617 315.84C70.5683 316.013 70.4317 316.203 70.2517 316.41C70.0783 316.61 69.845 316.783 69.5517 316.93C69.2583 317.07 68.885 317.14 68.4317 317.14ZM67.2217 313.95H69.5417C69.515 313.663 69.3983 313.433 69.1917 313.26C68.9917 313.087 68.7283 313 68.4017 313C68.0617 313 67.7917 313.087 67.5917 313.26C67.3917 313.433 67.2683 313.663 67.2217 313.95ZM73.9432 317.14C73.5498 317.14 73.1798 317.043 72.8332 316.85C72.4932 316.65 72.2198 316.36 72.0132 315.98C71.8065 315.6 71.7032 315.14 71.7032 314.6V314.44C71.7032 313.9 71.8065 313.44 72.0132 313.06C72.2198 312.68 72.4932 312.393 72.8332 312.2C73.1732 312 73.5432 311.9 73.9432 311.9C74.2432 311.9 74.4932 311.937 74.6932 312.01C74.8998 312.077 75.0665 312.163 75.1932 312.27C75.3198 312.377 75.4165 312.49 75.4832 312.61H75.6632V310H76.9232V317H75.6832V316.4H75.5032C75.3898 316.587 75.2132 316.757 74.9732 316.91C74.7398 317.063 74.3965 317.14 73.9432 317.14ZM74.3232 316.04C74.7098 316.04 75.0332 315.917 75.2932 315.67C75.5532 315.417 75.6832 315.05 75.6832 314.57V314.47C75.6832 313.99 75.5532 313.627 75.2932 313.38C75.0398 313.127 74.7165 313 74.3232 313C73.9365 313 73.6132 313.127 73.3532 313.38C73.0932 313.627 72.9632 313.99 72.9632 314.47V314.57C72.9632 315.05 73.0932 315.417 73.3532 315.67C73.6132 315.917 73.9365 316.04 74.3232 316.04Z" fill="white"/>
<path d="M100 203C105.523 203 110 198.523 110 193C110 187.477 105.523 183 100 183C94.4772 183 90 187.477 90 193C90 198.523 94.4772 203 100 203Z" fill="#8BAA3D"/>
<path d="M96 193L99 196L105 190" stroke="white" stroke-width="1.8" stroke-linecap="round" stroke-linejoin="round"/>
<defs>
<linearGradient id="paint0_linear_517_5023" x1="34" y1="136.812" x2="90" y2="136.812" gradientUnits="userSpaceOnUse">
<stop stop-color="#8BAA3D"/>
<stop offset="1" stop-color="#A0C044"/>
</linearGradient>
</defs>
</svg>
