<svg width="236" height="236" viewBox="0 0 236 236" fill="none" xmlns="http://www.w3.org/2000/svg">
<rect x="0.5" y="0.5" width="235" height="235" rx="4.5" stroke="#9747FF" stroke-dasharray="10 5"/>
<path d="M150 37C150 27.6112 142.389 20 133 20C123.611 20 116 27.6112 116 37C116 46.3888 123.611 54 133 54C142.389 54 150 46.3888 150 37Z" fill="#E8EDDA"/>
<path d="M126 37H140" stroke="#1B3C2A" stroke-width="2" stroke-linecap="round"/>
<path d="M168.511 43V33.304H168.223L166.719 36.856H164.575L166.863 31.8H170.559V43H168.511Z" fill="#1B3C2A"/>
<path d="M216 37C216 27.6112 208.389 20 199 20C189.611 20 182 27.6112 182 37C182 46.3888 189.611 54 199 54C208.389 54 216 46.3888 216 37Z" fill="#8BAA3D"/>
<path d="M192 37H206" stroke="white" stroke-width="2" stroke-linecap="round"/>
<path d="M199 30V44" stroke="white" stroke-width="2" stroke-linecap="round"/>
<path d="M150 91C150 81.6112 142.389 74 133 74C123.611 74 116 81.6112 116 91C116 100.389 123.611 108 133 108C142.389 108 150 100.389 150 91Z" fill="#E8EDDA"/>
<path d="M126 91H140" stroke="#1B3C2A" stroke-width="2" stroke-linecap="round"/>
<path d="M163.922 97V95.656C163.922 94.8773 164.05 94.232 164.306 93.72C164.562 93.1973 164.93 92.7707 165.41 92.44C165.901 92.0987 166.498 91.8213 167.202 91.608L168.274 91.272C168.669 91.144 168.999 90.9893 169.266 90.808C169.533 90.616 169.735 90.3867 169.874 90.12C170.023 89.8533 170.098 89.5493 170.098 89.208V89.144C170.098 88.6107 169.917 88.1893 169.554 87.88C169.191 87.56 168.695 87.4 168.066 87.4C167.447 87.4 166.946 87.5707 166.562 87.912C166.189 88.2427 166.002 88.7227 166.002 89.352V89.64H163.954V89.384C163.954 88.5733 164.135 87.8853 164.498 87.32C164.861 86.7547 165.351 86.3227 165.97 86.024C166.599 85.7253 167.298 85.576 168.066 85.576C168.834 85.576 169.527 85.7253 170.146 86.024C170.765 86.312 171.25 86.7227 171.602 87.256C171.965 87.7787 172.146 88.3973 172.146 89.112V89.272C172.146 89.9867 171.997 90.5947 171.698 91.096C171.41 91.5867 171.015 91.992 170.514 92.312C170.013 92.6213 169.442 92.8773 168.802 93.08L167.778 93.4C167.319 93.5387 166.962 93.6933 166.706 93.864C166.45 94.024 166.269 94.2053 166.162 94.408C166.066 94.6 166.018 94.8347 166.018 95.112V95.176H172.05V97H163.922Z" fill="#1B3C2A"/>
<path d="M216 91C216 81.6112 208.389 74 199 74C189.611 74 182 81.6112 182 91C182 100.389 189.611 108 199 108C208.389 108 216 100.389 216 91Z" fill="#8BAA3D"/>
<path d="M192 91H206" stroke="white" stroke-width="2" stroke-linecap="round"/>
<path d="M199 84V98" stroke="white" stroke-width="2" stroke-linecap="round"/>
<path d="M150 145C150 135.611 142.389 128 133 128C123.611 128 116 135.611 116 145C116 154.389 123.611 162 133 162C142.389 162 150 154.389 150 145Z" fill="#E8EDDA"/>
<path d="M126 145H140" stroke="#1B3C2A" stroke-width="2" stroke-linecap="round"/>
<path d="M169.334 151V148.728H163.83V146.36L167.702 139.8H171.382V146.904H173.238V148.728H171.382V151H169.334ZM165.782 146.904H169.334V141.112H169.046L165.782 146.648V146.904Z" fill="#1B3C2A"/>
<path d="M216 145C216 135.611 208.389 128 199 128C189.611 128 182 135.611 182 145C182 154.389 189.611 162 199 162C208.389 162 216 154.389 216 145Z" fill="#8BAA3D"/>
<path d="M192 145H206" stroke="white" stroke-width="2" stroke-linecap="round"/>
<path d="M199 138V152" stroke="white" stroke-width="2" stroke-linecap="round"/>
<path d="M150 199C150 189.611 142.389 182 133 182C123.611 182 116 189.611 116 199C116 208.389 123.611 216 133 216C142.389 216 150 208.389 150 199Z" fill="#E8EDDA"/>
<path d="M126 199H140" stroke="#1B3C2A" stroke-width="2" stroke-linecap="round"/>
<path d="M168.051 205.224C167.176 205.224 166.419 205.069 165.779 204.76C165.15 204.451 164.664 204.013 164.323 203.448C163.982 202.883 163.811 202.227 163.811 201.48V201.32H165.891V201.464C165.891 201.997 166.067 202.456 166.419 202.84C166.782 203.213 167.315 203.4 168.019 203.4C168.723 203.4 169.262 203.213 169.635 202.84C170.019 202.456 170.211 201.96 170.211 201.352V201.192C170.211 200.595 170.019 200.12 169.635 199.768C169.262 199.416 168.792 199.24 168.227 199.24C167.918 199.24 167.662 199.283 167.459 199.368C167.256 199.453 167.091 199.56 166.963 199.688C166.835 199.816 166.728 199.944 166.643 200.072H164.163V193.8H171.811V195.656H166.211V198.392H166.499C166.606 198.253 166.75 198.12 166.931 197.992C167.112 197.864 167.347 197.757 167.635 197.672C167.923 197.587 168.264 197.544 168.659 197.544C169.32 197.544 169.923 197.683 170.467 197.96C171.011 198.237 171.443 198.648 171.763 199.192C172.094 199.725 172.259 200.387 172.259 201.176V201.368C172.259 202.157 172.088 202.84 171.747 203.416C171.416 203.992 170.936 204.44 170.307 204.76C169.678 205.069 168.926 205.224 168.051 205.224Z" fill="#1B3C2A"/>
<path d="M216 199C216 189.611 208.389 182 199 182C189.611 182 182 189.611 182 199C182 208.389 189.611 216 199 216C208.389 216 216 208.389 216 199Z" fill="#8BAA3D"/>
<path d="M192 199H206" stroke="white" stroke-width="2" stroke-linecap="round"/>
<path d="M199 192V206" stroke="white" stroke-width="2" stroke-linecap="round"/>
</svg>
