<svg width="130" height="116" viewBox="0 0 130 116" fill="none" xmlns="http://www.w3.org/2000/svg">
<rect x="0.5" y="0.5" width="129" height="115" rx="4.5" stroke="#9747FF" stroke-dasharray="10 5"/>
<path d="M96 20H34C26.268 20 20 26.268 20 34C20 41.732 26.268 48 34 48H96C103.732 48 110 41.732 110 34C110 26.268 103.732 20 96 20Z" fill="#E8EDDA"/>
<path d="M96 68H34C26.268 68 20 74.268 20 82C20 89.732 26.268 96 34 96H96C103.732 96 110 89.732 110 82C110 74.268 103.732 68 96 68Z" fill="#70A47B"/>
</svg>
