<svg width="160" height="300" viewBox="0 0 160 300" fill="none" xmlns="http://www.w3.org/2000/svg">
<rect x="0.5" y="0.5" width="159" height="299" rx="4.5" stroke="#9747FF" stroke-dasharray="10 5"/>
<path d="M80 20C95.913 20 111.174 26.3214 122.427 37.5736C133.679 48.8258 140 64.087 140 80C140 95.913 133.679 111.174 122.427 122.426C111.174 133.679 95.913 140 80 140C80 140 72.0001 137.574 72 130C71.9999 122.426 80 120.259 80 120.259C90.6772 120.259 100.917 116.017 108.467 108.467C116.017 100.917 120.259 90.6772 120.259 80C120.259 69.3228 116.017 59.0829 108.467 51.533C100.917 43.983 90.6772 39.7415 80 39.7415V20Z" fill="#9DBA54"/>
<path d="M80 160C91.8669 160 103.467 163.519 113.334 170.112C123.201 176.705 130.892 186.075 135.433 197.039C139.974 208.003 141.162 220.067 138.847 231.705C136.532 243.344 130.818 254.035 122.427 262.426C114.035 270.818 103.344 276.532 91.7053 278.847C80.0665 281.162 68.0026 279.974 57.0391 275.433C46.0755 270.891 36.7047 263.201 30.1118 253.334C23.5189 243.467 20 231.867 20 220C20 220 22 213 30 213C38 213 39.7415 220 39.7415 220C39.7415 227.962 42.1027 235.746 46.5264 242.366C50.95 248.987 57.2375 254.147 64.5938 257.194C71.95 260.241 80.0446 261.038 87.854 259.485C95.6634 257.932 102.837 254.097 108.467 248.467C114.097 242.837 117.931 235.663 119.485 227.854C121.038 220.045 120.241 211.95 117.194 204.594C114.147 197.237 108.987 190.95 102.366 186.526C95.746 182.103 87.9624 179.741 80 179.741V160Z" fill="#9DBA54"/>
</svg>
