<svg width="160" height="1420" viewBox="0 0 160 1420" fill="none" xmlns="http://www.w3.org/2000/svg">
<rect x="0.5" y="0.5" width="159" height="1419" rx="4.5" stroke="#9747FF" stroke-dasharray="10 5"/>
<path d="M80 20C92.6708 20 105.016 24.0113 115.267 31.459L103.663 47.4302C96.7853 42.433 88.5018 39.7415 80 39.7415V20Z" fill="#9DBA54"/>
<path d="M80 160C92.6708 160 105.016 164.011 115.267 171.459C125.518 178.907 133.148 189.408 137.063 201.459L118.288 207.559C115.661 199.474 110.541 192.427 103.663 187.43C96.7853 182.433 88.5018 179.741 80 179.741V160Z" fill="#9DBA54"/>
<path d="M80 300C89.4686 300 98.8028 302.241 107.239 306.54C115.676 310.838 122.976 317.073 128.541 324.733C134.107 332.393 137.78 341.262 139.261 350.614C140.743 359.966 139.989 369.536 137.063 378.541L118.288 372.441C120.251 366.398 120.757 359.977 119.763 353.702C118.769 347.427 116.304 341.476 112.57 336.337C108.836 331.197 103.938 327.014 98.277 324.129C92.6162 321.245 86.3532 319.741 80 319.741V300Z" fill="#9DBA54"/>
<path d="M80 440C92.6708 440 105.016 444.011 115.267 451.459C125.518 458.907 133.148 469.408 137.063 481.459C140.979 493.51 140.979 506.49 137.063 518.541C133.148 530.592 125.518 541.093 115.267 548.541L103.663 532.57C110.541 527.573 115.661 520.526 118.288 512.441C120.915 504.355 120.915 495.645 118.288 487.559C115.661 479.474 110.541 472.427 103.663 467.43C96.7853 462.433 88.5018 459.741 80 459.741V440Z" fill="#9DBA54"/>
<path d="M80 580C87.8793 580 95.6815 581.552 102.961 584.567C110.241 587.583 116.855 592.002 122.426 597.574C127.998 603.145 132.417 609.759 135.433 617.039C138.448 624.319 140 632.121 140 640C140 647.879 138.448 655.681 135.433 662.961C132.417 670.241 127.998 676.855 122.426 682.426C116.855 687.998 110.241 692.417 102.961 695.433C95.6814 698.448 87.8793 700 80 700L80 680.259C85.2868 680.259 90.5219 679.217 95.4063 677.194C100.291 675.171 104.729 672.205 108.467 668.467C112.205 664.729 115.171 660.291 117.194 655.406C119.217 650.522 120.259 645.287 120.259 640C120.259 634.713 119.217 629.478 117.194 624.594C115.171 619.709 112.205 615.271 108.467 611.533C104.729 607.795 100.291 604.829 95.4063 602.806C90.5219 600.783 85.2868 599.741 80 599.741V580Z" fill="#9DBA54"/>
<path d="M80 720C89.4686 720 98.8028 722.241 107.239 726.54C115.676 730.838 122.976 737.073 128.541 744.733C134.107 752.393 137.78 761.262 139.261 770.614C140.743 779.966 139.989 789.536 137.063 798.541C134.137 807.546 129.122 815.731 122.426 822.426C115.731 829.122 107.546 834.137 98.541 837.063C89.5358 839.989 79.966 840.743 70.6139 839.261C61.2619 837.78 52.3932 834.107 44.7329 828.541L56.3366 812.57C61.4765 816.304 67.4272 818.769 73.7022 819.763C79.9772 820.757 86.3983 820.251 92.4406 818.288C98.4828 816.325 103.975 812.959 108.467 808.467C112.959 803.975 116.325 798.483 118.288 792.441C120.251 786.398 120.757 779.977 119.763 773.702C118.769 767.427 116.304 761.476 112.57 756.337C108.836 751.197 103.938 747.014 98.277 744.129C92.6162 741.245 86.3532 739.741 80 739.741V720Z" fill="#9DBA54"/>
<path d="M80 860C91.0653 860 101.915 863.06 111.35 868.842C120.785 874.623 128.437 882.901 133.46 892.761C138.484 902.62 140.683 913.676 139.815 924.708C138.947 935.739 135.045 946.315 128.541 955.267C122.037 964.219 113.184 971.198 102.961 975.433C92.738 979.667 81.543 980.992 70.6139 979.261C59.6848 977.53 49.4473 972.811 41.0331 965.624C32.619 958.438 26.356 949.065 22.9366 938.541L41.7119 932.441C44.0062 939.502 48.2085 945.791 53.8542 950.613C59.4999 955.435 66.369 958.601 73.7022 959.763C81.0353 960.924 88.5469 960.035 95.4063 957.194C102.266 954.353 108.206 949.67 112.57 943.663C116.934 937.657 119.552 930.56 120.134 923.159C120.717 915.757 119.241 908.338 115.871 901.723C112.5 895.108 107.366 889.553 101.035 885.674C94.7045 881.795 87.4246 879.741 80 879.741V860Z" fill="#9DBA54"/>
<path d="M80 1000C92.6708 1000 105.016 1004.01 115.267 1011.46C125.518 1018.91 133.148 1029.41 137.063 1041.46C140.979 1053.51 140.979 1066.49 137.063 1078.54C133.148 1090.59 125.518 1101.09 115.267 1108.54C105.016 1115.99 92.6707 1120 80 1120C67.3292 1120 54.9837 1115.99 44.7329 1108.54C34.482 1101.09 26.8521 1090.59 22.9366 1078.54C19.0211 1066.49 19.0211 1053.51 22.9366 1041.46L41.7119 1047.56C39.0847 1055.65 39.0847 1064.35 41.7119 1072.44C44.339 1080.53 49.4585 1087.57 56.3366 1092.57C63.2147 1097.57 71.4982 1100.26 80 1100.26C88.5018 1100.26 96.7853 1097.57 103.663 1092.57C110.541 1087.57 115.661 1080.53 118.288 1072.44C120.915 1064.35 120.915 1055.65 118.288 1047.56C115.661 1039.47 110.541 1032.43 103.663 1027.43C96.7853 1022.43 88.5018 1019.74 80 1019.74V1000Z" fill="#9DBA54"/>
<path d="M80 1140C94.2862 1140 108.104 1145.1 118.967 1154.38C129.83 1163.65 137.026 1176.5 139.261 1190.61C141.496 1204.72 138.623 1219.17 131.158 1231.35C123.694 1243.53 112.128 1252.65 98.541 1257.06C84.954 1261.48 70.2377 1260.9 57.039 1255.43C43.8403 1249.97 33.0254 1239.97 26.5396 1227.24C20.0538 1214.51 18.3228 1199.88 21.6578 1185.99C24.9929 1172.1 33.1751 1159.86 44.7329 1151.46L56.3366 1167.43C48.5817 1173.06 43.0916 1181.28 40.8538 1190.6C38.6161 1199.92 39.7776 1209.74 44.1294 1218.28C48.4812 1226.82 55.7377 1233.53 64.5937 1237.19C73.4497 1240.86 83.324 1241.25 92.4406 1238.29C101.557 1235.33 109.318 1229.21 114.326 1221.04C119.335 1212.86 121.262 1203.17 119.763 1193.7C118.263 1184.23 113.435 1175.61 106.146 1169.39C98.8568 1163.16 89.5857 1159.74 80 1159.74V1140Z" fill="#9DBA54"/>
<path d="M140 1340C140 1373.14 113.137 1400 80 1400C46.8629 1400 20 1373.14 20 1340C20 1306.86 46.8629 1280 80 1280C113.137 1280 140 1306.86 140 1340ZM39.7415 1340C39.7415 1362.23 57.7658 1380.26 80 1380.26C102.234 1380.26 120.259 1362.23 120.259 1340C120.259 1317.77 102.234 1299.74 80 1299.74C57.7658 1299.74 39.7415 1317.77 39.7415 1340Z" fill="#9DBA54"/>
</svg>
