<svg width="337" height="54" viewBox="0 0 337 54" fill="none" xmlns="http://www.w3.org/2000/svg">
<path d="M310 0H27C12.0883 0 0 12.0883 0 27C0 41.9117 12.0883 54 27 54H310C324.912 54 337 41.9117 337 27C337 12.0883 324.912 0 310 0Z" fill="#1B3C2A"/>
<path d="M138.757 33.224C137.371 33.224 136.272 32.84 135.461 32.072C134.651 31.2933 134.245 30.184 134.245 28.744V26.056C134.245 24.616 134.651 23.512 135.461 22.744C136.272 21.9653 137.371 21.576 138.757 21.576C140.133 21.576 141.195 21.9547 141.941 22.712C142.699 23.4587 143.077 24.488 143.077 25.8V25.896H140.997V25.736C140.997 25.0747 140.811 24.5307 140.437 24.104C140.075 23.6773 139.515 23.464 138.757 23.464C138.011 23.464 137.424 23.6933 136.997 24.152C136.571 24.6107 136.357 25.2347 136.357 26.024V28.776C136.357 29.5547 136.571 30.1787 136.997 30.648C137.424 31.1067 138.011 31.336 138.757 31.336C139.515 31.336 140.075 31.1227 140.437 30.696C140.811 30.2587 140.997 29.7147 140.997 29.064V28.776H143.077V29C143.077 30.312 142.699 31.3467 141.941 32.104C141.195 32.8507 140.133 33.224 138.757 33.224ZM148.638 33.224C147.849 33.224 147.14 33.064 146.51 32.744C145.881 32.424 145.385 31.96 145.022 31.352C144.66 30.744 144.478 30.0133 144.478 29.16V28.904C144.478 28.0507 144.66 27.32 145.022 26.712C145.385 26.104 145.881 25.64 146.51 25.32C147.14 25 147.849 24.84 148.638 24.84C149.428 24.84 150.137 25 150.766 25.32C151.396 25.64 151.892 26.104 152.254 26.712C152.617 27.32 152.798 28.0507 152.798 28.904V29.16C152.798 30.0133 152.617 30.744 152.254 31.352C151.892 31.96 151.396 32.424 150.766 32.744C150.137 33.064 149.428 33.224 148.638 33.224ZM148.638 31.432C149.257 31.432 149.769 31.2347 150.174 30.84C150.58 30.4347 150.782 29.8587 150.782 29.112V28.952C150.782 28.2053 150.58 27.6347 150.174 27.24C149.78 26.8347 149.268 26.632 148.638 26.632C148.02 26.632 147.508 26.8347 147.102 27.24C146.697 27.6347 146.494 28.2053 146.494 28.952V29.112C146.494 29.8587 146.697 30.4347 147.102 30.84C147.508 31.2347 148.02 31.432 148.638 31.432ZM154.659 33V25.064H156.643V26.104H156.931C157.059 25.8267 157.299 25.5653 157.651 25.32C158.003 25.064 158.536 24.936 159.251 24.936C159.87 24.936 160.408 25.08 160.867 25.368C161.336 25.6453 161.699 26.0347 161.955 26.536C162.211 27.0267 162.339 27.6027 162.339 28.264V33H160.323V28.424C160.323 27.8267 160.174 27.3787 159.875 27.08C159.587 26.7813 159.171 26.632 158.627 26.632C158.008 26.632 157.528 26.84 157.187 27.256C156.846 27.6613 156.675 28.232 156.675 28.968V33H154.659ZM167.34 33C166.817 33 166.39 32.84 166.06 32.52C165.74 32.1893 165.58 31.752 165.58 31.208V26.728H163.596V25.064H165.58V22.6H167.596V25.064H169.772V26.728H167.596V30.856C167.596 31.176 167.745 31.336 168.044 31.336H169.58V33H167.34ZM171.597 33V25.064H173.613V33H171.597ZM172.605 24.136C172.242 24.136 171.933 24.0187 171.677 23.784C171.431 23.5493 171.309 23.24 171.309 22.856C171.309 22.472 171.431 22.1627 171.677 21.928C171.933 21.6933 172.242 21.576 172.605 21.576C172.978 21.576 173.287 21.6933 173.533 21.928C173.778 22.1627 173.901 22.472 173.901 22.856C173.901 23.24 173.778 23.5493 173.533 23.784C173.287 24.0187 172.978 24.136 172.605 24.136ZM175.847 33V25.064H177.831V26.104H178.119C178.247 25.8267 178.487 25.5653 178.839 25.32C179.191 25.064 179.724 24.936 180.439 24.936C181.057 24.936 181.596 25.08 182.055 25.368C182.524 25.6453 182.887 26.0347 183.143 26.536C183.399 27.0267 183.527 27.6027 183.527 28.264V33H181.511V28.424C181.511 27.8267 181.361 27.3787 181.063 27.08C180.775 26.7813 180.359 26.632 179.815 26.632C179.196 26.632 178.716 26.84 178.375 27.256C178.033 27.6613 177.863 28.232 177.863 28.968V33H175.847ZM188.605 33.128C187.986 33.128 187.442 32.9893 186.973 32.712C186.514 32.424 186.157 32.0293 185.901 31.528C185.645 31.0267 185.517 30.4507 185.517 29.8V25.064H187.533V29.64C187.533 30.2373 187.677 30.6853 187.965 30.984C188.264 31.2827 188.685 31.432 189.229 31.432C189.848 31.432 190.328 31.2293 190.669 30.824C191.01 30.408 191.181 29.832 191.181 29.096V25.064H193.197V33H191.213V31.96H190.925C190.797 32.2267 190.557 32.488 190.205 32.744C189.853 33 189.32 33.128 188.605 33.128ZM199.056 33.224C198.267 33.224 197.568 33.0587 196.96 32.728C196.363 32.3867 195.894 31.912 195.552 31.304C195.222 30.6853 195.056 29.96 195.056 29.128V28.936C195.056 28.104 195.222 27.384 195.552 26.776C195.883 26.1573 196.347 25.6827 196.944 25.352C197.542 25.0107 198.235 24.84 199.024 24.84C199.803 24.84 200.48 25.016 201.056 25.368C201.632 25.7093 202.08 26.1893 202.4 26.808C202.72 27.416 202.88 28.1253 202.88 28.936V29.624H197.104C197.126 30.168 197.328 30.6107 197.712 30.952C198.096 31.2933 198.566 31.464 199.12 31.464C199.686 31.464 200.102 31.3413 200.368 31.096C200.635 30.8507 200.838 30.5787 200.976 30.28L202.624 31.144C202.475 31.4213 202.256 31.7253 201.968 32.056C201.691 32.376 201.318 32.6533 200.848 32.888C200.379 33.112 199.782 33.224 199.056 33.224ZM197.12 28.12H200.832C200.79 27.6613 200.603 27.2933 200.272 27.016C199.952 26.7387 199.531 26.6 199.008 26.6C198.464 26.6 198.032 26.7387 197.712 27.016C197.392 27.2933 197.195 27.6613 197.12 28.12Z" fill="white"/>
<path d="M260 28.5H277.778" stroke="white" stroke-width="1.5" stroke-linecap="round"/>
<path d="M271.111 20L280 28.5L271.111 37" stroke="white" stroke-width="1.5" stroke-linecap="round" stroke-linejoin="round"/>
</svg>
