<svg width="40" height="1103" viewBox="0 0 40 1103" fill="none" xmlns="http://www.w3.org/2000/svg">
<rect x="0.5" y="0.5" width="39" height="1102" rx="4.5" stroke="#9747FF" stroke-dasharray="10 5"/>
<line x1="21.5" y1="20" x2="21.5" y2="57" stroke="black" stroke-width="3"/>
<line x1="21.5" y1="134" x2="21.5" y2="171" stroke="black" stroke-width="3"/>
<rect width="0" height="37" transform="translate(20 77)" fill="white"/>
<line x1="21.5" y1="77" x2="21.5" y2="114" stroke="white" stroke-width="3"/>
<line x1="21.5" y1="191" x2="21.5" y2="228" stroke="white" stroke-width="3"/>
<line x1="21.5" y1="248" x2="21.5" y2="285" stroke="black" stroke-width="3"/>
<line x1="21.5" y1="305" x2="21.5" y2="342" stroke="white" stroke-width="3"/>
<line x1="21.5" y1="362" x2="21.5" y2="399" stroke="black" stroke-width="3"/>
<line x1="21.5" y1="419" x2="21.5" y2="456" stroke="white" stroke-width="3"/>
<line x1="21.5" y1="476" x2="21.5" y2="513" stroke="black" stroke-width="3"/>
<line x1="21.5" y1="533" x2="21.5" y2="570" stroke="white" stroke-width="3"/>
<line x1="21.5" y1="590" x2="21.5" y2="627" stroke="black" stroke-width="3"/>
<line x1="21.5" y1="647" x2="21.5" y2="684" stroke="#FFFBFB" stroke-width="3"/>
<line x1="21.5" y1="704" x2="21.5" y2="741" stroke="black" stroke-width="3"/>
<line x1="21.5" y1="761" x2="21.5" y2="798" stroke="white" stroke-width="3"/>
<line x1="21.5" y1="818" x2="21.5" y2="855" stroke="black" stroke-width="3"/>
<line x1="21.5" y1="875" x2="21.5" y2="912" stroke="white" stroke-width="3"/>
<line x1="21.5" y1="932" x2="21.5" y2="969" stroke="black" stroke-width="3"/>
<line x1="21.5" y1="989" x2="21.5" y2="1026" stroke="white" stroke-width="3"/>
<line x1="21.5" y1="1046" x2="21.5" y2="1083" stroke="black" stroke-width="3"/>
</svg>
