<svg width="402" height="81" viewBox="0 0 402 81" fill="none" xmlns="http://www.w3.org/2000/svg">
<path d="M402 0.5H0V80.5141H402V0.5Z" fill="url(#paint0_linear_77_151)"/>
<path d="M0 0.5H402" stroke="#E0DDD4"/>
<path d="M30.9939 21.0165L40.2 10.7583L49.4061 21.0165M34.0626 18.9649V27.1714H38.1542V23.0682H42.2458V27.1714H46.3374V18.9649" stroke="#8A8F84" stroke-width="1.6" stroke-linecap="round" stroke-linejoin="round"/>
<path d="M30.9438 40.2744V33.6744H32.3838V40.2744H30.9438ZM26.6138 40.2744V33.6744H28.0538V40.2744H26.6138ZM27.4538 37.5144V36.3444H31.5138V37.5144H27.4538ZM36.1699 40.4144C35.6432 40.4144 35.1766 40.3111 34.7699 40.1044C34.3699 39.8911 34.0566 39.5777 33.8299 39.1644C33.6032 38.7511 33.4899 38.2411 33.4899 37.6344C33.4899 37.0211 33.6032 36.5111 33.8299 36.1044C34.0632 35.6977 34.3799 35.3944 34.7799 35.1944C35.1866 34.9877 35.6466 34.8844 36.1599 34.8844C36.6866 34.8844 37.1499 34.9877 37.5499 35.1944C37.9566 35.4011 38.2732 35.7111 38.4999 36.1244C38.7332 36.5311 38.8499 37.0411 38.8499 37.6544C38.8499 38.2744 38.7332 38.7911 38.4999 39.2044C38.2666 39.6111 37.9466 39.9144 37.5399 40.1144C37.1332 40.3144 36.6766 40.4144 36.1699 40.4144ZM36.2199 39.3444C36.4799 39.3444 36.6966 39.2844 36.8699 39.1644C37.0499 39.0444 37.1832 38.8644 37.2699 38.6244C37.3632 38.3777 37.4099 38.0811 37.4099 37.7344C37.4099 37.3677 37.3599 37.0577 37.2599 36.8044C37.1666 36.5444 37.0266 36.3444 36.8399 36.2044C36.6532 36.0644 36.4166 35.9944 36.1299 35.9944C35.8766 35.9944 35.6599 36.0544 35.4799 36.1744C35.2999 36.2944 35.1632 36.4744 35.0699 36.7144C34.9766 36.9544 34.9299 37.2544 34.9299 37.6144C34.9299 38.1811 35.0432 38.6111 35.2699 38.9044C35.4966 39.1977 35.8132 39.3444 36.2199 39.3444ZM39.8934 40.2744V36.9044V35.0244H41.0434L41.0334 36.5844H41.2334C41.3268 36.1977 41.4501 35.8811 41.6034 35.6344C41.7568 35.3877 41.9401 35.2011 42.1534 35.0744C42.3734 34.9477 42.6301 34.8844 42.9234 34.8844C43.2368 34.8844 43.4934 34.9544 43.6934 35.0944C43.9001 35.2277 44.0601 35.4211 44.1734 35.6744C44.2934 35.9211 44.3701 36.2211 44.4034 36.5744H44.5634C44.6634 36.1877 44.7968 35.8711 44.9634 35.6244C45.1368 35.3711 45.3434 35.1844 45.5834 35.0644C45.8234 34.9444 46.0834 34.8844 46.3634 34.8844C46.6568 34.8844 46.9101 34.9411 47.1234 35.0544C47.3434 35.1677 47.5268 35.3377 47.6734 35.5644C47.8201 35.7911 47.9301 36.0744 48.0034 36.4144C48.0768 36.7477 48.1134 37.1344 48.1134 37.5744V40.2744H46.6634V37.7544C46.6634 37.3877 46.6334 37.0844 46.5734 36.8444C46.5134 36.5977 46.4201 36.4144 46.2934 36.2944C46.1668 36.1744 46.0034 36.1144 45.8034 36.1144C45.5834 36.1144 45.3934 36.1877 45.2334 36.3344C45.0734 36.4811 44.9468 36.6844 44.8534 36.9444C44.7601 37.2044 44.7101 37.5011 44.7034 37.8344V40.2744H43.2934V37.7944C43.2934 37.4144 43.2601 37.1044 43.1934 36.8644C43.1268 36.6177 43.0301 36.4311 42.9034 36.3044C42.7768 36.1777 42.6134 36.1144 42.4134 36.1144C42.1868 36.1144 41.9934 36.1911 41.8334 36.3444C41.6801 36.4911 41.5601 36.6977 41.4734 36.9644C41.3868 37.2244 41.3401 37.5177 41.3334 37.8444V40.2744H39.8934ZM51.8158 40.4144C51.3825 40.4144 50.9958 40.3544 50.6558 40.2344C50.3225 40.1144 50.0358 39.9411 49.7958 39.7144C49.5625 39.4877 49.3825 39.2111 49.2558 38.8844C49.1358 38.5511 49.0758 38.1711 49.0758 37.7444C49.0758 37.3311 49.1358 36.9511 49.2558 36.6044C49.3758 36.2511 49.5492 35.9477 49.7758 35.6944C50.0025 35.4344 50.2792 35.2344 50.6058 35.0944C50.9325 34.9544 51.3025 34.8844 51.7158 34.8844C52.1158 34.8844 52.4692 34.9511 52.7758 35.0844C53.0892 35.2111 53.3492 35.4044 53.5558 35.6644C53.7692 35.9244 53.9258 36.2444 54.0258 36.6244C54.1258 36.9977 54.1625 37.4311 54.1358 37.9244L50.0158 37.9544V37.1644L53.3158 37.1344L52.7958 37.5344C52.8425 37.1811 52.8192 36.8911 52.7258 36.6644C52.6325 36.4377 52.4958 36.2711 52.3158 36.1644C52.1425 36.0511 51.9458 35.9944 51.7258 35.9944C51.4725 35.9944 51.2492 36.0644 51.0558 36.2044C50.8625 36.3377 50.7125 36.5311 50.6058 36.7844C50.4992 37.0377 50.4458 37.3511 50.4458 37.7244C50.4458 38.2844 50.5692 38.6977 50.8158 38.9644C51.0692 39.2311 51.3992 39.3644 51.8058 39.3644C51.9992 39.3644 52.1592 39.3411 52.2858 39.2944C52.4125 39.2411 52.5192 39.1744 52.6058 39.0944C52.6925 39.0144 52.7592 38.9244 52.8058 38.8244C52.8592 38.7244 52.9025 38.6244 52.9358 38.5244L54.1758 38.8044C54.1225 39.0511 54.0358 39.2744 53.9158 39.4744C53.7958 39.6677 53.6392 39.8344 53.4458 39.9744C53.2525 40.1144 53.0192 40.2211 52.7458 40.2944C52.4792 40.3744 52.1692 40.4144 51.8158 40.4144Z" fill="#8A8F84"/>
<path d="M117.02 11.7842H113.951C113.104 11.7842 112.417 12.4731 112.417 13.3229V16.4004C112.417 17.2502 113.104 17.9391 113.951 17.9391H117.02C117.867 17.9391 118.554 17.2502 118.554 16.4004V13.3229C118.554 12.4731 117.867 11.7842 117.02 11.7842Z" stroke="#8A8F84" stroke-width="1.4"/>
<path d="M127.249 11.7842H124.18C123.333 11.7842 122.646 12.4731 122.646 13.3229V16.4004C122.646 17.2502 123.333 17.9391 124.18 17.9391H127.249C128.096 17.9391 128.783 17.2502 128.783 16.4004V13.3229C128.783 12.4731 128.096 11.7842 127.249 11.7842Z" stroke="#8A8F84" stroke-width="1.4"/>
<path d="M117.02 21.0166H113.951C113.104 21.0166 112.417 21.7055 112.417 22.5553V25.6328C112.417 26.4826 113.104 27.1715 113.951 27.1715H117.02C117.867 27.1715 118.554 26.4826 118.554 25.6328V22.5553C118.554 21.7055 117.867 21.0166 117.02 21.0166Z" stroke="#8A8F84" stroke-width="1.4"/>
<path d="M127.249 21.0166H124.18C123.333 21.0166 122.646 21.7055 122.646 22.5553V25.6328C122.646 26.4826 123.333 27.1715 124.18 27.1715H127.249C128.096 27.1715 128.783 26.4826 128.783 25.6328V22.5553C128.783 21.7055 128.096 21.0166 127.249 21.0166Z" stroke="#8A8F84" stroke-width="1.4"/>
<path d="M108.228 40.2749V33.6749H109.648L111.848 39.3149H111.898L114.088 33.6749H115.448V40.2749H114.578L114.638 34.6049H114.558L112.278 40.2749H111.388L109.128 34.5949H109.048L109.108 40.2749H108.228ZM119.343 40.4049C118.936 40.4049 118.576 40.3449 118.263 40.2249C117.949 40.0982 117.686 39.9182 117.473 39.6849C117.266 39.4516 117.106 39.1749 116.993 38.8549C116.886 38.5349 116.833 38.1749 116.833 37.7749C116.833 37.3682 116.886 36.9949 116.993 36.6549C117.106 36.3149 117.266 36.0182 117.473 35.7649C117.679 35.5116 117.933 35.3182 118.233 35.1849C118.533 35.0449 118.876 34.9749 119.263 34.9749C119.603 34.9749 119.909 35.0316 120.183 35.1449C120.463 35.2582 120.703 35.4349 120.903 35.6749C121.103 35.9082 121.253 36.2049 121.353 36.5649C121.453 36.9182 121.493 37.3382 121.473 37.8249L117.413 37.8549V37.2349L120.923 37.2049L120.603 37.6249C120.636 37.2049 120.596 36.8582 120.483 36.5849C120.376 36.3049 120.216 36.0949 120.003 35.9549C119.789 35.8149 119.543 35.7449 119.263 35.7449C118.949 35.7449 118.676 35.8249 118.443 35.9849C118.216 36.1449 118.039 36.3749 117.913 36.6749C117.786 36.9749 117.723 37.3382 117.723 37.7649C117.723 38.3782 117.859 38.8482 118.133 39.1749C118.413 39.4949 118.819 39.6549 119.353 39.6549C119.566 39.6549 119.749 39.6316 119.903 39.5849C120.056 39.5316 120.186 39.4616 120.293 39.3749C120.406 39.2882 120.499 39.1849 120.573 39.0649C120.646 38.9449 120.703 38.8149 120.743 38.6749L121.543 38.8649C121.476 39.1049 121.379 39.3216 121.253 39.5149C121.133 39.7016 120.979 39.8616 120.793 39.9949C120.613 40.1282 120.403 40.2282 120.163 40.2949C119.923 40.3682 119.649 40.4049 119.343 40.4049ZM122.777 40.2749V37.0449V35.1049H123.597L123.507 36.7249H123.677C123.77 36.3249 123.894 35.9982 124.047 35.7449C124.207 35.4849 124.407 35.2916 124.647 35.1649C124.887 35.0382 125.167 34.9749 125.487 34.9749C126.06 34.9749 126.494 35.1816 126.787 35.5949C127.087 36.0016 127.237 36.6082 127.237 37.4149V40.2749H126.317V37.4949C126.317 36.9149 126.224 36.4849 126.037 36.2049C125.857 35.9249 125.59 35.7849 125.237 35.7849C124.917 35.7849 124.644 35.8849 124.417 36.0849C124.197 36.2849 124.024 36.5482 123.897 36.8749C123.77 37.1949 123.7 37.5416 123.687 37.9149V40.2749H122.777ZM130.413 40.4049C129.84 40.4049 129.407 40.2082 129.113 39.8149C128.82 39.4149 128.673 38.8149 128.673 38.0149V35.1049H129.593V37.9349C129.593 38.4949 129.68 38.9116 129.853 39.1849C130.027 39.4582 130.3 39.5949 130.673 39.5949C130.88 39.5949 131.063 39.5449 131.223 39.4449C131.39 39.3449 131.537 39.2016 131.663 39.0149C131.79 38.8282 131.89 38.6082 131.963 38.3549C132.043 38.1016 132.1 37.8249 132.133 37.5249V35.1049H133.043V38.1249V40.2749H132.233L132.313 38.6249H132.153C132.073 39.0382 131.953 39.3749 131.793 39.6349C131.633 39.8949 131.437 40.0882 131.203 40.2149C130.977 40.3416 130.713 40.4049 130.413 40.4049Z" fill="#8A8F84"/>
<path d="M193.84 12.8101L198.954 15.8875L204.069 12.8101L209.183 15.8875V29.2232L204.069 26.1457L198.954 29.2232L193.84 26.1457V12.8101Z" stroke="#8A8F84" stroke-width="1.4" stroke-linejoin="round"/>
<path d="M198.954 15.8877V29.2234" stroke="#8A8F84" stroke-width="1.2"/>
<path d="M204.069 12.8101V26.1457" stroke="#8A8F84" stroke-width="1.2"/>
<path d="M188.882 40.2749V33.6749H190.302L192.502 39.3149H192.552L194.742 33.6749H196.102V40.2749H195.232L195.292 34.6049H195.212L192.932 40.2749H192.042L189.782 34.5949H189.702L189.762 40.2749H188.882ZM198.957 40.4049C198.67 40.4049 198.414 40.3516 198.187 40.2449C197.96 40.1316 197.78 39.9682 197.647 39.7549C197.52 39.5349 197.457 39.2582 197.457 38.9249C197.457 38.6782 197.5 38.4616 197.587 38.2749C197.674 38.0882 197.81 37.9282 197.997 37.7949C198.19 37.6616 198.437 37.5516 198.737 37.4649C199.044 37.3716 199.414 37.2982 199.847 37.2449C200.094 37.2116 200.294 37.1782 200.447 37.1449C200.6 37.1116 200.714 37.0582 200.787 36.9849C200.86 36.9049 200.897 36.7849 200.897 36.6249C200.897 36.3782 200.81 36.1682 200.637 35.9949C200.47 35.8216 200.2 35.7349 199.827 35.7349C199.627 35.7349 199.427 35.7682 199.227 35.8349C199.027 35.9016 198.854 36.0149 198.707 36.1749C198.56 36.3282 198.464 36.5449 198.417 36.8249L197.587 36.5349C197.64 36.2949 197.727 36.0816 197.847 35.8949C197.974 35.7016 198.13 35.5382 198.317 35.4049C198.51 35.2649 198.734 35.1582 198.987 35.0849C199.247 35.0116 199.534 34.9749 199.847 34.9749C200.287 34.9749 200.65 35.0482 200.937 35.1949C201.23 35.3416 201.447 35.5682 201.587 35.8749C201.734 36.1749 201.807 36.5616 201.807 37.0349V38.1849C201.807 38.3916 201.81 38.6182 201.817 38.8649C201.83 39.1049 201.844 39.3482 201.857 39.5949C201.877 39.8349 201.9 40.0616 201.927 40.2749H201.087C201.06 40.0616 201.04 39.8516 201.027 39.6449C201.014 39.4316 201 39.2182 200.987 39.0049H200.857C200.757 39.2516 200.624 39.4816 200.457 39.6949C200.29 39.9082 200.084 40.0816 199.837 40.2149C199.59 40.3416 199.297 40.4049 198.957 40.4049ZM199.227 39.6649C199.367 39.6649 199.51 39.6416 199.657 39.5949C199.81 39.5482 199.96 39.4749 200.107 39.3749C200.26 39.2682 200.404 39.1316 200.537 38.9649C200.677 38.7982 200.804 38.5982 200.917 38.3649L200.907 37.3549L201.177 37.4049C201.07 37.5116 200.927 37.5916 200.747 37.6449C200.567 37.6982 200.37 37.7416 200.157 37.7749C199.95 37.8082 199.737 37.8449 199.517 37.8849C199.304 37.9182 199.107 37.9716 198.927 38.0449C198.754 38.1116 198.614 38.2082 198.507 38.3349C198.4 38.4616 198.347 38.6349 198.347 38.8549C198.347 39.1216 198.427 39.3249 198.587 39.4649C198.754 39.5982 198.967 39.6649 199.227 39.6649ZM203.353 41.9049V37.7049V35.1049H204.163L204.123 36.4249H204.273C204.353 36.1382 204.463 35.8882 204.603 35.6749C204.75 35.4549 204.933 35.2849 205.153 35.1649C205.38 35.0382 205.656 34.9749 205.983 34.9749C206.456 34.9749 206.85 35.0949 207.163 35.3349C207.483 35.5682 207.723 35.8916 207.883 36.3049C208.043 36.7182 208.123 37.1816 208.123 37.6949C208.123 38.2082 208.043 38.6716 207.883 39.0849C207.723 39.4916 207.486 39.8149 207.173 40.0549C206.866 40.2882 206.49 40.4049 206.043 40.4049C205.676 40.4049 205.376 40.3316 205.143 40.1849C204.91 40.0316 204.723 39.8349 204.583 39.5949C204.443 39.3482 204.333 39.0916 204.253 38.8249H204.083C204.123 39.0049 204.153 39.1916 204.173 39.3849C204.2 39.5782 204.22 39.7682 204.233 39.9549C204.253 40.1416 204.263 40.3216 204.263 40.4949V41.9049H203.353ZM205.813 39.6149C206.106 39.6149 206.353 39.5316 206.553 39.3649C206.753 39.1916 206.906 38.9582 207.013 38.6649C207.12 38.3716 207.173 38.0416 207.173 37.6749C207.173 37.2816 207.116 36.9449 207.003 36.6649C206.896 36.3849 206.743 36.1682 206.543 36.0149C206.343 35.8549 206.1 35.7749 205.813 35.7749C205.566 35.7749 205.346 35.8316 205.153 35.9449C204.966 36.0516 204.806 36.1982 204.673 36.3849C204.54 36.5649 204.436 36.7649 204.363 36.9849C204.296 37.1982 204.263 37.4116 204.263 37.6249V37.7449C204.263 37.8782 204.283 38.0282 204.323 38.1949C204.363 38.3616 204.423 38.5282 204.503 38.6949C204.583 38.8549 204.683 39.0049 204.803 39.1449C204.93 39.2849 205.076 39.3982 205.243 39.4849C205.41 39.5716 205.6 39.6149 205.813 39.6149ZM211.386 40.4049C211.026 40.4049 210.706 40.3649 210.426 40.2849C210.153 40.2116 209.919 40.1049 209.726 39.9649C209.539 39.8182 209.396 39.6482 209.296 39.4549C209.196 39.2549 209.146 39.0349 209.146 38.7949L209.906 38.5849C209.899 38.8049 209.956 38.9982 210.076 39.1649C210.196 39.3249 210.373 39.4482 210.606 39.5349C210.839 39.6216 211.116 39.6649 211.436 39.6649C211.836 39.6649 212.143 39.5982 212.356 39.4649C212.576 39.3316 212.686 39.1482 212.686 38.9149C212.686 38.7282 212.626 38.5849 212.506 38.4849C212.386 38.3782 212.219 38.2949 212.006 38.2349C211.793 38.1682 211.546 38.1082 211.266 38.0549C211.019 38.0016 210.776 37.9416 210.536 37.8749C210.303 37.8082 210.086 37.7216 209.886 37.6149C209.693 37.5016 209.536 37.3549 209.416 37.1749C209.296 36.9949 209.236 36.7716 209.236 36.5049C209.236 36.1916 209.316 35.9216 209.476 35.6949C209.643 35.4682 209.879 35.2916 210.186 35.1649C210.493 35.0382 210.859 34.9749 211.286 34.9749C211.713 34.9749 212.076 35.0416 212.376 35.1749C212.676 35.3016 212.913 35.4816 213.086 35.7149C213.259 35.9482 213.359 36.2182 213.386 36.5249L212.596 36.7349C212.589 36.5082 212.529 36.3216 212.416 36.1749C212.303 36.0216 212.146 35.9082 211.946 35.8349C211.753 35.7549 211.523 35.7149 211.256 35.7149C210.896 35.7149 210.613 35.7816 210.406 35.9149C210.206 36.0482 210.106 36.2316 210.106 36.4649C210.106 36.6382 210.166 36.7782 210.286 36.8849C210.413 36.9916 210.579 37.0749 210.786 37.1349C210.999 37.1949 211.239 37.2549 211.506 37.3149C211.773 37.3682 212.026 37.4282 212.266 37.4949C212.513 37.5616 212.729 37.6482 212.916 37.7549C213.109 37.8616 213.263 38.0049 213.376 38.1849C213.489 38.3582 213.546 38.5816 213.546 38.8549C213.546 39.1949 213.456 39.4816 213.276 39.7149C213.096 39.9416 212.843 40.1149 212.516 40.2349C212.196 40.3482 211.819 40.4049 211.386 40.4049Z" fill="#8A8F84"/>
<path d="M273.217 27.1716L278.331 18.965L283.446 23.0683L289.583 12.8101" stroke="#8A8F84" stroke-width="1.6" stroke-linecap="round" stroke-linejoin="round"/>
<path d="M289.583 14.8616C290.713 14.8616 291.629 13.943 291.629 12.8099C291.629 11.6769 290.713 10.7583 289.583 10.7583C288.453 10.7583 287.537 11.6769 287.537 12.8099C287.537 13.943 288.453 14.8616 289.583 14.8616Z" fill="#8A8F84"/>
<path d="M267.308 40.5V33.9H269.598C269.938 33.9 270.245 33.9267 270.518 33.98C270.798 34.0333 271.045 34.1133 271.258 34.22C271.478 34.3267 271.662 34.4567 271.808 34.61C271.962 34.7633 272.075 34.9433 272.148 35.15C272.228 35.35 272.268 35.5733 272.268 35.82C272.268 36.0533 272.232 36.2667 272.158 36.46C272.092 36.6533 271.988 36.8233 271.848 36.97C271.708 37.1167 271.535 37.2367 271.328 37.33C271.122 37.4167 270.885 37.4767 270.618 37.51V37.64C270.852 37.6667 271.055 37.73 271.228 37.83C271.408 37.9233 271.562 38.0667 271.688 38.26C271.822 38.4467 271.935 38.7 272.028 39.02L272.448 40.5H271.458L271.118 39.14C271.052 38.8733 270.945 38.6567 270.798 38.49C270.658 38.3233 270.482 38.2 270.268 38.12C270.055 38.04 269.808 38 269.528 38H268.218V40.5H267.308ZM268.218 37.25H269.528C270.122 37.25 270.568 37.1433 270.868 36.93C271.175 36.7167 271.328 36.39 271.328 35.95C271.328 35.51 271.182 35.1867 270.888 34.98C270.602 34.7667 270.155 34.66 269.548 34.66H268.218V37.25ZM275.953 40.63C275.546 40.63 275.186 40.57 274.873 40.45C274.559 40.3233 274.296 40.1433 274.083 39.91C273.876 39.6767 273.716 39.4 273.603 39.08C273.496 38.76 273.443 38.4 273.443 38C273.443 37.5933 273.496 37.22 273.603 36.88C273.716 36.54 273.876 36.2433 274.083 35.99C274.289 35.7367 274.543 35.5433 274.843 35.41C275.143 35.27 275.486 35.2 275.873 35.2C276.213 35.2 276.519 35.2567 276.793 35.37C277.073 35.4833 277.313 35.66 277.513 35.9C277.713 36.1333 277.863 36.43 277.963 36.79C278.063 37.1433 278.103 37.5633 278.083 38.05L274.023 38.08V37.46L277.533 37.43L277.213 37.85C277.246 37.43 277.206 37.0833 277.093 36.81C276.986 36.53 276.826 36.32 276.613 36.18C276.399 36.04 276.153 35.97 275.873 35.97C275.559 35.97 275.286 36.05 275.053 36.21C274.826 36.37 274.649 36.6 274.523 36.9C274.396 37.2 274.333 37.5633 274.333 37.99C274.333 38.6033 274.469 39.0733 274.743 39.4C275.023 39.72 275.429 39.88 275.963 39.88C276.176 39.88 276.359 39.8567 276.513 39.81C276.666 39.7567 276.796 39.6867 276.903 39.6C277.016 39.5133 277.109 39.41 277.183 39.29C277.256 39.17 277.313 39.04 277.353 38.9L278.153 39.09C278.086 39.33 277.989 39.5467 277.863 39.74C277.743 39.9267 277.589 40.0867 277.403 40.22C277.223 40.3533 277.013 40.4533 276.773 40.52C276.533 40.5933 276.259 40.63 275.953 40.63ZM280.217 40.5L278.837 35.33H279.777L280.797 39.73H280.957L282.047 35.33H283.237L284.337 39.73H284.487L285.497 35.33H286.427L285.047 40.5H283.767L282.687 36.1H282.577L281.507 40.5H280.217ZM288.643 40.63C288.357 40.63 288.1 40.5767 287.873 40.47C287.647 40.3567 287.467 40.1933 287.333 39.98C287.207 39.76 287.143 39.4833 287.143 39.15C287.143 38.9033 287.187 38.6867 287.273 38.5C287.36 38.3133 287.497 38.1533 287.683 38.02C287.877 37.8867 288.123 37.7767 288.423 37.69C288.73 37.5967 289.1 37.5233 289.533 37.47C289.78 37.4367 289.98 37.4033 290.133 37.37C290.287 37.3367 290.4 37.2833 290.473 37.21C290.547 37.13 290.583 37.01 290.583 36.85C290.583 36.6033 290.497 36.3933 290.323 36.22C290.157 36.0467 289.887 35.96 289.513 35.96C289.313 35.96 289.113 35.9933 288.913 36.06C288.713 36.1267 288.54 36.24 288.393 36.4C288.247 36.5533 288.15 36.77 288.103 37.05L287.273 36.76C287.327 36.52 287.413 36.3067 287.533 36.12C287.66 35.9267 287.817 35.7633 288.003 35.63C288.197 35.49 288.42 35.3833 288.673 35.31C288.933 35.2367 289.22 35.2 289.533 35.2C289.973 35.2 290.337 35.2733 290.623 35.42C290.917 35.5667 291.133 35.7933 291.273 36.1C291.42 36.4 291.493 36.7867 291.493 37.26V38.41C291.493 38.6167 291.497 38.8433 291.503 39.09C291.517 39.33 291.53 39.5733 291.543 39.82C291.563 40.06 291.587 40.2867 291.613 40.5H290.773C290.747 40.2867 290.727 40.0767 290.713 39.87C290.7 39.6567 290.687 39.4433 290.673 39.23H290.543C290.443 39.4767 290.31 39.7067 290.143 39.92C289.977 40.1333 289.77 40.3067 289.523 40.44C289.277 40.5667 288.983 40.63 288.643 40.63ZM288.913 39.89C289.053 39.89 289.197 39.8667 289.343 39.82C289.497 39.7733 289.647 39.7 289.793 39.6C289.947 39.4933 290.09 39.3567 290.223 39.19C290.363 39.0233 290.49 38.8233 290.603 38.59L290.593 37.58L290.863 37.63C290.757 37.7367 290.613 37.8167 290.433 37.87C290.253 37.9233 290.057 37.9667 289.843 38C289.637 38.0333 289.423 38.07 289.203 38.11C288.99 38.1433 288.793 38.1967 288.613 38.27C288.44 38.3367 288.3 38.4333 288.193 38.56C288.087 38.6867 288.033 38.86 288.033 39.08C288.033 39.3467 288.113 39.55 288.273 39.69C288.44 39.8233 288.653 39.89 288.913 39.89ZM293.039 40.5V37.69V35.33H293.859L293.779 37.11H293.949C294.009 36.73 294.103 36.3967 294.229 36.11C294.356 35.8233 294.526 35.6 294.739 35.44C294.953 35.28 295.213 35.2 295.519 35.2C295.593 35.2 295.669 35.2067 295.749 35.22C295.836 35.2267 295.936 35.2467 296.049 35.28L295.999 36.24C295.899 36.2 295.799 36.1733 295.699 36.16C295.599 36.14 295.506 36.13 295.419 36.13C295.153 36.13 294.926 36.2133 294.739 36.38C294.553 36.5467 294.393 36.77 294.259 37.05C294.133 37.33 294.029 37.6433 293.949 37.99V40.5H293.039ZM298.785 40.63C298.338 40.63 297.958 40.5133 297.645 40.28C297.332 40.0467 297.095 39.7267 296.935 39.32C296.775 38.9133 296.695 38.4467 296.695 37.92C296.695 37.4 296.772 36.9367 296.925 36.53C297.085 36.1167 297.318 35.7933 297.625 35.56C297.932 35.3267 298.308 35.21 298.755 35.21C299.128 35.21 299.432 35.2867 299.665 35.44C299.898 35.5933 300.085 35.7933 300.225 36.04C300.365 36.28 300.472 36.54 300.545 36.82H300.715C300.688 36.6333 300.658 36.4367 300.625 36.23C300.598 36.0167 300.575 35.81 300.555 35.61C300.542 35.4033 300.535 35.22 300.535 35.06V33.49H301.455V37.94V40.5H300.635L300.685 39.11H300.515C300.442 39.4033 300.332 39.6667 300.185 39.9C300.038 40.1267 299.852 40.3067 299.625 40.44C299.398 40.5667 299.118 40.63 298.785 40.63ZM298.995 39.83C299.235 39.83 299.452 39.7733 299.645 39.66C299.838 39.5467 300.002 39.4 300.135 39.22C300.268 39.0333 300.368 38.8333 300.435 38.62C300.502 38.4067 300.535 38.2 300.535 38V37.88C300.535 37.74 300.515 37.5867 300.475 37.42C300.442 37.2533 300.385 37.0867 300.305 36.92C300.225 36.7533 300.125 36.6 300.005 36.46C299.885 36.32 299.742 36.21 299.575 36.13C299.408 36.0433 299.222 36 299.015 36C298.715 36 298.462 36.0867 298.255 36.26C298.055 36.4267 297.902 36.6567 297.795 36.95C297.688 37.2433 297.635 37.5733 297.635 37.94C297.635 38.32 297.688 38.6533 297.795 38.94C297.908 39.22 298.065 39.44 298.265 39.6C298.465 39.7533 298.708 39.83 298.995 39.83ZM304.959 40.63C304.599 40.63 304.279 40.59 303.999 40.51C303.726 40.4367 303.492 40.33 303.299 40.19C303.112 40.0433 302.969 39.8733 302.869 39.68C302.769 39.48 302.719 39.26 302.719 39.02L303.479 38.81C303.472 39.03 303.529 39.2233 303.649 39.39C303.769 39.55 303.946 39.6733 304.179 39.76C304.412 39.8467 304.689 39.89 305.009 39.89C305.409 39.89 305.716 39.8233 305.929 39.69C306.149 39.5567 306.259 39.3733 306.259 39.14C306.259 38.9533 306.199 38.81 306.079 38.71C305.959 38.6033 305.792 38.52 305.579 38.46C305.366 38.3933 305.119 38.3333 304.839 38.28C304.592 38.2267 304.349 38.1667 304.109 38.1C303.876 38.0333 303.659 37.9467 303.459 37.84C303.266 37.7267 303.109 37.58 302.989 37.4C302.869 37.22 302.809 36.9967 302.809 36.73C302.809 36.4167 302.889 36.1467 303.049 35.92C303.216 35.6933 303.452 35.5167 303.759 35.39C304.066 35.2633 304.432 35.2 304.859 35.2C305.286 35.2 305.649 35.2667 305.949 35.4C306.249 35.5267 306.486 35.7067 306.659 35.94C306.832 36.1733 306.932 36.4433 306.959 36.75L306.169 36.96C306.162 36.7333 306.102 36.5467 305.989 36.4C305.876 36.2467 305.719 36.1333 305.519 36.06C305.326 35.98 305.096 35.94 304.829 35.94C304.469 35.94 304.186 36.0067 303.979 36.14C303.779 36.2733 303.679 36.4567 303.679 36.69C303.679 36.8633 303.739 37.0033 303.859 37.11C303.986 37.2167 304.152 37.3 304.359 37.36C304.572 37.42 304.812 37.48 305.079 37.54C305.346 37.5933 305.599 37.6533 305.839 37.72C306.086 37.7867 306.302 37.8733 306.489 37.98C306.682 38.0867 306.836 38.23 306.949 38.41C307.062 38.5833 307.119 38.8067 307.119 39.08C307.119 39.42 307.029 39.7067 306.849 39.94C306.669 40.1667 306.416 40.34 306.089 40.46C305.769 40.5733 305.392 40.63 304.959 40.63Z" fill="#8A8F84"/>
<path d="M361.8 20.5034C364.342 20.5034 366.403 18.4366 366.403 15.8872C366.403 13.3377 364.342 11.271 361.8 11.271C359.258 11.271 357.197 13.3377 357.197 15.8872C357.197 18.4366 359.258 20.5034 361.8 20.5034Z" stroke="#8A8F84" stroke-width="1.4"/>
<path d="M353.617 29.2228C353.617 25.1195 356.345 23.0679 361.8 23.0679C367.256 23.0679 369.983 25.1195 369.983 29.2228" stroke="#8A8F84" stroke-width="1.4" stroke-linecap="round"/>
<path d="M347.872 38.2544V37.4744H349.502C350.135 37.4744 350.612 37.3544 350.932 37.1144C351.252 36.8744 351.412 36.4811 351.412 35.9344C351.412 35.4344 351.262 35.0611 350.962 34.8144C350.668 34.5611 350.215 34.4344 349.602 34.4344H347.872V33.6744H349.622C350.055 33.6744 350.438 33.7244 350.772 33.8244C351.112 33.9244 351.398 34.0711 351.632 34.2644C351.865 34.4577 352.042 34.6977 352.162 34.9844C352.288 35.2644 352.352 35.5911 352.352 35.9644C352.352 36.4644 352.238 36.8844 352.012 37.2244C351.785 37.5644 351.452 37.8211 351.012 37.9944C350.572 38.1677 350.032 38.2544 349.392 38.2544H347.872ZM347.392 40.2744V33.6744H348.302V40.2744H347.392ZM353.533 40.2744V37.4644V35.1044H354.353L354.273 36.8844H354.443C354.503 36.5044 354.596 36.1711 354.723 35.8844C354.849 35.5977 355.019 35.3744 355.233 35.2144C355.446 35.0544 355.706 34.9744 356.013 34.9744C356.086 34.9744 356.163 34.9811 356.243 34.9944C356.329 35.0011 356.429 35.0211 356.543 35.0544L356.493 36.0144C356.393 35.9744 356.293 35.9477 356.193 35.9344C356.093 35.9144 355.999 35.9044 355.913 35.9044C355.646 35.9044 355.419 35.9877 355.233 36.1544C355.046 36.3211 354.886 36.5444 354.753 36.8244C354.626 37.1044 354.523 37.4177 354.443 37.7644V40.2744H353.533ZM359.678 40.4044C359.185 40.4044 358.748 40.2977 358.368 40.0844C357.995 39.8644 357.702 39.5511 357.488 39.1444C357.275 38.7377 357.168 38.2444 357.168 37.6644C357.168 37.0644 357.278 36.5677 357.498 36.1744C357.725 35.7744 358.025 35.4744 358.398 35.2744C358.778 35.0744 359.198 34.9744 359.658 34.9744C360.138 34.9744 360.565 35.0811 360.938 35.2944C361.318 35.5011 361.618 35.8077 361.838 36.2144C362.058 36.6144 362.168 37.1111 362.168 37.7044C362.168 38.2977 362.058 38.7944 361.838 39.1944C361.625 39.5944 361.328 39.8977 360.948 40.1044C360.575 40.3044 360.152 40.4044 359.678 40.4044ZM359.718 39.6544C360.038 39.6544 360.312 39.5777 360.538 39.4244C360.765 39.2644 360.942 39.0411 361.068 38.7544C361.195 38.4677 361.258 38.1277 361.258 37.7344C361.258 37.3277 361.192 36.9777 361.058 36.6844C360.932 36.3844 360.748 36.1544 360.508 35.9944C360.268 35.8277 359.978 35.7444 359.638 35.7444C359.325 35.7444 359.052 35.8177 358.818 35.9644C358.585 36.1111 358.405 36.3277 358.278 36.6144C358.152 36.8944 358.088 37.2377 358.088 37.6444C358.088 38.2711 358.235 38.7644 358.528 39.1244C358.822 39.4777 359.218 39.6544 359.718 39.6544ZM363.874 40.2744V36.6244H362.944V35.8944L364.244 35.9744V35.7944C364.078 35.7277 363.938 35.6377 363.824 35.5244C363.718 35.4111 363.634 35.2777 363.574 35.1244C363.521 34.9711 363.494 34.8044 363.494 34.6244C363.494 34.3511 363.554 34.1111 363.674 33.9044C363.801 33.6977 363.981 33.5344 364.214 33.4144C364.448 33.2944 364.721 33.2344 365.034 33.2344C365.288 33.2344 365.514 33.2711 365.714 33.3444C365.921 33.4111 366.091 33.4977 366.224 33.6044L366.114 34.4544C365.988 34.3411 365.834 34.2511 365.654 34.1844C365.474 34.1111 365.294 34.0744 365.114 34.0744C364.894 34.0744 364.714 34.1444 364.574 34.2844C364.434 34.4177 364.364 34.6344 364.364 34.9344C364.364 35.0944 364.388 35.2377 364.434 35.3644C364.481 35.4844 364.541 35.5877 364.614 35.6744C364.688 35.7544 364.764 35.8177 364.844 35.8644H366.134L366.124 36.6244H364.764V40.2744H363.874ZM367.215 40.2744V35.1044H368.125V40.2744H367.215ZM367.665 34.1944C367.451 34.1944 367.291 34.1511 367.185 34.0644C367.078 33.9777 367.025 33.8477 367.025 33.6744C367.025 33.5011 367.078 33.3711 367.185 33.2844C367.291 33.1977 367.448 33.1544 367.655 33.1544C367.868 33.1544 368.028 33.1977 368.135 33.2844C368.248 33.3711 368.305 33.5011 368.305 33.6744C368.305 33.8477 368.248 33.9777 368.135 34.0644C368.028 34.1511 367.871 34.1944 367.665 34.1944ZM369.724 40.2744V33.2644H370.624V40.2744H369.724ZM374.444 40.4044C374.037 40.4044 373.677 40.3444 373.364 40.2244C373.051 40.0977 372.787 39.9177 372.574 39.6844C372.367 39.4511 372.207 39.1744 372.094 38.8544C371.987 38.5344 371.934 38.1744 371.934 37.7744C371.934 37.3677 371.987 36.9944 372.094 36.6544C372.207 36.3144 372.367 36.0177 372.574 35.7644C372.781 35.5111 373.034 35.3177 373.334 35.1844C373.634 35.0444 373.977 34.9744 374.364 34.9744C374.704 34.9744 375.011 35.0311 375.284 35.1444C375.564 35.2577 375.804 35.4344 376.004 35.6744C376.204 35.9077 376.354 36.2044 376.454 36.5644C376.554 36.9177 376.594 37.3377 376.574 37.8244L372.514 37.8544V37.2344L376.024 37.2044L375.704 37.6244C375.737 37.2044 375.697 36.8577 375.584 36.5844C375.477 36.3044 375.317 36.0944 375.104 35.9544C374.891 35.8144 374.644 35.7444 374.364 35.7444C374.051 35.7444 373.777 35.8244 373.544 35.9844C373.317 36.1444 373.141 36.3744 373.014 36.6744C372.887 36.9744 372.824 37.3377 372.824 37.7644C372.824 38.3777 372.961 38.8477 373.234 39.1744C373.514 39.4944 373.921 39.6544 374.454 39.6544C374.667 39.6544 374.851 39.6311 375.004 39.5844C375.157 39.5311 375.287 39.4611 375.394 39.3744C375.507 39.2877 375.601 39.1844 375.674 39.0644C375.747 38.9444 375.804 38.8144 375.844 38.6744L376.644 38.8644C376.577 39.1044 376.481 39.3211 376.354 39.5144C376.234 39.7011 376.081 39.8611 375.894 39.9944C375.714 40.1277 375.504 40.2277 375.264 40.2944C375.024 40.3677 374.751 40.4044 374.444 40.4044Z" fill="#8A8F84"/>
<defs>
<linearGradient id="paint0_linear_77_151" x1="0" y1="0.5" x2="0" y2="80.5141" gradientUnits="userSpaceOnUse">
<stop stop-color="#F6F5F0" stop-opacity="0.97"/>
<stop offset="1" stop-color="#F0EFE8"/>
</linearGradient>
</defs>
</svg>
