<svg width="160" height="300" viewBox="0 0 160 300" fill="none" xmlns="http://www.w3.org/2000/svg">
<rect x="0.5" y="0.5" width="159" height="299" rx="4.5" stroke="#9747FF" stroke-dasharray="10 5"/>
<path d="M80 20C87.8793 20 95.6814 21.552 102.961 24.5673C110.24 27.5825 116.855 32.0021 122.427 37.5736C127.998 43.1451 132.418 49.7595 135.433 57.0391C138.448 64.3186 140 72.1207 140 80C140 80 138.5 87.1051 130 87C121.5 86.8949 120.259 80 120.259 80C120.259 74.7132 119.217 69.4781 117.194 64.5938C115.171 59.7094 112.205 55.2713 108.467 51.533C104.729 47.7946 100.291 44.8291 95.4062 42.8059C90.5219 40.7827 85.2868 39.7415 80 39.7415V20Z" fill="#BFD090"/>
<path d="M79.9999 160C87.8793 160 95.6813 161.552 102.961 164.567C110.24 167.582 116.855 172.002 122.426 177.574C127.998 183.145 132.418 189.759 135.433 197.039C138.448 204.319 140 212.121 140 220C140 227.879 138.448 235.681 135.433 242.961C132.418 250.241 127.998 256.855 122.426 262.426C116.855 267.998 110.24 272.418 102.961 275.433C95.6813 278.448 87.8793 280 79.9999 280C79.9999 280 72.9022 277.892 72.9999 270C73.0977 262.108 79.9999 260.259 79.9999 260.259C85.2868 260.259 90.5218 259.217 95.4062 257.194C100.291 255.171 104.729 252.205 108.467 248.467C112.205 244.729 115.171 240.291 117.194 235.406C119.217 230.522 120.258 225.287 120.258 220C120.258 214.713 119.217 209.478 117.194 204.594C115.171 199.709 112.205 195.271 108.467 191.533C104.729 187.795 100.291 184.829 95.4062 182.806C90.5218 180.783 85.2868 179.741 79.9999 179.741V160Z" fill="#BFD090"/>
</svg>
