<svg width="377" height="440" viewBox="0 0 377 440" fill="none" xmlns="http://www.w3.org/2000/svg">
<rect x="0.5" y="0.5" width="376" height="439" rx="4.5" stroke="#9747FF" stroke-dasharray="10 5"/>
<path d="M339 20H38C28.0589 20 20 28.0589 20 38V122C20 131.941 28.0589 140 38 140H339C348.941 140 357 131.941 357 122V38C357 28.0589 348.941 20 339 20Z" fill="white" stroke="#E0DDD4"/>
<path d="M160.134 85V55.912H159.27L154.758 66.568H148.326L155.19 51.4H166.278V85H160.134ZM184.429 85.672C181.869 85.672 179.645 85.192 177.757 84.232C175.869 83.272 174.413 81.944 173.389 80.248C172.365 78.552 171.853 76.6 171.853 74.392V62.92C171.853 60.2 172.397 57.944 173.485 56.152C174.605 54.328 176.125 52.968 178.045 52.072C179.997 51.176 182.221 50.728 184.717 50.728C187.213 50.728 189.373 51.144 191.197 51.976C193.053 52.808 194.477 54.008 195.469 55.576C196.493 57.144 197.005 59.016 197.005 61.192H190.765C190.765 59.848 190.301 58.68 189.373 57.688C188.445 56.696 186.893 56.2 184.717 56.2C182.573 56.2 180.909 56.76 179.725 57.88C178.573 59 177.997 60.552 177.997 62.536V65.992H178.861C179.405 65.352 180.237 64.744 181.357 64.168C182.477 63.592 184.109 63.304 186.253 63.304C188.205 63.304 189.997 63.72 191.629 64.552C193.293 65.384 194.637 66.6 195.661 68.2C196.685 69.768 197.197 71.672 197.197 73.912V74.488C197.197 76.696 196.669 78.648 195.613 80.344C194.557 82.008 193.069 83.32 191.149 84.28C189.229 85.208 186.989 85.672 184.429 85.672ZM184.525 80.2C186.541 80.2 188.125 79.672 189.277 78.616C190.461 77.56 191.053 76.152 191.053 74.392V74.008C191.053 72.824 190.781 71.8 190.237 70.936C189.725 70.072 188.973 69.4 187.981 68.92C187.021 68.44 185.869 68.2 184.525 68.2C183.213 68.2 182.061 68.44 181.069 68.92C180.077 69.4 179.309 70.072 178.765 70.936C178.253 71.8 177.997 72.824 177.997 74.008V74.392C177.997 76.152 178.573 77.56 179.725 78.616C180.909 79.672 182.509 80.2 184.525 80.2ZM214.677 85.672C210.709 85.672 207.525 84.584 205.125 82.408C202.725 80.2 201.525 76.872 201.525 72.424V63.976C201.525 59.656 202.725 56.376 205.125 54.136C207.525 51.864 210.709 50.728 214.677 50.728C218.677 50.728 221.861 51.864 224.229 54.136C226.629 56.376 227.829 59.656 227.829 63.976V72.424C227.829 76.872 226.629 80.2 224.229 82.408C221.861 84.584 218.677 85.672 214.677 85.672ZM214.677 80.2C217.077 80.2 218.837 79.544 219.957 78.232C221.109 76.92 221.685 75.048 221.685 72.616V63.688C221.685 61.224 221.045 59.368 219.765 58.12C218.517 56.84 216.821 56.2 214.677 56.2C212.469 56.2 210.741 56.856 209.493 58.168C208.277 59.48 207.669 61.32 207.669 63.688V72.616C207.669 75.144 208.245 77.048 209.397 78.328C210.581 79.576 212.341 80.2 214.677 80.2Z" fill="#1B3C2A"/>
<path d="M243.4 85.234C242.584 85.234 241.894 85.108 241.33 84.856C240.766 84.592 240.304 84.238 239.944 83.794C239.596 83.338 239.338 82.822 239.17 82.246C239.002 81.67 238.918 81.07 238.918 80.446C238.918 79.75 239.008 79.102 239.188 78.502C239.368 77.902 239.638 77.374 239.998 76.918C240.37 76.462 240.826 76.108 241.366 75.856C241.918 75.592 242.56 75.46 243.292 75.46C244.012 75.46 244.642 75.586 245.182 75.838C245.722 76.09 246.16 76.438 246.496 76.882C246.832 77.326 247.048 77.854 247.144 78.466L245.578 78.898C245.554 78.55 245.452 78.22 245.272 77.908C245.104 77.596 244.852 77.344 244.516 77.152C244.18 76.948 243.766 76.846 243.274 76.846C242.818 76.846 242.422 76.936 242.086 77.116C241.75 77.296 241.468 77.548 241.24 77.872C241.024 78.184 240.856 78.556 240.736 78.988C240.628 79.42 240.574 79.894 240.574 80.41C240.574 81.106 240.676 81.712 240.88 82.228C241.084 82.744 241.39 83.146 241.798 83.434C242.218 83.722 242.752 83.866 243.4 83.866C243.916 83.866 244.348 83.776 244.696 83.596C245.044 83.416 245.314 83.17 245.506 82.858C245.71 82.534 245.842 82.156 245.902 81.724L247.396 82.048C247.324 82.564 247.174 83.026 246.946 83.434C246.718 83.83 246.43 84.16 246.082 84.424C245.746 84.688 245.35 84.886 244.894 85.018C244.45 85.162 243.952 85.234 243.4 85.234ZM249.247 85V79.312V75.694H250.705L250.561 78.718H250.849C250.993 77.986 251.197 77.38 251.461 76.9C251.737 76.42 252.067 76.06 252.451 75.82C252.847 75.58 253.303 75.46 253.819 75.46C254.407 75.46 254.893 75.61 255.277 75.91C255.661 76.198 255.943 76.588 256.123 77.08C256.315 77.56 256.411 78.088 256.411 78.664H256.681C256.813 77.968 257.017 77.386 257.293 76.918C257.569 76.438 257.911 76.078 258.319 75.838C258.739 75.586 259.213 75.46 259.741 75.46C260.221 75.46 260.641 75.556 261.001 75.748C261.361 75.94 261.661 76.222 261.901 76.594C262.153 76.966 262.339 77.434 262.459 77.998C262.591 78.55 262.657 79.186 262.657 79.906V85H261.019V80.122C261.019 79.402 260.953 78.808 260.821 78.34C260.689 77.872 260.491 77.524 260.227 77.296C259.975 77.056 259.651 76.936 259.255 76.936C258.799 76.936 258.397 77.092 258.049 77.404C257.701 77.716 257.413 78.148 257.185 78.7C256.969 79.252 256.825 79.888 256.753 80.608V85H255.151V80.266C255.151 79.522 255.085 78.904 254.953 78.412C254.821 77.92 254.623 77.554 254.359 77.314C254.107 77.062 253.783 76.936 253.387 76.936C252.907 76.936 252.487 77.104 252.127 77.44C251.779 77.764 251.497 78.214 251.281 78.79C251.077 79.354 250.945 79.984 250.885 80.68V85H249.247Z" fill="#8A8F84"/>
<path d="M326 106H50C48.8954 106 48 106.895 48 108C48 109.105 48.8954 110 50 110H326C327.105 110 328 109.105 328 108C328 106.895 327.105 106 326 106Z" fill="#E8E5DC"/>
<path d="M113.233 106H48.7674C48.3436 106 48 106.895 48 108C48 109.105 48.3436 110 48.7674 110H113.233C113.656 110 114 109.105 114 108C114 106.895 113.656 106 113.233 106Z" fill="#8BAA3D"/>
<path d="M124 119C129.523 119 134 114.523 134 109C134 103.477 129.523 99 124 99C118.477 99 114 103.477 114 109C114 114.523 118.477 119 124 119Z" fill="white" stroke="#8BAA3D" stroke-width="2"/>
<path d="M124 113C126.209 113 128 111.209 128 109C128 106.791 126.209 105 124 105C121.791 105 120 106.791 120 109C120 111.209 121.791 113 124 113Z" fill="#8BAA3D"/>
<path d="M49.161 129V124.455H48.297V123.717C48.567 123.717 48.795 123.675 48.981 123.591C49.167 123.507 49.287 123.33 49.341 123.06H49.989V129H49.161ZM51.0206 127.704V126.768C51.2966 126.48 51.5606 126.183 51.8126 125.877C52.0706 125.571 52.3046 125.259 52.5146 124.941C52.7306 124.623 52.9226 124.305 53.0906 123.987C53.2586 123.669 53.3996 123.357 53.5136 123.051H54.9536V129H54.1436V123.681H54.0626C53.8706 124.131 53.6546 124.551 53.4146 124.941C53.1746 125.325 52.9196 125.682 52.6496 126.012C52.3856 126.336 52.1126 126.639 51.8306 126.921V127.002H55.7096V127.704H51.0206ZM58.9762 129.126C58.6162 129.126 58.2892 129.054 57.9952 128.91C57.7012 128.766 57.4492 128.559 57.2392 128.289C57.0352 128.019 56.8762 127.698 56.7622 127.326C56.6542 126.948 56.6002 126.528 56.6002 126.066C56.6002 125.406 56.7022 124.845 56.9062 124.383C57.1102 123.915 57.3892 123.558 57.7432 123.312C58.1032 123.066 58.5172 122.943 58.9852 122.943C59.4772 122.943 59.8972 123.075 60.2452 123.339C60.5932 123.597 60.8632 123.96 61.0552 124.428C61.2472 124.89 61.3432 125.433 61.3432 126.057C61.3432 126.513 61.2862 126.93 61.1722 127.308C61.0642 127.686 60.9052 128.01 60.6952 128.28C60.4912 128.55 60.2422 128.76 59.9482 128.91C59.6602 129.054 59.3362 129.126 58.9762 129.126ZM58.9762 128.415C59.1922 128.415 59.3932 128.367 59.5792 128.271C59.7712 128.169 59.9362 128.019 60.0742 127.821C60.2122 127.623 60.3202 127.377 60.3982 127.083C60.4822 126.783 60.5242 126.432 60.5242 126.03C60.5242 125.532 60.4582 125.106 60.3262 124.752C60.2002 124.398 60.0202 124.125 59.7862 123.933C59.5582 123.741 59.2882 123.645 58.9762 123.645C58.7062 123.645 58.4512 123.729 58.2112 123.897C57.9772 124.059 57.7852 124.317 57.6352 124.671C57.4912 125.019 57.4192 125.472 57.4192 126.03C57.4192 126.42 57.4582 126.765 57.5362 127.065C57.6142 127.359 57.7222 127.608 57.8602 127.812C57.9982 128.01 58.1602 128.16 58.3462 128.262C58.5382 128.364 58.7482 128.415 58.9762 128.415ZM66.9072 129.117C66.4992 129.117 66.1542 129.051 65.8722 128.919C65.5902 128.787 65.3592 128.61 65.1792 128.388C65.0052 128.16 64.8762 127.905 64.7922 127.623C64.7082 127.335 64.6662 127.035 64.6662 126.723C64.6662 126.381 64.7112 126.06 64.8012 125.76C64.8912 125.46 65.0262 125.196 65.2062 124.968C65.3922 124.734 65.6232 124.554 65.8992 124.428C66.1752 124.296 66.4962 124.23 66.8622 124.23C67.2102 124.23 67.5192 124.293 67.7892 124.419C68.0592 124.539 68.2782 124.71 68.4462 124.932C68.6202 125.148 68.7342 125.409 68.7882 125.715L68.0052 125.94C67.9932 125.772 67.9422 125.61 67.8522 125.454C67.7682 125.298 67.6422 125.172 67.4742 125.076C67.3062 124.974 67.0962 124.923 66.8442 124.923C66.6162 124.923 66.4182 124.968 66.2502 125.058C66.0822 125.148 65.9412 125.274 65.8272 125.436C65.7192 125.598 65.6352 125.787 65.5752 126.003C65.5212 126.219 65.4942 126.453 65.4942 126.705C65.4942 127.047 65.5422 127.35 65.6382 127.614C65.7402 127.872 65.8962 128.073 66.1062 128.217C66.3162 128.361 66.5862 128.433 66.9162 128.433C67.1682 128.433 67.3812 128.391 67.5552 128.307C67.7292 128.217 67.8672 128.094 67.9692 127.938C68.0712 127.782 68.1372 127.593 68.1672 127.371L68.9142 127.551C68.8722 127.809 68.7942 128.037 68.6802 128.235C68.5662 128.427 68.4222 128.589 68.2482 128.721C68.0802 128.853 67.8822 128.952 67.6542 129.018C67.4322 129.084 67.1832 129.117 66.9072 129.117ZM69.8665 129V126.093V124.347H70.5865L70.5145 125.805H70.6675C70.7455 125.451 70.8505 125.16 70.9825 124.932C71.1205 124.698 71.2855 124.524 71.4775 124.41C71.6695 124.29 71.8915 124.23 72.1435 124.23C72.4435 124.23 72.6865 124.302 72.8725 124.446C73.0645 124.59 73.2085 124.779 73.3045 125.013C73.4005 125.247 73.4485 125.502 73.4485 125.778H73.5925C73.6585 125.442 73.7605 125.16 73.8985 124.932C74.0365 124.704 74.2075 124.53 74.4115 124.41C74.6215 124.29 74.8555 124.23 75.1135 124.23C75.3535 124.23 75.5635 124.278 75.7435 124.374C75.9235 124.47 76.0765 124.614 76.2025 124.806C76.3285 124.992 76.4215 125.223 76.4815 125.499C76.5415 125.775 76.5715 126.093 76.5715 126.453V129H75.7525V126.561C75.7525 126.207 75.7195 125.913 75.6535 125.679C75.5875 125.439 75.4885 125.262 75.3565 125.148C75.2305 125.028 75.0685 124.968 74.8705 124.968C74.6485 124.968 74.4475 125.046 74.2675 125.202C74.0935 125.352 73.9495 125.562 73.8355 125.832C73.7275 126.096 73.6555 126.402 73.6195 126.75V129H72.8185V126.642C72.8185 126.27 72.7855 125.961 72.7195 125.715C72.6535 125.469 72.5545 125.283 72.4225 125.157C72.2905 125.031 72.1255 124.968 71.9275 124.968C71.6875 124.968 71.4805 125.049 71.3065 125.211C71.1325 125.373 70.9915 125.592 70.8835 125.868C70.7815 126.144 70.7155 126.45 70.6855 126.786V129H69.8665Z" fill="#8A8F84"/>
<path d="M296.897 129V128.037L299.012 126.426C299.144 126.318 299.279 126.204 299.417 126.084C299.555 125.958 299.684 125.823 299.804 125.679C299.924 125.529 300.02 125.37 300.092 125.202C300.17 125.028 300.209 124.845 300.209 124.653C300.209 124.455 300.161 124.281 300.065 124.131C299.975 123.981 299.84 123.867 299.66 123.789C299.486 123.705 299.27 123.663 299.012 123.663C298.826 123.663 298.655 123.687 298.499 123.735C298.349 123.783 298.217 123.867 298.103 123.987C297.989 124.107 297.902 124.266 297.842 124.464C297.782 124.662 297.752 124.908 297.752 125.202L296.96 125.058C296.954 124.632 297.026 124.26 297.176 123.942C297.326 123.618 297.554 123.369 297.86 123.195C298.172 123.021 298.559 122.934 299.021 122.934C299.429 122.934 299.78 123 300.074 123.132C300.374 123.264 300.605 123.456 300.767 123.708C300.935 123.954 301.019 124.248 301.019 124.59C301.019 124.872 300.971 125.133 300.875 125.373C300.779 125.607 300.656 125.823 300.506 126.021C300.356 126.213 300.191 126.387 300.011 126.543C299.837 126.699 299.669 126.834 299.507 126.948L297.806 128.244V128.325L301.172 128.289V129H296.897ZM302.188 129V128.037L304.303 126.426C304.435 126.318 304.57 126.204 304.708 126.084C304.846 125.958 304.975 125.823 305.095 125.679C305.215 125.529 305.311 125.37 305.383 125.202C305.461 125.028 305.5 124.845 305.5 124.653C305.5 124.455 305.452 124.281 305.356 124.131C305.266 123.981 305.131 123.867 304.951 123.789C304.777 123.705 304.561 123.663 304.303 123.663C304.117 123.663 303.946 123.687 303.79 123.735C303.64 123.783 303.508 123.867 303.394 123.987C303.28 124.107 303.193 124.266 303.133 124.464C303.073 124.662 303.043 124.908 303.043 125.202L302.251 125.058C302.245 124.632 302.317 124.26 302.467 123.942C302.617 123.618 302.845 123.369 303.151 123.195C303.463 123.021 303.85 122.934 304.312 122.934C304.72 122.934 305.071 123 305.365 123.132C305.665 123.264 305.896 123.456 306.058 123.708C306.226 123.954 306.31 124.248 306.31 124.59C306.31 124.872 306.262 125.133 306.166 125.373C306.07 125.607 305.947 125.823 305.797 126.021C305.647 126.213 305.482 126.387 305.302 126.543C305.128 126.699 304.96 126.834 304.798 126.948L303.097 128.244V128.325L306.463 128.289V129H302.188ZM309.753 129.126C309.393 129.126 309.066 129.054 308.772 128.91C308.478 128.766 308.226 128.559 308.016 128.289C307.812 128.019 307.653 127.698 307.539 127.326C307.431 126.948 307.377 126.528 307.377 126.066C307.377 125.406 307.479 124.845 307.683 124.383C307.887 123.915 308.166 123.558 308.52 123.312C308.88 123.066 309.294 122.943 309.762 122.943C310.254 122.943 310.674 123.075 311.022 123.339C311.37 123.597 311.64 123.96 311.832 124.428C312.024 124.89 312.12 125.433 312.12 126.057C312.12 126.513 312.063 126.93 311.949 127.308C311.841 127.686 311.682 128.01 311.472 128.28C311.268 128.55 311.019 128.76 310.725 128.91C310.437 129.054 310.113 129.126 309.753 129.126ZM309.753 128.415C309.969 128.415 310.17 128.367 310.356 128.271C310.548 128.169 310.713 128.019 310.851 127.821C310.989 127.623 311.097 127.377 311.175 127.083C311.259 126.783 311.301 126.432 311.301 126.03C311.301 125.532 311.235 125.106 311.103 124.752C310.977 124.398 310.797 124.125 310.563 123.933C310.335 123.741 310.065 123.645 309.753 123.645C309.483 123.645 309.228 123.729 308.988 123.897C308.754 124.059 308.562 124.317 308.412 124.671C308.268 125.019 308.196 125.472 308.196 126.03C308.196 126.42 308.235 126.765 308.313 127.065C308.391 127.359 308.499 127.608 308.637 127.812C308.775 128.01 308.937 128.16 309.123 128.262C309.315 128.364 309.525 128.415 309.753 128.415ZM317.684 129.117C317.276 129.117 316.931 129.051 316.649 128.919C316.367 128.787 316.136 128.61 315.956 128.388C315.782 128.16 315.653 127.905 315.569 127.623C315.485 127.335 315.443 127.035 315.443 126.723C315.443 126.381 315.488 126.06 315.578 125.76C315.668 125.46 315.803 125.196 315.983 124.968C316.169 124.734 316.4 124.554 316.676 124.428C316.952 124.296 317.273 124.23 317.639 124.23C317.987 124.23 318.296 124.293 318.566 124.419C318.836 124.539 319.055 124.71 319.223 124.932C319.397 125.148 319.511 125.409 319.565 125.715L318.782 125.94C318.77 125.772 318.719 125.61 318.629 125.454C318.545 125.298 318.419 125.172 318.251 125.076C318.083 124.974 317.873 124.923 317.621 124.923C317.393 124.923 317.195 124.968 317.027 125.058C316.859 125.148 316.718 125.274 316.604 125.436C316.496 125.598 316.412 125.787 316.352 126.003C316.298 126.219 316.271 126.453 316.271 126.705C316.271 127.047 316.319 127.35 316.415 127.614C316.517 127.872 316.673 128.073 316.883 128.217C317.093 128.361 317.363 128.433 317.693 128.433C317.945 128.433 318.158 128.391 318.332 128.307C318.506 128.217 318.644 128.094 318.746 127.938C318.848 127.782 318.914 127.593 318.944 127.371L319.691 127.551C319.649 127.809 319.571 128.037 319.457 128.235C319.343 128.427 319.199 128.589 319.025 128.721C318.857 128.853 318.659 128.952 318.431 129.018C318.209 129.084 317.96 129.117 317.684 129.117ZM320.643 129V126.093V124.347H321.363L321.291 125.805H321.444C321.522 125.451 321.627 125.16 321.759 124.932C321.897 124.698 322.062 124.524 322.254 124.41C322.446 124.29 322.668 124.23 322.92 124.23C323.22 124.23 323.463 124.302 323.649 124.446C323.841 124.59 323.985 124.779 324.081 125.013C324.177 125.247 324.225 125.502 324.225 125.778H324.369C324.435 125.442 324.537 125.16 324.675 124.932C324.813 124.704 324.984 124.53 325.188 124.41C325.398 124.29 325.632 124.23 325.89 124.23C326.13 124.23 326.34 124.278 326.52 124.374C326.7 124.47 326.853 124.614 326.979 124.806C327.105 124.992 327.198 125.223 327.258 125.499C327.318 125.775 327.348 126.093 327.348 126.453V129H326.529V126.561C326.529 126.207 326.496 125.913 326.43 125.679C326.364 125.439 326.265 125.262 326.133 125.148C326.007 125.028 325.845 124.968 325.647 124.968C325.425 124.968 325.224 125.046 325.044 125.202C324.87 125.352 324.726 125.562 324.612 125.832C324.504 126.096 324.432 126.402 324.396 126.75V129H323.595V126.642C323.595 126.27 323.562 125.961 323.496 125.715C323.43 125.469 323.331 125.283 323.199 125.157C323.067 125.031 322.902 124.968 322.704 124.968C322.464 124.968 322.257 125.049 322.083 125.211C321.909 125.373 321.768 125.592 321.66 125.868C321.558 126.144 321.492 126.45 321.462 126.786V129H320.643Z" fill="#8A8F84"/>
<path d="M294 52H280C274.477 52 270 56.4772 270 62V76C270 81.5228 274.477 86 280 86H294C299.523 86 304 81.5228 304 76V62C304 56.4772 299.523 52 294 52Z" fill="#E8EDDA"/>
<path d="M280 69H294" stroke="#1B3C2A" stroke-width="1.8" stroke-linecap="round"/>
<path d="M334 52H320C314.477 52 310 56.4772 310 62V76C310 81.5228 314.477 86 320 86H334C339.523 86 344 81.5228 344 76V62C344 56.4772 339.523 52 334 52Z" fill="#8BAA3D"/>
<path d="M320 69H334" stroke="white" stroke-width="1.8" stroke-linecap="round"/>
<path d="M327 62V76" stroke="white" stroke-width="1.8" stroke-linecap="round"/>
<path d="M339 160H38C28.0589 160 20 168.059 20 178V262C20 271.941 28.0589 280 38 280H339C348.941 280 357 271.941 357 262V178C357 168.059 348.941 160 339 160Z" fill="white" stroke="#E0DDD4"/>
<path d="M160.079 225V195.912H159.215L154.703 206.568H148.271L155.135 191.4H166.223V225H160.079ZM183.798 225.672C181.238 225.672 178.966 225.288 176.982 224.52C175.03 223.752 173.494 222.648 172.374 221.208C171.286 219.736 170.742 218.008 170.742 216.024V215.448C170.742 213.912 171.014 212.648 171.558 211.656C172.102 210.632 172.774 209.832 173.574 209.256C174.406 208.68 175.19 208.28 175.926 208.056V207.192C175.19 206.936 174.454 206.52 173.718 205.944C172.982 205.368 172.374 204.6 171.894 203.64C171.446 202.68 171.222 201.528 171.222 200.184V199.608C171.222 197.848 171.734 196.312 172.758 195C173.814 193.656 175.286 192.616 177.174 191.88C179.062 191.112 181.27 190.728 183.798 190.728C186.326 190.728 188.534 191.112 190.422 191.88C192.31 192.616 193.766 193.656 194.79 195C195.846 196.312 196.374 197.848 196.374 199.608V200.184C196.374 201.528 196.134 202.68 195.654 203.64C195.206 204.6 194.614 205.368 193.878 205.944C193.174 206.52 192.438 206.936 191.67 207.192V208.056C192.438 208.28 193.222 208.68 194.022 209.256C194.822 209.832 195.494 210.632 196.038 211.656C196.582 212.648 196.854 213.912 196.854 215.448V216.024C196.854 218.008 196.294 219.736 195.174 221.208C194.086 222.648 192.55 223.752 190.566 224.52C188.614 225.288 186.358 225.672 183.798 225.672ZM183.798 220.2C186.006 220.2 187.702 219.784 188.886 218.952C190.102 218.088 190.71 216.952 190.71 215.544V215.16C190.71 213.752 190.118 212.632 188.934 211.8C187.782 210.936 186.07 210.504 183.798 210.504C181.558 210.504 179.846 210.936 178.662 211.8C177.478 212.632 176.886 213.752 176.886 215.16V215.544C176.886 216.952 177.478 218.088 178.662 218.952C179.878 219.784 181.59 220.2 183.798 220.2ZM183.798 205.032C185.846 205.032 187.43 204.664 188.55 203.928C189.67 203.192 190.23 202.152 190.23 200.808V200.424C190.23 199.08 189.654 198.04 188.502 197.304C187.35 196.568 185.782 196.2 183.798 196.2C181.814 196.2 180.246 196.568 179.094 197.304C177.942 198.04 177.366 199.08 177.366 200.424V200.808C177.366 202.152 177.926 203.192 179.046 203.928C180.166 204.664 181.75 205.032 183.798 205.032ZM213.732 225.672C209.764 225.672 206.58 224.584 204.18 222.408C201.78 220.2 200.58 216.872 200.58 212.424V203.976C200.58 199.656 201.78 196.376 204.18 194.136C206.58 191.864 209.764 190.728 213.732 190.728C217.732 190.728 220.916 191.864 223.284 194.136C225.684 196.376 226.884 199.656 226.884 203.976V212.424C226.884 216.872 225.684 220.2 223.284 222.408C220.916 224.584 217.732 225.672 213.732 225.672ZM213.732 220.2C216.132 220.2 217.892 219.544 219.012 218.232C220.164 216.92 220.74 215.048 220.74 212.616V203.688C220.74 201.224 220.1 199.368 218.82 198.12C217.572 196.84 215.876 196.2 213.732 196.2C211.524 196.2 209.796 196.856 208.548 198.168C207.332 199.48 206.724 201.32 206.724 203.688V212.616C206.724 215.144 207.3 217.048 208.452 218.328C209.636 219.576 211.396 220.2 213.732 220.2Z" fill="#1B3C2A"/>
<path d="M243.4 225.234C242.584 225.234 241.894 225.108 241.33 224.856C240.766 224.592 240.304 224.238 239.944 223.794C239.596 223.338 239.338 222.822 239.17 222.246C239.002 221.67 238.918 221.07 238.918 220.446C238.918 219.75 239.008 219.102 239.188 218.502C239.368 217.902 239.638 217.374 239.998 216.918C240.37 216.462 240.826 216.108 241.366 215.856C241.918 215.592 242.56 215.46 243.292 215.46C244.012 215.46 244.642 215.586 245.182 215.838C245.722 216.09 246.16 216.438 246.496 216.882C246.832 217.326 247.048 217.854 247.144 218.466L245.578 218.898C245.554 218.55 245.452 218.22 245.272 217.908C245.104 217.596 244.852 217.344 244.516 217.152C244.18 216.948 243.766 216.846 243.274 216.846C242.818 216.846 242.422 216.936 242.086 217.116C241.75 217.296 241.468 217.548 241.24 217.872C241.024 218.184 240.856 218.556 240.736 218.988C240.628 219.42 240.574 219.894 240.574 220.41C240.574 221.106 240.676 221.712 240.88 222.228C241.084 222.744 241.39 223.146 241.798 223.434C242.218 223.722 242.752 223.866 243.4 223.866C243.916 223.866 244.348 223.776 244.696 223.596C245.044 223.416 245.314 223.17 245.506 222.858C245.71 222.534 245.842 222.156 245.902 221.724L247.396 222.048C247.324 222.564 247.174 223.026 246.946 223.434C246.718 223.83 246.43 224.16 246.082 224.424C245.746 224.688 245.35 224.886 244.894 225.018C244.45 225.162 243.952 225.234 243.4 225.234ZM249.247 225V219.312V215.694H250.705L250.561 218.718H250.849C250.993 217.986 251.197 217.38 251.461 216.9C251.737 216.42 252.067 216.06 252.451 215.82C252.847 215.58 253.303 215.46 253.819 215.46C254.407 215.46 254.893 215.61 255.277 215.91C255.661 216.198 255.943 216.588 256.123 217.08C256.315 217.56 256.411 218.088 256.411 218.664H256.681C256.813 217.968 257.017 217.386 257.293 216.918C257.569 216.438 257.911 216.078 258.319 215.838C258.739 215.586 259.213 215.46 259.741 215.46C260.221 215.46 260.641 215.556 261.001 215.748C261.361 215.94 261.661 216.222 261.901 216.594C262.153 216.966 262.339 217.434 262.459 217.998C262.591 218.55 262.657 219.186 262.657 219.906V225H261.019V220.122C261.019 219.402 260.953 218.808 260.821 218.34C260.689 217.872 260.491 217.524 260.227 217.296C259.975 217.056 259.651 216.936 259.255 216.936C258.799 216.936 258.397 217.092 258.049 217.404C257.701 217.716 257.413 218.148 257.185 218.7C256.969 219.252 256.825 219.888 256.753 220.608V225H255.151V220.266C255.151 219.522 255.085 218.904 254.953 218.412C254.821 217.92 254.623 217.554 254.359 217.314C254.107 217.062 253.783 216.936 253.387 216.936C252.907 216.936 252.487 217.104 252.127 217.44C251.779 217.764 251.497 218.214 251.281 218.79C251.077 219.354 250.945 219.984 250.885 220.68V225H249.247Z" fill="#8A8F84"/>
<path d="M326 246H50C48.8954 246 48 246.895 48 248C48 249.105 48.8954 250 50 250H326C327.105 250 328 249.105 328 248C328 246.895 327.105 246 326 246Z" fill="#E8E5DC"/>
<path d="M218 246H50C48.8954 246 48 246.895 48 248C48 249.105 48.8954 250 50 250H218C219.105 250 220 249.105 220 248C220 246.895 219.105 246 218 246Z" fill="#8BAA3D"/>
<path d="M220 258C225.523 258 230 253.523 230 248C230 242.477 225.523 238 220 238C214.477 238 210 242.477 210 248C210 253.523 214.477 258 220 258Z" fill="white" stroke="#8BAA3D" stroke-width="2"/>
<path d="M220 252C222.209 252 224 250.209 224 248C224 245.791 222.209 244 220 244C217.791 244 216 245.791 216 248C216 250.209 217.791 252 220 252Z" fill="#8BAA3D"/>
<path d="M49.161 269V264.455H48.297V263.717C48.567 263.717 48.795 263.675 48.981 263.591C49.167 263.507 49.287 263.33 49.341 263.06H49.989V269H49.161ZM51.0206 267.704V266.768C51.2966 266.48 51.5606 266.183 51.8126 265.877C52.0706 265.571 52.3046 265.259 52.5146 264.941C52.7306 264.623 52.9226 264.305 53.0906 263.987C53.2586 263.669 53.3996 263.357 53.5136 263.051H54.9536V269H54.1436V263.681H54.0626C53.8706 264.131 53.6546 264.551 53.4146 264.941C53.1746 265.325 52.9196 265.682 52.6496 266.012C52.3856 266.336 52.1126 266.639 51.8306 266.921V267.002H55.7096V267.704H51.0206ZM58.9762 269.126C58.6162 269.126 58.2892 269.054 57.9952 268.91C57.7012 268.766 57.4492 268.559 57.2392 268.289C57.0352 268.019 56.8762 267.698 56.7622 267.326C56.6542 266.948 56.6002 266.528 56.6002 266.066C56.6002 265.406 56.7022 264.845 56.9062 264.383C57.1102 263.915 57.3892 263.558 57.7432 263.312C58.1032 263.066 58.5172 262.943 58.9852 262.943C59.4772 262.943 59.8972 263.075 60.2452 263.339C60.5932 263.597 60.8632 263.96 61.0552 264.428C61.2472 264.89 61.3432 265.433 61.3432 266.057C61.3432 266.513 61.2862 266.93 61.1722 267.308C61.0642 267.686 60.9052 268.01 60.6952 268.28C60.4912 268.55 60.2422 268.76 59.9482 268.91C59.6602 269.054 59.3362 269.126 58.9762 269.126ZM58.9762 268.415C59.1922 268.415 59.3932 268.367 59.5792 268.271C59.7712 268.169 59.9362 268.019 60.0742 267.821C60.2122 267.623 60.3202 267.377 60.3982 267.083C60.4822 266.783 60.5242 266.432 60.5242 266.03C60.5242 265.532 60.4582 265.106 60.3262 264.752C60.2002 264.398 60.0202 264.125 59.7862 263.933C59.5582 263.741 59.2882 263.645 58.9762 263.645C58.7062 263.645 58.4512 263.729 58.2112 263.897C57.9772 264.059 57.7852 264.317 57.6352 264.671C57.4912 265.019 57.4192 265.472 57.4192 266.03C57.4192 266.42 57.4582 266.765 57.5362 267.065C57.6142 267.359 57.7222 267.608 57.8602 267.812C57.9982 268.01 58.1602 268.16 58.3462 268.262C58.5382 268.364 58.7482 268.415 58.9762 268.415ZM66.9072 269.117C66.4992 269.117 66.1542 269.051 65.8722 268.919C65.5902 268.787 65.3592 268.61 65.1792 268.388C65.0052 268.16 64.8762 267.905 64.7922 267.623C64.7082 267.335 64.6662 267.035 64.6662 266.723C64.6662 266.381 64.7112 266.06 64.8012 265.76C64.8912 265.46 65.0262 265.196 65.2062 264.968C65.3922 264.734 65.6232 264.554 65.8992 264.428C66.1752 264.296 66.4962 264.23 66.8622 264.23C67.2102 264.23 67.5192 264.293 67.7892 264.419C68.0592 264.539 68.2782 264.71 68.4462 264.932C68.6202 265.148 68.7342 265.409 68.7882 265.715L68.0052 265.94C67.9932 265.772 67.9422 265.61 67.8522 265.454C67.7682 265.298 67.6422 265.172 67.4742 265.076C67.3062 264.974 67.0962 264.923 66.8442 264.923C66.6162 264.923 66.4182 264.968 66.2502 265.058C66.0822 265.148 65.9412 265.274 65.8272 265.436C65.7192 265.598 65.6352 265.787 65.5752 266.003C65.5212 266.219 65.4942 266.453 65.4942 266.705C65.4942 267.047 65.5422 267.35 65.6382 267.614C65.7402 267.872 65.8962 268.073 66.1062 268.217C66.3162 268.361 66.5862 268.433 66.9162 268.433C67.1682 268.433 67.3812 268.391 67.5552 268.307C67.7292 268.217 67.8672 268.094 67.9692 267.938C68.0712 267.782 68.1372 267.593 68.1672 267.371L68.9142 267.551C68.8722 267.809 68.7942 268.037 68.6802 268.235C68.5662 268.427 68.4222 268.589 68.2482 268.721C68.0802 268.853 67.8822 268.952 67.6542 269.018C67.4322 269.084 67.1832 269.117 66.9072 269.117ZM69.8665 269V266.093V264.347H70.5865L70.5145 265.805H70.6675C70.7455 265.451 70.8505 265.16 70.9825 264.932C71.1205 264.698 71.2855 264.524 71.4775 264.41C71.6695 264.29 71.8915 264.23 72.1435 264.23C72.4435 264.23 72.6865 264.302 72.8725 264.446C73.0645 264.59 73.2085 264.779 73.3045 265.013C73.4005 265.247 73.4485 265.502 73.4485 265.778H73.5925C73.6585 265.442 73.7605 265.16 73.8985 264.932C74.0365 264.704 74.2075 264.53 74.4115 264.41C74.6215 264.29 74.8555 264.23 75.1135 264.23C75.3535 264.23 75.5635 264.278 75.7435 264.374C75.9235 264.47 76.0765 264.614 76.2025 264.806C76.3285 264.992 76.4215 265.223 76.4815 265.499C76.5415 265.775 76.5715 266.093 76.5715 266.453V269H75.7525V266.561C75.7525 266.207 75.7195 265.913 75.6535 265.679C75.5875 265.439 75.4885 265.262 75.3565 265.148C75.2305 265.028 75.0685 264.968 74.8705 264.968C74.6485 264.968 74.4475 265.046 74.2675 265.202C74.0935 265.352 73.9495 265.562 73.8355 265.832C73.7275 266.096 73.6555 266.402 73.6195 266.75V269H72.8185V266.642C72.8185 266.27 72.7855 265.961 72.7195 265.715C72.6535 265.469 72.5545 265.283 72.4225 265.157C72.2905 265.031 72.1255 264.968 71.9275 264.968C71.6875 264.968 71.4805 265.049 71.3065 265.211C71.1325 265.373 70.9915 265.592 70.8835 265.868C70.7815 266.144 70.7155 266.45 70.6855 266.786V269H69.8665Z" fill="#8A8F84"/>
<path d="M296.897 269V268.037L299.012 266.426C299.144 266.318 299.279 266.204 299.417 266.084C299.555 265.958 299.684 265.823 299.804 265.679C299.924 265.529 300.02 265.37 300.092 265.202C300.17 265.028 300.209 264.845 300.209 264.653C300.209 264.455 300.161 264.281 300.065 264.131C299.975 263.981 299.84 263.867 299.66 263.789C299.486 263.705 299.27 263.663 299.012 263.663C298.826 263.663 298.655 263.687 298.499 263.735C298.349 263.783 298.217 263.867 298.103 263.987C297.989 264.107 297.902 264.266 297.842 264.464C297.782 264.662 297.752 264.908 297.752 265.202L296.96 265.058C296.954 264.632 297.026 264.26 297.176 263.942C297.326 263.618 297.554 263.369 297.86 263.195C298.172 263.021 298.559 262.934 299.021 262.934C299.429 262.934 299.78 263 300.074 263.132C300.374 263.264 300.605 263.456 300.767 263.708C300.935 263.954 301.019 264.248 301.019 264.59C301.019 264.872 300.971 265.133 300.875 265.373C300.779 265.607 300.656 265.823 300.506 266.021C300.356 266.213 300.191 266.387 300.011 266.543C299.837 266.699 299.669 266.834 299.507 266.948L297.806 268.244V268.325L301.172 268.289V269H296.897ZM302.188 269V268.037L304.303 266.426C304.435 266.318 304.57 266.204 304.708 266.084C304.846 265.958 304.975 265.823 305.095 265.679C305.215 265.529 305.311 265.37 305.383 265.202C305.461 265.028 305.5 264.845 305.5 264.653C305.5 264.455 305.452 264.281 305.356 264.131C305.266 263.981 305.131 263.867 304.951 263.789C304.777 263.705 304.561 263.663 304.303 263.663C304.117 263.663 303.946 263.687 303.79 263.735C303.64 263.783 303.508 263.867 303.394 263.987C303.28 264.107 303.193 264.266 303.133 264.464C303.073 264.662 303.043 264.908 303.043 265.202L302.251 265.058C302.245 264.632 302.317 264.26 302.467 263.942C302.617 263.618 302.845 263.369 303.151 263.195C303.463 263.021 303.85 262.934 304.312 262.934C304.72 262.934 305.071 263 305.365 263.132C305.665 263.264 305.896 263.456 306.058 263.708C306.226 263.954 306.31 264.248 306.31 264.59C306.31 264.872 306.262 265.133 306.166 265.373C306.07 265.607 305.947 265.823 305.797 266.021C305.647 266.213 305.482 266.387 305.302 266.543C305.128 266.699 304.96 266.834 304.798 266.948L303.097 268.244V268.325L306.463 268.289V269H302.188ZM309.753 269.126C309.393 269.126 309.066 269.054 308.772 268.91C308.478 268.766 308.226 268.559 308.016 268.289C307.812 268.019 307.653 267.698 307.539 267.326C307.431 266.948 307.377 266.528 307.377 266.066C307.377 265.406 307.479 264.845 307.683 264.383C307.887 263.915 308.166 263.558 308.52 263.312C308.88 263.066 309.294 262.943 309.762 262.943C310.254 262.943 310.674 263.075 311.022 263.339C311.37 263.597 311.64 263.96 311.832 264.428C312.024 264.89 312.12 265.433 312.12 266.057C312.12 266.513 312.063 266.93 311.949 267.308C311.841 267.686 311.682 268.01 311.472 268.28C311.268 268.55 311.019 268.76 310.725 268.91C310.437 269.054 310.113 269.126 309.753 269.126ZM309.753 268.415C309.969 268.415 310.17 268.367 310.356 268.271C310.548 268.169 310.713 268.019 310.851 267.821C310.989 267.623 311.097 267.377 311.175 267.083C311.259 266.783 311.301 266.432 311.301 266.03C311.301 265.532 311.235 265.106 311.103 264.752C310.977 264.398 310.797 264.125 310.563 263.933C310.335 263.741 310.065 263.645 309.753 263.645C309.483 263.645 309.228 263.729 308.988 263.897C308.754 264.059 308.562 264.317 308.412 264.671C308.268 265.019 308.196 265.472 308.196 266.03C308.196 266.42 308.235 266.765 308.313 267.065C308.391 267.359 308.499 267.608 308.637 267.812C308.775 268.01 308.937 268.16 309.123 268.262C309.315 268.364 309.525 268.415 309.753 268.415ZM317.684 269.117C317.276 269.117 316.931 269.051 316.649 268.919C316.367 268.787 316.136 268.61 315.956 268.388C315.782 268.16 315.653 267.905 315.569 267.623C315.485 267.335 315.443 267.035 315.443 266.723C315.443 266.381 315.488 266.06 315.578 265.76C315.668 265.46 315.803 265.196 315.983 264.968C316.169 264.734 316.4 264.554 316.676 264.428C316.952 264.296 317.273 264.23 317.639 264.23C317.987 264.23 318.296 264.293 318.566 264.419C318.836 264.539 319.055 264.71 319.223 264.932C319.397 265.148 319.511 265.409 319.565 265.715L318.782 265.94C318.77 265.772 318.719 265.61 318.629 265.454C318.545 265.298 318.419 265.172 318.251 265.076C318.083 264.974 317.873 264.923 317.621 264.923C317.393 264.923 317.195 264.968 317.027 265.058C316.859 265.148 316.718 265.274 316.604 265.436C316.496 265.598 316.412 265.787 316.352 266.003C316.298 266.219 316.271 266.453 316.271 266.705C316.271 267.047 316.319 267.35 316.415 267.614C316.517 267.872 316.673 268.073 316.883 268.217C317.093 268.361 317.363 268.433 317.693 268.433C317.945 268.433 318.158 268.391 318.332 268.307C318.506 268.217 318.644 268.094 318.746 267.938C318.848 267.782 318.914 267.593 318.944 267.371L319.691 267.551C319.649 267.809 319.571 268.037 319.457 268.235C319.343 268.427 319.199 268.589 319.025 268.721C318.857 268.853 318.659 268.952 318.431 269.018C318.209 269.084 317.96 269.117 317.684 269.117ZM320.643 269V266.093V264.347H321.363L321.291 265.805H321.444C321.522 265.451 321.627 265.16 321.759 264.932C321.897 264.698 322.062 264.524 322.254 264.41C322.446 264.29 322.668 264.23 322.92 264.23C323.22 264.23 323.463 264.302 323.649 264.446C323.841 264.59 323.985 264.779 324.081 265.013C324.177 265.247 324.225 265.502 324.225 265.778H324.369C324.435 265.442 324.537 265.16 324.675 264.932C324.813 264.704 324.984 264.53 325.188 264.41C325.398 264.29 325.632 264.23 325.89 264.23C326.13 264.23 326.34 264.278 326.52 264.374C326.7 264.47 326.853 264.614 326.979 264.806C327.105 264.992 327.198 265.223 327.258 265.499C327.318 265.775 327.348 266.093 327.348 266.453V269H326.529V266.561C326.529 266.207 326.496 265.913 326.43 265.679C326.364 265.439 326.265 265.262 326.133 265.148C326.007 265.028 325.845 264.968 325.647 264.968C325.425 264.968 325.224 265.046 325.044 265.202C324.87 265.352 324.726 265.562 324.612 265.832C324.504 266.096 324.432 266.402 324.396 266.75V269H323.595V266.642C323.595 266.27 323.562 265.961 323.496 265.715C323.43 265.469 323.331 265.283 323.199 265.157C323.067 265.031 322.902 264.968 322.704 264.968C322.464 264.968 322.257 265.049 322.083 265.211C321.909 265.373 321.768 265.592 321.66 265.868C321.558 266.144 321.492 266.45 321.462 266.786V269H320.643Z" fill="#8A8F84"/>
<path d="M294 192H280C274.477 192 270 196.477 270 202V216C270 221.523 274.477 226 280 226H294C299.523 226 304 221.523 304 216V202C304 196.477 299.523 192 294 192Z" fill="#E8EDDA"/>
<path d="M280 209H294" stroke="#1B3C2A" stroke-width="1.8" stroke-linecap="round"/>
<path d="M334 192H320C314.477 192 310 196.477 310 202V216C310 221.523 314.477 226 320 226H334C339.523 226 344 221.523 344 216V202C344 196.477 339.523 192 334 192Z" fill="#8BAA3D"/>
<path d="M320 209H334" stroke="white" stroke-width="1.8" stroke-linecap="round"/>
<path d="M327 202V216" stroke="white" stroke-width="1.8" stroke-linecap="round"/>
<path d="M339 300H38C28.0589 300 20 308.059 20 318V402C20 411.941 28.0589 420 38 420H339C348.941 420 357 411.941 357 402V318C357 308.059 348.941 300 339 300Z" fill="white" stroke="#E0DDD4"/>
<path d="M145.641 365V360.968C145.641 358.632 146.025 356.696 146.793 355.16C147.561 353.592 148.665 352.312 150.105 351.32C151.577 350.296 153.369 349.464 155.481 348.824L158.697 347.816C159.881 347.432 160.873 346.968 161.673 346.424C162.473 345.848 163.081 345.16 163.497 344.36C163.945 343.56 164.169 342.648 164.169 341.624V341.432C164.169 339.832 163.625 338.568 162.537 337.64C161.449 336.68 159.961 336.2 158.073 336.2C156.217 336.2 154.713 336.712 153.561 337.736C152.441 338.728 151.881 340.168 151.881 342.056V342.92H145.737V342.152C145.737 339.72 146.281 337.656 147.369 335.96C148.457 334.264 149.929 332.968 151.785 332.072C153.673 331.176 155.769 330.728 158.073 330.728C160.377 330.728 162.457 331.176 164.313 332.072C166.169 332.936 167.625 334.168 168.681 335.768C169.769 337.336 170.313 339.192 170.313 341.336V341.816C170.313 343.96 169.865 345.784 168.969 347.288C168.105 348.76 166.921 349.976 165.417 350.936C163.913 351.864 162.201 352.632 160.281 353.24L157.209 354.2C155.833 354.616 154.761 355.08 153.993 355.592C153.225 356.072 152.681 356.616 152.361 357.224C152.073 357.8 151.929 358.504 151.929 359.336V359.528H170.025V365H145.641ZM187.677 365.672C183.709 365.672 180.525 364.584 178.125 362.408C175.725 360.2 174.525 356.872 174.525 352.424V343.976C174.525 339.656 175.725 336.376 178.125 334.136C180.525 331.864 183.709 330.728 187.677 330.728C191.677 330.728 194.861 331.864 197.229 334.136C199.629 336.376 200.829 339.656 200.829 343.976V352.424C200.829 356.872 199.629 360.2 197.229 362.408C194.861 364.584 191.677 365.672 187.677 365.672ZM187.677 360.2C190.077 360.2 191.837 359.544 192.957 358.232C194.109 356.92 194.685 355.048 194.685 352.616V343.688C194.685 341.224 194.045 339.368 192.765 338.12C191.517 336.84 189.821 336.2 187.677 336.2C185.469 336.2 183.741 336.856 182.493 338.168C181.277 339.48 180.669 341.32 180.669 343.688V352.616C180.669 355.144 181.245 357.048 182.397 358.328C183.581 359.576 185.341 360.2 187.677 360.2ZM218.802 365.672C214.834 365.672 211.65 364.584 209.25 362.408C206.85 360.2 205.65 356.872 205.65 352.424V343.976C205.65 339.656 206.85 336.376 209.25 334.136C211.65 331.864 214.834 330.728 218.802 330.728C222.802 330.728 225.986 331.864 228.354 334.136C230.754 336.376 231.954 339.656 231.954 343.976V352.424C231.954 356.872 230.754 360.2 228.354 362.408C225.986 364.584 222.802 365.672 218.802 365.672ZM218.802 360.2C221.202 360.2 222.962 359.544 224.082 358.232C225.234 356.92 225.81 355.048 225.81 352.616V343.688C225.81 341.224 225.17 339.368 223.89 338.12C222.642 336.84 220.946 336.2 218.802 336.2C216.594 336.2 214.866 336.856 213.618 338.168C212.402 339.48 211.794 341.32 211.794 343.688V352.616C211.794 355.144 212.37 357.048 213.522 358.328C214.706 359.576 216.466 360.2 218.802 360.2Z" fill="#1B3C2A"/>
<path d="M243.4 365.234C242.584 365.234 241.894 365.108 241.33 364.856C240.766 364.592 240.304 364.238 239.944 363.794C239.596 363.338 239.338 362.822 239.17 362.246C239.002 361.67 238.918 361.07 238.918 360.446C238.918 359.75 239.008 359.102 239.188 358.502C239.368 357.902 239.638 357.374 239.998 356.918C240.37 356.462 240.826 356.108 241.366 355.856C241.918 355.592 242.56 355.46 243.292 355.46C244.012 355.46 244.642 355.586 245.182 355.838C245.722 356.09 246.16 356.438 246.496 356.882C246.832 357.326 247.048 357.854 247.144 358.466L245.578 358.898C245.554 358.55 245.452 358.22 245.272 357.908C245.104 357.596 244.852 357.344 244.516 357.152C244.18 356.948 243.766 356.846 243.274 356.846C242.818 356.846 242.422 356.936 242.086 357.116C241.75 357.296 241.468 357.548 241.24 357.872C241.024 358.184 240.856 358.556 240.736 358.988C240.628 359.42 240.574 359.894 240.574 360.41C240.574 361.106 240.676 361.712 240.88 362.228C241.084 362.744 241.39 363.146 241.798 363.434C242.218 363.722 242.752 363.866 243.4 363.866C243.916 363.866 244.348 363.776 244.696 363.596C245.044 363.416 245.314 363.17 245.506 362.858C245.71 362.534 245.842 362.156 245.902 361.724L247.396 362.048C247.324 362.564 247.174 363.026 246.946 363.434C246.718 363.83 246.43 364.16 246.082 364.424C245.746 364.688 245.35 364.886 244.894 365.018C244.45 365.162 243.952 365.234 243.4 365.234ZM249.247 365V359.312V355.694H250.705L250.561 358.718H250.849C250.993 357.986 251.197 357.38 251.461 356.9C251.737 356.42 252.067 356.06 252.451 355.82C252.847 355.58 253.303 355.46 253.819 355.46C254.407 355.46 254.893 355.61 255.277 355.91C255.661 356.198 255.943 356.588 256.123 357.08C256.315 357.56 256.411 358.088 256.411 358.664H256.681C256.813 357.968 257.017 357.386 257.293 356.918C257.569 356.438 257.911 356.078 258.319 355.838C258.739 355.586 259.213 355.46 259.741 355.46C260.221 355.46 260.641 355.556 261.001 355.748C261.361 355.94 261.661 356.222 261.901 356.594C262.153 356.966 262.339 357.434 262.459 357.998C262.591 358.55 262.657 359.186 262.657 359.906V365H261.019V360.122C261.019 359.402 260.953 358.808 260.821 358.34C260.689 357.872 260.491 357.524 260.227 357.296C259.975 357.056 259.651 356.936 259.255 356.936C258.799 356.936 258.397 357.092 258.049 357.404C257.701 357.716 257.413 358.148 257.185 358.7C256.969 359.252 256.825 359.888 256.753 360.608V365H255.151V360.266C255.151 359.522 255.085 358.904 254.953 358.412C254.821 357.92 254.623 357.554 254.359 357.314C254.107 357.062 253.783 356.936 253.387 356.936C252.907 356.936 252.487 357.104 252.127 357.44C251.779 357.764 251.497 358.214 251.281 358.79C251.077 359.354 250.945 359.984 250.885 360.68V365H249.247Z" fill="#8A8F84"/>
<path d="M326 386H50C48.8954 386 48 386.895 48 388C48 389.105 48.8954 390 50 390H326C327.105 390 328 389.105 328 388C328 386.895 327.105 386 326 386Z" fill="#E8E5DC"/>
<path d="M257.535 386H50.4651C49.1037 386 48 386.895 48 388C48 389.105 49.1037 390 50.4651 390H257.535C258.896 390 260 389.105 260 388C260 386.895 258.896 386 257.535 386Z" fill="#8BAA3D"/>
<path d="M270 398C275.523 398 280 393.523 280 388C280 382.477 275.523 378 270 378C264.477 378 260 382.477 260 388C260 393.523 264.477 398 270 398Z" fill="white" stroke="#8BAA3D" stroke-width="2"/>
<path d="M270 392C272.209 392 274 390.209 274 388C274 385.791 272.209 384 270 384C267.791 384 266 385.791 266 388C266 390.209 267.791 392 270 392Z" fill="#8BAA3D"/>
<path d="M49.161 409V404.455H48.297V403.717C48.567 403.717 48.795 403.675 48.981 403.591C49.167 403.507 49.287 403.33 49.341 403.06H49.989V409H49.161ZM51.0206 407.704V406.768C51.2966 406.48 51.5606 406.183 51.8126 405.877C52.0706 405.571 52.3046 405.259 52.5146 404.941C52.7306 404.623 52.9226 404.305 53.0906 403.987C53.2586 403.669 53.3996 403.357 53.5136 403.051H54.9536V409H54.1436V403.681H54.0626C53.8706 404.131 53.6546 404.551 53.4146 404.941C53.1746 405.325 52.9196 405.682 52.6496 406.012C52.3856 406.336 52.1126 406.639 51.8306 406.921V407.002H55.7096V407.704H51.0206ZM58.9762 409.126C58.6162 409.126 58.2892 409.054 57.9952 408.91C57.7012 408.766 57.4492 408.559 57.2392 408.289C57.0352 408.019 56.8762 407.698 56.7622 407.326C56.6542 406.948 56.6002 406.528 56.6002 406.066C56.6002 405.406 56.7022 404.845 56.9062 404.383C57.1102 403.915 57.3892 403.558 57.7432 403.312C58.1032 403.066 58.5172 402.943 58.9852 402.943C59.4772 402.943 59.8972 403.075 60.2452 403.339C60.5932 403.597 60.8632 403.96 61.0552 404.428C61.2472 404.89 61.3432 405.433 61.3432 406.057C61.3432 406.513 61.2862 406.93 61.1722 407.308C61.0642 407.686 60.9052 408.01 60.6952 408.28C60.4912 408.55 60.2422 408.76 59.9482 408.91C59.6602 409.054 59.3362 409.126 58.9762 409.126ZM58.9762 408.415C59.1922 408.415 59.3932 408.367 59.5792 408.271C59.7712 408.169 59.9362 408.019 60.0742 407.821C60.2122 407.623 60.3202 407.377 60.3982 407.083C60.4822 406.783 60.5242 406.432 60.5242 406.03C60.5242 405.532 60.4582 405.106 60.3262 404.752C60.2002 404.398 60.0202 404.125 59.7862 403.933C59.5582 403.741 59.2882 403.645 58.9762 403.645C58.7062 403.645 58.4512 403.729 58.2112 403.897C57.9772 404.059 57.7852 404.317 57.6352 404.671C57.4912 405.019 57.4192 405.472 57.4192 406.03C57.4192 406.42 57.4582 406.765 57.5362 407.065C57.6142 407.359 57.7222 407.608 57.8602 407.812C57.9982 408.01 58.1602 408.16 58.3462 408.262C58.5382 408.364 58.7482 408.415 58.9762 408.415ZM66.9072 409.117C66.4992 409.117 66.1542 409.051 65.8722 408.919C65.5902 408.787 65.3592 408.61 65.1792 408.388C65.0052 408.16 64.8762 407.905 64.7922 407.623C64.7082 407.335 64.6662 407.035 64.6662 406.723C64.6662 406.381 64.7112 406.06 64.8012 405.76C64.8912 405.46 65.0262 405.196 65.2062 404.968C65.3922 404.734 65.6232 404.554 65.8992 404.428C66.1752 404.296 66.4962 404.23 66.8622 404.23C67.2102 404.23 67.5192 404.293 67.7892 404.419C68.0592 404.539 68.2782 404.71 68.4462 404.932C68.6202 405.148 68.7342 405.409 68.7882 405.715L68.0052 405.94C67.9932 405.772 67.9422 405.61 67.8522 405.454C67.7682 405.298 67.6422 405.172 67.4742 405.076C67.3062 404.974 67.0962 404.923 66.8442 404.923C66.6162 404.923 66.4182 404.968 66.2502 405.058C66.0822 405.148 65.9412 405.274 65.8272 405.436C65.7192 405.598 65.6352 405.787 65.5752 406.003C65.5212 406.219 65.4942 406.453 65.4942 406.705C65.4942 407.047 65.5422 407.35 65.6382 407.614C65.7402 407.872 65.8962 408.073 66.1062 408.217C66.3162 408.361 66.5862 408.433 66.9162 408.433C67.1682 408.433 67.3812 408.391 67.5552 408.307C67.7292 408.217 67.8672 408.094 67.9692 407.938C68.0712 407.782 68.1372 407.593 68.1672 407.371L68.9142 407.551C68.8722 407.809 68.7942 408.037 68.6802 408.235C68.5662 408.427 68.4222 408.589 68.2482 408.721C68.0802 408.853 67.8822 408.952 67.6542 409.018C67.4322 409.084 67.1832 409.117 66.9072 409.117ZM69.8665 409V406.093V404.347H70.5865L70.5145 405.805H70.6675C70.7455 405.451 70.8505 405.16 70.9825 404.932C71.1205 404.698 71.2855 404.524 71.4775 404.41C71.6695 404.29 71.8915 404.23 72.1435 404.23C72.4435 404.23 72.6865 404.302 72.8725 404.446C73.0645 404.59 73.2085 404.779 73.3045 405.013C73.4005 405.247 73.4485 405.502 73.4485 405.778H73.5925C73.6585 405.442 73.7605 405.16 73.8985 404.932C74.0365 404.704 74.2075 404.53 74.4115 404.41C74.6215 404.29 74.8555 404.23 75.1135 404.23C75.3535 404.23 75.5635 404.278 75.7435 404.374C75.9235 404.47 76.0765 404.614 76.2025 404.806C76.3285 404.992 76.4215 405.223 76.4815 405.499C76.5415 405.775 76.5715 406.093 76.5715 406.453V409H75.7525V406.561C75.7525 406.207 75.7195 405.913 75.6535 405.679C75.5875 405.439 75.4885 405.262 75.3565 405.148C75.2305 405.028 75.0685 404.968 74.8705 404.968C74.6485 404.968 74.4475 405.046 74.2675 405.202C74.0935 405.352 73.9495 405.562 73.8355 405.832C73.7275 406.096 73.6555 406.402 73.6195 406.75V409H72.8185V406.642C72.8185 406.27 72.7855 405.961 72.7195 405.715C72.6535 405.469 72.5545 405.283 72.4225 405.157C72.2905 405.031 72.1255 404.968 71.9275 404.968C71.6875 404.968 71.4805 405.049 71.3065 405.211C71.1325 405.373 70.9915 405.592 70.8835 405.868C70.7815 406.144 70.7155 406.45 70.6855 406.786V409H69.8665Z" fill="#8A8F84"/>
<path d="M296.897 409V408.037L299.012 406.426C299.144 406.318 299.279 406.204 299.417 406.084C299.555 405.958 299.684 405.823 299.804 405.679C299.924 405.529 300.02 405.37 300.092 405.202C300.17 405.028 300.209 404.845 300.209 404.653C300.209 404.455 300.161 404.281 300.065 404.131C299.975 403.981 299.84 403.867 299.66 403.789C299.486 403.705 299.27 403.663 299.012 403.663C298.826 403.663 298.655 403.687 298.499 403.735C298.349 403.783 298.217 403.867 298.103 403.987C297.989 404.107 297.902 404.266 297.842 404.464C297.782 404.662 297.752 404.908 297.752 405.202L296.96 405.058C296.954 404.632 297.026 404.26 297.176 403.942C297.326 403.618 297.554 403.369 297.86 403.195C298.172 403.021 298.559 402.934 299.021 402.934C299.429 402.934 299.78 403 300.074 403.132C300.374 403.264 300.605 403.456 300.767 403.708C300.935 403.954 301.019 404.248 301.019 404.59C301.019 404.872 300.971 405.133 300.875 405.373C300.779 405.607 300.656 405.823 300.506 406.021C300.356 406.213 300.191 406.387 300.011 406.543C299.837 406.699 299.669 406.834 299.507 406.948L297.806 408.244V408.325L301.172 408.289V409H296.897ZM302.188 409V408.037L304.303 406.426C304.435 406.318 304.57 406.204 304.708 406.084C304.846 405.958 304.975 405.823 305.095 405.679C305.215 405.529 305.311 405.37 305.383 405.202C305.461 405.028 305.5 404.845 305.5 404.653C305.5 404.455 305.452 404.281 305.356 404.131C305.266 403.981 305.131 403.867 304.951 403.789C304.777 403.705 304.561 403.663 304.303 403.663C304.117 403.663 303.946 403.687 303.79 403.735C303.64 403.783 303.508 403.867 303.394 403.987C303.28 404.107 303.193 404.266 303.133 404.464C303.073 404.662 303.043 404.908 303.043 405.202L302.251 405.058C302.245 404.632 302.317 404.26 302.467 403.942C302.617 403.618 302.845 403.369 303.151 403.195C303.463 403.021 303.85 402.934 304.312 402.934C304.72 402.934 305.071 403 305.365 403.132C305.665 403.264 305.896 403.456 306.058 403.708C306.226 403.954 306.31 404.248 306.31 404.59C306.31 404.872 306.262 405.133 306.166 405.373C306.07 405.607 305.947 405.823 305.797 406.021C305.647 406.213 305.482 406.387 305.302 406.543C305.128 406.699 304.96 406.834 304.798 406.948L303.097 408.244V408.325L306.463 408.289V409H302.188ZM309.753 409.126C309.393 409.126 309.066 409.054 308.772 408.91C308.478 408.766 308.226 408.559 308.016 408.289C307.812 408.019 307.653 407.698 307.539 407.326C307.431 406.948 307.377 406.528 307.377 406.066C307.377 405.406 307.479 404.845 307.683 404.383C307.887 403.915 308.166 403.558 308.52 403.312C308.88 403.066 309.294 402.943 309.762 402.943C310.254 402.943 310.674 403.075 311.022 403.339C311.37 403.597 311.64 403.96 311.832 404.428C312.024 404.89 312.12 405.433 312.12 406.057C312.12 406.513 312.063 406.93 311.949 407.308C311.841 407.686 311.682 408.01 311.472 408.28C311.268 408.55 311.019 408.76 310.725 408.91C310.437 409.054 310.113 409.126 309.753 409.126ZM309.753 408.415C309.969 408.415 310.17 408.367 310.356 408.271C310.548 408.169 310.713 408.019 310.851 407.821C310.989 407.623 311.097 407.377 311.175 407.083C311.259 406.783 311.301 406.432 311.301 406.03C311.301 405.532 311.235 405.106 311.103 404.752C310.977 404.398 310.797 404.125 310.563 403.933C310.335 403.741 310.065 403.645 309.753 403.645C309.483 403.645 309.228 403.729 308.988 403.897C308.754 404.059 308.562 404.317 308.412 404.671C308.268 405.019 308.196 405.472 308.196 406.03C308.196 406.42 308.235 406.765 308.313 407.065C308.391 407.359 308.499 407.608 308.637 407.812C308.775 408.01 308.937 408.16 309.123 408.262C309.315 408.364 309.525 408.415 309.753 408.415ZM317.684 409.117C317.276 409.117 316.931 409.051 316.649 408.919C316.367 408.787 316.136 408.61 315.956 408.388C315.782 408.16 315.653 407.905 315.569 407.623C315.485 407.335 315.443 407.035 315.443 406.723C315.443 406.381 315.488 406.06 315.578 405.76C315.668 405.46 315.803 405.196 315.983 404.968C316.169 404.734 316.4 404.554 316.676 404.428C316.952 404.296 317.273 404.23 317.639 404.23C317.987 404.23 318.296 404.293 318.566 404.419C318.836 404.539 319.055 404.71 319.223 404.932C319.397 405.148 319.511 405.409 319.565 405.715L318.782 405.94C318.77 405.772 318.719 405.61 318.629 405.454C318.545 405.298 318.419 405.172 318.251 405.076C318.083 404.974 317.873 404.923 317.621 404.923C317.393 404.923 317.195 404.968 317.027 405.058C316.859 405.148 316.718 405.274 316.604 405.436C316.496 405.598 316.412 405.787 316.352 406.003C316.298 406.219 316.271 406.453 316.271 406.705C316.271 407.047 316.319 407.35 316.415 407.614C316.517 407.872 316.673 408.073 316.883 408.217C317.093 408.361 317.363 408.433 317.693 408.433C317.945 408.433 318.158 408.391 318.332 408.307C318.506 408.217 318.644 408.094 318.746 407.938C318.848 407.782 318.914 407.593 318.944 407.371L319.691 407.551C319.649 407.809 319.571 408.037 319.457 408.235C319.343 408.427 319.199 408.589 319.025 408.721C318.857 408.853 318.659 408.952 318.431 409.018C318.209 409.084 317.96 409.117 317.684 409.117ZM320.643 409V406.093V404.347H321.363L321.291 405.805H321.444C321.522 405.451 321.627 405.16 321.759 404.932C321.897 404.698 322.062 404.524 322.254 404.41C322.446 404.29 322.668 404.23 322.92 404.23C323.22 404.23 323.463 404.302 323.649 404.446C323.841 404.59 323.985 404.779 324.081 405.013C324.177 405.247 324.225 405.502 324.225 405.778H324.369C324.435 405.442 324.537 405.16 324.675 404.932C324.813 404.704 324.984 404.53 325.188 404.41C325.398 404.29 325.632 404.23 325.89 404.23C326.13 404.23 326.34 404.278 326.52 404.374C326.7 404.47 326.853 404.614 326.979 404.806C327.105 404.992 327.198 405.223 327.258 405.499C327.318 405.775 327.348 406.093 327.348 406.453V409H326.529V406.561C326.529 406.207 326.496 405.913 326.43 405.679C326.364 405.439 326.265 405.262 326.133 405.148C326.007 405.028 325.845 404.968 325.647 404.968C325.425 404.968 325.224 405.046 325.044 405.202C324.87 405.352 324.726 405.562 324.612 405.832C324.504 406.096 324.432 406.402 324.396 406.75V409H323.595V406.642C323.595 406.27 323.562 405.961 323.496 405.715C323.43 405.469 323.331 405.283 323.199 405.157C323.067 405.031 322.902 404.968 322.704 404.968C322.464 404.968 322.257 405.049 322.083 405.211C321.909 405.373 321.768 405.592 321.66 405.868C321.558 406.144 321.492 406.45 321.462 406.786V409H320.643Z" fill="#8A8F84"/>
<path d="M294 332H280C274.477 332 270 336.477 270 342V356C270 361.523 274.477 366 280 366H294C299.523 366 304 361.523 304 356V342C304 336.477 299.523 332 294 332Z" fill="#E8EDDA"/>
<path d="M280 349H294" stroke="#1B3C2A" stroke-width="1.8" stroke-linecap="round"/>
<path d="M334 332H320C314.477 332 310 336.477 310 342V356C310 361.523 314.477 366 320 366H334C339.523 366 344 361.523 344 356V342C344 336.477 339.523 332 334 332Z" fill="#8BAA3D"/>
<path d="M320 349H334" stroke="white" stroke-width="1.8" stroke-linecap="round"/>
<path d="M327 342V356" stroke="white" stroke-width="1.8" stroke-linecap="round"/>
</svg>
