<svg width="160" height="580" viewBox="0 0 160 580" fill="none" xmlns="http://www.w3.org/2000/svg">
<rect x="0.5" y="0.5" width="159" height="579" rx="4.5" stroke="#9747FF" stroke-dasharray="10 5"/>
<path d="M80 20C87.8793 20 95.6815 21.5519 102.961 24.5672C110.241 27.5825 116.855 32.0021 122.426 37.5736C127.998 43.1451 132.417 49.7595 135.433 57.039C138.448 64.3185 140 72.1207 140 80L120.259 80C120.259 74.7132 119.217 69.4781 117.194 64.5937C115.171 59.7093 112.205 55.2713 108.467 51.5329C104.729 47.7946 100.291 44.8291 95.4063 42.806C90.5219 40.7828 85.2868 39.7415 80 39.7415V20Z" fill="#3B6D11"/>
<path d="M80 160C95.913 160 111.174 166.321 122.426 177.574C133.679 188.826 140 204.087 140 220C140 235.913 133.679 251.174 122.426 262.426C111.174 273.679 95.913 280 80 280L80 260.259C90.6772 260.259 100.917 256.017 108.467 248.467C116.017 240.917 120.259 230.677 120.259 220C120.259 209.323 116.017 199.083 108.467 191.533C100.917 183.983 90.6772 179.741 80 179.741V160Z" fill="#3B6D11"/>
<path d="M80 300C91.8669 300 103.467 303.519 113.334 310.112C123.201 316.705 130.892 326.075 135.433 337.039C139.974 348.003 141.162 360.067 138.847 371.705C136.532 383.344 130.818 394.035 122.426 402.426C114.035 410.818 103.344 416.532 91.7054 418.847C80.0666 421.162 68.0026 419.974 57.039 415.433C46.0754 410.892 36.7047 403.201 30.1118 393.334C23.5189 383.467 20 371.867 20 360H39.7415C39.7415 367.962 42.1026 375.746 46.5263 382.366C50.9499 388.987 57.2374 394.147 64.5937 397.194C71.95 400.241 80.0447 401.038 87.854 399.485C95.6634 397.932 102.837 394.097 108.467 388.467C114.097 382.837 117.932 375.663 119.485 367.854C121.038 360.045 120.241 351.95 117.194 344.594C114.147 337.237 108.987 330.95 102.366 326.526C95.746 322.103 87.9624 319.741 80 319.741V300Z" fill="#3B6D11"/>
<path d="M140 500C140 533.137 113.137 560 80 560C46.8629 560 20 533.137 20 500C20 466.863 46.8629 440 80 440C113.137 440 140 466.863 140 500ZM39.7415 500C39.7415 522.234 57.7658 540.259 80 540.259C102.234 540.259 120.259 522.234 120.259 500C120.259 477.766 102.234 459.741 80 459.741C57.7658 459.741 39.7415 477.766 39.7415 500Z" fill="#3B6D11"/>
</svg>
