<svg width="337" height="54" viewBox="0 0 337 54" fill="none" xmlns="http://www.w3.org/2000/svg">
<path d="M310 0H27C12.0883 0 0 12.0883 0 27C0 41.9117 12.0883 54 27 54H310C324.912 54 337 41.9117 337 27C337 12.0883 324.912 0 310 0Z" fill="url(#paint0_linear_163_210)"/>
<path d="M86.0143 33.224C85.1503 33.224 84.3876 33.0693 83.7263 32.76C83.065 32.4507 82.5476 32.008 82.1743 31.432C81.801 30.856 81.6143 30.1627 81.6143 29.352V28.904H83.6943V29.352C83.6943 30.024 83.9023 30.5307 84.3183 30.872C84.7343 31.2027 85.2996 31.368 86.0143 31.368C86.7396 31.368 87.2783 31.224 87.6303 30.936C87.993 30.648 88.1743 30.28 88.1743 29.832C88.1743 29.5227 88.0836 29.272 87.9023 29.08C87.7316 28.888 87.4756 28.7333 87.1343 28.616C86.8036 28.488 86.3983 28.3707 85.9183 28.264L85.5503 28.184C84.7823 28.0133 84.121 27.8 83.5663 27.544C83.0223 27.2773 82.601 26.9307 82.3023 26.504C82.0143 26.0773 81.8703 25.5227 81.8703 24.84C81.8703 24.1573 82.0303 23.576 82.3503 23.096C82.681 22.6053 83.1396 22.232 83.7263 21.976C84.3236 21.7093 85.0223 21.576 85.8223 21.576C86.6223 21.576 87.3316 21.7147 87.9503 21.992C88.5796 22.2587 89.0703 22.664 89.4223 23.208C89.785 23.7413 89.9663 24.4133 89.9663 25.224V25.704H87.8863V25.224C87.8863 24.7973 87.801 24.456 87.6303 24.2C87.4703 23.9333 87.2356 23.7413 86.9263 23.624C86.617 23.496 86.249 23.432 85.8223 23.432C85.1823 23.432 84.7076 23.5547 84.3983 23.8C84.0996 24.0347 83.9503 24.36 83.9503 24.776C83.9503 25.0533 84.0196 25.288 84.1583 25.48C84.3076 25.672 84.5263 25.832 84.8143 25.96C85.1023 26.088 85.4703 26.2 85.9183 26.296L86.2863 26.376C87.0863 26.5467 87.7796 26.7653 88.3663 27.032C88.9636 27.2987 89.4276 27.6507 89.7583 28.088C90.089 28.5253 90.2543 29.0853 90.2543 29.768C90.2543 30.4507 90.0783 31.0533 89.7263 31.576C89.385 32.088 88.8943 32.4933 88.2543 32.792C87.625 33.08 86.8783 33.224 86.0143 33.224ZM94.9334 33C94.4108 33 93.9841 32.84 93.6534 32.52C93.3334 32.1893 93.1734 31.752 93.1734 31.208V26.728H91.1894V25.064H93.1734V22.6H95.1894V25.064H97.3654V26.728H95.1894V30.856C95.1894 31.176 95.3388 31.336 95.6374 31.336H97.1734V33H94.9334ZM101.654 33.224C101.089 33.224 100.582 33.128 100.134 32.936C99.6863 32.7333 99.329 32.4453 99.0623 32.072C98.8063 31.688 98.6783 31.224 98.6783 30.68C98.6783 30.136 98.8063 29.6827 99.0623 29.32C99.329 28.9467 99.6916 28.6693 100.15 28.488C100.62 28.296 101.153 28.2 101.75 28.2H103.926V27.752C103.926 27.3787 103.809 27.0747 103.574 26.84C103.34 26.5947 102.966 26.472 102.454 26.472C101.953 26.472 101.58 26.5893 101.334 26.824C101.089 27.048 100.929 27.3413 100.854 27.704L98.9983 27.08C99.1263 26.6747 99.329 26.3067 99.6063 25.976C99.8943 25.6347 100.273 25.3627 100.742 25.16C101.222 24.9467 101.804 24.84 102.486 24.84C103.532 24.84 104.358 25.1013 104.966 25.624C105.574 26.1467 105.878 26.904 105.878 27.896V30.856C105.878 31.176 106.028 31.336 106.326 31.336H106.966V33H105.622C105.228 33 104.902 32.904 104.646 32.712C104.39 32.52 104.262 32.264 104.262 31.944V31.928H103.958C103.916 32.056 103.82 32.2267 103.67 32.44C103.521 32.6427 103.286 32.824 102.966 32.984C102.646 33.144 102.209 33.224 101.654 33.224ZM102.006 31.592C102.572 31.592 103.03 31.4373 103.382 31.128C103.745 30.808 103.926 30.3867 103.926 29.864V29.704H101.894C101.521 29.704 101.228 29.784 101.014 29.944C100.801 30.104 100.694 30.328 100.694 30.616C100.694 30.904 100.806 31.1387 101.03 31.32C101.254 31.5013 101.58 31.592 102.006 31.592ZM108.44 33V25.064H110.424V25.96H110.712C110.83 25.64 111.022 25.4053 111.288 25.256C111.566 25.1067 111.886 25.032 112.248 25.032H113.208V26.824H112.216C111.704 26.824 111.283 26.9627 110.952 27.24C110.622 27.5067 110.456 27.9227 110.456 28.488V33H108.44ZM117.824 33C117.301 33 116.875 32.84 116.544 32.52C116.224 32.1893 116.064 31.752 116.064 31.208V26.728H114.08V25.064H116.064V22.6H118.08V25.064H120.256V26.728H118.08V30.856C118.08 31.176 118.229 31.336 118.528 31.336H120.064V33H117.824ZM129.759 33.224C128.97 33.224 128.271 33.0587 127.663 32.728C127.066 32.3867 126.597 31.912 126.255 31.304C125.925 30.6853 125.759 29.96 125.759 29.128V28.936C125.759 28.104 125.925 27.384 126.255 26.776C126.586 26.1573 127.05 25.6827 127.647 25.352C128.245 25.0107 128.938 24.84 129.727 24.84C130.506 24.84 131.183 25.016 131.759 25.368C132.335 25.7093 132.783 26.1893 133.103 26.808C133.423 27.416 133.583 28.1253 133.583 28.936V29.624H127.807C127.829 30.168 128.031 30.6107 128.415 30.952C128.799 31.2933 129.269 31.464 129.823 31.464C130.389 31.464 130.805 31.3413 131.071 31.096C131.338 30.8507 131.541 30.5787 131.679 30.28L133.327 31.144C133.178 31.4213 132.959 31.7253 132.671 32.056C132.394 32.376 132.021 32.6533 131.551 32.888C131.082 33.112 130.485 33.224 129.759 33.224ZM127.823 28.12H131.535C131.493 27.6613 131.306 27.2933 130.975 27.016C130.655 26.7387 130.234 26.6 129.711 26.6C129.167 26.6 128.735 26.7387 128.415 27.016C128.095 27.2933 127.898 27.6613 127.823 28.12ZM134.158 33L137.038 29L134.19 25.064H136.526L138.334 27.704H138.622L140.43 25.064H142.766L139.918 29L142.798 33H140.43L138.622 30.328H138.334L136.526 33H134.158ZM144.331 36.2V25.064H146.315V26.024H146.603C146.784 25.7147 147.067 25.4427 147.451 25.208C147.835 24.9627 148.384 24.84 149.099 24.84C149.739 24.84 150.331 25 150.875 25.32C151.419 25.6293 151.856 26.088 152.187 26.696C152.518 27.304 152.683 28.04 152.683 28.904V29.16C152.683 30.024 152.518 30.76 152.187 31.368C151.856 31.976 151.419 32.44 150.875 32.76C150.331 33.0693 149.739 33.224 149.099 33.224C148.619 33.224 148.214 33.1653 147.883 33.048C147.563 32.9413 147.302 32.8027 147.099 32.632C146.907 32.4507 146.752 32.2693 146.635 32.088H146.347V36.2H144.331ZM148.491 31.464C149.12 31.464 149.638 31.2667 150.043 30.872C150.459 30.4667 150.667 29.88 150.667 29.112V28.952C150.667 28.184 150.459 27.6027 150.043 27.208C149.627 26.8027 149.11 26.6 148.491 26.6C147.872 26.6 147.355 26.8027 146.939 27.208C146.523 27.6027 146.315 28.184 146.315 28.952V29.112C146.315 29.88 146.523 30.4667 146.939 30.872C147.355 31.2667 147.872 31.464 148.491 31.464ZM154.534 33V21.8H156.55V33H154.534ZM162.56 33.224C161.771 33.224 161.061 33.064 160.432 32.744C159.803 32.424 159.307 31.96 158.944 31.352C158.581 30.744 158.4 30.0133 158.4 29.16V28.904C158.4 28.0507 158.581 27.32 158.944 26.712C159.307 26.104 159.803 25.64 160.432 25.32C161.061 25 161.771 24.84 162.56 24.84C163.349 24.84 164.059 25 164.688 25.32C165.317 25.64 165.813 26.104 166.176 26.712C166.539 27.32 166.72 28.0507 166.72 28.904V29.16C166.72 30.0133 166.539 30.744 166.176 31.352C165.813 31.96 165.317 32.424 164.688 32.744C164.059 33.064 163.349 33.224 162.56 33.224ZM162.56 31.432C163.179 31.432 163.691 31.2347 164.096 30.84C164.501 30.4347 164.704 29.8587 164.704 29.112V28.952C164.704 28.2053 164.501 27.6347 164.096 27.24C163.701 26.8347 163.189 26.632 162.56 26.632C161.941 26.632 161.429 26.8347 161.024 27.24C160.619 27.6347 160.416 28.2053 160.416 28.952V29.112C160.416 29.8587 160.619 30.4347 161.024 30.84C161.429 31.2347 161.941 31.432 162.56 31.432ZM168.581 33V25.064H170.565V25.96H170.853C170.97 25.64 171.162 25.4053 171.429 25.256C171.706 25.1067 172.026 25.032 172.389 25.032H173.349V26.824H172.357C171.845 26.824 171.424 26.9627 171.093 27.24C170.762 27.5067 170.597 27.9227 170.597 28.488V33H168.581ZM174.925 33V25.064H176.941V33H174.925ZM175.933 24.136C175.57 24.136 175.261 24.0187 175.005 23.784C174.759 23.5493 174.637 23.24 174.637 22.856C174.637 22.472 174.759 22.1627 175.005 21.928C175.261 21.6933 175.57 21.576 175.933 21.576C176.306 21.576 176.615 21.6933 176.861 21.928C177.106 22.1627 177.229 22.472 177.229 22.856C177.229 23.24 177.106 23.5493 176.861 23.784C176.615 24.0187 176.306 24.136 175.933 24.136ZM179.175 33V25.064H181.159V26.104H181.447C181.575 25.8267 181.815 25.5653 182.167 25.32C182.519 25.064 183.052 24.936 183.767 24.936C184.385 24.936 184.924 25.08 185.383 25.368C185.852 25.6453 186.215 26.0347 186.471 26.536C186.727 27.0267 186.855 27.6027 186.855 28.264V33H184.839V28.424C184.839 27.8267 184.689 27.3787 184.391 27.08C184.103 26.7813 183.687 26.632 183.143 26.632C182.524 26.632 182.044 26.84 181.703 27.256C181.361 27.6613 181.191 28.232 181.191 28.968V33H179.175ZM188.65 29.064V28.808C188.65 27.976 188.815 27.2667 189.146 26.68C189.477 26.0827 189.914 25.6293 190.458 25.32C191.013 25 191.615 24.84 192.266 24.84C192.991 24.84 193.541 24.968 193.914 25.224C194.287 25.48 194.559 25.7467 194.73 26.024H195.018V25.064H197.002V34.408C197.002 34.952 196.842 35.384 196.522 35.704C196.202 36.0347 195.775 36.2 195.242 36.2H189.93V34.44H194.538C194.837 34.44 194.986 34.28 194.986 33.96V31.896H194.698C194.591 32.0667 194.442 32.2427 194.25 32.424C194.058 32.5947 193.802 32.7387 193.482 32.856C193.162 32.9733 192.757 33.032 192.266 33.032C191.615 33.032 191.013 32.8773 190.458 32.568C189.914 32.248 189.477 31.7947 189.146 31.208C188.815 30.6107 188.65 29.896 188.65 29.064ZM192.842 31.272C193.461 31.272 193.978 31.0747 194.394 30.68C194.81 30.2853 195.018 29.7307 195.018 29.016V28.856C195.018 28.1307 194.81 27.576 194.394 27.192C193.989 26.7973 193.471 26.6 192.842 26.6C192.223 26.6 191.706 26.7973 191.29 27.192C190.874 27.576 190.666 28.1307 190.666 28.856V29.016C190.666 29.7307 190.874 30.2853 191.29 30.68C191.706 31.0747 192.223 31.272 192.842 31.272ZM203.236 33V21.8H210.276V23.72H205.348V26.424H209.892V28.344H205.348V33H203.236ZM211.847 33V25.064H213.863V33H211.847ZM212.855 24.136C212.492 24.136 212.183 24.0187 211.927 23.784C211.681 23.5493 211.559 23.24 211.559 22.856C211.559 22.472 211.681 22.1627 211.927 21.928C212.183 21.6933 212.492 21.576 212.855 21.576C213.228 21.576 213.537 21.6933 213.783 21.928C214.028 22.1627 214.151 22.472 214.151 22.856C214.151 23.24 214.028 23.5493 213.783 23.784C213.537 24.0187 213.228 24.136 212.855 24.136ZM219.137 33C218.614 33 218.187 32.84 217.857 32.52C217.537 32.1893 217.377 31.752 217.377 31.208V26.728H215.393V25.064H217.377V22.6H219.393V25.064H221.569V26.728H219.393V30.856C219.393 31.176 219.542 31.336 219.841 31.336H221.377V33H219.137ZM223.329 33V21.8H230.369V23.72H225.441V26.424H229.985V28.344H225.441V33H223.329ZM235.654 33.224C234.864 33.224 234.155 33.064 233.526 32.744C232.896 32.424 232.4 31.96 232.038 31.352C231.675 30.744 231.494 30.0133 231.494 29.16V28.904C231.494 28.0507 231.675 27.32 232.038 26.712C232.4 26.104 232.896 25.64 233.526 25.32C234.155 25 234.864 24.84 235.654 24.84C236.443 24.84 237.152 25 237.782 25.32C238.411 25.64 238.907 26.104 239.27 26.712C239.632 27.32 239.814 28.0507 239.814 28.904V29.16C239.814 30.0133 239.632 30.744 239.27 31.352C238.907 31.96 238.411 32.424 237.782 32.744C237.152 33.064 236.443 33.224 235.654 33.224ZM235.654 31.432C236.272 31.432 236.784 31.2347 237.19 30.84C237.595 30.4347 237.798 29.8587 237.798 29.112V28.952C237.798 28.2053 237.595 27.6347 237.19 27.24C236.795 26.8347 236.283 26.632 235.654 26.632C235.035 26.632 234.523 26.8347 234.118 27.24C233.712 27.6347 233.51 28.2053 233.51 28.952V29.112C233.51 29.8587 233.712 30.4347 234.118 30.84C234.523 31.2347 235.035 31.432 235.654 31.432ZM241.675 33V25.064H243.659V25.96H243.947C244.064 25.64 244.256 25.4053 244.523 25.256C244.8 25.1067 245.12 25.032 245.483 25.032H246.443V26.824H245.451C244.939 26.824 244.517 26.9627 244.187 27.24C243.856 27.5067 243.691 27.9227 243.691 28.488V33H241.675ZM248.018 33V21.8H250.034V27.992H250.322L252.946 25.064H255.57L251.906 28.904L255.698 33H253.106L250.322 29.848H250.034V33H248.018Z" fill="white"/>
<defs>
<linearGradient id="paint0_linear_163_210" x1="0" y1="0" x2="337" y2="0" gradientUnits="userSpaceOnUse">
<stop stop-color="#8BAA3D"/>
<stop offset="1" stop-color="#A0C044"/>
</linearGradient>
</defs>
</svg>
