<svg width="377" height="440" viewBox="0 0 377 440" fill="none" xmlns="http://www.w3.org/2000/svg">
<rect x="0.5" y="0.5" width="376" height="439" rx="4.5" stroke="#9747FF" stroke-dasharray="10 5"/>
<path d="M339 20H38C28.0589 20 20 28.0589 20 38V122C20 131.941 28.0589 140 38 140H339C348.941 140 357 131.941 357 122V38C357 28.0589 348.941 20 339 20Z" fill="white" stroke="#E0DDD4"/>
<path d="M142.803 85.672C140.275 85.672 138.035 85.224 136.083 84.328C134.131 83.432 132.595 82.152 131.475 80.488C130.387 78.792 129.843 76.792 129.843 74.488V73.624H135.987V74.296C135.987 76.088 136.611 77.528 137.859 78.616C139.107 79.672 140.755 80.2 142.803 80.2C144.883 80.2 146.483 79.704 147.603 78.712C148.755 77.72 149.331 76.472 149.331 74.968V74.488C149.331 73.464 149.075 72.632 148.563 71.992C148.051 71.352 147.363 70.888 146.499 70.6C145.635 70.28 144.659 70.12 143.571 70.12H136.851V63.4L147.699 57.64V56.872H130.707V51.4H154.515V59.56L144.387 64.936V65.704H146.163C147.667 65.704 149.123 66.008 150.531 66.616C151.971 67.224 153.155 68.168 154.083 69.448C155.011 70.696 155.475 72.328 155.475 74.344V74.92C155.475 77.096 154.947 79 153.891 80.632C152.835 82.232 151.347 83.48 149.427 84.376C147.539 85.24 145.331 85.672 142.803 85.672ZM163.702 85V83.752C163.702 82.504 163.798 81.448 163.99 80.584C164.182 79.688 164.598 78.68 165.238 77.56L176.518 57.64V56.872H158.662V51.4H182.854V58.696L170.95 79.96C170.534 80.696 170.246 81.352 170.086 81.928C169.926 82.504 169.846 83.208 169.846 84.04V85H163.702ZM187.863 85.672C186.583 85.672 185.495 85.256 184.599 84.424C183.735 83.56 183.303 82.456 183.303 81.112C183.303 79.768 183.735 78.68 184.599 77.848C185.495 76.984 186.583 76.552 187.863 76.552C189.175 76.552 190.263 76.984 191.127 77.848C191.991 78.68 192.423 79.768 192.423 81.112C192.423 82.456 191.991 83.56 191.127 84.424C190.263 85.256 189.175 85.672 187.863 85.672ZM209.552 85.672C206.928 85.672 204.656 85.208 202.736 84.28C200.848 83.352 199.392 82.04 198.368 80.344C197.344 78.648 196.832 76.68 196.832 74.44V73.96H203.072V74.392C203.072 75.992 203.6 77.368 204.656 78.52C205.744 79.64 207.344 80.2 209.456 80.2C211.568 80.2 213.184 79.64 214.304 78.52C215.456 77.368 216.032 75.88 216.032 74.056V73.576C216.032 71.784 215.456 70.36 214.304 69.304C213.184 68.248 211.776 67.72 210.08 67.72C209.152 67.72 208.384 67.848 207.776 68.104C207.168 68.36 206.672 68.68 206.288 69.064C205.904 69.448 205.584 69.832 205.328 70.216H197.888V51.4H220.832V56.968H204.032V65.176H204.896C205.216 64.76 205.648 64.36 206.192 63.976C206.736 63.592 207.44 63.272 208.304 63.016C209.168 62.76 210.192 62.632 211.376 62.632C213.36 62.632 215.168 63.048 216.8 63.88C218.432 64.712 219.728 65.944 220.688 67.576C221.68 69.176 222.176 71.16 222.176 73.528V74.104C222.176 76.472 221.664 78.52 220.64 80.248C219.648 81.976 218.208 83.32 216.32 84.28C214.432 85.208 212.176 85.672 209.552 85.672Z" fill="#1B3C2A"/>
<path d="M231.386 85V72.418H233.024V79.582C233.492 79.33 233.942 79.042 234.374 78.718C234.818 78.394 235.226 78.052 235.598 77.692C235.97 77.332 236.288 76.978 236.552 76.63C236.828 76.282 237.038 75.97 237.182 75.694H239.09C238.862 76.138 238.574 76.588 238.226 77.044C237.89 77.488 237.506 77.902 237.074 78.286C236.642 78.67 236.186 79.006 235.706 79.294C235.226 79.582 234.74 79.78 234.248 79.888V80.104C234.86 80.056 235.394 80.128 235.85 80.32C236.306 80.5 236.708 80.77 237.056 81.13C237.416 81.49 237.74 81.898 238.028 82.354C238.316 82.81 238.592 83.296 238.856 83.812L239.414 85H237.578L237.182 84.154C236.87 83.53 236.546 82.978 236.21 82.498C235.886 82.006 235.508 81.616 235.076 81.328C234.644 81.04 234.122 80.896 233.51 80.896H233.024V85H231.386ZM244.704 88.132C243.72 88.132 242.91 88.054 242.274 87.898C241.65 87.754 241.188 87.526 240.888 87.214C240.588 86.914 240.438 86.536 240.438 86.08C240.438 85.528 240.654 85.078 241.086 84.73C241.518 84.37 242.178 84.13 243.066 84.01V83.686C242.418 83.686 241.932 83.608 241.608 83.452C241.284 83.296 241.122 83.062 241.122 82.75C241.122 82.426 241.284 82.156 241.608 81.94C241.932 81.712 242.46 81.502 243.192 81.31V80.986C242.46 80.962 241.902 80.74 241.518 80.32C241.134 79.888 240.942 79.336 240.942 78.664C240.942 78.04 241.104 77.506 241.428 77.062C241.764 76.606 242.244 76.258 242.868 76.018C243.492 75.766 244.242 75.64 245.118 75.64H249.51V77.026L246.648 76.594V76.918C247.344 77.062 247.872 77.308 248.232 77.656C248.604 78.004 248.79 78.46 248.79 79.024C248.79 79.54 248.64 79.99 248.34 80.374C248.04 80.758 247.596 81.058 247.008 81.274C246.432 81.478 245.724 81.58 244.884 81.58C244.704 81.58 244.524 81.574 244.344 81.562C244.164 81.55 243.924 81.52 243.624 81.472C243.288 81.664 243.024 81.844 242.832 82.012C242.64 82.18 242.544 82.33 242.544 82.462C242.544 82.594 242.634 82.696 242.814 82.768C242.994 82.84 243.21 82.894 243.462 82.93C243.726 82.954 243.972 82.966 244.2 82.966H246.342C246.582 82.966 246.882 82.99 247.242 83.038C247.614 83.074 247.98 83.17 248.34 83.326C248.712 83.482 249.024 83.722 249.276 84.046C249.528 84.37 249.654 84.82 249.654 85.396C249.654 86.044 249.462 86.566 249.078 86.962C248.694 87.37 248.136 87.664 247.404 87.844C246.672 88.036 245.772 88.132 244.704 88.132ZM244.74 86.764C245.544 86.764 246.192 86.716 246.684 86.62C247.188 86.524 247.554 86.368 247.782 86.152C248.022 85.936 248.142 85.66 248.142 85.324C248.142 85.012 248.064 84.772 247.908 84.604C247.752 84.436 247.554 84.316 247.314 84.244C247.074 84.172 246.828 84.13 246.576 84.118C246.336 84.094 246.132 84.082 245.964 84.082H243.858C243.162 84.238 242.682 84.454 242.418 84.73C242.154 84.994 242.022 85.282 242.022 85.594C242.022 85.93 242.142 86.182 242.382 86.35C242.622 86.518 242.946 86.626 243.354 86.674C243.774 86.734 244.236 86.764 244.74 86.764ZM244.956 80.518C245.7 80.518 246.264 80.362 246.648 80.05C247.032 79.738 247.224 79.318 247.224 78.79C247.224 78.226 247.026 77.764 246.63 77.404C246.246 77.032 245.67 76.846 244.902 76.846C244.146 76.846 243.564 77.02 243.156 77.368C242.76 77.716 242.562 78.166 242.562 78.718C242.562 79.078 242.652 79.396 242.832 79.672C243.024 79.936 243.294 80.146 243.642 80.302C244.002 80.446 244.44 80.518 244.956 80.518Z" fill="#8A8F84"/>
<path d="M326 106H50C48.8954 106 48 106.895 48 108C48 109.105 48.8954 110 50 110H326C327.105 110 328 109.105 328 108C328 106.895 327.105 106 326 106Z" fill="#E8E5DC"/>
<path d="M124.987 106H49.013C48.4535 106 48 106.895 48 108C48 109.105 48.4535 110 49.013 110H124.987C125.546 110 126 109.105 126 108C126 106.895 125.546 106 124.987 106Z" fill="#8BAA3D"/>
<path d="M135 118C140.523 118 145 113.523 145 108C145 102.477 140.523 98 135 98C129.477 98 125 102.477 125 108C125 113.523 129.477 118 135 118Z" fill="white" stroke="#8BAA3D" stroke-width="2"/>
<path d="M135 112C137.209 112 139 110.209 139 108C139 105.791 137.209 104 135 104C132.791 104 131 105.791 131 108C131 110.209 132.791 112 135 112Z" fill="#8BAA3D"/>
<path d="M50.943 129.126C50.583 129.126 50.256 129.054 49.962 128.91C49.668 128.766 49.416 128.559 49.206 128.289C49.002 128.019 48.843 127.698 48.729 127.326C48.621 126.948 48.567 126.528 48.567 126.066C48.567 125.406 48.669 124.845 48.873 124.383C49.077 123.915 49.356 123.558 49.71 123.312C50.07 123.066 50.484 122.943 50.952 122.943C51.444 122.943 51.864 123.075 52.212 123.339C52.56 123.597 52.83 123.96 53.022 124.428C53.214 124.89 53.31 125.433 53.31 126.057C53.31 126.513 53.253 126.93 53.139 127.308C53.031 127.686 52.872 128.01 52.662 128.28C52.458 128.55 52.209 128.76 51.915 128.91C51.627 129.054 51.303 129.126 50.943 129.126ZM50.943 128.415C51.159 128.415 51.36 128.367 51.546 128.271C51.738 128.169 51.903 128.019 52.041 127.821C52.179 127.623 52.287 127.377 52.365 127.083C52.449 126.783 52.491 126.432 52.491 126.03C52.491 125.532 52.425 125.106 52.293 124.752C52.167 124.398 51.987 124.125 51.753 123.933C51.525 123.741 51.255 123.645 50.943 123.645C50.673 123.645 50.418 123.729 50.178 123.897C49.944 124.059 49.752 124.317 49.602 124.671C49.458 125.019 49.386 125.472 49.386 126.03C49.386 126.42 49.425 126.765 49.503 127.065C49.581 127.359 49.689 127.608 49.827 127.812C49.965 128.01 50.127 128.16 50.313 128.262C50.505 128.364 50.715 128.415 50.943 128.415ZM56.885 129V122.691H57.695V126.291C57.929 126.165 58.154 126.021 58.37 125.859C58.592 125.691 58.793 125.517 58.973 125.337C59.159 125.157 59.321 124.983 59.459 124.815C59.597 124.641 59.702 124.485 59.774 124.347H60.737C60.617 124.569 60.47 124.794 60.296 125.022C60.122 125.244 59.927 125.454 59.711 125.652C59.495 125.844 59.267 126.009 59.027 126.147C58.787 126.285 58.547 126.384 58.307 126.444V126.552C58.607 126.528 58.868 126.564 59.09 126.66C59.318 126.756 59.522 126.894 59.702 127.074C59.882 127.254 60.047 127.461 60.197 127.695C60.347 127.929 60.491 128.175 60.629 128.433L60.908 129H59.99L59.783 128.595C59.621 128.283 59.453 128.004 59.279 127.758C59.111 127.506 58.919 127.308 58.703 127.164C58.487 127.02 58.229 126.948 57.929 126.948H57.695V129H56.885ZM63.5703 130.584C63.0783 130.584 62.6733 130.545 62.3553 130.467C62.0433 130.395 61.8093 130.281 61.6533 130.125C61.5033 129.969 61.4283 129.777 61.4283 129.549C61.4283 129.273 61.5363 129.048 61.7523 128.874C61.9683 128.694 62.2983 128.574 62.7423 128.514V128.343C62.4183 128.343 62.1753 128.304 62.0133 128.226C61.8573 128.148 61.7793 128.031 61.7793 127.875C61.7793 127.713 61.8603 127.578 62.0223 127.47C62.1843 127.356 62.4453 127.251 62.8053 127.155V126.984C62.4453 126.978 62.1663 126.87 61.9683 126.66C61.7763 126.444 61.6803 126.165 61.6803 125.823C61.6803 125.517 61.7643 125.253 61.9323 125.031C62.1003 124.803 62.3403 124.629 62.6523 124.509C62.9703 124.383 63.3483 124.32 63.7863 124.32H65.9733V125.013L64.5423 124.788V124.959C64.8903 125.031 65.1573 125.154 65.3433 125.328C65.5293 125.496 65.6223 125.724 65.6223 126.012C65.6223 126.27 65.5473 126.495 65.3973 126.687C65.2473 126.879 65.0253 127.029 64.7313 127.137C64.4373 127.239 64.0773 127.29 63.6513 127.29C63.5673 127.29 63.4803 127.287 63.3903 127.281C63.3003 127.269 63.1773 127.251 63.0213 127.227C62.8653 127.329 62.7363 127.422 62.6343 127.506C62.5383 127.59 62.4903 127.665 62.4903 127.731C62.4903 127.797 62.5353 127.851 62.6253 127.893C62.7213 127.929 62.8353 127.956 62.9673 127.974C63.0993 127.986 63.2223 127.992 63.3363 127.992H64.3803C64.5003 127.992 64.6503 128.004 64.8303 128.028C65.0163 128.046 65.1993 128.094 65.3793 128.172C65.5653 128.25 65.7213 128.373 65.8473 128.541C65.9733 128.703 66.0363 128.925 66.0363 129.207C66.0363 129.537 65.9403 129.801 65.7483 129.999C65.5563 130.203 65.2773 130.35 64.9113 130.44C64.5453 130.536 64.0983 130.584 63.5703 130.584ZM63.5883 129.909C63.9843 129.909 64.3053 129.882 64.5513 129.828C64.8033 129.78 64.9863 129.699 65.1003 129.585C65.2203 129.477 65.2803 129.339 65.2803 129.171C65.2803 129.015 65.2413 128.895 65.1633 128.811C65.0853 128.721 64.9863 128.658 64.8663 128.622C64.7463 128.586 64.6233 128.565 64.4973 128.559C64.3773 128.553 64.2753 128.55 64.1913 128.55H63.1473C62.7993 128.622 62.5593 128.727 62.4273 128.865C62.2953 129.003 62.2293 129.15 62.2293 129.306C62.2293 129.474 62.2893 129.6 62.4093 129.684C62.5293 129.774 62.6913 129.834 62.8953 129.864C63.1053 129.894 63.3363 129.909 63.5883 129.909ZM63.6963 126.759C64.0743 126.759 64.3593 126.681 64.5513 126.525C64.7433 126.369 64.8393 126.159 64.8393 125.895C64.8393 125.613 64.7403 125.382 64.5423 125.202C64.3503 125.016 64.0593 124.923 63.6693 124.923C63.2913 124.923 63.0003 125.01 62.7963 125.184C62.5983 125.358 62.4993 125.583 62.4993 125.859C62.4993 126.039 62.5443 126.198 62.6343 126.336C62.7243 126.468 62.8563 126.573 63.0303 126.651C63.2103 126.723 63.4323 126.759 63.6963 126.759Z" fill="#8A8F84"/>
<path d="M302.697 129V124.455H301.833V123.717C302.103 123.717 302.331 123.675 302.517 123.591C302.703 123.507 302.823 123.33 302.877 123.06H303.525V129H302.697ZM306.915 129.126C306.495 129.126 306.129 129.063 305.817 128.937C305.511 128.805 305.274 128.619 305.106 128.379C304.938 128.139 304.848 127.854 304.836 127.524L305.601 127.335C305.637 127.677 305.757 127.944 305.961 128.136C306.171 128.322 306.483 128.415 306.897 128.415C307.341 128.415 307.683 128.301 307.923 128.073C308.163 127.839 308.283 127.476 308.283 126.984C308.283 126.804 308.265 126.633 308.229 126.471C308.193 126.303 308.13 126.156 308.04 126.03C307.95 125.898 307.83 125.796 307.68 125.724C307.536 125.646 307.353 125.607 307.131 125.607C306.939 125.607 306.774 125.631 306.636 125.679C306.498 125.727 306.381 125.79 306.285 125.868C306.189 125.946 306.108 126.036 306.042 126.138C305.982 126.24 305.934 126.345 305.898 126.453H304.971L305.16 123.06H308.85V123.78H305.871L305.727 125.904H305.844C305.964 125.55 306.165 125.301 306.447 125.157C306.729 125.007 307.032 124.932 307.356 124.932C307.764 124.932 308.097 125.019 308.355 125.193C308.619 125.361 308.814 125.598 308.94 125.904C309.066 126.204 309.129 126.558 309.129 126.966C309.129 127.482 309.033 127.899 308.841 128.217C308.649 128.535 308.385 128.766 308.049 128.91C307.719 129.054 307.341 129.126 306.915 129.126ZM312.583 129.126C312.223 129.126 311.896 129.054 311.602 128.91C311.308 128.766 311.056 128.559 310.846 128.289C310.642 128.019 310.483 127.698 310.369 127.326C310.261 126.948 310.207 126.528 310.207 126.066C310.207 125.406 310.309 124.845 310.513 124.383C310.717 123.915 310.996 123.558 311.35 123.312C311.71 123.066 312.124 122.943 312.592 122.943C313.084 122.943 313.504 123.075 313.852 123.339C314.2 123.597 314.47 123.96 314.662 124.428C314.854 124.89 314.95 125.433 314.95 126.057C314.95 126.513 314.893 126.93 314.779 127.308C314.671 127.686 314.512 128.01 314.302 128.28C314.098 128.55 313.849 128.76 313.555 128.91C313.267 129.054 312.943 129.126 312.583 129.126ZM312.583 128.415C312.799 128.415 313 128.367 313.186 128.271C313.378 128.169 313.543 128.019 313.681 127.821C313.819 127.623 313.927 127.377 314.005 127.083C314.089 126.783 314.131 126.432 314.131 126.03C314.131 125.532 314.065 125.106 313.933 124.752C313.807 124.398 313.627 124.125 313.393 123.933C313.165 123.741 312.895 123.645 312.583 123.645C312.313 123.645 312.058 123.729 311.818 123.897C311.584 124.059 311.392 124.317 311.242 124.671C311.098 125.019 311.026 125.472 311.026 126.03C311.026 126.42 311.065 126.765 311.143 127.065C311.221 127.359 311.329 127.608 311.467 127.812C311.605 128.01 311.767 128.16 311.953 128.262C312.145 128.364 312.355 128.415 312.583 128.415ZM318.525 129V122.691H319.335V126.291C319.569 126.165 319.794 126.021 320.01 125.859C320.232 125.691 320.433 125.517 320.613 125.337C320.799 125.157 320.961 124.983 321.099 124.815C321.237 124.641 321.342 124.485 321.414 124.347H322.377C322.257 124.569 322.11 124.794 321.936 125.022C321.762 125.244 321.567 125.454 321.351 125.652C321.135 125.844 320.907 126.009 320.667 126.147C320.427 126.285 320.187 126.384 319.947 126.444V126.552C320.247 126.528 320.508 126.564 320.73 126.66C320.958 126.756 321.162 126.894 321.342 127.074C321.522 127.254 321.687 127.461 321.837 127.695C321.987 127.929 322.131 128.175 322.269 128.433L322.548 129H321.63L321.423 128.595C321.261 128.283 321.093 128.004 320.919 127.758C320.751 127.506 320.559 127.308 320.343 127.164C320.127 127.02 319.869 126.948 319.569 126.948H319.335V129H318.525ZM325.21 130.584C324.718 130.584 324.313 130.545 323.995 130.467C323.683 130.395 323.449 130.281 323.293 130.125C323.143 129.969 323.068 129.777 323.068 129.549C323.068 129.273 323.176 129.048 323.392 128.874C323.608 128.694 323.938 128.574 324.382 128.514V128.343C324.058 128.343 323.815 128.304 323.653 128.226C323.497 128.148 323.419 128.031 323.419 127.875C323.419 127.713 323.5 127.578 323.662 127.47C323.824 127.356 324.085 127.251 324.445 127.155V126.984C324.085 126.978 323.806 126.87 323.608 126.66C323.416 126.444 323.32 126.165 323.32 125.823C323.32 125.517 323.404 125.253 323.572 125.031C323.74 124.803 323.98 124.629 324.292 124.509C324.61 124.383 324.988 124.32 325.426 124.32H327.613V125.013L326.182 124.788V124.959C326.53 125.031 326.797 125.154 326.983 125.328C327.169 125.496 327.262 125.724 327.262 126.012C327.262 126.27 327.187 126.495 327.037 126.687C326.887 126.879 326.665 127.029 326.371 127.137C326.077 127.239 325.717 127.29 325.291 127.29C325.207 127.29 325.12 127.287 325.03 127.281C324.94 127.269 324.817 127.251 324.661 127.227C324.505 127.329 324.376 127.422 324.274 127.506C324.178 127.59 324.13 127.665 324.13 127.731C324.13 127.797 324.175 127.851 324.265 127.893C324.361 127.929 324.475 127.956 324.607 127.974C324.739 127.986 324.862 127.992 324.976 127.992H326.02C326.14 127.992 326.29 128.004 326.47 128.028C326.656 128.046 326.839 128.094 327.019 128.172C327.205 128.25 327.361 128.373 327.487 128.541C327.613 128.703 327.676 128.925 327.676 129.207C327.676 129.537 327.58 129.801 327.388 129.999C327.196 130.203 326.917 130.35 326.551 130.44C326.185 130.536 325.738 130.584 325.21 130.584ZM325.228 129.909C325.624 129.909 325.945 129.882 326.191 129.828C326.443 129.78 326.626 129.699 326.74 129.585C326.86 129.477 326.92 129.339 326.92 129.171C326.92 129.015 326.881 128.895 326.803 128.811C326.725 128.721 326.626 128.658 326.506 128.622C326.386 128.586 326.263 128.565 326.137 128.559C326.017 128.553 325.915 128.55 325.831 128.55H324.787C324.439 128.622 324.199 128.727 324.067 128.865C323.935 129.003 323.869 129.15 323.869 129.306C323.869 129.474 323.929 129.6 324.049 129.684C324.169 129.774 324.331 129.834 324.535 129.864C324.745 129.894 324.976 129.909 325.228 129.909ZM325.336 126.759C325.714 126.759 325.999 126.681 326.191 126.525C326.383 126.369 326.479 126.159 326.479 125.895C326.479 125.613 326.38 125.382 326.182 125.202C325.99 125.016 325.699 124.923 325.309 124.923C324.931 124.923 324.64 125.01 324.436 125.184C324.238 125.358 324.139 125.583 324.139 125.859C324.139 126.039 324.184 126.198 324.274 126.336C324.364 126.468 324.496 126.573 324.67 126.651C324.85 126.723 325.072 126.759 325.336 126.759Z" fill="#8A8F84"/>
<path d="M294 52H280C274.477 52 270 56.4772 270 62V76C270 81.5228 274.477 86 280 86H294C299.523 86 304 81.5228 304 76V62C304 56.4772 299.523 52 294 52Z" fill="#E8EDDA"/>
<path d="M280 69H294" stroke="#1B3C2A" stroke-width="1.8" stroke-linecap="round"/>
<path d="M334 52H320C314.477 52 310 56.4772 310 62V76C310 81.5228 314.477 86 320 86H334C339.523 86 344 81.5228 344 76V62C344 56.4772 339.523 52 334 52Z" fill="#8BAA3D"/>
<path d="M320 69H334" stroke="white" stroke-width="1.8" stroke-linecap="round"/>
<path d="M327 62V76" stroke="white" stroke-width="1.8" stroke-linecap="round"/>
<path d="M339 300H38C28.0589 300 20 308.059 20 318V402C20 411.941 28.0589 420 38 420H339C348.941 420 357 411.941 357 402V318C357 308.059 348.941 300 339 300Z" fill="white" stroke="#E0DDD4"/>
<path d="M166.608 365V363.752C166.608 362.504 166.704 361.448 166.896 360.584C167.088 359.688 167.504 358.68 168.144 357.56L179.424 337.64V336.872H161.568V331.4H185.76V338.696L173.856 359.96C173.44 360.696 173.152 361.352 172.992 361.928C172.832 362.504 172.752 363.208 172.752 364.04V365H166.608ZM201.442 365.672C198.818 365.672 196.546 365.208 194.626 364.28C192.738 363.352 191.282 362.04 190.258 360.344C189.234 358.648 188.722 356.68 188.722 354.44V353.96H194.962V354.392C194.962 355.992 195.49 357.368 196.546 358.52C197.634 359.64 199.234 360.2 201.346 360.2C203.458 360.2 205.074 359.64 206.194 358.52C207.346 357.368 207.922 355.88 207.922 354.056V353.576C207.922 351.784 207.346 350.36 206.194 349.304C205.074 348.248 203.666 347.72 201.97 347.72C201.042 347.72 200.274 347.848 199.666 348.104C199.058 348.36 198.562 348.68 198.178 349.064C197.794 349.448 197.474 349.832 197.218 350.216H189.778V331.4H212.722V336.968H195.922V345.176H196.786C197.106 344.76 197.538 344.36 198.082 343.976C198.626 343.592 199.33 343.272 200.194 343.016C201.058 342.76 202.082 342.632 203.266 342.632C205.25 342.632 207.058 343.048 208.69 343.88C210.322 344.712 211.618 345.944 212.578 347.576C213.57 349.176 214.066 351.16 214.066 353.528V354.104C214.066 356.472 213.554 358.52 212.53 360.248C211.538 361.976 210.098 363.32 208.21 364.28C206.322 365.208 204.066 365.672 201.442 365.672Z" fill="#1B3C2A"/>
<path d="M231.386 365V352.418H233.024V359.582C233.492 359.33 233.942 359.042 234.374 358.718C234.818 358.394 235.226 358.052 235.598 357.692C235.97 357.332 236.288 356.978 236.552 356.63C236.828 356.282 237.038 355.97 237.182 355.694H239.09C238.862 356.138 238.574 356.588 238.226 357.044C237.89 357.488 237.506 357.902 237.074 358.286C236.642 358.67 236.186 359.006 235.706 359.294C235.226 359.582 234.74 359.78 234.248 359.888V360.104C234.86 360.056 235.394 360.128 235.85 360.32C236.306 360.5 236.708 360.77 237.056 361.13C237.416 361.49 237.74 361.898 238.028 362.354C238.316 362.81 238.592 363.296 238.856 363.812L239.414 365H237.578L237.182 364.154C236.87 363.53 236.546 362.978 236.21 362.498C235.886 362.006 235.508 361.616 235.076 361.328C234.644 361.04 234.122 360.896 233.51 360.896H233.024V365H231.386ZM244.704 368.132C243.72 368.132 242.91 368.054 242.274 367.898C241.65 367.754 241.188 367.526 240.888 367.214C240.588 366.914 240.438 366.536 240.438 366.08C240.438 365.528 240.654 365.078 241.086 364.73C241.518 364.37 242.178 364.13 243.066 364.01V363.686C242.418 363.686 241.932 363.608 241.608 363.452C241.284 363.296 241.122 363.062 241.122 362.75C241.122 362.426 241.284 362.156 241.608 361.94C241.932 361.712 242.46 361.502 243.192 361.31V360.986C242.46 360.962 241.902 360.74 241.518 360.32C241.134 359.888 240.942 359.336 240.942 358.664C240.942 358.04 241.104 357.506 241.428 357.062C241.764 356.606 242.244 356.258 242.868 356.018C243.492 355.766 244.242 355.64 245.118 355.64H249.51V357.026L246.648 356.594V356.918C247.344 357.062 247.872 357.308 248.232 357.656C248.604 358.004 248.79 358.46 248.79 359.024C248.79 359.54 248.64 359.99 248.34 360.374C248.04 360.758 247.596 361.058 247.008 361.274C246.432 361.478 245.724 361.58 244.884 361.58C244.704 361.58 244.524 361.574 244.344 361.562C244.164 361.55 243.924 361.52 243.624 361.472C243.288 361.664 243.024 361.844 242.832 362.012C242.64 362.18 242.544 362.33 242.544 362.462C242.544 362.594 242.634 362.696 242.814 362.768C242.994 362.84 243.21 362.894 243.462 362.93C243.726 362.954 243.972 362.966 244.2 362.966H246.342C246.582 362.966 246.882 362.99 247.242 363.038C247.614 363.074 247.98 363.17 248.34 363.326C248.712 363.482 249.024 363.722 249.276 364.046C249.528 364.37 249.654 364.82 249.654 365.396C249.654 366.044 249.462 366.566 249.078 366.962C248.694 367.37 248.136 367.664 247.404 367.844C246.672 368.036 245.772 368.132 244.704 368.132ZM244.74 366.764C245.544 366.764 246.192 366.716 246.684 366.62C247.188 366.524 247.554 366.368 247.782 366.152C248.022 365.936 248.142 365.66 248.142 365.324C248.142 365.012 248.064 364.772 247.908 364.604C247.752 364.436 247.554 364.316 247.314 364.244C247.074 364.172 246.828 364.13 246.576 364.118C246.336 364.094 246.132 364.082 245.964 364.082H243.858C243.162 364.238 242.682 364.454 242.418 364.73C242.154 364.994 242.022 365.282 242.022 365.594C242.022 365.93 242.142 366.182 242.382 366.35C242.622 366.518 242.946 366.626 243.354 366.674C243.774 366.734 244.236 366.764 244.74 366.764ZM244.956 360.518C245.7 360.518 246.264 360.362 246.648 360.05C247.032 359.738 247.224 359.318 247.224 358.79C247.224 358.226 247.026 357.764 246.63 357.404C246.246 357.032 245.67 356.846 244.902 356.846C244.146 356.846 243.564 357.02 243.156 357.368C242.76 357.716 242.562 358.166 242.562 358.718C242.562 359.078 242.652 359.396 242.832 359.672C243.024 359.936 243.294 360.146 243.642 360.302C244.002 360.446 244.44 360.518 244.956 360.518Z" fill="#8A8F84"/>
<path d="M326 386H50C48.8954 386 48 386.895 48 388C48 389.105 48.8954 390 50 390H326C327.105 390 328 389.105 328 388C328 386.895 327.105 386 326 386Z" fill="#E8E5DC"/>
<path d="M200 386H50C48.8954 386 48 386.895 48 388C48 389.105 48.8954 390 50 390H200C201.105 390 202 389.105 202 388C202 386.895 201.105 386 200 386Z" fill="#8BAA3D"/>
<path d="M202 398C207.523 398 212 393.523 212 388C212 382.477 207.523 378 202 378C196.477 378 192 382.477 192 388C192 393.523 196.477 398 202 398Z" fill="white" stroke="#8BAA3D" stroke-width="2"/>
<path d="M202 392C204.209 392 206 390.209 206 388C206 385.791 204.209 384 202 384C199.791 384 198 385.791 198 388C198 390.209 199.791 392 202 392Z" fill="#8BAA3D"/>
<path d="M50.943 409.126C50.583 409.126 50.256 409.054 49.962 408.91C49.668 408.766 49.416 408.559 49.206 408.289C49.002 408.019 48.843 407.698 48.729 407.326C48.621 406.948 48.567 406.528 48.567 406.066C48.567 405.406 48.669 404.845 48.873 404.383C49.077 403.915 49.356 403.558 49.71 403.312C50.07 403.066 50.484 402.943 50.952 402.943C51.444 402.943 51.864 403.075 52.212 403.339C52.56 403.597 52.83 403.96 53.022 404.428C53.214 404.89 53.31 405.433 53.31 406.057C53.31 406.513 53.253 406.93 53.139 407.308C53.031 407.686 52.872 408.01 52.662 408.28C52.458 408.55 52.209 408.76 51.915 408.91C51.627 409.054 51.303 409.126 50.943 409.126ZM50.943 408.415C51.159 408.415 51.36 408.367 51.546 408.271C51.738 408.169 51.903 408.019 52.041 407.821C52.179 407.623 52.287 407.377 52.365 407.083C52.449 406.783 52.491 406.432 52.491 406.03C52.491 405.532 52.425 405.106 52.293 404.752C52.167 404.398 51.987 404.125 51.753 403.933C51.525 403.741 51.255 403.645 50.943 403.645C50.673 403.645 50.418 403.729 50.178 403.897C49.944 404.059 49.752 404.317 49.602 404.671C49.458 405.019 49.386 405.472 49.386 406.03C49.386 406.42 49.425 406.765 49.503 407.065C49.581 407.359 49.689 407.608 49.827 407.812C49.965 408.01 50.127 408.16 50.313 408.262C50.505 408.364 50.715 408.415 50.943 408.415ZM56.885 409V402.691H57.695V406.291C57.929 406.165 58.154 406.021 58.37 405.859C58.592 405.691 58.793 405.517 58.973 405.337C59.159 405.157 59.321 404.983 59.459 404.815C59.597 404.641 59.702 404.485 59.774 404.347H60.737C60.617 404.569 60.47 404.794 60.296 405.022C60.122 405.244 59.927 405.454 59.711 405.652C59.495 405.844 59.267 406.009 59.027 406.147C58.787 406.285 58.547 406.384 58.307 406.444V406.552C58.607 406.528 58.868 406.564 59.09 406.66C59.318 406.756 59.522 406.894 59.702 407.074C59.882 407.254 60.047 407.461 60.197 407.695C60.347 407.929 60.491 408.175 60.629 408.433L60.908 409H59.99L59.783 408.595C59.621 408.283 59.453 408.004 59.279 407.758C59.111 407.506 58.919 407.308 58.703 407.164C58.487 407.02 58.229 406.948 57.929 406.948H57.695V409H56.885ZM63.5703 410.584C63.0783 410.584 62.6733 410.545 62.3553 410.467C62.0433 410.395 61.8093 410.281 61.6533 410.125C61.5033 409.969 61.4283 409.777 61.4283 409.549C61.4283 409.273 61.5363 409.048 61.7523 408.874C61.9683 408.694 62.2983 408.574 62.7423 408.514V408.343C62.4183 408.343 62.1753 408.304 62.0133 408.226C61.8573 408.148 61.7793 408.031 61.7793 407.875C61.7793 407.713 61.8603 407.578 62.0223 407.47C62.1843 407.356 62.4453 407.251 62.8053 407.155V406.984C62.4453 406.978 62.1663 406.87 61.9683 406.66C61.7763 406.444 61.6803 406.165 61.6803 405.823C61.6803 405.517 61.7643 405.253 61.9323 405.031C62.1003 404.803 62.3403 404.629 62.6523 404.509C62.9703 404.383 63.3483 404.32 63.7863 404.32H65.9733V405.013L64.5423 404.788V404.959C64.8903 405.031 65.1573 405.154 65.3433 405.328C65.5293 405.496 65.6223 405.724 65.6223 406.012C65.6223 406.27 65.5473 406.495 65.3973 406.687C65.2473 406.879 65.0253 407.029 64.7313 407.137C64.4373 407.239 64.0773 407.29 63.6513 407.29C63.5673 407.29 63.4803 407.287 63.3903 407.281C63.3003 407.269 63.1773 407.251 63.0213 407.227C62.8653 407.329 62.7363 407.422 62.6343 407.506C62.5383 407.59 62.4903 407.665 62.4903 407.731C62.4903 407.797 62.5353 407.851 62.6253 407.893C62.7213 407.929 62.8353 407.956 62.9673 407.974C63.0993 407.986 63.2223 407.992 63.3363 407.992H64.3803C64.5003 407.992 64.6503 408.004 64.8303 408.028C65.0163 408.046 65.1993 408.094 65.3793 408.172C65.5653 408.25 65.7213 408.373 65.8473 408.541C65.9733 408.703 66.0363 408.925 66.0363 409.207C66.0363 409.537 65.9403 409.801 65.7483 409.999C65.5563 410.203 65.2773 410.35 64.9113 410.44C64.5453 410.536 64.0983 410.584 63.5703 410.584ZM63.5883 409.909C63.9843 409.909 64.3053 409.882 64.5513 409.828C64.8033 409.78 64.9863 409.699 65.1003 409.585C65.2203 409.477 65.2803 409.339 65.2803 409.171C65.2803 409.015 65.2413 408.895 65.1633 408.811C65.0853 408.721 64.9863 408.658 64.8663 408.622C64.7463 408.586 64.6233 408.565 64.4973 408.559C64.3773 408.553 64.2753 408.55 64.1913 408.55H63.1473C62.7993 408.622 62.5593 408.727 62.4273 408.865C62.2953 409.003 62.2293 409.15 62.2293 409.306C62.2293 409.474 62.2893 409.6 62.4093 409.684C62.5293 409.774 62.6913 409.834 62.8953 409.864C63.1053 409.894 63.3363 409.909 63.5883 409.909ZM63.6963 406.759C64.0743 406.759 64.3593 406.681 64.5513 406.525C64.7433 406.369 64.8393 406.159 64.8393 405.895C64.8393 405.613 64.7403 405.382 64.5423 405.202C64.3503 405.016 64.0593 404.923 63.6693 404.923C63.2913 404.923 63.0003 405.01 62.7963 405.184C62.5983 405.358 62.4993 405.583 62.4993 405.859C62.4993 406.039 62.5443 406.198 62.6343 406.336C62.7243 406.468 62.8563 406.573 63.0303 406.651C63.2103 406.723 63.4323 406.759 63.6963 406.759Z" fill="#8A8F84"/>
<path d="M302.697 409V404.455H301.833V403.717C302.103 403.717 302.331 403.675 302.517 403.591C302.703 403.507 302.823 403.33 302.877 403.06H303.525V409H302.697ZM306.915 409.126C306.495 409.126 306.129 409.063 305.817 408.937C305.511 408.805 305.274 408.619 305.106 408.379C304.938 408.139 304.848 407.854 304.836 407.524L305.601 407.335C305.637 407.677 305.757 407.944 305.961 408.136C306.171 408.322 306.483 408.415 306.897 408.415C307.341 408.415 307.683 408.301 307.923 408.073C308.163 407.839 308.283 407.476 308.283 406.984C308.283 406.804 308.265 406.633 308.229 406.471C308.193 406.303 308.13 406.156 308.04 406.03C307.95 405.898 307.83 405.796 307.68 405.724C307.536 405.646 307.353 405.607 307.131 405.607C306.939 405.607 306.774 405.631 306.636 405.679C306.498 405.727 306.381 405.79 306.285 405.868C306.189 405.946 306.108 406.036 306.042 406.138C305.982 406.24 305.934 406.345 305.898 406.453H304.971L305.16 403.06H308.85V403.78H305.871L305.727 405.904H305.844C305.964 405.55 306.165 405.301 306.447 405.157C306.729 405.007 307.032 404.932 307.356 404.932C307.764 404.932 308.097 405.019 308.355 405.193C308.619 405.361 308.814 405.598 308.94 405.904C309.066 406.204 309.129 406.558 309.129 406.966C309.129 407.482 309.033 407.899 308.841 408.217C308.649 408.535 308.385 408.766 308.049 408.91C307.719 409.054 307.341 409.126 306.915 409.126ZM312.583 409.126C312.223 409.126 311.896 409.054 311.602 408.91C311.308 408.766 311.056 408.559 310.846 408.289C310.642 408.019 310.483 407.698 310.369 407.326C310.261 406.948 310.207 406.528 310.207 406.066C310.207 405.406 310.309 404.845 310.513 404.383C310.717 403.915 310.996 403.558 311.35 403.312C311.71 403.066 312.124 402.943 312.592 402.943C313.084 402.943 313.504 403.075 313.852 403.339C314.2 403.597 314.47 403.96 314.662 404.428C314.854 404.89 314.95 405.433 314.95 406.057C314.95 406.513 314.893 406.93 314.779 407.308C314.671 407.686 314.512 408.01 314.302 408.28C314.098 408.55 313.849 408.76 313.555 408.91C313.267 409.054 312.943 409.126 312.583 409.126ZM312.583 408.415C312.799 408.415 313 408.367 313.186 408.271C313.378 408.169 313.543 408.019 313.681 407.821C313.819 407.623 313.927 407.377 314.005 407.083C314.089 406.783 314.131 406.432 314.131 406.03C314.131 405.532 314.065 405.106 313.933 404.752C313.807 404.398 313.627 404.125 313.393 403.933C313.165 403.741 312.895 403.645 312.583 403.645C312.313 403.645 312.058 403.729 311.818 403.897C311.584 404.059 311.392 404.317 311.242 404.671C311.098 405.019 311.026 405.472 311.026 406.03C311.026 406.42 311.065 406.765 311.143 407.065C311.221 407.359 311.329 407.608 311.467 407.812C311.605 408.01 311.767 408.16 311.953 408.262C312.145 408.364 312.355 408.415 312.583 408.415ZM318.525 409V402.691H319.335V406.291C319.569 406.165 319.794 406.021 320.01 405.859C320.232 405.691 320.433 405.517 320.613 405.337C320.799 405.157 320.961 404.983 321.099 404.815C321.237 404.641 321.342 404.485 321.414 404.347H322.377C322.257 404.569 322.11 404.794 321.936 405.022C321.762 405.244 321.567 405.454 321.351 405.652C321.135 405.844 320.907 406.009 320.667 406.147C320.427 406.285 320.187 406.384 319.947 406.444V406.552C320.247 406.528 320.508 406.564 320.73 406.66C320.958 406.756 321.162 406.894 321.342 407.074C321.522 407.254 321.687 407.461 321.837 407.695C321.987 407.929 322.131 408.175 322.269 408.433L322.548 409H321.63L321.423 408.595C321.261 408.283 321.093 408.004 320.919 407.758C320.751 407.506 320.559 407.308 320.343 407.164C320.127 407.02 319.869 406.948 319.569 406.948H319.335V409H318.525ZM325.21 410.584C324.718 410.584 324.313 410.545 323.995 410.467C323.683 410.395 323.449 410.281 323.293 410.125C323.143 409.969 323.068 409.777 323.068 409.549C323.068 409.273 323.176 409.048 323.392 408.874C323.608 408.694 323.938 408.574 324.382 408.514V408.343C324.058 408.343 323.815 408.304 323.653 408.226C323.497 408.148 323.419 408.031 323.419 407.875C323.419 407.713 323.5 407.578 323.662 407.47C323.824 407.356 324.085 407.251 324.445 407.155V406.984C324.085 406.978 323.806 406.87 323.608 406.66C323.416 406.444 323.32 406.165 323.32 405.823C323.32 405.517 323.404 405.253 323.572 405.031C323.74 404.803 323.98 404.629 324.292 404.509C324.61 404.383 324.988 404.32 325.426 404.32H327.613V405.013L326.182 404.788V404.959C326.53 405.031 326.797 405.154 326.983 405.328C327.169 405.496 327.262 405.724 327.262 406.012C327.262 406.27 327.187 406.495 327.037 406.687C326.887 406.879 326.665 407.029 326.371 407.137C326.077 407.239 325.717 407.29 325.291 407.29C325.207 407.29 325.12 407.287 325.03 407.281C324.94 407.269 324.817 407.251 324.661 407.227C324.505 407.329 324.376 407.422 324.274 407.506C324.178 407.59 324.13 407.665 324.13 407.731C324.13 407.797 324.175 407.851 324.265 407.893C324.361 407.929 324.475 407.956 324.607 407.974C324.739 407.986 324.862 407.992 324.976 407.992H326.02C326.14 407.992 326.29 408.004 326.47 408.028C326.656 408.046 326.839 408.094 327.019 408.172C327.205 408.25 327.361 408.373 327.487 408.541C327.613 408.703 327.676 408.925 327.676 409.207C327.676 409.537 327.58 409.801 327.388 409.999C327.196 410.203 326.917 410.35 326.551 410.44C326.185 410.536 325.738 410.584 325.21 410.584ZM325.228 409.909C325.624 409.909 325.945 409.882 326.191 409.828C326.443 409.78 326.626 409.699 326.74 409.585C326.86 409.477 326.92 409.339 326.92 409.171C326.92 409.015 326.881 408.895 326.803 408.811C326.725 408.721 326.626 408.658 326.506 408.622C326.386 408.586 326.263 408.565 326.137 408.559C326.017 408.553 325.915 408.55 325.831 408.55H324.787C324.439 408.622 324.199 408.727 324.067 408.865C323.935 409.003 323.869 409.15 323.869 409.306C323.869 409.474 323.929 409.6 324.049 409.684C324.169 409.774 324.331 409.834 324.535 409.864C324.745 409.894 324.976 409.909 325.228 409.909ZM325.336 406.759C325.714 406.759 325.999 406.681 326.191 406.525C326.383 406.369 326.479 406.159 326.479 405.895C326.479 405.613 326.38 405.382 326.182 405.202C325.99 405.016 325.699 404.923 325.309 404.923C324.931 404.923 324.64 405.01 324.436 405.184C324.238 405.358 324.139 405.583 324.139 405.859C324.139 406.039 324.184 406.198 324.274 406.336C324.364 406.468 324.496 406.573 324.67 406.651C324.85 406.723 325.072 406.759 325.336 406.759Z" fill="#8A8F84"/>
<path d="M294 332H280C274.477 332 270 336.477 270 342V356C270 361.523 274.477 366 280 366H294C299.523 366 304 361.523 304 356V342C304 336.477 299.523 332 294 332Z" fill="#E8EDDA"/>
<path d="M280 349H294" stroke="#1B3C2A" stroke-width="1.8" stroke-linecap="round"/>
<path d="M334 332H320C314.477 332 310 336.477 310 342V356C310 361.523 314.477 366 320 366H334C339.523 366 344 361.523 344 356V342C344 336.477 339.523 332 334 332Z" fill="#8BAA3D"/>
<path d="M320 349H334" stroke="white" stroke-width="1.8" stroke-linecap="round"/>
<path d="M327 342V356" stroke="white" stroke-width="1.8" stroke-linecap="round"/>
<path d="M339 160H38C28.0589 160 20 168.059 20 178V262C20 271.941 28.0589 280 38 280H339C348.941 280 357 271.941 357 262V178C357 168.059 348.941 160 339 160Z" fill="white" stroke="#E0DDD4"/>
<path d="M121.392 225V195.912H120.528L116.016 206.568H109.584L116.448 191.4H127.536V225H121.392ZM143.095 225V195.912H142.231L137.719 206.568H131.287L138.151 191.4H149.239V225H143.095ZM154.43 225V220.968C154.43 218.632 154.814 216.696 155.582 215.16C156.35 213.592 157.454 212.312 158.894 211.32C160.366 210.296 162.158 209.464 164.27 208.824L167.486 207.816C168.67 207.432 169.662 206.968 170.462 206.424C171.262 205.848 171.87 205.16 172.286 204.36C172.734 203.56 172.958 202.648 172.958 201.624V201.432C172.958 199.832 172.414 198.568 171.326 197.64C170.238 196.68 168.75 196.2 166.862 196.2C165.006 196.2 163.502 196.712 162.35 197.736C161.23 198.728 160.67 200.168 160.67 202.056V202.92H154.526V202.152C154.526 199.72 155.07 197.656 156.158 195.96C157.246 194.264 158.718 192.968 160.574 192.072C162.462 191.176 164.558 190.728 166.862 190.728C169.166 190.728 171.246 191.176 173.102 192.072C174.958 192.936 176.414 194.168 177.47 195.768C178.558 197.336 179.102 199.192 179.102 201.336V201.816C179.102 203.96 178.654 205.784 177.758 207.288C176.894 208.76 175.71 209.976 174.206 210.936C172.702 211.864 170.99 212.632 169.07 213.24L165.998 214.2C164.622 214.616 163.55 215.08 162.782 215.592C162.014 216.072 161.47 216.616 161.15 217.224C160.862 217.8 160.718 218.504 160.718 219.336V219.528H178.814V225H154.43ZM188.066 225.672C186.786 225.672 185.698 225.256 184.802 224.424C183.938 223.56 183.506 222.456 183.506 221.112C183.506 219.768 183.938 218.68 184.802 217.848C185.698 216.984 186.786 216.552 188.066 216.552C189.378 216.552 190.466 216.984 191.33 217.848C192.194 218.68 192.626 219.768 192.626 221.112C192.626 222.456 192.194 223.56 191.33 224.424C190.466 225.256 189.378 225.672 188.066 225.672ZM209.755 225.672C207.131 225.672 204.859 225.208 202.939 224.28C201.051 223.352 199.595 222.04 198.571 220.344C197.547 218.648 197.035 216.68 197.035 214.44V213.96H203.275V214.392C203.275 215.992 203.803 217.368 204.859 218.52C205.947 219.64 207.547 220.2 209.659 220.2C211.771 220.2 213.387 219.64 214.507 218.52C215.659 217.368 216.235 215.88 216.235 214.056V213.576C216.235 211.784 215.659 210.36 214.507 209.304C213.387 208.248 211.979 207.72 210.283 207.72C209.355 207.72 208.587 207.848 207.979 208.104C207.371 208.36 206.875 208.68 206.491 209.064C206.107 209.448 205.787 209.832 205.531 210.216H198.091V191.4H221.035V196.968H204.235V205.176H205.099C205.419 204.76 205.851 204.36 206.395 203.976C206.939 203.592 207.643 203.272 208.507 203.016C209.371 202.76 210.395 202.632 211.579 202.632C213.563 202.632 215.371 203.048 217.003 203.88C218.635 204.712 219.931 205.944 220.891 207.576C221.883 209.176 222.379 211.16 222.379 213.528V214.104C222.379 216.472 221.867 218.52 220.843 220.248C219.851 221.976 218.411 223.32 216.523 224.28C214.635 225.208 212.379 225.672 209.755 225.672Z" fill="#1B3C2A"/>
<path d="M231.386 225V212.418H233.024V219.582C233.492 219.33 233.942 219.042 234.374 218.718C234.818 218.394 235.226 218.052 235.598 217.692C235.97 217.332 236.288 216.978 236.552 216.63C236.828 216.282 237.038 215.97 237.182 215.694H239.09C238.862 216.138 238.574 216.588 238.226 217.044C237.89 217.488 237.506 217.902 237.074 218.286C236.642 218.67 236.186 219.006 235.706 219.294C235.226 219.582 234.74 219.78 234.248 219.888V220.104C234.86 220.056 235.394 220.128 235.85 220.32C236.306 220.5 236.708 220.77 237.056 221.13C237.416 221.49 237.74 221.898 238.028 222.354C238.316 222.81 238.592 223.296 238.856 223.812L239.414 225H237.578L237.182 224.154C236.87 223.53 236.546 222.978 236.21 222.498C235.886 222.006 235.508 221.616 235.076 221.328C234.644 221.04 234.122 220.896 233.51 220.896H233.024V225H231.386ZM244.704 228.132C243.72 228.132 242.91 228.054 242.274 227.898C241.65 227.754 241.188 227.526 240.888 227.214C240.588 226.914 240.438 226.536 240.438 226.08C240.438 225.528 240.654 225.078 241.086 224.73C241.518 224.37 242.178 224.13 243.066 224.01V223.686C242.418 223.686 241.932 223.608 241.608 223.452C241.284 223.296 241.122 223.062 241.122 222.75C241.122 222.426 241.284 222.156 241.608 221.94C241.932 221.712 242.46 221.502 243.192 221.31V220.986C242.46 220.962 241.902 220.74 241.518 220.32C241.134 219.888 240.942 219.336 240.942 218.664C240.942 218.04 241.104 217.506 241.428 217.062C241.764 216.606 242.244 216.258 242.868 216.018C243.492 215.766 244.242 215.64 245.118 215.64H249.51V217.026L246.648 216.594V216.918C247.344 217.062 247.872 217.308 248.232 217.656C248.604 218.004 248.79 218.46 248.79 219.024C248.79 219.54 248.64 219.99 248.34 220.374C248.04 220.758 247.596 221.058 247.008 221.274C246.432 221.478 245.724 221.58 244.884 221.58C244.704 221.58 244.524 221.574 244.344 221.562C244.164 221.55 243.924 221.52 243.624 221.472C243.288 221.664 243.024 221.844 242.832 222.012C242.64 222.18 242.544 222.33 242.544 222.462C242.544 222.594 242.634 222.696 242.814 222.768C242.994 222.84 243.21 222.894 243.462 222.93C243.726 222.954 243.972 222.966 244.2 222.966H246.342C246.582 222.966 246.882 222.99 247.242 223.038C247.614 223.074 247.98 223.17 248.34 223.326C248.712 223.482 249.024 223.722 249.276 224.046C249.528 224.37 249.654 224.82 249.654 225.396C249.654 226.044 249.462 226.566 249.078 226.962C248.694 227.37 248.136 227.664 247.404 227.844C246.672 228.036 245.772 228.132 244.704 228.132ZM244.74 226.764C245.544 226.764 246.192 226.716 246.684 226.62C247.188 226.524 247.554 226.368 247.782 226.152C248.022 225.936 248.142 225.66 248.142 225.324C248.142 225.012 248.064 224.772 247.908 224.604C247.752 224.436 247.554 224.316 247.314 224.244C247.074 224.172 246.828 224.13 246.576 224.118C246.336 224.094 246.132 224.082 245.964 224.082H243.858C243.162 224.238 242.682 224.454 242.418 224.73C242.154 224.994 242.022 225.282 242.022 225.594C242.022 225.93 242.142 226.182 242.382 226.35C242.622 226.518 242.946 226.626 243.354 226.674C243.774 226.734 244.236 226.764 244.74 226.764ZM244.956 220.518C245.7 220.518 246.264 220.362 246.648 220.05C247.032 219.738 247.224 219.318 247.224 218.79C247.224 218.226 247.026 217.764 246.63 217.404C246.246 217.032 245.67 216.846 244.902 216.846C244.146 216.846 243.564 217.02 243.156 217.368C242.76 217.716 242.562 218.166 242.562 218.718C242.562 219.078 242.652 219.396 242.832 219.672C243.024 219.936 243.294 220.146 243.642 220.302C244.002 220.446 244.44 220.518 244.956 220.518Z" fill="#8A8F84"/>
<path d="M326 246H50C48.8954 246 48 246.895 48 248C48 249.105 48.8954 250 50 250H326C327.105 250 328 249.105 328 248C328 246.895 327.105 246 326 246Z" fill="#E8E5DC"/>
<path d="M233.558 246H50.4416C49.0931 246 48 246.895 48 248C48 249.105 49.0931 250 50.4416 250H233.558C234.907 250 236 249.105 236 248C236 246.895 234.907 246 233.558 246Z" fill="#8BAA3D"/>
<path d="M244 258C249.523 258 254 253.523 254 248C254 242.477 249.523 238 244 238C238.477 238 234 242.477 234 248C234 253.523 238.477 258 244 258Z" fill="white" stroke="#8BAA3D" stroke-width="2"/>
<path d="M244 252C246.209 252 248 250.209 248 248C248 245.791 246.209 244 244 244C241.791 244 240 245.791 240 248C240 250.209 241.791 252 244 252Z" fill="#8BAA3D"/>
<path d="M50.943 269.126C50.583 269.126 50.256 269.054 49.962 268.91C49.668 268.766 49.416 268.559 49.206 268.289C49.002 268.019 48.843 267.698 48.729 267.326C48.621 266.948 48.567 266.528 48.567 266.066C48.567 265.406 48.669 264.845 48.873 264.383C49.077 263.915 49.356 263.558 49.71 263.312C50.07 263.066 50.484 262.943 50.952 262.943C51.444 262.943 51.864 263.075 52.212 263.339C52.56 263.597 52.83 263.96 53.022 264.428C53.214 264.89 53.31 265.433 53.31 266.057C53.31 266.513 53.253 266.93 53.139 267.308C53.031 267.686 52.872 268.01 52.662 268.28C52.458 268.55 52.209 268.76 51.915 268.91C51.627 269.054 51.303 269.126 50.943 269.126ZM50.943 268.415C51.159 268.415 51.36 268.367 51.546 268.271C51.738 268.169 51.903 268.019 52.041 267.821C52.179 267.623 52.287 267.377 52.365 267.083C52.449 266.783 52.491 266.432 52.491 266.03C52.491 265.532 52.425 265.106 52.293 264.752C52.167 264.398 51.987 264.125 51.753 263.933C51.525 263.741 51.255 263.645 50.943 263.645C50.673 263.645 50.418 263.729 50.178 263.897C49.944 264.059 49.752 264.317 49.602 264.671C49.458 265.019 49.386 265.472 49.386 266.03C49.386 266.42 49.425 266.765 49.503 267.065C49.581 267.359 49.689 267.608 49.827 267.812C49.965 268.01 50.127 268.16 50.313 268.262C50.505 268.364 50.715 268.415 50.943 268.415ZM56.885 269V262.691H57.695V266.291C57.929 266.165 58.154 266.021 58.37 265.859C58.592 265.691 58.793 265.517 58.973 265.337C59.159 265.157 59.321 264.983 59.459 264.815C59.597 264.641 59.702 264.485 59.774 264.347H60.737C60.617 264.569 60.47 264.794 60.296 265.022C60.122 265.244 59.927 265.454 59.711 265.652C59.495 265.844 59.267 266.009 59.027 266.147C58.787 266.285 58.547 266.384 58.307 266.444V266.552C58.607 266.528 58.868 266.564 59.09 266.66C59.318 266.756 59.522 266.894 59.702 267.074C59.882 267.254 60.047 267.461 60.197 267.695C60.347 267.929 60.491 268.175 60.629 268.433L60.908 269H59.99L59.783 268.595C59.621 268.283 59.453 268.004 59.279 267.758C59.111 267.506 58.919 267.308 58.703 267.164C58.487 267.02 58.229 266.948 57.929 266.948H57.695V269H56.885ZM63.5703 270.584C63.0783 270.584 62.6733 270.545 62.3553 270.467C62.0433 270.395 61.8093 270.281 61.6533 270.125C61.5033 269.969 61.4283 269.777 61.4283 269.549C61.4283 269.273 61.5363 269.048 61.7523 268.874C61.9683 268.694 62.2983 268.574 62.7423 268.514V268.343C62.4183 268.343 62.1753 268.304 62.0133 268.226C61.8573 268.148 61.7793 268.031 61.7793 267.875C61.7793 267.713 61.8603 267.578 62.0223 267.47C62.1843 267.356 62.4453 267.251 62.8053 267.155V266.984C62.4453 266.978 62.1663 266.87 61.9683 266.66C61.7763 266.444 61.6803 266.165 61.6803 265.823C61.6803 265.517 61.7643 265.253 61.9323 265.031C62.1003 264.803 62.3403 264.629 62.6523 264.509C62.9703 264.383 63.3483 264.32 63.7863 264.32H65.9733V265.013L64.5423 264.788V264.959C64.8903 265.031 65.1573 265.154 65.3433 265.328C65.5293 265.496 65.6223 265.724 65.6223 266.012C65.6223 266.27 65.5473 266.495 65.3973 266.687C65.2473 266.879 65.0253 267.029 64.7313 267.137C64.4373 267.239 64.0773 267.29 63.6513 267.29C63.5673 267.29 63.4803 267.287 63.3903 267.281C63.3003 267.269 63.1773 267.251 63.0213 267.227C62.8653 267.329 62.7363 267.422 62.6343 267.506C62.5383 267.59 62.4903 267.665 62.4903 267.731C62.4903 267.797 62.5353 267.851 62.6253 267.893C62.7213 267.929 62.8353 267.956 62.9673 267.974C63.0993 267.986 63.2223 267.992 63.3363 267.992H64.3803C64.5003 267.992 64.6503 268.004 64.8303 268.028C65.0163 268.046 65.1993 268.094 65.3793 268.172C65.5653 268.25 65.7213 268.373 65.8473 268.541C65.9733 268.703 66.0363 268.925 66.0363 269.207C66.0363 269.537 65.9403 269.801 65.7483 269.999C65.5563 270.203 65.2773 270.35 64.9113 270.44C64.5453 270.536 64.0983 270.584 63.5703 270.584ZM63.5883 269.909C63.9843 269.909 64.3053 269.882 64.5513 269.828C64.8033 269.78 64.9863 269.699 65.1003 269.585C65.2203 269.477 65.2803 269.339 65.2803 269.171C65.2803 269.015 65.2413 268.895 65.1633 268.811C65.0853 268.721 64.9863 268.658 64.8663 268.622C64.7463 268.586 64.6233 268.565 64.4973 268.559C64.3773 268.553 64.2753 268.55 64.1913 268.55H63.1473C62.7993 268.622 62.5593 268.727 62.4273 268.865C62.2953 269.003 62.2293 269.15 62.2293 269.306C62.2293 269.474 62.2893 269.6 62.4093 269.684C62.5293 269.774 62.6913 269.834 62.8953 269.864C63.1053 269.894 63.3363 269.909 63.5883 269.909ZM63.6963 266.759C64.0743 266.759 64.3593 266.681 64.5513 266.525C64.7433 266.369 64.8393 266.159 64.8393 265.895C64.8393 265.613 64.7403 265.382 64.5423 265.202C64.3503 265.016 64.0593 264.923 63.6693 264.923C63.2913 264.923 63.0003 265.01 62.7963 265.184C62.5983 265.358 62.4993 265.583 62.4993 265.859C62.4993 266.039 62.5443 266.198 62.6343 266.336C62.7243 266.468 62.8563 266.573 63.0303 266.651C63.2103 266.723 63.4323 266.759 63.6963 266.759Z" fill="#8A8F84"/>
<path d="M302.697 269V264.455H301.833V263.717C302.103 263.717 302.331 263.675 302.517 263.591C302.703 263.507 302.823 263.33 302.877 263.06H303.525V269H302.697ZM306.915 269.126C306.495 269.126 306.129 269.063 305.817 268.937C305.511 268.805 305.274 268.619 305.106 268.379C304.938 268.139 304.848 267.854 304.836 267.524L305.601 267.335C305.637 267.677 305.757 267.944 305.961 268.136C306.171 268.322 306.483 268.415 306.897 268.415C307.341 268.415 307.683 268.301 307.923 268.073C308.163 267.839 308.283 267.476 308.283 266.984C308.283 266.804 308.265 266.633 308.229 266.471C308.193 266.303 308.13 266.156 308.04 266.03C307.95 265.898 307.83 265.796 307.68 265.724C307.536 265.646 307.353 265.607 307.131 265.607C306.939 265.607 306.774 265.631 306.636 265.679C306.498 265.727 306.381 265.79 306.285 265.868C306.189 265.946 306.108 266.036 306.042 266.138C305.982 266.24 305.934 266.345 305.898 266.453H304.971L305.16 263.06H308.85V263.78H305.871L305.727 265.904H305.844C305.964 265.55 306.165 265.301 306.447 265.157C306.729 265.007 307.032 264.932 307.356 264.932C307.764 264.932 308.097 265.019 308.355 265.193C308.619 265.361 308.814 265.598 308.94 265.904C309.066 266.204 309.129 266.558 309.129 266.966C309.129 267.482 309.033 267.899 308.841 268.217C308.649 268.535 308.385 268.766 308.049 268.91C307.719 269.054 307.341 269.126 306.915 269.126ZM312.583 269.126C312.223 269.126 311.896 269.054 311.602 268.91C311.308 268.766 311.056 268.559 310.846 268.289C310.642 268.019 310.483 267.698 310.369 267.326C310.261 266.948 310.207 266.528 310.207 266.066C310.207 265.406 310.309 264.845 310.513 264.383C310.717 263.915 310.996 263.558 311.35 263.312C311.71 263.066 312.124 262.943 312.592 262.943C313.084 262.943 313.504 263.075 313.852 263.339C314.2 263.597 314.47 263.96 314.662 264.428C314.854 264.89 314.95 265.433 314.95 266.057C314.95 266.513 314.893 266.93 314.779 267.308C314.671 267.686 314.512 268.01 314.302 268.28C314.098 268.55 313.849 268.76 313.555 268.91C313.267 269.054 312.943 269.126 312.583 269.126ZM312.583 268.415C312.799 268.415 313 268.367 313.186 268.271C313.378 268.169 313.543 268.019 313.681 267.821C313.819 267.623 313.927 267.377 314.005 267.083C314.089 266.783 314.131 266.432 314.131 266.03C314.131 265.532 314.065 265.106 313.933 264.752C313.807 264.398 313.627 264.125 313.393 263.933C313.165 263.741 312.895 263.645 312.583 263.645C312.313 263.645 312.058 263.729 311.818 263.897C311.584 264.059 311.392 264.317 311.242 264.671C311.098 265.019 311.026 265.472 311.026 266.03C311.026 266.42 311.065 266.765 311.143 267.065C311.221 267.359 311.329 267.608 311.467 267.812C311.605 268.01 311.767 268.16 311.953 268.262C312.145 268.364 312.355 268.415 312.583 268.415ZM318.525 269V262.691H319.335V266.291C319.569 266.165 319.794 266.021 320.01 265.859C320.232 265.691 320.433 265.517 320.613 265.337C320.799 265.157 320.961 264.983 321.099 264.815C321.237 264.641 321.342 264.485 321.414 264.347H322.377C322.257 264.569 322.11 264.794 321.936 265.022C321.762 265.244 321.567 265.454 321.351 265.652C321.135 265.844 320.907 266.009 320.667 266.147C320.427 266.285 320.187 266.384 319.947 266.444V266.552C320.247 266.528 320.508 266.564 320.73 266.66C320.958 266.756 321.162 266.894 321.342 267.074C321.522 267.254 321.687 267.461 321.837 267.695C321.987 267.929 322.131 268.175 322.269 268.433L322.548 269H321.63L321.423 268.595C321.261 268.283 321.093 268.004 320.919 267.758C320.751 267.506 320.559 267.308 320.343 267.164C320.127 267.02 319.869 266.948 319.569 266.948H319.335V269H318.525ZM325.21 270.584C324.718 270.584 324.313 270.545 323.995 270.467C323.683 270.395 323.449 270.281 323.293 270.125C323.143 269.969 323.068 269.777 323.068 269.549C323.068 269.273 323.176 269.048 323.392 268.874C323.608 268.694 323.938 268.574 324.382 268.514V268.343C324.058 268.343 323.815 268.304 323.653 268.226C323.497 268.148 323.419 268.031 323.419 267.875C323.419 267.713 323.5 267.578 323.662 267.47C323.824 267.356 324.085 267.251 324.445 267.155V266.984C324.085 266.978 323.806 266.87 323.608 266.66C323.416 266.444 323.32 266.165 323.32 265.823C323.32 265.517 323.404 265.253 323.572 265.031C323.74 264.803 323.98 264.629 324.292 264.509C324.61 264.383 324.988 264.32 325.426 264.32H327.613V265.013L326.182 264.788V264.959C326.53 265.031 326.797 265.154 326.983 265.328C327.169 265.496 327.262 265.724 327.262 266.012C327.262 266.27 327.187 266.495 327.037 266.687C326.887 266.879 326.665 267.029 326.371 267.137C326.077 267.239 325.717 267.29 325.291 267.29C325.207 267.29 325.12 267.287 325.03 267.281C324.94 267.269 324.817 267.251 324.661 267.227C324.505 267.329 324.376 267.422 324.274 267.506C324.178 267.59 324.13 267.665 324.13 267.731C324.13 267.797 324.175 267.851 324.265 267.893C324.361 267.929 324.475 267.956 324.607 267.974C324.739 267.986 324.862 267.992 324.976 267.992H326.02C326.14 267.992 326.29 268.004 326.47 268.028C326.656 268.046 326.839 268.094 327.019 268.172C327.205 268.25 327.361 268.373 327.487 268.541C327.613 268.703 327.676 268.925 327.676 269.207C327.676 269.537 327.58 269.801 327.388 269.999C327.196 270.203 326.917 270.35 326.551 270.44C326.185 270.536 325.738 270.584 325.21 270.584ZM325.228 269.909C325.624 269.909 325.945 269.882 326.191 269.828C326.443 269.78 326.626 269.699 326.74 269.585C326.86 269.477 326.92 269.339 326.92 269.171C326.92 269.015 326.881 268.895 326.803 268.811C326.725 268.721 326.626 268.658 326.506 268.622C326.386 268.586 326.263 268.565 326.137 268.559C326.017 268.553 325.915 268.55 325.831 268.55H324.787C324.439 268.622 324.199 268.727 324.067 268.865C323.935 269.003 323.869 269.15 323.869 269.306C323.869 269.474 323.929 269.6 324.049 269.684C324.169 269.774 324.331 269.834 324.535 269.864C324.745 269.894 324.976 269.909 325.228 269.909ZM325.336 266.759C325.714 266.759 325.999 266.681 326.191 266.525C326.383 266.369 326.479 266.159 326.479 265.895C326.479 265.613 326.38 265.382 326.182 265.202C325.99 265.016 325.699 264.923 325.309 264.923C324.931 264.923 324.64 265.01 324.436 265.184C324.238 265.358 324.139 265.583 324.139 265.859C324.139 266.039 324.184 266.198 324.274 266.336C324.364 266.468 324.496 266.573 324.67 266.651C324.85 266.723 325.072 266.759 325.336 266.759Z" fill="#8A8F84"/>
<path d="M294 192H280C274.477 192 270 196.477 270 202V216C270 221.523 274.477 226 280 226H294C299.523 226 304 221.523 304 216V202C304 196.477 299.523 192 294 192Z" fill="#E8EDDA"/>
<path d="M280 209H294" stroke="#1B3C2A" stroke-width="1.8" stroke-linecap="round"/>
<path d="M334 192H320C314.477 192 310 196.477 310 202V216C310 221.523 314.477 226 320 226H334C339.523 226 344 221.523 344 216V202C344 196.477 339.523 192 334 192Z" fill="#8BAA3D"/>
<path d="M320 209H334" stroke="white" stroke-width="1.8" stroke-linecap="round"/>
<path d="M327 202V216" stroke="white" stroke-width="1.8" stroke-linecap="round"/>
</svg>
