<svg width="389" height="350" viewBox="0 0 389 350" fill="none" xmlns="http://www.w3.org/2000/svg">
<rect x="0.5" y="0.5" width="387.046" height="348.495" rx="4.5" stroke="#9747FF" stroke-dasharray="10 5"/>
<path d="M352.27 20H35.7754C27.0629 20 20 26.8217 20 35.2366V149.511C20 157.926 27.0629 164.748 35.7754 164.748H352.27C360.983 164.748 368.046 157.926 368.046 149.511V35.2366C368.046 26.8217 360.983 20 352.27 20Z" fill="white"/>
<path d="M349.591 120.312H289.684C281.106 120.312 274.153 126.953 274.153 135.145C274.153 143.336 281.106 149.977 289.684 149.977H349.591C358.169 149.977 365.123 143.336 365.123 135.145C365.123 126.953 358.169 120.312 349.591 120.312Z" fill="url(#paint0_linear_517_5062)"/>
<path d="M307.156 137.178V135.506H305.506V134.252H307.156V132.58H308.454V134.252H310.104V135.506H308.454V137.178H307.156ZM314.078 138.729L316.102 131.029H318.632L320.656 138.729H319.16L318.742 137.035H315.992L315.574 138.729H314.078ZM316.333 135.693H318.401L317.466 131.942H317.268L316.333 135.693ZM323.822 138.883C323.389 138.883 322.982 138.776 322.601 138.564C322.227 138.344 321.926 138.025 321.699 137.607C321.471 137.189 321.358 136.683 321.358 136.089V135.913C321.358 135.319 321.471 134.813 321.699 134.395C321.926 133.977 322.227 133.661 322.601 133.449C322.975 133.229 323.382 133.119 323.822 133.119C324.152 133.119 324.427 133.159 324.647 133.24C324.874 133.313 325.057 133.408 325.197 133.526C325.336 133.643 325.442 133.768 325.516 133.9H325.714V131.029H327.1V138.729H325.736V138.069H325.538C325.413 138.274 325.219 138.461 324.955 138.63C324.698 138.798 324.32 138.883 323.822 138.883ZM324.24 137.673C324.665 137.673 325.021 137.537 325.307 137.266C325.593 136.987 325.736 136.584 325.736 136.056V135.946C325.736 135.418 325.593 135.018 325.307 134.747C325.028 134.468 324.672 134.329 324.24 134.329C323.814 134.329 323.459 134.468 323.173 134.747C322.887 135.018 322.744 135.418 322.744 135.946V136.056C322.744 136.584 322.887 136.987 323.173 137.266C323.459 137.537 323.814 137.673 324.24 137.673ZM330.836 138.883C330.404 138.883 329.997 138.776 329.615 138.564C329.241 138.344 328.941 138.025 328.713 137.607C328.486 137.189 328.372 136.683 328.372 136.089V135.913C328.372 135.319 328.486 134.813 328.713 134.395C328.941 133.977 329.241 133.661 329.615 133.449C329.989 133.229 330.396 133.119 330.836 133.119C331.166 133.119 331.441 133.159 331.661 133.24C331.889 133.313 332.072 133.408 332.211 133.526C332.351 133.643 332.457 133.768 332.53 133.9H332.728V131.029H334.114V138.729H332.75V138.069H332.552C332.428 138.274 332.233 138.461 331.969 138.63C331.713 138.798 331.335 138.883 330.836 138.883ZM331.254 137.673C331.68 137.673 332.035 137.537 332.321 137.266C332.607 136.987 332.75 136.584 332.75 136.056V135.946C332.75 135.418 332.607 135.018 332.321 134.747C332.043 134.468 331.687 134.329 331.254 134.329C330.829 134.329 330.473 134.468 330.187 134.747C329.901 135.018 329.758 135.418 329.758 135.946V136.056C329.758 136.584 329.901 136.987 330.187 137.266C330.473 137.537 330.829 137.673 331.254 137.673Z" fill="white"/>
<path d="M35.7754 185.248H352.271C360.723 185.248 367.546 191.862 367.546 199.984V314.258C367.546 322.381 360.723 328.995 352.271 328.996H35.7754C27.3225 328.996 20.5 322.381 20.5 314.258V199.984C20.5001 191.861 27.3226 185.248 35.7754 185.248Z" fill="white" stroke="#9EBE44"/>
<path d="M349.591 285.06H289.684C281.106 285.06 274.153 291.7 274.153 299.892C274.153 308.083 281.106 314.724 289.684 314.724H349.591C358.169 314.724 365.123 308.083 365.123 299.892C365.123 291.7 358.169 285.06 349.591 285.06Z" fill="#1B3C2A"/>
<path d="M302.654 303.476L304.678 295.776H307.208L309.232 303.476H307.736L307.318 301.782H304.568L304.15 303.476H302.654ZM304.909 300.44H306.977L306.042 296.689H305.844L304.909 300.44ZM312.397 303.63C311.965 303.63 311.558 303.523 311.176 303.311C310.802 303.091 310.502 302.772 310.274 302.354C310.047 301.936 309.933 301.43 309.933 300.836V300.66C309.933 300.066 310.047 299.56 310.274 299.142C310.502 298.724 310.802 298.408 311.176 298.196C311.55 297.976 311.957 297.866 312.397 297.866C312.727 297.866 313.002 297.906 313.222 297.987C313.45 298.06 313.633 298.155 313.772 298.273C313.912 298.39 314.018 298.515 314.091 298.647H314.289V295.776H315.675V303.476H314.311V302.816H314.113C313.989 303.021 313.794 303.208 313.53 303.377C313.274 303.545 312.896 303.63 312.397 303.63ZM312.815 302.42C313.241 302.42 313.596 302.284 313.882 302.013C314.168 301.734 314.311 301.331 314.311 300.803V300.693C314.311 300.165 314.168 299.765 313.882 299.494C313.604 299.215 313.248 299.076 312.815 299.076C312.39 299.076 312.034 299.215 311.748 299.494C311.462 299.765 311.319 300.165 311.319 300.693V300.803C311.319 301.331 311.462 301.734 311.748 302.013C312.034 302.284 312.39 302.42 312.815 302.42ZM319.412 303.63C318.979 303.63 318.572 303.523 318.191 303.311C317.817 303.091 317.516 302.772 317.289 302.354C317.062 301.936 316.948 301.43 316.948 300.836V300.66C316.948 300.066 317.062 299.56 317.289 299.142C317.516 298.724 317.817 298.408 318.191 298.196C318.565 297.976 318.972 297.866 319.412 297.866C319.742 297.866 320.017 297.906 320.237 297.987C320.464 298.06 320.648 298.155 320.787 298.273C320.926 298.39 321.033 298.515 321.106 298.647H321.304V295.776H322.69V303.476H321.326V302.816H321.128C321.003 303.021 320.809 303.208 320.545 303.377C320.288 303.545 319.911 303.63 319.412 303.63ZM319.83 302.42C320.255 302.42 320.611 302.284 320.897 302.013C321.183 301.734 321.326 301.331 321.326 300.803V300.693C321.326 300.165 321.183 299.765 320.897 299.494C320.618 299.215 320.263 299.076 319.83 299.076C319.405 299.076 319.049 299.215 318.763 299.494C318.477 299.765 318.334 300.165 318.334 300.693V300.803C318.334 301.331 318.477 301.734 318.763 302.013C319.049 302.284 319.405 302.42 319.83 302.42ZM326.713 303.63C326.17 303.63 325.69 303.516 325.272 303.289C324.861 303.054 324.538 302.728 324.304 302.31C324.076 301.884 323.963 301.386 323.963 300.814V300.682C323.963 300.11 324.076 299.615 324.304 299.197C324.531 298.771 324.85 298.445 325.261 298.218C325.671 297.983 326.148 297.866 326.691 297.866C327.226 297.866 327.692 297.987 328.088 298.229C328.484 298.463 328.792 298.793 329.012 299.219C329.232 299.637 329.342 300.124 329.342 300.682V301.155H325.371C325.385 301.529 325.525 301.833 325.789 302.068C326.053 302.302 326.375 302.42 326.757 302.42C327.145 302.42 327.431 302.335 327.615 302.167C327.798 301.998 327.937 301.811 328.033 301.606L329.166 302.2C329.063 302.39 328.913 302.599 328.715 302.827C328.524 303.047 328.267 303.237 327.945 303.399C327.622 303.553 327.211 303.63 326.713 303.63ZM325.382 300.121H327.934C327.904 299.805 327.776 299.552 327.549 299.362C327.329 299.171 327.039 299.076 326.68 299.076C326.306 299.076 326.009 299.171 325.789 299.362C325.569 299.552 325.433 299.805 325.382 300.121ZM332.775 303.63C332.343 303.63 331.936 303.523 331.554 303.311C331.18 303.091 330.88 302.772 330.652 302.354C330.425 301.936 330.311 301.43 330.311 300.836V300.66C330.311 300.066 330.425 299.56 330.652 299.142C330.88 298.724 331.18 298.408 331.554 298.196C331.928 297.976 332.335 297.866 332.775 297.866C333.105 297.866 333.38 297.906 333.6 297.987C333.828 298.06 334.011 298.155 334.15 298.273C334.29 298.39 334.396 298.515 334.469 298.647H334.667V295.776H336.053V303.476H334.689V302.816H334.491C334.367 303.021 334.172 303.208 333.908 303.377C333.652 303.545 333.274 303.63 332.775 303.63ZM333.193 302.42C333.619 302.42 333.974 302.284 334.26 302.013C334.546 301.734 334.689 301.331 334.689 300.803V300.693C334.689 300.165 334.546 299.765 334.26 299.494C333.982 299.215 333.626 299.076 333.193 299.076C332.768 299.076 332.412 299.215 332.126 299.494C331.84 299.765 331.697 300.165 331.697 300.693V300.803C331.697 301.331 331.84 301.734 332.126 302.013C332.412 302.284 332.768 302.42 333.193 302.42Z" fill="white"/>
<path d="M355 210C360.523 210 365 205.523 365 200C365 194.477 360.523 190 355 190C349.477 190 345 194.477 345 200C345 205.523 349.477 210 355 210Z" fill="#8BAA3D"/>
<path d="M351 200L354 203L360 197" stroke="white" stroke-width="1.8" stroke-linecap="round" stroke-linejoin="round"/>
<defs>
<linearGradient id="paint0_linear_517_5062" x1="274.153" y1="120.312" x2="365.123" y2="120.312" gradientUnits="userSpaceOnUse">
<stop stop-color="#8BAA3D"/>
<stop offset="1" stop-color="#A0C044"/>
</linearGradient>
</defs>
</svg>
