<svg width="362" height="53" viewBox="0 0 362 53" fill="none" xmlns="http://www.w3.org/2000/svg">
<path d="M342.672 0H18.4122C8.24343 0 0 7.81295 0 17.4507V34.9014C0 44.5392 8.24343 52.3521 18.4122 52.3521H342.672C352.841 52.3521 361.084 44.5392 361.084 34.9014V17.4507C361.084 7.81295 352.841 0 342.672 0Z" fill="url(#paint0_linear_77_778)"/>
<path d="M28.1298 18.4204H18.9237C17.5114 18.4204 16.3665 19.5055 16.3665 20.8441V27.6305C16.3665 28.9691 17.5114 30.0542 18.9237 30.0542H28.1298C29.5421 30.0542 30.6871 28.9691 30.6871 27.6305V20.8441C30.6871 19.5055 29.5421 18.4204 28.1298 18.4204Z" stroke="white" stroke-width="1.3"/>
<path d="M19.4351 18.4202V16.4812C19.4351 14.5422 20.7989 13.5728 23.5267 13.5728C26.2544 13.5728 27.6183 14.5422 27.6183 16.4812V18.4202" stroke="white" stroke-width="1.3" stroke-linecap="round"/>
<path d="M39.4584 22.6338V21.3498L42.2784 19.2018C42.4544 19.0578 42.6344 18.9058 42.8184 18.7458C43.0024 18.5778 43.1744 18.3978 43.3344 18.2058C43.4944 18.0058 43.6224 17.7938 43.7184 17.5698C43.8224 17.3378 43.8744 17.0938 43.8744 16.8378C43.8744 16.5738 43.8104 16.3418 43.6824 16.1418C43.5624 15.9418 43.3824 15.7898 43.1424 15.6858C42.9104 15.5738 42.6224 15.5178 42.2784 15.5178C42.0304 15.5178 41.8024 15.5498 41.5944 15.6138C41.3944 15.6778 41.2184 15.7898 41.0664 15.9498C40.9144 16.1098 40.7984 16.3218 40.7184 16.5858C40.6384 16.8498 40.5984 17.1778 40.5984 17.5698L39.5424 17.3778C39.5344 16.8098 39.6304 16.3138 39.8304 15.8898C40.0304 15.4578 40.3344 15.1258 40.7424 14.8938C41.1584 14.6618 41.6744 14.5458 42.2904 14.5458C42.8344 14.5458 43.3024 14.6338 43.6944 14.8098C44.0944 14.9858 44.4024 15.2418 44.6184 15.5778C44.8424 15.9058 44.9544 16.2978 44.9544 16.7538C44.9544 17.1298 44.8904 17.4778 44.7624 17.7978C44.6344 18.1098 44.4704 18.3978 44.2704 18.6618C44.0704 18.9178 43.8504 19.1498 43.6104 19.3578C43.3784 19.5658 43.1544 19.7458 42.9384 19.8978L40.6704 21.6258V21.7338L45.1584 21.6858V22.6338H39.4584ZM49.7799 22.6338V16.4298H50.8719V22.6338H49.7799ZM50.3199 15.3378C50.0639 15.3378 49.8719 15.2858 49.7439 15.1818C49.6159 15.0778 49.5519 14.9218 49.5519 14.7138C49.5519 14.5058 49.6159 14.3498 49.7439 14.2458C49.8719 14.1418 50.0599 14.0898 50.3079 14.0898C50.5639 14.0898 50.7559 14.1418 50.8839 14.2458C51.0199 14.3498 51.0879 14.5058 51.0879 14.7138C51.0879 14.9218 51.0199 15.0778 50.8839 15.1818C50.7559 15.2858 50.5679 15.3378 50.3199 15.3378ZM54.7113 22.7538C54.1353 22.7538 53.7073 22.5978 53.4273 22.2858C53.1553 21.9738 53.0193 21.4978 53.0193 20.8578V17.3418H52.0833L52.0953 16.4298H52.6833C52.8753 16.4298 53.0153 16.3978 53.1033 16.3338C53.1993 16.2618 53.2593 16.1418 53.2833 15.9738L53.4033 15.0258H54.0753V16.4298H55.8513V17.3538H54.0753V20.8338C54.0753 21.1538 54.1473 21.3858 54.2913 21.5298C54.4433 21.6658 54.6593 21.7338 54.9393 21.7338C55.0913 21.7338 55.2473 21.7138 55.4073 21.6738C55.5673 21.6338 55.7313 21.5538 55.8993 21.4338V22.5258C55.6673 22.6138 55.4513 22.6738 55.2513 22.7058C55.0513 22.7378 54.8713 22.7538 54.7113 22.7538ZM59.8498 22.7898C59.3618 22.7898 58.9298 22.7178 58.5538 22.5738C58.1778 22.4218 57.8618 22.2058 57.6058 21.9258C57.3578 21.6458 57.1658 21.3138 57.0298 20.9298C56.9018 20.5458 56.8378 20.1138 56.8378 19.6338C56.8378 19.1458 56.9018 18.6978 57.0298 18.2898C57.1658 17.8818 57.3578 17.5258 57.6058 17.2218C57.8538 16.9178 58.1578 16.6858 58.5178 16.5258C58.8778 16.3578 59.2898 16.2738 59.7538 16.2738C60.1618 16.2738 60.5298 16.3418 60.8578 16.4778C61.1938 16.6138 61.4818 16.8258 61.7218 17.1138C61.9618 17.3938 62.1418 17.7498 62.2618 18.1818C62.3818 18.6058 62.4298 19.1098 62.4058 19.6938L57.5338 19.7298V18.9858L61.7458 18.9498L61.3618 19.4538C61.4018 18.9498 61.3538 18.5338 61.2178 18.2058C61.0898 17.8698 60.8978 17.6178 60.6418 17.4498C60.3858 17.2818 60.0898 17.1978 59.7538 17.1978C59.3778 17.1978 59.0498 17.2938 58.7698 17.4858C58.4978 17.6778 58.2858 17.9538 58.1338 18.3138C57.9818 18.6738 57.9058 19.1098 57.9058 19.6218C57.9058 20.3578 58.0698 20.9218 58.3978 21.3138C58.7338 21.6978 59.2218 21.8898 59.8618 21.8898C60.1178 21.8898 60.3378 21.8618 60.5218 21.8058C60.7058 21.7418 60.8618 21.6578 60.9898 21.5538C61.1258 21.4498 61.2378 21.3258 61.3258 21.1818C61.4138 21.0378 61.4818 20.8818 61.5298 20.7138L62.4898 20.9418C62.4098 21.2298 62.2938 21.4898 62.1418 21.7218C61.9978 21.9458 61.8138 22.1378 61.5898 22.2978C61.3738 22.4578 61.1218 22.5778 60.8338 22.6578C60.5458 22.7458 60.2178 22.7898 59.8498 22.7898ZM63.971 22.6338V18.7578V16.4298H64.931L64.835 18.3738H65.039C65.143 17.9018 65.283 17.5138 65.459 17.2098C65.643 16.8978 65.863 16.6658 66.119 16.5138C66.375 16.3538 66.671 16.2738 67.007 16.2738C67.407 16.2738 67.731 16.3698 67.979 16.5618C68.235 16.7538 68.427 17.0058 68.555 17.3178C68.683 17.6298 68.747 17.9698 68.747 18.3378H68.939C69.027 17.8898 69.163 17.5138 69.347 17.2098C69.531 16.9058 69.759 16.6738 70.031 16.5138C70.311 16.3538 70.623 16.2738 70.967 16.2738C71.287 16.2738 71.567 16.3378 71.807 16.4658C72.047 16.5938 72.251 16.7858 72.419 17.0418C72.587 17.2898 72.711 17.5978 72.791 17.9658C72.871 18.3338 72.911 18.7578 72.911 19.2378V22.6338H71.819V19.3818C71.819 18.9098 71.775 18.5178 71.687 18.2058C71.599 17.8858 71.467 17.6498 71.291 17.4978C71.123 17.3378 70.907 17.2578 70.643 17.2578C70.347 17.2578 70.079 17.3618 69.839 17.5698C69.607 17.7698 69.415 18.0498 69.263 18.4098C69.119 18.7618 69.023 19.1698 68.975 19.6338V22.6338H67.907V19.4898C67.907 18.9938 67.863 18.5818 67.775 18.2538C67.687 17.9258 67.555 17.6778 67.379 17.5098C67.203 17.3418 66.983 17.2578 66.719 17.2578C66.399 17.2578 66.123 17.3658 65.891 17.5818C65.659 17.7978 65.471 18.0898 65.327 18.4578C65.191 18.8258 65.103 19.2338 65.063 19.6818V22.6338H63.971ZM77.0325 22.7898C76.6005 22.7898 76.2165 22.7418 75.8805 22.6458C75.5525 22.5578 75.2725 22.4298 75.0405 22.2618C74.8165 22.0858 74.6445 21.8818 74.5245 21.6498C74.4045 21.4098 74.3445 21.1458 74.3445 20.8578L75.2565 20.6058C75.2485 20.8698 75.3165 21.1018 75.4605 21.3018C75.6045 21.4938 75.8165 21.6418 76.0965 21.7458C76.3765 21.8498 76.7085 21.9018 77.0925 21.9018C77.5725 21.9018 77.9405 21.8218 78.1965 21.6618C78.4605 21.5018 78.5925 21.2818 78.5925 21.0018C78.5925 20.7778 78.5205 20.6058 78.3765 20.4858C78.2325 20.3578 78.0325 20.2578 77.7765 20.1858C77.5205 20.1058 77.2245 20.0338 76.8885 19.9698C76.5925 19.9058 76.3005 19.8338 76.0125 19.7538C75.7325 19.6738 75.4725 19.5698 75.2325 19.4418C75.0005 19.3058 74.8125 19.1298 74.6685 18.9138C74.5245 18.6978 74.4525 18.4298 74.4525 18.1098C74.4525 17.7338 74.5485 17.4098 74.7405 17.1378C74.9405 16.8658 75.2245 16.6538 75.5925 16.5018C75.9605 16.3498 76.4005 16.2738 76.9125 16.2738C77.4245 16.2738 77.8605 16.3538 78.2205 16.5138C78.5805 16.6658 78.8645 16.8818 79.0725 17.1618C79.2805 17.4418 79.4005 17.7658 79.4325 18.1338L78.4845 18.3858C78.4765 18.1138 78.4045 17.8898 78.2685 17.7138C78.1325 17.5298 77.9445 17.3938 77.7045 17.3058C77.4725 17.2098 77.1965 17.1618 76.8765 17.1618C76.4445 17.1618 76.1045 17.2418 75.8565 17.4018C75.6165 17.5618 75.4965 17.7818 75.4965 18.0618C75.4965 18.2698 75.5685 18.4378 75.7125 18.5658C75.8645 18.6938 76.0645 18.7938 76.3125 18.8658C76.5685 18.9378 76.8565 19.0098 77.1765 19.0818C77.4965 19.1458 77.8005 19.2178 78.0885 19.2978C78.3845 19.3778 78.6445 19.4818 78.8685 19.6098C79.1005 19.7378 79.2845 19.9098 79.4205 20.1258C79.5565 20.3338 79.6245 20.6018 79.6245 20.9298C79.6245 21.3378 79.5165 21.6818 79.3005 21.9618C79.0845 22.2338 78.7805 22.4418 78.3885 22.5858C78.0045 22.7218 77.5525 22.7898 77.0325 22.7898Z" fill="white"/>
<path d="M43.5184 39.4025C42.305 39.4025 41.3437 39.0665 40.6344 38.3945C39.925 37.7132 39.5704 36.7425 39.5704 35.4825V33.1305C39.5704 31.8705 39.925 30.9045 40.6344 30.2325C41.3437 29.5512 42.305 29.2105 43.5184 29.2105C44.7224 29.2105 45.651 29.5419 46.3044 30.2045C46.967 30.8579 47.2984 31.7585 47.2984 32.9065V32.9905H45.4784V32.8505C45.4784 32.2719 45.315 31.7959 44.9884 31.4225C44.671 31.0492 44.181 30.8625 43.5184 30.8625C42.865 30.8625 42.3517 31.0632 41.9784 31.4645C41.605 31.8659 41.4184 32.4119 41.4184 33.1025V35.5105C41.4184 36.1919 41.605 36.7379 41.9784 37.1485C42.3517 37.5499 42.865 37.7505 43.5184 37.7505C44.181 37.7505 44.671 37.5639 44.9884 37.1905C45.315 36.8079 45.4784 36.3319 45.4784 35.7625V35.5105H47.2984V35.7065C47.2984 36.8545 46.967 37.7599 46.3044 38.4225C45.651 39.0759 44.7224 39.4025 43.5184 39.4025ZM48.8041 39.2065V29.4065H50.6521V33.4525H54.2921V29.4065H56.1401V39.2065H54.2921V35.1325H50.6521V39.2065H48.8041ZM57.9916 39.2065V29.4065H64.1516V31.0865H59.8396V33.4525H63.8156V35.1325H59.8396V39.2065H57.9916ZM72.3568 39.4025C71.6195 39.4025 70.9662 39.2719 70.3968 39.0105C69.8275 38.7492 69.3795 38.3759 69.0528 37.8905C68.7355 37.3959 68.5768 36.8125 68.5768 36.1405V35.8885H70.3688V36.0845C70.3688 36.6072 70.5508 37.0272 70.9148 37.3445C71.2788 37.6525 71.7595 37.8065 72.3568 37.8065C72.9635 37.8065 73.4302 37.6619 73.7568 37.3725C74.0928 37.0832 74.2608 36.7192 74.2608 36.2805V36.1405C74.2608 35.8419 74.1862 35.5992 74.0368 35.4125C73.8875 35.2259 73.6868 35.0905 73.4348 35.0065C73.1828 34.9132 72.8982 34.8665 72.5808 34.8665H70.6208V32.9065L73.7848 31.2265V31.0025H68.8288V29.4065H75.7728V31.7865L72.8188 33.3545V33.5785H73.3368C73.7755 33.5785 74.2002 33.6672 74.6108 33.8445C75.0308 34.0219 75.3762 34.2972 75.6468 34.6705C75.9175 35.0345 76.0528 35.5105 76.0528 36.0985V36.2665C76.0528 36.9012 75.8988 37.4565 75.5908 37.9325C75.2828 38.3992 74.8488 38.7632 74.2888 39.0245C73.7382 39.2765 73.0942 39.4025 72.3568 39.4025ZM77.2064 39.2065V38.0305C77.2064 37.3492 77.3184 36.7845 77.5424 36.3365C77.7664 35.8792 78.0884 35.5059 78.5084 35.2165C78.9377 34.9179 79.4604 34.6752 80.0764 34.4885L81.0144 34.1945C81.3597 34.0825 81.6491 33.9472 81.8824 33.7885C82.1157 33.6205 82.2931 33.4199 82.4144 33.1865C82.5451 32.9532 82.6104 32.6872 82.6104 32.3885V32.3325C82.6104 31.8659 82.4517 31.4972 82.1344 31.2265C81.8171 30.9465 81.3831 30.8065 80.8324 30.8065C80.2911 30.8065 79.8524 30.9559 79.5164 31.2545C79.1897 31.5439 79.0264 31.9639 79.0264 32.5145V32.7665H77.2344V32.5425C77.2344 31.8332 77.3931 31.2312 77.7104 30.7365C78.0277 30.2419 78.4571 29.8639 78.9984 29.6025C79.5491 29.3412 80.1604 29.2105 80.8324 29.2105C81.5044 29.2105 82.1111 29.3412 82.6524 29.6025C83.1937 29.8545 83.6184 30.2139 83.9264 30.6805C84.2437 31.1379 84.4024 31.6792 84.4024 32.3045V32.4445C84.4024 33.0699 84.2717 33.6019 84.0104 34.0405C83.7584 34.4699 83.4131 34.8245 82.9744 35.1045C82.5357 35.3752 82.0364 35.5992 81.4764 35.7765L80.5804 36.0565C80.1791 36.1779 79.8664 36.3132 79.6424 36.4625C79.4184 36.6025 79.2597 36.7612 79.1664 36.9385C79.0824 37.1065 79.0404 37.3119 79.0404 37.5545V37.6105H84.3184V39.2065H77.2064ZM87.0169 39.4025C86.6436 39.4025 86.3262 39.2812 86.0649 39.0385C85.8129 38.7865 85.6869 38.4645 85.6869 38.0725C85.6869 37.6805 85.8129 37.3632 86.0649 37.1205C86.3262 36.8685 86.6436 36.7425 87.0169 36.7425C87.3996 36.7425 87.7169 36.8685 87.9689 37.1205C88.2209 37.3632 88.3469 37.6805 88.3469 38.0725C88.3469 38.4645 88.2209 38.7865 87.9689 39.0385C87.7169 39.2812 87.3996 39.4025 87.0169 39.4025ZM94.2808 39.2065V37.2185H89.4648V35.1465L92.8528 29.4065H96.0728V35.6225H97.6968V37.2185H96.0728V39.2065H94.2808ZM91.1728 35.6225H94.2808V30.5545H94.0288L91.1728 35.3985V35.6225ZM102.537 39.4025C101.38 39.4025 100.451 39.0852 99.7512 38.4505C99.0512 37.8065 98.7012 36.8359 98.7012 35.5385V33.0745C98.7012 31.8145 99.0512 30.8579 99.7512 30.2045C100.451 29.5419 101.38 29.2105 102.537 29.2105C103.704 29.2105 104.633 29.5419 105.323 30.2045C106.023 30.8579 106.373 31.8145 106.373 33.0745V35.5385C106.373 36.8359 106.023 37.8065 105.323 38.4505C104.633 39.0852 103.704 39.4025 102.537 39.4025ZM102.537 37.8065C103.237 37.8065 103.751 37.6152 104.077 37.2325C104.413 36.8499 104.581 36.3039 104.581 35.5945V32.9905C104.581 32.2719 104.395 31.7305 104.021 31.3665C103.657 30.9932 103.163 30.8065 102.537 30.8065C101.893 30.8065 101.389 30.9979 101.025 31.3805C100.671 31.7632 100.493 32.2999 100.493 32.9905V35.5945C100.493 36.3319 100.661 36.8872 100.997 37.2605C101.343 37.6245 101.856 37.8065 102.537 37.8065Z" fill="white"/>
<path d="M327.328 9.69482H227.084C217.48 9.69482 209.695 17.0737 209.695 26.176C209.695 35.2784 217.48 42.6573 227.084 42.6573H327.328C336.932 42.6573 344.717 35.2784 344.717 26.176C344.717 17.0737 336.932 9.69482 327.328 9.69482Z" fill="#8BAA3D"/>
<path d="M251.352 31.6024C250.225 31.6024 249.332 31.2904 248.674 30.6664C248.015 30.0337 247.686 29.1324 247.686 27.9624V25.7784C247.686 24.6084 248.015 23.7114 248.674 23.0874C249.332 22.4547 250.225 22.1384 251.352 22.1384C252.47 22.1384 253.332 22.4461 253.939 23.0614C254.554 23.6681 254.862 24.5044 254.862 25.5704V25.6484H253.172V25.5184C253.172 24.9811 253.02 24.5391 252.717 24.1924C252.422 23.8457 251.967 23.6724 251.352 23.6724C250.745 23.6724 250.268 23.8587 249.922 24.2314C249.575 24.6041 249.402 25.1111 249.402 25.7524V27.9884C249.402 28.6211 249.575 29.1281 249.922 29.5094C250.268 29.8821 250.745 30.0684 251.352 30.0684C251.967 30.0684 252.422 29.8951 252.717 29.5484C253.02 29.1931 253.172 28.7511 253.172 28.2224V27.9884H254.862V28.1704C254.862 29.2364 254.554 30.0771 253.939 30.6924C253.332 31.2991 252.47 31.6024 251.352 31.6024ZM256.312 31.4204V22.3204H257.95V25.7654H258.184C258.253 25.6267 258.362 25.4881 258.509 25.3494C258.656 25.2107 258.851 25.0981 259.094 25.0114C259.345 24.9161 259.662 24.8684 260.043 24.8684C260.546 24.8684 260.983 24.9854 261.356 25.2194C261.737 25.4447 262.032 25.7611 262.24 26.1684C262.448 26.5671 262.552 27.0351 262.552 27.5724V31.4204H260.914V27.7024C260.914 27.2171 260.793 26.8531 260.55 26.6104C260.316 26.3677 259.978 26.2464 259.536 26.2464C259.033 26.2464 258.643 26.4154 258.366 26.7534C258.089 27.0827 257.95 27.5464 257.95 28.1444V31.4204H256.312ZM267.261 31.6024C266.619 31.6024 266.052 31.4681 265.558 31.1994C265.072 30.9221 264.691 30.5364 264.414 30.0424C264.145 29.5397 264.011 28.9504 264.011 28.2744V28.1184C264.011 27.4424 264.145 26.8574 264.414 26.3634C264.682 25.8607 265.059 25.4751 265.545 25.2064C266.03 24.9291 266.593 24.7904 267.235 24.7904C267.867 24.7904 268.418 24.9334 268.886 25.2194C269.354 25.4967 269.718 25.8867 269.978 26.3894C270.238 26.8834 270.368 27.4597 270.368 28.1184V28.6774H265.675C265.692 29.1194 265.857 29.4791 266.169 29.7564C266.481 30.0337 266.862 30.1724 267.313 30.1724C267.772 30.1724 268.11 30.0727 268.327 29.8734C268.543 29.6741 268.708 29.4531 268.821 29.2104L270.16 29.9124C270.038 30.1377 269.861 30.3847 269.627 30.6534C269.401 30.9134 269.098 31.1387 268.717 31.3294C268.335 31.5114 267.85 31.6024 267.261 31.6024ZM265.688 27.4554H268.704C268.669 27.0827 268.517 26.7837 268.249 26.5584C267.989 26.3331 267.646 26.2204 267.222 26.2204C266.78 26.2204 266.429 26.3331 266.169 26.5584C265.909 26.7837 265.748 27.0827 265.688 27.4554ZM274.855 31.6024C274.231 31.6024 273.663 31.4724 273.152 31.2124C272.649 30.9524 272.25 30.5754 271.956 30.0814C271.661 29.5874 271.514 28.9894 271.514 28.2874V28.1054C271.514 27.4034 271.661 26.8054 271.956 26.3114C272.25 25.8174 272.649 25.4404 273.152 25.1804C273.663 24.9204 274.231 24.7904 274.855 24.7904C275.47 24.7904 275.999 24.8987 276.441 25.1154C276.883 25.3321 277.238 25.6311 277.507 26.0124C277.784 26.3851 277.966 26.8097 278.053 27.2864L276.467 27.6244C276.432 27.3644 276.354 27.1304 276.233 26.9224C276.111 26.7144 275.938 26.5497 275.713 26.4284C275.496 26.3071 275.223 26.2464 274.894 26.2464C274.564 26.2464 274.265 26.3201 273.997 26.4674C273.737 26.6061 273.529 26.8184 273.373 27.1044C273.225 27.3817 273.152 27.7241 273.152 28.1314V28.2614C273.152 28.6687 273.225 29.0154 273.373 29.3014C273.529 29.5787 273.737 29.7911 273.997 29.9384C274.265 30.0771 274.564 30.1464 274.894 30.1464C275.388 30.1464 275.76 30.0207 276.012 29.7694C276.272 29.5094 276.436 29.1714 276.506 28.7554L278.092 29.1324C277.979 29.5917 277.784 30.0121 277.507 30.3934C277.238 30.7661 276.883 31.0607 276.441 31.2774C275.999 31.4941 275.47 31.6024 274.855 31.6024ZM279.443 31.4204V22.3204H281.081V27.3514H281.315L283.447 24.9724H285.579L282.602 28.0924L285.683 31.4204H283.577L281.315 28.8594H281.081V31.4204H279.443ZM289.455 31.6024C288.814 31.6024 288.237 31.4724 287.726 31.2124C287.215 30.9524 286.812 30.5754 286.517 30.0814C286.222 29.5874 286.075 28.9937 286.075 28.3004V28.0924C286.075 27.3991 286.222 26.8054 286.517 26.3114C286.812 25.8174 287.215 25.4404 287.726 25.1804C288.237 24.9204 288.814 24.7904 289.455 24.7904C290.096 24.7904 290.673 24.9204 291.184 25.1804C291.695 25.4404 292.098 25.8174 292.393 26.3114C292.688 26.8054 292.835 27.3991 292.835 28.0924V28.3004C292.835 28.9937 292.688 29.5874 292.393 30.0814C292.098 30.5754 291.695 30.9524 291.184 31.2124C290.673 31.4724 290.096 31.6024 289.455 31.6024ZM289.455 30.1464C289.958 30.1464 290.374 29.9861 290.703 29.6654C291.032 29.3361 291.197 28.8681 291.197 28.2614V28.1314C291.197 27.5247 291.032 27.0611 290.703 26.7404C290.382 26.4111 289.966 26.2464 289.455 26.2464C288.952 26.2464 288.536 26.4111 288.207 26.7404C287.878 27.0611 287.713 27.5247 287.713 28.1314V28.2614C287.713 28.8681 287.878 29.3361 288.207 29.6654C288.536 29.9861 288.952 30.1464 289.455 30.1464ZM296.804 31.5244C296.301 31.5244 295.859 31.4117 295.478 31.1864C295.105 30.9524 294.815 30.6317 294.607 30.2244C294.399 29.8171 294.295 29.3491 294.295 28.8204V24.9724H295.933V28.6904C295.933 29.1757 296.05 29.5397 296.284 29.7824C296.527 30.0251 296.869 30.1464 297.311 30.1464C297.814 30.1464 298.204 29.9817 298.481 29.6524C298.758 29.3144 298.897 28.8464 298.897 28.2484V24.9724H300.535V31.4204H298.923V30.5754H298.689C298.585 30.7921 298.39 31.0044 298.104 31.2124C297.818 31.4204 297.385 31.5244 296.804 31.5244ZM304.828 31.4204C304.403 31.4204 304.056 31.2904 303.788 31.0304C303.528 30.7617 303.398 30.4064 303.398 29.9644V26.3244H301.786V24.9724H303.398V22.9704H305.036V24.9724H306.804V26.3244H305.036V29.6784C305.036 29.9384 305.157 30.0684 305.4 30.0684H306.648V31.4204H304.828Z" fill="white"/>
<path d="M320.168 26.1763H328.351" stroke="white" stroke-width="1.5" stroke-linecap="round"/>
<path d="M325.282 22.2983L329.374 26.1763L325.282 30.0542" stroke="white" stroke-width="1.5" stroke-linecap="round" stroke-linejoin="round"/>
<defs>
<linearGradient id="paint0_linear_77_778" x1="0" y1="0" x2="0" y2="52.3521" gradientUnits="userSpaceOnUse">
<stop stop-color="#1B3C2A"/>
<stop offset="1" stop-color="#244832"/>
</linearGradient>
</defs>
</svg>
