<svg width="346" height="55" viewBox="0 0 346 55" fill="none" xmlns="http://www.w3.org/2000/svg">
<path d="M330.997 0.600098H14.9207C7.01165 0.600098 0.600098 7.02996 0.600098 14.9616V39.5813C0.600098 47.513 7.01165 53.9428 14.9207 53.9428H330.997C338.906 53.9428 345.318 47.513 345.318 39.5813V14.9616C345.318 7.02996 338.906 0.600098 330.997 0.600098Z" fill="white" stroke="#D4D1C8" stroke-width="1.2"/>
<path d="M34.8672 19.0649H21.5695C20.1571 19.0649 19.0122 20.2131 19.0122 21.6295V29.8361C19.0122 31.2524 20.1571 32.4006 21.5695 32.4006H34.8672C36.2795 32.4006 37.4244 31.2524 37.4244 29.8361V21.6295C37.4244 20.2131 36.2795 19.0649 34.8672 19.0649Z" stroke="#8A8F84" stroke-width="1.3"/>
<path d="M19.6001 20.6001L28.1001 26.6001L36.6001 20.6001" stroke="#8A8F84" stroke-width="1.3" stroke-linecap="round" stroke-linejoin="round"/>
<path d="M47.3101 31.0361C46.9274 31.0361 46.5494 30.9894 46.1761 30.8961C45.8121 30.8121 45.4761 30.6814 45.1681 30.5041C44.8601 30.3268 44.6081 30.0981 44.4121 29.8181L45.0561 28.8941C45.2708 29.2114 45.5741 29.4541 45.9661 29.6221C46.3581 29.7901 46.7874 29.8741 47.2541 29.8741C47.7768 29.8741 48.2108 29.7574 48.5561 29.5241C48.9108 29.3001 49.1768 28.9501 49.3541 28.4741C49.5314 27.9888 49.6248 27.3868 49.6341 26.6681L49.7881 25.2121H49.5221C49.4194 25.8934 49.2561 26.4394 49.0321 26.8501C48.8174 27.2514 48.5468 27.5408 48.2201 27.7181C47.9028 27.8954 47.5341 27.9841 47.1141 27.9841C46.5914 27.9841 46.1481 27.8534 45.7841 27.5921C45.4294 27.3214 45.1588 26.9294 44.9721 26.4161C44.7854 25.8934 44.6921 25.2588 44.6921 24.5121V21.3621H45.9661V24.2321C45.9661 25.1374 46.0921 25.8048 46.3441 26.2341C46.6054 26.6541 46.9928 26.8641 47.5061 26.8641C47.7861 26.8641 48.0381 26.7941 48.2621 26.6541C48.4861 26.5141 48.6774 26.3088 48.8361 26.0381C49.0041 25.7674 49.1348 25.4268 49.2281 25.0161C49.3308 24.5961 49.3961 24.1108 49.4241 23.5601V21.3621H50.6981V26.7381C50.6981 27.3074 50.6561 27.8208 50.5721 28.2781C50.4881 28.7354 50.3528 29.1321 50.1661 29.4681C49.9888 29.8134 49.7648 30.1028 49.4941 30.3361C49.2234 30.5694 48.9061 30.7421 48.5421 30.8541C48.1781 30.9754 47.7674 31.0361 47.3101 31.0361ZM56.0036 28.7821C55.3129 28.7821 54.7016 28.6328 54.1696 28.3341C53.6469 28.0261 53.2362 27.5874 52.9376 27.0181C52.6482 26.4488 52.5036 25.7581 52.5036 24.9461C52.5036 24.1061 52.6576 23.4108 52.9656 22.8601C53.2829 22.3001 53.7029 21.8801 54.2256 21.6001C54.7482 21.3201 55.3316 21.1801 55.9756 21.1801C56.6476 21.1801 57.2449 21.3294 57.7676 21.6281C58.2996 21.9174 58.7196 22.3468 59.0276 22.9161C59.3356 23.4761 59.4896 24.1714 59.4896 25.0021C59.4896 25.8328 59.3356 26.5281 59.0276 27.0881C58.7289 27.6481 58.3136 28.0728 57.7816 28.3621C57.2589 28.6421 56.6662 28.7821 56.0036 28.7821ZM56.0596 27.7321C56.5076 27.7321 56.8902 27.6248 57.2076 27.4101C57.5342 27.1861 57.7816 26.8734 57.9496 26.4721C58.1269 26.0708 58.2156 25.5948 58.2156 25.0441C58.2156 24.4748 58.1222 23.9848 57.9356 23.5741C57.7582 23.1541 57.5016 22.8321 57.1656 22.6081C56.8296 22.3748 56.4236 22.2581 55.9476 22.2581C55.5182 22.2581 55.1402 22.3608 54.8136 22.5661C54.4869 22.7714 54.2349 23.0748 54.0576 23.4761C53.8802 23.8681 53.7916 24.3488 53.7916 24.9181C53.7916 25.7954 53.9922 26.4861 54.3936 26.9901C54.8042 27.4848 55.3596 27.7321 56.0596 27.7321ZM63.6278 28.7821C62.8251 28.7821 62.2184 28.5021 61.8078 27.9421C61.3971 27.3821 61.1918 26.5468 61.1918 25.4361V21.3621H62.4798V25.3241C62.4798 26.1081 62.6011 26.6914 62.8438 27.0741C63.0864 27.4568 63.4691 27.6481 63.9918 27.6481C64.2811 27.6481 64.5378 27.5781 64.7618 27.4381C64.9951 27.2981 65.2004 27.0974 65.3778 26.8361C65.5551 26.5748 65.6998 26.2668 65.8118 25.9121C65.9238 25.5481 65.9984 25.1561 66.0358 24.7361V21.3621H67.3098V25.5761V28.6001H66.1758L66.2878 26.2761H66.0778C65.9564 26.8548 65.7838 27.3308 65.5598 27.7041C65.3451 28.0681 65.0744 28.3388 64.7478 28.5161C64.4211 28.6934 64.0478 28.7821 63.6278 28.7821ZM69.5206 28.6001V24.6801V21.3621H70.6686L70.5566 23.8821H70.7946C70.8786 23.3314 71.0092 22.8554 71.1866 22.4541C71.3639 22.0528 71.5972 21.7401 71.8866 21.5161C72.1852 21.2921 72.5539 21.1801 72.9926 21.1801C73.0859 21.1801 73.1932 21.1894 73.3146 21.2081C73.4359 21.2174 73.5759 21.2501 73.7346 21.3061L73.6646 22.6361C73.5246 22.5801 73.3846 22.5428 73.2446 22.5241C73.1046 22.4961 72.9692 22.4821 72.8386 22.4821C72.4746 22.4821 72.1572 22.5988 71.8866 22.8321C71.6252 23.0654 71.4059 23.3828 71.2286 23.7841C71.0512 24.1761 70.9066 24.6194 70.7946 25.1141V28.6001H69.5206ZM80.476 30.0421C79.5987 30.0421 78.81 29.9301 78.11 29.7061C77.4193 29.4821 76.8313 29.1461 76.346 28.6981C75.87 28.2594 75.506 27.7134 75.254 27.0601C75.002 26.4068 74.876 25.6461 74.876 24.7781C74.876 23.9194 75.002 23.1634 75.254 22.5101C75.506 21.8474 75.87 21.2921 76.346 20.8441C76.8313 20.3961 77.4193 20.0601 78.11 19.8361C78.81 19.6121 79.5987 19.5001 80.476 19.5001C81.3533 19.5001 82.1373 19.6121 82.828 19.8361C83.528 20.0601 84.116 20.3961 84.592 20.8441C85.0773 21.2921 85.446 21.8474 85.698 22.5101C85.9593 23.1634 86.09 23.9194 86.09 24.7781C86.09 25.6461 85.9593 26.4068 85.698 27.0601C85.446 27.7134 85.0773 28.2594 84.592 28.6981C84.1067 29.1461 83.5187 29.4821 82.828 29.7061C82.1373 29.9301 81.3533 30.0421 80.476 30.0421ZM80.476 28.9781C81.4467 28.9781 82.2587 28.8241 82.912 28.5161C83.5747 28.2081 84.0787 27.7461 84.424 27.1301C84.7693 26.5048 84.942 25.7208 84.942 24.7781C84.942 23.8354 84.7693 23.0561 84.424 22.4401C84.088 21.8148 83.584 21.3481 82.912 21.0401C82.2493 20.7228 81.4373 20.5641 80.476 20.5641C79.5053 20.5641 78.6887 20.7228 78.026 21.0401C77.3633 21.3481 76.864 21.8148 76.528 22.4401C76.192 23.0561 76.024 23.8354 76.024 24.7781C76.024 25.7208 76.192 26.5048 76.528 27.1301C76.864 27.7461 77.3633 28.2081 78.026 28.5161C78.6887 28.8241 79.5053 28.9781 80.476 28.9781ZM79.916 26.6821C80.0653 26.6821 80.2193 26.6588 80.378 26.6121C80.546 26.5654 80.7047 26.4908 80.854 26.3881C81.0127 26.2854 81.162 26.1548 81.302 25.9961C81.442 25.8281 81.5633 25.6228 81.666 25.3801L81.652 24.3161L81.946 24.3861C81.8153 24.5261 81.6333 24.6288 81.4 24.6941C81.1667 24.7501 80.91 24.8014 80.63 24.8481C80.3593 24.8854 80.098 24.9368 79.846 25.0021C79.6033 25.0674 79.398 25.1654 79.23 25.2961C79.0713 25.4268 78.992 25.6274 78.992 25.8981C78.992 26.1501 79.0807 26.3461 79.258 26.4861C79.4353 26.6168 79.6547 26.6821 79.916 26.6821ZM79.566 27.5221C79.2673 27.5221 78.9873 27.4708 78.726 27.3681C78.4647 27.2561 78.25 27.0928 78.082 26.8781C77.9233 26.6541 77.844 26.3694 77.844 26.0241C77.844 25.6694 77.9187 25.3848 78.068 25.1701C78.2267 24.9554 78.4273 24.7874 78.67 24.6661C78.922 24.5354 79.1973 24.4421 79.496 24.3861C79.7947 24.3208 80.084 24.2694 80.364 24.2321C80.7 24.1948 80.9613 24.1528 81.148 24.1061C81.3347 24.0501 81.4653 23.9848 81.54 23.9101C81.6147 23.8261 81.652 23.7141 81.652 23.5741C81.652 23.4248 81.61 23.2894 81.526 23.1681C81.4513 23.0468 81.33 22.9488 81.162 22.8741C81.0033 22.7901 80.798 22.7481 80.546 22.7481C80.35 22.7481 80.1447 22.7808 79.93 22.8461C79.7247 22.9021 79.5473 23.0094 79.398 23.1681C79.2487 23.3268 79.1507 23.5554 79.104 23.8541L78.012 23.5321C78.0587 23.2521 78.152 23.0048 78.292 22.7901C78.4413 22.5754 78.628 22.3934 78.852 22.2441C79.076 22.0948 79.3327 21.9828 79.622 21.9081C79.9113 21.8241 80.2287 21.7821 80.574 21.7821C81.0593 21.7821 81.4513 21.8568 81.75 22.0061C82.0487 22.1461 82.2727 22.3281 82.422 22.5521C82.5807 22.7761 82.688 23.0188 82.744 23.2801C82.8 23.5414 82.828 23.7934 82.828 24.0361V25.2821C82.828 25.4501 82.8327 25.6228 82.842 25.8001C82.8513 25.9681 82.856 26.1408 82.856 26.3181C82.8653 26.4954 82.8747 26.6728 82.884 26.8501C82.9027 27.0181 82.912 27.1908 82.912 27.3681H81.932C81.9133 27.1254 81.8947 26.8921 81.876 26.6681C81.8573 26.4348 81.8433 26.2154 81.834 26.0101H81.666C81.5633 26.3181 81.4093 26.5888 81.204 26.8221C81.008 27.0461 80.77 27.2188 80.49 27.3401C80.21 27.4614 79.902 27.5221 79.566 27.5221ZM91.236 28.7821C90.6666 28.7821 90.1626 28.6981 89.724 28.5301C89.2946 28.3528 88.9306 28.1008 88.632 27.7741C88.3333 27.4474 88.1093 27.0601 87.96 26.6121C87.8106 26.1641 87.736 25.6601 87.736 25.1001C87.736 24.5308 87.8106 24.0081 87.96 23.5321C88.1093 23.0561 88.3286 22.6408 88.618 22.2861C88.9073 21.9314 89.262 21.6608 89.682 21.4741C90.102 21.2781 90.5826 21.1801 91.124 21.1801C91.6 21.1801 92.034 21.2594 92.426 21.4181C92.818 21.5768 93.1493 21.8241 93.42 22.1601C93.7 22.4868 93.91 22.9021 94.05 23.4061C94.19 23.9008 94.246 24.4841 94.218 25.1561L88.534 25.1981V24.3301L93.448 24.2881L93.014 24.8761C93.0606 24.2881 93.0046 23.8028 92.846 23.4201C92.6873 23.0374 92.4586 22.7481 92.16 22.5521C91.8706 22.3561 91.5253 22.2581 91.124 22.2581C90.6946 22.2581 90.3166 22.3701 89.99 22.5941C89.6633 22.8181 89.4113 23.1401 89.234 23.5601C89.066 23.9801 88.982 24.4888 88.982 25.0861C88.982 25.9448 89.1733 26.6028 89.556 27.0601C89.9386 27.5081 90.508 27.7321 91.264 27.7321C91.5533 27.7321 91.8053 27.6994 92.02 27.6341C92.244 27.5594 92.4306 27.4614 92.58 27.3401C92.7386 27.2094 92.8646 27.0601 92.958 26.8921C93.0606 26.7241 93.14 26.5421 93.196 26.3461L94.316 26.6121C94.232 26.9481 94.1013 27.2514 93.924 27.5221C93.756 27.7834 93.5413 28.0074 93.28 28.1941C93.028 28.3808 92.734 28.5254 92.398 28.6281C92.062 28.7308 91.6746 28.7821 91.236 28.7821ZM96.0303 28.6001V24.1201V21.3621H97.1643L97.0383 23.6581H97.2763C97.3976 23.1074 97.561 22.6501 97.7663 22.2861C97.9716 21.9128 98.2236 21.6374 98.5223 21.4601C98.8303 21.2734 99.1803 21.1801 99.5723 21.1801C100.039 21.1801 100.422 21.2968 100.72 21.5301C101.019 21.7541 101.238 22.0481 101.378 22.4121C101.528 22.7761 101.602 23.1774 101.602 23.6161H101.826C101.929 23.0934 102.088 22.6501 102.302 22.2861C102.517 21.9221 102.783 21.6468 103.1 21.4601C103.418 21.2734 103.782 21.1801 104.192 21.1801C104.566 21.1801 104.892 21.2548 105.172 21.4041C105.452 21.5534 105.69 21.7774 105.886 22.0761C106.082 22.3654 106.227 22.7248 106.32 23.1541C106.414 23.5834 106.46 24.0781 106.46 24.6381V28.6001H105.186V24.8061C105.186 24.2554 105.135 23.7981 105.032 23.4341C104.93 23.0608 104.776 22.7854 104.57 22.6081C104.374 22.4214 104.122 22.3281 103.814 22.3281C103.469 22.3281 103.156 22.4494 102.876 22.6921C102.606 22.9254 102.382 23.2568 102.204 23.6861C102.036 24.1061 101.924 24.5868 101.868 25.1281V28.6001H100.622V24.9321C100.622 24.3534 100.571 23.8728 100.468 23.4901C100.366 23.1074 100.212 22.8181 100.006 22.6221C99.8103 22.4261 99.5536 22.3281 99.2363 22.3281C98.863 22.3281 98.541 22.4588 98.2703 22.7201C97.9996 22.9721 97.7803 23.3128 97.6123 23.7421C97.4536 24.1714 97.351 24.6521 97.3043 25.1841V28.6001H96.0303ZM110.22 28.7821C109.828 28.7821 109.473 28.7074 109.156 28.5581C108.838 28.3994 108.586 28.1708 108.4 27.8721C108.213 27.5641 108.12 27.1768 108.12 26.7101C108.12 26.3648 108.18 26.0614 108.302 25.8001C108.432 25.5388 108.628 25.3148 108.89 25.1281C109.16 24.9414 109.506 24.7874 109.926 24.6661C110.346 24.5448 110.859 24.4421 111.466 24.3581C111.811 24.3114 112.091 24.2648 112.306 24.2181C112.53 24.1714 112.693 24.0968 112.796 23.9941C112.898 23.8821 112.95 23.7188 112.95 23.5041C112.95 23.1494 112.828 22.8508 112.586 22.6081C112.343 22.3654 111.96 22.2441 111.438 22.2441C111.167 22.2441 110.892 22.2908 110.612 22.3841C110.332 22.4774 110.084 22.6361 109.87 22.8601C109.664 23.0748 109.534 23.3781 109.478 23.7701L108.302 23.3781C108.376 23.0421 108.498 22.7388 108.666 22.4681C108.843 22.1974 109.067 21.9688 109.338 21.7821C109.608 21.5861 109.921 21.4368 110.276 21.3341C110.64 21.2314 111.041 21.1801 111.48 21.1801C112.086 21.1801 112.59 21.2828 112.992 21.4881C113.402 21.6934 113.706 22.0108 113.902 22.4401C114.107 22.8601 114.21 23.4014 114.21 24.0641V25.6741C114.21 25.9634 114.214 26.2808 114.224 26.6261C114.242 26.9621 114.266 27.3028 114.294 27.6481C114.322 27.9841 114.35 28.3014 114.378 28.6001H113.202C113.174 28.3014 113.146 28.0028 113.118 27.7041C113.099 27.4054 113.085 27.1068 113.076 26.8081H112.894C112.754 27.1534 112.567 27.4754 112.334 27.7741C112.1 28.0728 111.806 28.3154 111.452 28.5021C111.106 28.6888 110.696 28.7821 110.22 28.7821ZM110.598 27.7461C110.803 27.7461 111.008 27.7134 111.214 27.6481C111.428 27.5828 111.638 27.4754 111.844 27.3261C112.058 27.1768 112.259 26.9854 112.446 26.7521C112.642 26.5188 112.814 26.2388 112.964 25.9121V24.5121L113.328 24.5821C113.178 24.7314 112.978 24.8434 112.726 24.9181C112.483 24.9928 112.212 25.0534 111.914 25.1001C111.615 25.1468 111.316 25.1981 111.018 25.2541C110.719 25.3008 110.444 25.3754 110.192 25.4781C109.949 25.5714 109.753 25.7068 109.604 25.8841C109.454 26.0614 109.38 26.3041 109.38 26.6121C109.38 26.9854 109.492 27.2701 109.716 27.4661C109.94 27.6528 110.234 27.7461 110.598 27.7461ZM116.361 28.6001V21.3621H117.635V28.6001H116.361ZM117.005 20.1021C116.706 20.1021 116.482 20.0414 116.333 19.9201C116.183 19.7988 116.109 19.6168 116.109 19.3741C116.109 19.1314 116.183 18.9494 116.333 18.8281C116.482 18.7068 116.701 18.6461 116.991 18.6461C117.289 18.6461 117.513 18.7068 117.663 18.8281C117.812 18.9494 117.887 19.1314 117.887 19.3741C117.887 19.6074 117.812 19.7894 117.663 19.9201C117.513 20.0414 117.294 20.1021 117.005 20.1021ZM119.847 28.6001V18.8001H121.121V28.6001H119.847ZM123.432 28.7681C123.133 28.7681 122.909 28.7028 122.76 28.5721C122.61 28.4414 122.536 28.2314 122.536 27.9421C122.536 27.6621 122.61 27.4568 122.76 27.3261C122.909 27.1954 123.133 27.1301 123.432 27.1301C123.74 27.1301 123.968 27.1954 124.118 27.3261C124.276 27.4568 124.356 27.6668 124.356 27.9561C124.356 28.4974 124.048 28.7681 123.432 28.7681ZM128.779 28.7821C128.144 28.7821 127.603 28.6794 127.155 28.4741C126.716 28.2688 126.357 27.9934 126.077 27.6481C125.806 27.3028 125.606 26.9061 125.475 26.4581C125.354 26.0101 125.293 25.5434 125.293 25.0581C125.293 24.5261 125.363 24.0268 125.503 23.5601C125.643 23.0934 125.853 22.6828 126.133 22.3281C126.422 21.9641 126.777 21.6841 127.197 21.4881C127.626 21.2828 128.126 21.1801 128.695 21.1801C129.246 21.1801 129.731 21.2781 130.151 21.4741C130.571 21.6608 130.912 21.9268 131.173 22.2721C131.444 22.6174 131.616 23.0281 131.691 23.5041L130.473 23.8401C130.454 23.5788 130.375 23.3268 130.235 23.0841C130.104 22.8414 129.908 22.6454 129.647 22.4961C129.386 22.3374 129.064 22.2581 128.681 22.2581C128.317 22.2581 128.004 22.3281 127.743 22.4681C127.491 22.6081 127.276 22.8041 127.099 23.0561C126.931 23.3081 126.8 23.6021 126.707 23.9381C126.623 24.2741 126.581 24.6381 126.581 25.0301C126.581 25.5714 126.656 26.0428 126.805 26.4441C126.964 26.8454 127.206 27.1581 127.533 27.3821C127.86 27.6061 128.28 27.7181 128.793 27.7181C129.176 27.7181 129.502 27.6528 129.773 27.5221C130.044 27.3821 130.258 27.1908 130.417 26.9481C130.576 26.6961 130.678 26.4021 130.725 26.0661L131.901 26.3321C131.836 26.7334 131.714 27.0881 131.537 27.3961C131.36 27.7041 131.136 27.9608 130.865 28.1661C130.594 28.3621 130.282 28.5114 129.927 28.6141C129.582 28.7261 129.199 28.7821 128.779 28.7821ZM136.463 28.7821C135.772 28.7821 135.161 28.6328 134.629 28.3341C134.106 28.0261 133.695 27.5874 133.397 27.0181C133.107 26.4488 132.963 25.7581 132.963 24.9461C132.963 24.1061 133.117 23.4108 133.425 22.8601C133.742 22.3001 134.162 21.8801 134.685 21.6001C135.207 21.3201 135.791 21.1801 136.435 21.1801C137.107 21.1801 137.704 21.3294 138.227 21.6281C138.759 21.9174 139.179 22.3468 139.487 22.9161C139.795 23.4761 139.949 24.1714 139.949 25.0021C139.949 25.8328 139.795 26.5281 139.487 27.0881C139.188 27.6481 138.773 28.0728 138.241 28.3621C137.718 28.6421 137.125 28.7821 136.463 28.7821ZM136.519 27.7321C136.967 27.7321 137.349 27.6248 137.667 27.4101C137.993 27.1861 138.241 26.8734 138.409 26.4721C138.586 26.0708 138.675 25.5948 138.675 25.0441C138.675 24.4748 138.581 23.9848 138.395 23.5741C138.217 23.1541 137.961 22.8321 137.625 22.6081C137.289 22.3748 136.883 22.2581 136.407 22.2581C135.977 22.2581 135.599 22.3608 135.273 22.5661C134.946 22.7714 134.694 23.0748 134.517 23.4761C134.339 23.8681 134.251 24.3488 134.251 24.9181C134.251 25.7954 134.451 26.4861 134.853 26.9901C135.263 27.4848 135.819 27.7321 136.519 27.7321ZM141.763 28.6001V24.1201V21.3621H142.897L142.771 23.6581H143.009C143.13 23.1074 143.293 22.6501 143.499 22.2861C143.704 21.9128 143.956 21.6374 144.255 21.4601C144.563 21.2734 144.913 21.1801 145.305 21.1801C145.771 21.1801 146.154 21.2968 146.453 21.5301C146.751 21.7541 146.971 22.0481 147.111 22.4121C147.26 22.7761 147.335 23.1774 147.335 23.6161H147.559C147.661 23.0934 147.82 22.6501 148.035 22.2861C148.249 21.9221 148.515 21.6468 148.833 21.4601C149.15 21.2734 149.514 21.1801 149.925 21.1801C150.298 21.1801 150.625 21.2548 150.905 21.4041C151.185 21.5534 151.423 21.7774 151.619 22.0761C151.815 22.3654 151.959 22.7248 152.053 23.1541C152.146 23.5834 152.193 24.0781 152.193 24.6381V28.6001H150.919V24.8061C150.919 24.2554 150.867 23.7981 150.765 23.4341C150.662 23.0608 150.508 22.7854 150.303 22.6081C150.107 22.4214 149.855 22.3281 149.547 22.3281C149.201 22.3281 148.889 22.4494 148.609 22.6921C148.338 22.9254 148.114 23.2568 147.937 23.6861C147.769 24.1061 147.657 24.5868 147.601 25.1281V28.6001H146.355V24.9321C146.355 24.3534 146.303 23.8728 146.201 23.4901C146.098 23.1074 145.944 22.8181 145.739 22.6221C145.543 22.4261 145.286 22.3281 144.969 22.3281C144.595 22.3281 144.273 22.4588 144.003 22.7201C143.732 22.9721 143.513 23.3128 143.345 23.7421C143.186 24.1714 143.083 24.6521 143.037 25.1841V28.6001H141.763Z" fill="#B0ADA4"/>
<path d="M43.6001 30.3501H44.236V31.0501H43.6001V30.3501ZM50.1673 30.3501H153.187V31.0501H50.1673V30.3501Z" fill="#B0ADA4"/>
<a href="mailto:your@email.com">
<rect fill="black" fill-opacity="0" y="0.1" width="109.587" height="16.8"/>
</a>
</svg>
