<svg width="160" height="300" viewBox="0 0 160 300" fill="none" xmlns="http://www.w3.org/2000/svg">
<rect x="0.5" y="0.5" width="159" height="299" rx="4.5" stroke="#9747FF" stroke-dasharray="10 5"/>
<path d="M80 20C91.8669 20 103.467 23.5189 113.334 30.1118C123.201 36.7047 130.892 46.0754 135.433 57.0389C139.974 68.0025 141.162 80.0666 138.847 91.7054C136.532 103.344 130.818 114.035 122.427 122.426C114.035 130.818 103.344 136.532 91.7053 138.847C80.0665 141.162 68.0026 139.974 57.0391 135.433C46.0755 130.891 36.7047 123.201 30.1118 113.334C23.5189 103.467 20 91.8669 20 80C20 80 22.2236 73.5 30.1118 73.5C38 73.5 39.7415 80 39.7415 80C39.7415 87.9624 42.1027 95.746 46.5264 102.366C50.95 108.987 57.2375 114.147 64.5938 117.194C71.95 120.241 80.0446 121.038 87.854 119.485C95.6634 117.932 102.837 114.097 108.467 108.467C114.097 102.837 117.931 95.6634 119.485 87.854C121.038 80.0446 120.241 71.95 117.194 64.5938C114.147 57.2375 108.987 50.9499 102.366 46.5262C95.746 42.1026 87.9624 39.7415 80 39.7415V20Z" fill="#3B6D11"/>
<path d="M140 220C140 253.137 113.137 280 80 280C46.8629 280 20 253.137 20 220C20 186.863 46.8629 160 80 160C113.137 160 140 186.863 140 220ZM39.7415 220C39.7415 242.234 57.7658 260.259 80 260.259C102.234 260.259 120.259 242.234 120.259 220C120.259 197.766 102.234 179.741 80 179.741C57.7658 179.741 39.7415 197.766 39.7415 220Z" fill="#3B6D11"/>
</svg>
