<svg width="385" height="281" viewBox="0 0 385 281" fill="none" xmlns="http://www.w3.org/2000/svg">
<rect x="0.5" y="0.5" width="383.427" height="279.545" rx="4.5" stroke="#9747FF" stroke-dasharray="10 5"/>
<path d="M105.924 20H42.5038C30.0753 20 20 30.1041 20 42.5681C20 55.0321 30.0753 65.1362 42.5038 65.1362H105.924C118.352 65.1362 128.427 55.0321 128.427 42.5681C128.427 30.1041 118.352 20 105.924 20Z" fill="white" stroke="#D4D1C8" stroke-width="1.2"/>
<path d="M60.2525 47V37.9H62.3325L64.7505 46.311H64.9195L67.3375 37.9H69.4175V47H68.3645V38.615H68.1825L65.7775 47H63.8925L61.4875 38.615H61.3055V47H60.2525ZM73.4896 47.182C73.0476 47.182 72.6446 47.104 72.2806 46.948C71.9166 46.792 71.6306 46.5667 71.4226 46.272C71.2146 45.9773 71.1106 45.6177 71.1106 45.193C71.1106 44.7597 71.2146 44.4043 71.4226 44.127C71.6306 43.841 71.9166 43.6287 72.2806 43.49C72.6446 43.3427 73.0519 43.269 73.5026 43.269H75.6476V42.801C75.6476 42.3503 75.5132 41.995 75.2446 41.735C74.9846 41.475 74.5946 41.345 74.0746 41.345C73.5632 41.345 73.1646 41.4707 72.8786 41.722C72.5926 41.9647 72.3976 42.294 72.2936 42.71L71.3316 42.398C71.4356 42.0427 71.6002 41.722 71.8256 41.436C72.0509 41.1413 72.3499 40.9073 72.7226 40.734C73.1039 40.552 73.5589 40.461 74.0876 40.461C74.9022 40.461 75.5349 40.6733 75.9856 41.098C76.4362 41.514 76.6616 42.1033 76.6616 42.866V45.739C76.6616 45.999 76.7829 46.129 77.0256 46.129H77.6106V47H76.7136C76.4276 47 76.1979 46.922 76.0246 46.766C75.8512 46.6013 75.7646 46.3847 75.7646 46.116V46.051H75.6086C75.5132 46.2157 75.3832 46.389 75.2186 46.571C75.0626 46.7443 74.8459 46.8873 74.5686 47C74.2912 47.1213 73.9316 47.182 73.4896 47.182ZM73.6066 46.298C74.2132 46.298 74.7029 46.1203 75.0756 45.765C75.4569 45.401 75.6476 44.894 75.6476 44.244V44.101H73.5416C73.1342 44.101 72.7962 44.192 72.5276 44.374C72.2676 44.5473 72.1376 44.8117 72.1376 45.167C72.1376 45.5223 72.2719 45.7997 72.5406 45.999C72.8179 46.1983 73.1732 46.298 73.6066 46.298ZM79.0171 47V37.9H80.0441V47H79.0171ZM85.1156 47.182C84.4743 47.182 83.911 47.0477 83.4256 46.779C82.9403 46.5017 82.5633 46.116 82.2946 45.622C82.026 45.128 81.8916 44.556 81.8916 43.906V43.75C81.8916 43.0913 82.026 42.515 82.2946 42.021C82.5633 41.527 82.936 41.1457 83.4126 40.877C83.8893 40.5997 84.4353 40.461 85.0506 40.461C85.6486 40.461 86.1773 40.591 86.6366 40.851C87.096 41.1023 87.4556 41.4663 87.7156 41.943C87.9756 42.4197 88.1056 42.9787 88.1056 43.62V44.088H82.9186C82.9446 44.7727 83.1656 45.31 83.5816 45.7C83.9976 46.0813 84.5176 46.272 85.1416 46.272C85.6876 46.272 86.108 46.1463 86.4026 45.895C86.6973 45.6437 86.9226 45.3447 87.0786 44.998L87.9626 45.427C87.8326 45.6957 87.6506 45.9643 87.4166 46.233C87.1913 46.5017 86.8923 46.727 86.5196 46.909C86.1556 47.091 85.6876 47.182 85.1156 47.182ZM82.9316 43.243H87.0656C87.031 42.6537 86.8273 42.1943 86.4546 41.865C86.0906 41.5357 85.6226 41.371 85.0506 41.371C84.47 41.371 83.9933 41.5357 83.6206 41.865C83.248 42.1943 83.0183 42.6537 82.9316 43.243Z" fill="#1B3C2A"/>
<path d="M223.924 20H160.504C148.075 20 138 30.1041 138 42.5681C138 55.0321 148.075 65.1362 160.504 65.1362H223.924C236.352 65.1362 246.427 55.0321 246.427 42.5681C246.427 30.1041 236.352 20 223.924 20Z" fill="white" stroke="#D4D1C8" stroke-width="1.2"/>
<path d="M170.965 47V37.9H176.464V38.888H172.057V41.943H176.113V42.931H172.057V47H170.965ZM180.861 47.182C180.219 47.182 179.656 47.0477 179.171 46.779C178.685 46.5017 178.308 46.116 178.04 45.622C177.771 45.128 177.637 44.556 177.637 43.906V43.75C177.637 43.0913 177.771 42.515 178.04 42.021C178.308 41.527 178.681 41.1457 179.158 40.877C179.634 40.5997 180.18 40.461 180.796 40.461C181.394 40.461 181.922 40.591 182.382 40.851C182.841 41.1023 183.201 41.4663 183.461 41.943C183.721 42.4197 183.851 42.9787 183.851 43.62V44.088H178.664C178.69 44.7727 178.911 45.31 179.327 45.7C179.743 46.0813 180.263 46.272 180.887 46.272C181.433 46.272 181.853 46.1463 182.148 45.895C182.442 45.6437 182.668 45.3447 182.824 44.998L183.708 45.427C183.578 45.6957 183.396 45.9643 183.162 46.233C182.936 46.5017 182.637 46.727 182.265 46.909C181.901 47.091 181.433 47.182 180.861 47.182ZM178.677 43.243H182.811C182.776 42.6537 182.572 42.1943 182.2 41.865C181.836 41.5357 181.368 41.371 180.796 41.371C180.215 41.371 179.738 41.5357 179.366 41.865C178.993 42.1943 178.763 42.6537 178.677 43.243ZM185.642 47V40.643H186.643V41.436H186.825C186.946 41.2107 187.146 41.0027 187.423 40.812C187.7 40.6213 188.09 40.526 188.593 40.526C189.087 40.526 189.486 40.6343 189.789 40.851C190.101 41.0677 190.326 41.332 190.465 41.644H190.647C190.794 41.332 191.015 41.0677 191.31 40.851C191.613 40.6343 192.034 40.526 192.571 40.526C192.996 40.526 193.368 40.6127 193.689 40.786C194.01 40.9593 194.261 41.2107 194.443 41.54C194.634 41.8607 194.729 42.2463 194.729 42.697V47H193.702V42.788C193.702 42.3633 193.576 42.0297 193.325 41.787C193.082 41.5357 192.74 41.41 192.298 41.41C191.83 41.41 191.444 41.5617 191.141 41.865C190.846 42.1683 190.699 42.606 190.699 43.178V47H189.672V42.788C189.672 42.3633 189.546 42.0297 189.295 41.787C189.052 41.5357 188.71 41.41 188.268 41.41C187.8 41.41 187.414 41.5617 187.111 41.865C186.816 42.1683 186.669 42.606 186.669 43.178V47H185.642ZM198.777 47.182C198.335 47.182 197.932 47.104 197.568 46.948C197.204 46.792 196.918 46.5667 196.71 46.272C196.502 45.9773 196.398 45.6177 196.398 45.193C196.398 44.7597 196.502 44.4043 196.71 44.127C196.918 43.841 197.204 43.6287 197.568 43.49C197.932 43.3427 198.339 43.269 198.79 43.269H200.935V42.801C200.935 42.3503 200.8 41.995 200.532 41.735C200.272 41.475 199.882 41.345 199.362 41.345C198.85 41.345 198.452 41.4707 198.166 41.722C197.88 41.9647 197.685 42.294 197.581 42.71L196.619 42.398C196.723 42.0427 196.887 41.722 197.113 41.436C197.338 41.1413 197.637 40.9073 198.01 40.734C198.391 40.552 198.846 40.461 199.375 40.461C200.189 40.461 200.822 40.6733 201.273 41.098C201.723 41.514 201.949 42.1033 201.949 42.866V45.739C201.949 45.999 202.07 46.129 202.313 46.129H202.898V47H202.001C201.715 47 201.485 46.922 201.312 46.766C201.138 46.6013 201.052 46.3847 201.052 46.116V46.051H200.896C200.8 46.2157 200.67 46.389 200.506 46.571C200.35 46.7443 200.133 46.8873 199.856 47C199.578 47.1213 199.219 47.182 198.777 47.182ZM198.894 46.298C199.5 46.298 199.99 46.1203 200.363 45.765C200.744 45.401 200.935 44.894 200.935 44.244V44.101H198.829C198.421 44.101 198.083 44.192 197.815 44.374C197.555 44.5473 197.425 44.8117 197.425 45.167C197.425 45.5223 197.559 45.7997 197.828 45.999C198.105 46.1983 198.46 46.298 198.894 46.298ZM204.304 47V37.9H205.331V47H204.304ZM210.403 47.182C209.761 47.182 209.198 47.0477 208.713 46.779C208.227 46.5017 207.85 46.116 207.582 45.622C207.313 45.128 207.179 44.556 207.179 43.906V43.75C207.179 43.0913 207.313 42.515 207.582 42.021C207.85 41.527 208.223 41.1457 208.7 40.877C209.176 40.5997 209.722 40.461 210.338 40.461C210.936 40.461 211.464 40.591 211.924 40.851C212.383 41.1023 212.743 41.4663 213.003 41.943C213.263 42.4197 213.393 42.9787 213.393 43.62V44.088H208.206C208.232 44.7727 208.453 45.31 208.869 45.7C209.285 46.0813 209.805 46.272 210.429 46.272C210.975 46.272 211.395 46.1463 211.69 45.895C211.984 45.6437 212.21 45.3447 212.366 44.998L213.25 45.427C213.12 45.6957 212.938 45.9643 212.704 46.233C212.478 46.5017 212.179 46.727 211.807 46.909C211.443 47.091 210.975 47.182 210.403 47.182ZM208.219 43.243H212.353C212.318 42.6537 212.114 42.1943 211.742 41.865C211.378 41.5357 210.91 41.371 210.338 41.371C209.757 41.371 209.28 41.5357 208.908 41.865C208.535 42.1943 208.305 42.6537 208.219 43.243Z" fill="#1B3C2A"/>
<path d="M341.924 20H278.504C266.075 20 256 30.1041 256 42.5681C256 55.0321 266.075 65.1362 278.504 65.1362H341.924C354.352 65.1362 364.427 55.0321 364.427 42.5681C364.427 30.1041 354.352 20 341.924 20Z" fill="white" stroke="#D4D1C8" stroke-width="1.2"/>
<path d="M296.736 47.182C295.653 47.182 294.786 46.87 294.136 46.246C293.495 45.6133 293.174 44.6947 293.174 43.49V41.41C293.174 40.2053 293.495 39.291 294.136 38.667C294.786 38.0343 295.653 37.718 296.736 37.718C297.828 37.718 298.695 38.0343 299.336 38.667C299.986 39.291 300.311 40.2053 300.311 41.41V43.49C300.311 44.6947 299.986 45.6133 299.336 46.246C298.695 46.87 297.828 47.182 296.736 47.182ZM296.736 46.207C297.525 46.207 298.136 45.973 298.569 45.505C299.003 45.0283 299.219 44.3697 299.219 43.529V41.371C299.219 40.5303 299.003 39.876 298.569 39.408C298.136 38.9313 297.525 38.693 296.736 38.693C295.956 38.693 295.35 38.9313 294.916 39.408C294.483 39.876 294.266 40.5303 294.266 41.371V43.529C294.266 44.3697 294.483 45.0283 294.916 45.505C295.35 45.973 295.956 46.207 296.736 46.207ZM304.509 47C304.145 47 303.864 46.9003 303.664 46.701C303.474 46.5017 303.378 46.2287 303.378 45.882V41.54H301.467V40.643H303.378V38.381H304.405V40.643H306.485V41.54H304.405V45.726C304.405 45.986 304.531 46.116 304.782 46.116H306.199V47H304.509ZM308.149 47V37.9H309.176V41.657H309.358C309.445 41.4663 309.575 41.2887 309.748 41.124C309.93 40.9507 310.16 40.8077 310.437 40.695C310.723 40.5823 311.083 40.526 311.516 40.526C311.993 40.526 312.417 40.63 312.79 40.838C313.171 41.0373 313.475 41.332 313.7 41.722C313.925 42.1033 314.038 42.58 314.038 43.152V47H313.011V43.23C313.011 42.5973 312.851 42.138 312.53 41.852C312.218 41.566 311.793 41.423 311.256 41.423C310.641 41.423 310.138 41.6223 309.748 42.021C309.367 42.4197 309.176 43.0133 309.176 43.802V47H308.149ZM319.034 47.182C318.392 47.182 317.829 47.0477 317.344 46.779C316.858 46.5017 316.481 46.116 316.213 45.622C315.944 45.128 315.81 44.556 315.81 43.906V43.75C315.81 43.0913 315.944 42.515 316.213 42.021C316.481 41.527 316.854 41.1457 317.331 40.877C317.807 40.5997 318.353 40.461 318.969 40.461C319.567 40.461 320.095 40.591 320.555 40.851C321.014 41.1023 321.374 41.4663 321.634 41.943C321.894 42.4197 322.024 42.9787 322.024 43.62V44.088H316.837C316.863 44.7727 317.084 45.31 317.5 45.7C317.916 46.0813 318.436 46.272 319.06 46.272C319.606 46.272 320.026 46.1463 320.321 45.895C320.615 45.6437 320.841 45.3447 320.997 44.998L321.881 45.427C321.751 45.6957 321.569 45.9643 321.335 46.233C321.109 46.5017 320.81 46.727 320.438 46.909C320.074 47.091 319.606 47.182 319.034 47.182ZM316.85 43.243H320.984C320.949 42.6537 320.745 42.1943 320.373 41.865C320.009 41.5357 319.541 41.371 318.969 41.371C318.388 41.371 317.911 41.5357 317.539 41.865C317.166 42.1943 316.936 42.6537 316.85 43.243ZM323.815 47V40.643H324.816V41.423H324.998C325.111 41.1457 325.284 40.942 325.518 40.812C325.752 40.682 326.06 40.617 326.441 40.617H327.195V41.553H326.376C325.917 41.553 325.544 41.683 325.258 41.943C324.981 42.1943 324.842 42.5887 324.842 43.126V47H323.815Z" fill="#1B3C2A"/>
<path d="M105.924 85.1362H42.5038C30.0753 85.1362 20 95.2403 20 107.704C20 120.168 30.0753 130.272 42.5038 130.272H105.924C118.352 130.272 128.427 120.168 128.427 107.704C128.427 95.2403 118.352 85.1362 105.924 85.1362Z" fill="#1B3C2A" stroke="#D4D1C8" stroke-width="1.2"/>
<path d="M60.2525 112.136V103.036H62.3325L64.7505 111.447H64.9195L67.3375 103.036H69.4175V112.136H68.3645V103.751H68.1825L65.7775 112.136H63.8925L61.4875 103.751H61.3055V112.136H60.2525ZM73.4896 112.318C73.0476 112.318 72.6446 112.24 72.2806 112.084C71.9166 111.928 71.6306 111.703 71.4226 111.408C71.2146 111.114 71.1106 110.754 71.1106 110.329C71.1106 109.896 71.2146 109.541 71.4226 109.263C71.6306 108.977 71.9166 108.765 72.2806 108.626C72.6446 108.479 73.0519 108.405 73.5026 108.405H75.6476V107.937C75.6476 107.487 75.5132 107.131 75.2446 106.871C74.9846 106.611 74.5946 106.481 74.0746 106.481C73.5632 106.481 73.1646 106.607 72.8786 106.858C72.5926 107.101 72.3976 107.43 72.2936 107.846L71.3316 107.534C71.4356 107.179 71.6002 106.858 71.8256 106.572C72.0509 106.278 72.3499 106.044 72.7226 105.87C73.1039 105.688 73.5589 105.597 74.0876 105.597C74.9022 105.597 75.5349 105.81 75.9856 106.234C76.4362 106.65 76.6616 107.24 76.6616 108.002V110.875C76.6616 111.135 76.7829 111.265 77.0256 111.265H77.6106V112.136H76.7136C76.4276 112.136 76.1979 112.058 76.0246 111.902C75.8512 111.738 75.7646 111.521 75.7646 111.252V111.187H75.6086C75.5132 111.352 75.3832 111.525 75.2186 111.707C75.0626 111.881 74.8459 112.024 74.5686 112.136C74.2912 112.258 73.9316 112.318 73.4896 112.318ZM73.6066 111.434C74.2132 111.434 74.7029 111.257 75.0756 110.901C75.4569 110.537 75.6476 110.03 75.6476 109.38V109.237H73.5416C73.1342 109.237 72.7962 109.328 72.5276 109.51C72.2676 109.684 72.1376 109.948 72.1376 110.303C72.1376 110.659 72.2719 110.936 72.5406 111.135C72.8179 111.335 73.1732 111.434 73.6066 111.434ZM79.0171 112.136V103.036H80.0441V112.136H79.0171ZM85.1156 112.318C84.4743 112.318 83.911 112.184 83.4256 111.915C82.9403 111.638 82.5633 111.252 82.2946 110.758C82.026 110.264 81.8916 109.692 81.8916 109.042V108.886C81.8916 108.228 82.026 107.651 82.2946 107.157C82.5633 106.663 82.936 106.282 83.4126 106.013C83.8893 105.736 84.4353 105.597 85.0506 105.597C85.6486 105.597 86.1773 105.727 86.6366 105.987C87.096 106.239 87.4556 106.603 87.7156 107.079C87.9756 107.556 88.1056 108.115 88.1056 108.756V109.224H82.9186C82.9446 109.909 83.1656 110.446 83.5816 110.836C83.9976 111.218 84.5176 111.408 85.1416 111.408C85.6876 111.408 86.108 111.283 86.4026 111.031C86.6973 110.78 86.9226 110.481 87.0786 110.134L87.9626 110.563C87.8326 110.832 87.6506 111.101 87.4166 111.369C87.1913 111.638 86.8923 111.863 86.5196 112.045C86.1556 112.227 85.6876 112.318 85.1156 112.318ZM82.9316 108.379H87.0656C87.031 107.79 86.8273 107.331 86.4546 107.001C86.0906 106.672 85.6226 106.507 85.0506 106.507C84.47 106.507 83.9933 106.672 83.6206 107.001C83.248 107.331 83.0183 107.79 82.9316 108.379Z" fill="white"/>
<path d="M223.924 85.1362H160.504C148.075 85.1362 138 95.2403 138 107.704C138 120.168 148.075 130.272 160.504 130.272H223.924C236.352 130.272 246.427 120.168 246.427 107.704C246.427 95.2403 236.352 85.1362 223.924 85.1362Z" fill="white" stroke="#D4D1C8" stroke-width="1.2"/>
<path d="M170.965 112.136V103.036H176.464V104.024H172.057V107.079H176.113V108.067H172.057V112.136H170.965ZM180.861 112.318C180.219 112.318 179.656 112.184 179.171 111.915C178.685 111.638 178.308 111.252 178.04 110.758C177.771 110.264 177.637 109.692 177.637 109.042V108.886C177.637 108.228 177.771 107.651 178.04 107.157C178.308 106.663 178.681 106.282 179.158 106.013C179.634 105.736 180.18 105.597 180.796 105.597C181.394 105.597 181.922 105.727 182.382 105.987C182.841 106.239 183.201 106.603 183.461 107.079C183.721 107.556 183.851 108.115 183.851 108.756V109.224H178.664C178.69 109.909 178.911 110.446 179.327 110.836C179.743 111.218 180.263 111.408 180.887 111.408C181.433 111.408 181.853 111.283 182.148 111.031C182.442 110.78 182.668 110.481 182.824 110.134L183.708 110.563C183.578 110.832 183.396 111.101 183.162 111.369C182.936 111.638 182.637 111.863 182.265 112.045C181.901 112.227 181.433 112.318 180.861 112.318ZM178.677 108.379H182.811C182.776 107.79 182.572 107.331 182.2 107.001C181.836 106.672 181.368 106.507 180.796 106.507C180.215 106.507 179.738 106.672 179.366 107.001C178.993 107.331 178.763 107.79 178.677 108.379ZM185.642 112.136V105.779H186.643V106.572H186.825C186.946 106.347 187.146 106.139 187.423 105.948C187.7 105.758 188.09 105.662 188.593 105.662C189.087 105.662 189.486 105.771 189.789 105.987C190.101 106.204 190.326 106.468 190.465 106.78H190.647C190.794 106.468 191.015 106.204 191.31 105.987C191.613 105.771 192.034 105.662 192.571 105.662C192.996 105.662 193.368 105.749 193.689 105.922C194.01 106.096 194.261 106.347 194.443 106.676C194.634 106.997 194.729 107.383 194.729 107.833V112.136H193.702V107.924C193.702 107.5 193.576 107.166 193.325 106.923C193.082 106.672 192.74 106.546 192.298 106.546C191.83 106.546 191.444 106.698 191.141 107.001C190.846 107.305 190.699 107.742 190.699 108.314V112.136H189.672V107.924C189.672 107.5 189.546 107.166 189.295 106.923C189.052 106.672 188.71 106.546 188.268 106.546C187.8 106.546 187.414 106.698 187.111 107.001C186.816 107.305 186.669 107.742 186.669 108.314V112.136H185.642ZM198.777 112.318C198.335 112.318 197.932 112.24 197.568 112.084C197.204 111.928 196.918 111.703 196.71 111.408C196.502 111.114 196.398 110.754 196.398 110.329C196.398 109.896 196.502 109.541 196.71 109.263C196.918 108.977 197.204 108.765 197.568 108.626C197.932 108.479 198.339 108.405 198.79 108.405H200.935V107.937C200.935 107.487 200.8 107.131 200.532 106.871C200.272 106.611 199.882 106.481 199.362 106.481C198.85 106.481 198.452 106.607 198.166 106.858C197.88 107.101 197.685 107.43 197.581 107.846L196.619 107.534C196.723 107.179 196.887 106.858 197.113 106.572C197.338 106.278 197.637 106.044 198.01 105.87C198.391 105.688 198.846 105.597 199.375 105.597C200.189 105.597 200.822 105.81 201.273 106.234C201.723 106.65 201.949 107.24 201.949 108.002V110.875C201.949 111.135 202.07 111.265 202.313 111.265H202.898V112.136H202.001C201.715 112.136 201.485 112.058 201.312 111.902C201.138 111.738 201.052 111.521 201.052 111.252V111.187H200.896C200.8 111.352 200.67 111.525 200.506 111.707C200.35 111.881 200.133 112.024 199.856 112.136C199.578 112.258 199.219 112.318 198.777 112.318ZM198.894 111.434C199.5 111.434 199.99 111.257 200.363 110.901C200.744 110.537 200.935 110.03 200.935 109.38V109.237H198.829C198.421 109.237 198.083 109.328 197.815 109.51C197.555 109.684 197.425 109.948 197.425 110.303C197.425 110.659 197.559 110.936 197.828 111.135C198.105 111.335 198.46 111.434 198.894 111.434ZM204.304 112.136V103.036H205.331V112.136H204.304ZM210.403 112.318C209.761 112.318 209.198 112.184 208.713 111.915C208.227 111.638 207.85 111.252 207.582 110.758C207.313 110.264 207.179 109.692 207.179 109.042V108.886C207.179 108.228 207.313 107.651 207.582 107.157C207.85 106.663 208.223 106.282 208.7 106.013C209.176 105.736 209.722 105.597 210.338 105.597C210.936 105.597 211.464 105.727 211.924 105.987C212.383 106.239 212.743 106.603 213.003 107.079C213.263 107.556 213.393 108.115 213.393 108.756V109.224H208.206C208.232 109.909 208.453 110.446 208.869 110.836C209.285 111.218 209.805 111.408 210.429 111.408C210.975 111.408 211.395 111.283 211.69 111.031C211.984 110.78 212.21 110.481 212.366 110.134L213.25 110.563C213.12 110.832 212.938 111.101 212.704 111.369C212.478 111.638 212.179 111.863 211.807 112.045C211.443 112.227 210.975 112.318 210.403 112.318ZM208.219 108.379H212.353C212.318 107.79 212.114 107.331 211.742 107.001C211.378 106.672 210.91 106.507 210.338 106.507C209.757 106.507 209.28 106.672 208.908 107.001C208.535 107.331 208.305 107.79 208.219 108.379Z" fill="#1B3C2A"/>
<path d="M341.924 85.1362H278.504C266.075 85.1362 256 95.2403 256 107.704C256 120.168 266.075 130.272 278.504 130.272H341.924C354.352 130.272 364.427 120.168 364.427 107.704C364.427 95.2403 354.352 85.1362 341.924 85.1362Z" fill="white" stroke="#D4D1C8" stroke-width="1.2"/>
<path d="M296.736 112.318C295.653 112.318 294.786 112.006 294.136 111.382C293.495 110.75 293.174 109.831 293.174 108.626V106.546C293.174 105.342 293.495 104.427 294.136 103.803C294.786 103.171 295.653 102.854 296.736 102.854C297.828 102.854 298.695 103.171 299.336 103.803C299.986 104.427 300.311 105.342 300.311 106.546V108.626C300.311 109.831 299.986 110.75 299.336 111.382C298.695 112.006 297.828 112.318 296.736 112.318ZM296.736 111.343C297.525 111.343 298.136 111.109 298.569 110.641C299.003 110.165 299.219 109.506 299.219 108.665V106.507C299.219 105.667 299.003 105.012 298.569 104.544C298.136 104.068 297.525 103.829 296.736 103.829C295.956 103.829 295.35 104.068 294.916 104.544C294.483 105.012 294.266 105.667 294.266 106.507V108.665C294.266 109.506 294.483 110.165 294.916 110.641C295.35 111.109 295.956 111.343 296.736 111.343ZM304.509 112.136C304.145 112.136 303.864 112.037 303.664 111.837C303.474 111.638 303.378 111.365 303.378 111.018V106.676H301.467V105.779H303.378V103.517H304.405V105.779H306.485V106.676H304.405V110.862C304.405 111.122 304.531 111.252 304.782 111.252H306.199V112.136H304.509ZM308.149 112.136V103.036H309.176V106.793H309.358C309.445 106.603 309.575 106.425 309.748 106.26C309.93 106.087 310.16 105.944 310.437 105.831C310.723 105.719 311.083 105.662 311.516 105.662C311.993 105.662 312.417 105.766 312.79 105.974C313.171 106.174 313.475 106.468 313.7 106.858C313.925 107.24 314.038 107.716 314.038 108.288V112.136H313.011V108.366C313.011 107.734 312.851 107.274 312.53 106.988C312.218 106.702 311.793 106.559 311.256 106.559C310.641 106.559 310.138 106.759 309.748 107.157C309.367 107.556 309.176 108.15 309.176 108.938V112.136H308.149ZM319.034 112.318C318.392 112.318 317.829 112.184 317.344 111.915C316.858 111.638 316.481 111.252 316.213 110.758C315.944 110.264 315.81 109.692 315.81 109.042V108.886C315.81 108.228 315.944 107.651 316.213 107.157C316.481 106.663 316.854 106.282 317.331 106.013C317.807 105.736 318.353 105.597 318.969 105.597C319.567 105.597 320.095 105.727 320.555 105.987C321.014 106.239 321.374 106.603 321.634 107.079C321.894 107.556 322.024 108.115 322.024 108.756V109.224H316.837C316.863 109.909 317.084 110.446 317.5 110.836C317.916 111.218 318.436 111.408 319.06 111.408C319.606 111.408 320.026 111.283 320.321 111.031C320.615 110.78 320.841 110.481 320.997 110.134L321.881 110.563C321.751 110.832 321.569 111.101 321.335 111.369C321.109 111.638 320.81 111.863 320.438 112.045C320.074 112.227 319.606 112.318 319.034 112.318ZM316.85 108.379H320.984C320.949 107.79 320.745 107.331 320.373 107.001C320.009 106.672 319.541 106.507 318.969 106.507C318.388 106.507 317.911 106.672 317.539 107.001C317.166 107.331 316.936 107.79 316.85 108.379ZM323.815 112.136V105.779H324.816V106.559H324.998C325.111 106.282 325.284 106.078 325.518 105.948C325.752 105.818 326.06 105.753 326.441 105.753H327.195V106.689H326.376C325.917 106.689 325.544 106.819 325.258 107.079C324.981 107.331 324.842 107.725 324.842 108.262V112.136H323.815Z" fill="#1B3C2A"/>
<path d="M105.924 215.409H42.5038C30.0753 215.409 20 225.513 20 237.977C20 250.441 30.0753 260.545 42.5038 260.545H105.924C118.352 260.545 128.427 250.441 128.427 237.977C128.427 225.513 118.352 215.409 105.924 215.409Z" fill="white" stroke="#D4D1C8" stroke-width="1.2"/>
<path d="M60.2525 242.409V233.309H62.3325L64.7505 241.72H64.9195L67.3375 233.309H69.4175V242.409H68.3645V234.024H68.1825L65.7775 242.409H63.8925L61.4875 234.024H61.3055V242.409H60.2525ZM73.4896 242.591C73.0476 242.591 72.6446 242.513 72.2806 242.357C71.9166 242.201 71.6306 241.975 71.4226 241.681C71.2146 241.386 71.1106 241.026 71.1106 240.602C71.1106 240.168 71.2146 239.813 71.4226 239.536C71.6306 239.25 71.9166 239.037 72.2806 238.899C72.6446 238.751 73.0519 238.678 73.5026 238.678H75.6476V238.21C75.6476 237.759 75.5132 237.404 75.2446 237.144C74.9846 236.884 74.5946 236.754 74.0746 236.754C73.5632 236.754 73.1646 236.879 72.8786 237.131C72.5926 237.373 72.3976 237.703 72.2936 238.119L71.3316 237.807C71.4356 237.451 71.6002 237.131 71.8256 236.845C72.0509 236.55 72.3499 236.316 72.7226 236.143C73.1039 235.961 73.5589 235.87 74.0876 235.87C74.9022 235.87 75.5349 236.082 75.9856 236.507C76.4362 236.923 76.6616 237.512 76.6616 238.275V241.148C76.6616 241.408 76.7829 241.538 77.0256 241.538H77.6106V242.409H76.7136C76.4276 242.409 76.1979 242.331 76.0246 242.175C75.8512 242.01 75.7646 241.793 75.7646 241.525V241.46H75.6086C75.5132 241.624 75.3832 241.798 75.2186 241.98C75.0626 242.153 74.8459 242.296 74.5686 242.409C74.2912 242.53 73.9316 242.591 73.4896 242.591ZM73.6066 241.707C74.2132 241.707 74.7029 241.529 75.0756 241.174C75.4569 240.81 75.6476 240.303 75.6476 239.653V239.51H73.5416C73.1342 239.51 72.7962 239.601 72.5276 239.783C72.2676 239.956 72.1376 240.22 72.1376 240.576C72.1376 240.931 72.2719 241.208 72.5406 241.408C72.8179 241.607 73.1732 241.707 73.6066 241.707ZM79.0171 242.409V233.309H80.0441V242.409H79.0171ZM85.1156 242.591C84.4743 242.591 83.911 242.456 83.4256 242.188C82.9403 241.91 82.5633 241.525 82.2946 241.031C82.026 240.537 81.8916 239.965 81.8916 239.315V239.159C81.8916 238.5 82.026 237.924 82.2946 237.43C82.5633 236.936 82.936 236.554 83.4126 236.286C83.8893 236.008 84.4353 235.87 85.0506 235.87C85.6486 235.87 86.1773 236 86.6366 236.26C87.096 236.511 87.4556 236.875 87.7156 237.352C87.9756 237.828 88.1056 238.387 88.1056 239.029V239.497H82.9186C82.9446 240.181 83.1656 240.719 83.5816 241.109C83.9976 241.49 84.5176 241.681 85.1416 241.681C85.6876 241.681 86.108 241.555 86.4026 241.304C86.6973 241.052 86.9226 240.753 87.0786 240.407L87.9626 240.836C87.8326 241.104 87.6506 241.373 87.4166 241.642C87.1913 241.91 86.8923 242.136 86.5196 242.318C86.1556 242.5 85.6876 242.591 85.1156 242.591ZM82.9316 238.652H87.0656C87.031 238.062 86.8273 237.603 86.4546 237.274C86.0906 236.944 85.6226 236.78 85.0506 236.78C84.47 236.78 83.9933 236.944 83.6206 237.274C83.248 237.603 83.0183 238.062 82.9316 238.652Z" fill="#1B3C2A"/>
<path d="M223.924 215.409H160.504C148.075 215.409 138 225.513 138 237.977C138 250.441 148.075 260.545 160.504 260.545H223.924C236.352 260.545 246.427 250.441 246.427 237.977C246.427 225.513 236.352 215.409 223.924 215.409Z" fill="white" stroke="#D4D1C8" stroke-width="1.2"/>
<path d="M170.965 242.409V233.309H176.464V234.297H172.057V237.352H176.113V238.34H172.057V242.409H170.965ZM180.861 242.591C180.219 242.591 179.656 242.456 179.171 242.188C178.685 241.91 178.308 241.525 178.04 241.031C177.771 240.537 177.637 239.965 177.637 239.315V239.159C177.637 238.5 177.771 237.924 178.04 237.43C178.308 236.936 178.681 236.554 179.158 236.286C179.634 236.008 180.18 235.87 180.796 235.87C181.394 235.87 181.922 236 182.382 236.26C182.841 236.511 183.201 236.875 183.461 237.352C183.721 237.828 183.851 238.387 183.851 239.029V239.497H178.664C178.69 240.181 178.911 240.719 179.327 241.109C179.743 241.49 180.263 241.681 180.887 241.681C181.433 241.681 181.853 241.555 182.148 241.304C182.442 241.052 182.668 240.753 182.824 240.407L183.708 240.836C183.578 241.104 183.396 241.373 183.162 241.642C182.936 241.91 182.637 242.136 182.265 242.318C181.901 242.5 181.433 242.591 180.861 242.591ZM178.677 238.652H182.811C182.776 238.062 182.572 237.603 182.2 237.274C181.836 236.944 181.368 236.78 180.796 236.78C180.215 236.78 179.738 236.944 179.366 237.274C178.993 237.603 178.763 238.062 178.677 238.652ZM185.642 242.409V236.052H186.643V236.845H186.825C186.946 236.619 187.146 236.411 187.423 236.221C187.7 236.03 188.09 235.935 188.593 235.935C189.087 235.935 189.486 236.043 189.789 236.26C190.101 236.476 190.326 236.741 190.465 237.053H190.647C190.794 236.741 191.015 236.476 191.31 236.26C191.613 236.043 192.034 235.935 192.571 235.935C192.996 235.935 193.368 236.021 193.689 236.195C194.01 236.368 194.261 236.619 194.443 236.949C194.634 237.269 194.729 237.655 194.729 238.106V242.409H193.702V238.197C193.702 237.772 193.576 237.438 193.325 237.196C193.082 236.944 192.74 236.819 192.298 236.819C191.83 236.819 191.444 236.97 191.141 237.274C190.846 237.577 190.699 238.015 190.699 238.587V242.409H189.672V238.197C189.672 237.772 189.546 237.438 189.295 237.196C189.052 236.944 188.71 236.819 188.268 236.819C187.8 236.819 187.414 236.97 187.111 237.274C186.816 237.577 186.669 238.015 186.669 238.587V242.409H185.642ZM198.777 242.591C198.335 242.591 197.932 242.513 197.568 242.357C197.204 242.201 196.918 241.975 196.71 241.681C196.502 241.386 196.398 241.026 196.398 240.602C196.398 240.168 196.502 239.813 196.71 239.536C196.918 239.25 197.204 239.037 197.568 238.899C197.932 238.751 198.339 238.678 198.79 238.678H200.935V238.21C200.935 237.759 200.8 237.404 200.532 237.144C200.272 236.884 199.882 236.754 199.362 236.754C198.85 236.754 198.452 236.879 198.166 237.131C197.88 237.373 197.685 237.703 197.581 238.119L196.619 237.807C196.723 237.451 196.887 237.131 197.113 236.845C197.338 236.55 197.637 236.316 198.01 236.143C198.391 235.961 198.846 235.87 199.375 235.87C200.189 235.87 200.822 236.082 201.273 236.507C201.723 236.923 201.949 237.512 201.949 238.275V241.148C201.949 241.408 202.07 241.538 202.313 241.538H202.898V242.409H202.001C201.715 242.409 201.485 242.331 201.312 242.175C201.138 242.01 201.052 241.793 201.052 241.525V241.46H200.896C200.8 241.624 200.67 241.798 200.506 241.98C200.35 242.153 200.133 242.296 199.856 242.409C199.578 242.53 199.219 242.591 198.777 242.591ZM198.894 241.707C199.5 241.707 199.99 241.529 200.363 241.174C200.744 240.81 200.935 240.303 200.935 239.653V239.51H198.829C198.421 239.51 198.083 239.601 197.815 239.783C197.555 239.956 197.425 240.22 197.425 240.576C197.425 240.931 197.559 241.208 197.828 241.408C198.105 241.607 198.46 241.707 198.894 241.707ZM204.304 242.409V233.309H205.331V242.409H204.304ZM210.403 242.591C209.761 242.591 209.198 242.456 208.713 242.188C208.227 241.91 207.85 241.525 207.582 241.031C207.313 240.537 207.179 239.965 207.179 239.315V239.159C207.179 238.5 207.313 237.924 207.582 237.43C207.85 236.936 208.223 236.554 208.7 236.286C209.176 236.008 209.722 235.87 210.338 235.87C210.936 235.87 211.464 236 211.924 236.26C212.383 236.511 212.743 236.875 213.003 237.352C213.263 237.828 213.393 238.387 213.393 239.029V239.497H208.206C208.232 240.181 208.453 240.719 208.869 241.109C209.285 241.49 209.805 241.681 210.429 241.681C210.975 241.681 211.395 241.555 211.69 241.304C211.984 241.052 212.21 240.753 212.366 240.407L213.25 240.836C213.12 241.104 212.938 241.373 212.704 241.642C212.478 241.91 212.179 242.136 211.807 242.318C211.443 242.5 210.975 242.591 210.403 242.591ZM208.219 238.652H212.353C212.318 238.062 212.114 237.603 211.742 237.274C211.378 236.944 210.91 236.78 210.338 236.78C209.757 236.78 209.28 236.944 208.908 237.274C208.535 237.603 208.305 238.062 208.219 238.652Z" fill="#1B3C2A"/>
<path d="M341.924 215.409H278.504C266.075 215.409 256 225.513 256 237.977C256 250.441 266.075 260.545 278.504 260.545H341.924C354.352 260.545 364.427 250.441 364.427 237.977C364.427 225.513 354.352 215.409 341.924 215.409Z" fill="#1B3C2A" stroke="#D4D1C8" stroke-width="1.2"/>
<path d="M296.736 242.591C295.653 242.591 294.786 242.279 294.136 241.655C293.495 241.022 293.174 240.103 293.174 238.899V236.819C293.174 235.614 293.495 234.7 294.136 234.076C294.786 233.443 295.653 233.127 296.736 233.127C297.828 233.127 298.695 233.443 299.336 234.076C299.986 234.7 300.311 235.614 300.311 236.819V238.899C300.311 240.103 299.986 241.022 299.336 241.655C298.695 242.279 297.828 242.591 296.736 242.591ZM296.736 241.616C297.525 241.616 298.136 241.382 298.569 240.914C299.003 240.437 299.219 239.778 299.219 238.938V236.78C299.219 235.939 299.003 235.285 298.569 234.817C298.136 234.34 297.525 234.102 296.736 234.102C295.956 234.102 295.35 234.34 294.916 234.817C294.483 235.285 294.266 235.939 294.266 236.78V238.938C294.266 239.778 294.483 240.437 294.916 240.914C295.35 241.382 295.956 241.616 296.736 241.616ZM304.509 242.409C304.145 242.409 303.864 242.309 303.664 242.11C303.474 241.91 303.378 241.637 303.378 241.291V236.949H301.467V236.052H303.378V233.79H304.405V236.052H306.485V236.949H304.405V241.135C304.405 241.395 304.531 241.525 304.782 241.525H306.199V242.409H304.509ZM308.149 242.409V233.309H309.176V237.066H309.358C309.445 236.875 309.575 236.697 309.748 236.533C309.93 236.359 310.16 236.216 310.437 236.104C310.723 235.991 311.083 235.935 311.516 235.935C311.993 235.935 312.417 236.039 312.79 236.247C313.171 236.446 313.475 236.741 313.7 237.131C313.925 237.512 314.038 237.989 314.038 238.561V242.409H313.011V238.639C313.011 238.006 312.851 237.547 312.53 237.261C312.218 236.975 311.793 236.832 311.256 236.832C310.641 236.832 310.138 237.031 309.748 237.43C309.367 237.828 309.176 238.422 309.176 239.211V242.409H308.149ZM319.034 242.591C318.392 242.591 317.829 242.456 317.344 242.188C316.858 241.91 316.481 241.525 316.213 241.031C315.944 240.537 315.81 239.965 315.81 239.315V239.159C315.81 238.5 315.944 237.924 316.213 237.43C316.481 236.936 316.854 236.554 317.331 236.286C317.807 236.008 318.353 235.87 318.969 235.87C319.567 235.87 320.095 236 320.555 236.26C321.014 236.511 321.374 236.875 321.634 237.352C321.894 237.828 322.024 238.387 322.024 239.029V239.497H316.837C316.863 240.181 317.084 240.719 317.5 241.109C317.916 241.49 318.436 241.681 319.06 241.681C319.606 241.681 320.026 241.555 320.321 241.304C320.615 241.052 320.841 240.753 320.997 240.407L321.881 240.836C321.751 241.104 321.569 241.373 321.335 241.642C321.109 241.91 320.81 242.136 320.438 242.318C320.074 242.5 319.606 242.591 319.034 242.591ZM316.85 238.652H320.984C320.949 238.062 320.745 237.603 320.373 237.274C320.009 236.944 319.541 236.78 318.969 236.78C318.388 236.78 317.911 236.944 317.539 237.274C317.166 237.603 316.936 238.062 316.85 238.652ZM323.815 242.409V236.052H324.816V236.832H324.998C325.111 236.554 325.284 236.351 325.518 236.221C325.752 236.091 326.06 236.026 326.441 236.026H327.195V236.962H326.376C325.917 236.962 325.544 237.092 325.258 237.352C324.981 237.603 324.842 237.997 324.842 238.535V242.409H323.815Z" fill="white"/>
<path d="M105.924 150.272H42.5038C30.0753 150.272 20 160.377 20 172.841C20 185.305 30.0753 195.409 42.5038 195.409H105.924C118.352 195.409 128.427 185.305 128.427 172.841C128.427 160.377 118.352 150.272 105.924 150.272Z" fill="white" stroke="#D4D1C8" stroke-width="1.2"/>
<path d="M60.2525 177.272V168.172H62.3325L64.7505 176.583H64.9195L67.3375 168.172H69.4175V177.272H68.3645V168.887H68.1825L65.7775 177.272H63.8925L61.4875 168.887H61.3055V177.272H60.2525ZM73.4896 177.454C73.0476 177.454 72.6446 177.376 72.2806 177.22C71.9166 177.064 71.6306 176.839 71.4226 176.544C71.2146 176.25 71.1106 175.89 71.1106 175.465C71.1106 175.032 71.2146 174.677 71.4226 174.399C71.6306 174.113 71.9166 173.901 72.2806 173.762C72.6446 173.615 73.0519 173.541 73.5026 173.541H75.6476V173.073C75.6476 172.623 75.5132 172.267 75.2446 172.007C74.9846 171.747 74.5946 171.617 74.0746 171.617C73.5632 171.617 73.1646 171.743 72.8786 171.994C72.5926 172.237 72.3976 172.566 72.2936 172.982L71.3316 172.67C71.4356 172.315 71.6002 171.994 71.8256 171.708C72.0509 171.414 72.3499 171.18 72.7226 171.006C73.1039 170.824 73.5589 170.733 74.0876 170.733C74.9022 170.733 75.5349 170.946 75.9856 171.37C76.4362 171.786 76.6616 172.376 76.6616 173.138V176.011C76.6616 176.271 76.7829 176.401 77.0256 176.401H77.6106V177.272H76.7136C76.4276 177.272 76.1979 177.194 76.0246 177.038C75.8512 176.874 75.7646 176.657 75.7646 176.388V176.323H75.6086C75.5132 176.488 75.3832 176.661 75.2186 176.843C75.0626 177.017 74.8459 177.16 74.5686 177.272C74.2912 177.394 73.9316 177.454 73.4896 177.454ZM73.6066 176.57C74.2132 176.57 74.7029 176.393 75.0756 176.037C75.4569 175.673 75.6476 175.166 75.6476 174.516V174.373H73.5416C73.1342 174.373 72.7962 174.464 72.5276 174.646C72.2676 174.82 72.1376 175.084 72.1376 175.439C72.1376 175.795 72.2719 176.072 72.5406 176.271C72.8179 176.471 73.1732 176.57 73.6066 176.57ZM79.0171 177.272V168.172H80.0441V177.272H79.0171ZM85.1156 177.454C84.4743 177.454 83.911 177.32 83.4256 177.051C82.9403 176.774 82.5633 176.388 82.2946 175.894C82.026 175.4 81.8916 174.828 81.8916 174.178V174.022C81.8916 173.364 82.026 172.787 82.2946 172.293C82.5633 171.799 82.936 171.418 83.4126 171.149C83.8893 170.872 84.4353 170.733 85.0506 170.733C85.6486 170.733 86.1773 170.863 86.6366 171.123C87.096 171.375 87.4556 171.739 87.7156 172.215C87.9756 172.692 88.1056 173.251 88.1056 173.892V174.36H82.9186C82.9446 175.045 83.1656 175.582 83.5816 175.972C83.9976 176.354 84.5176 176.544 85.1416 176.544C85.6876 176.544 86.108 176.419 86.4026 176.167C86.6973 175.916 86.9226 175.617 87.0786 175.27L87.9626 175.699C87.8326 175.968 87.6506 176.237 87.4166 176.505C87.1913 176.774 86.8923 176.999 86.5196 177.181C86.1556 177.363 85.6876 177.454 85.1156 177.454ZM82.9316 173.515H87.0656C87.031 172.926 86.8273 172.467 86.4546 172.137C86.0906 171.808 85.6226 171.643 85.0506 171.643C84.47 171.643 83.9933 171.808 83.6206 172.137C83.248 172.467 83.0183 172.926 82.9316 173.515Z" fill="#1B3C2A"/>
<path d="M223.924 150.272H160.504C148.075 150.272 138 160.377 138 172.841C138 185.305 148.075 195.409 160.504 195.409H223.924C236.352 195.409 246.427 185.305 246.427 172.841C246.427 160.377 236.352 150.272 223.924 150.272Z" fill="#1B3C2A" stroke="#D4D1C8" stroke-width="1.2"/>
<path d="M170.965 177.272V168.172H176.464V169.16H172.057V172.215H176.113V173.203H172.057V177.272H170.965ZM180.861 177.454C180.219 177.454 179.656 177.32 179.171 177.051C178.685 176.774 178.308 176.388 178.04 175.894C177.771 175.4 177.637 174.828 177.637 174.178V174.022C177.637 173.364 177.771 172.787 178.04 172.293C178.308 171.799 178.681 171.418 179.158 171.149C179.634 170.872 180.18 170.733 180.796 170.733C181.394 170.733 181.922 170.863 182.382 171.123C182.841 171.375 183.201 171.739 183.461 172.215C183.721 172.692 183.851 173.251 183.851 173.892V174.36H178.664C178.69 175.045 178.911 175.582 179.327 175.972C179.743 176.354 180.263 176.544 180.887 176.544C181.433 176.544 181.853 176.419 182.148 176.167C182.442 175.916 182.668 175.617 182.824 175.27L183.708 175.699C183.578 175.968 183.396 176.237 183.162 176.505C182.936 176.774 182.637 176.999 182.265 177.181C181.901 177.363 181.433 177.454 180.861 177.454ZM178.677 173.515H182.811C182.776 172.926 182.572 172.467 182.2 172.137C181.836 171.808 181.368 171.643 180.796 171.643C180.215 171.643 179.738 171.808 179.366 172.137C178.993 172.467 178.763 172.926 178.677 173.515ZM185.642 177.272V170.915H186.643V171.708H186.825C186.946 171.483 187.146 171.275 187.423 171.084C187.7 170.894 188.09 170.798 188.593 170.798C189.087 170.798 189.486 170.907 189.789 171.123C190.101 171.34 190.326 171.604 190.465 171.916H190.647C190.794 171.604 191.015 171.34 191.31 171.123C191.613 170.907 192.034 170.798 192.571 170.798C192.996 170.798 193.368 170.885 193.689 171.058C194.01 171.232 194.261 171.483 194.443 171.812C194.634 172.133 194.729 172.519 194.729 172.969V177.272H193.702V173.06C193.702 172.636 193.576 172.302 193.325 172.059C193.082 171.808 192.74 171.682 192.298 171.682C191.83 171.682 191.444 171.834 191.141 172.137C190.846 172.441 190.699 172.878 190.699 173.45V177.272H189.672V173.06C189.672 172.636 189.546 172.302 189.295 172.059C189.052 171.808 188.71 171.682 188.268 171.682C187.8 171.682 187.414 171.834 187.111 172.137C186.816 172.441 186.669 172.878 186.669 173.45V177.272H185.642ZM198.777 177.454C198.335 177.454 197.932 177.376 197.568 177.22C197.204 177.064 196.918 176.839 196.71 176.544C196.502 176.25 196.398 175.89 196.398 175.465C196.398 175.032 196.502 174.677 196.71 174.399C196.918 174.113 197.204 173.901 197.568 173.762C197.932 173.615 198.339 173.541 198.79 173.541H200.935V173.073C200.935 172.623 200.8 172.267 200.532 172.007C200.272 171.747 199.882 171.617 199.362 171.617C198.85 171.617 198.452 171.743 198.166 171.994C197.88 172.237 197.685 172.566 197.581 172.982L196.619 172.67C196.723 172.315 196.887 171.994 197.113 171.708C197.338 171.414 197.637 171.18 198.01 171.006C198.391 170.824 198.846 170.733 199.375 170.733C200.189 170.733 200.822 170.946 201.273 171.37C201.723 171.786 201.949 172.376 201.949 173.138V176.011C201.949 176.271 202.07 176.401 202.313 176.401H202.898V177.272H202.001C201.715 177.272 201.485 177.194 201.312 177.038C201.138 176.874 201.052 176.657 201.052 176.388V176.323H200.896C200.8 176.488 200.67 176.661 200.506 176.843C200.35 177.017 200.133 177.16 199.856 177.272C199.578 177.394 199.219 177.454 198.777 177.454ZM198.894 176.57C199.5 176.57 199.99 176.393 200.363 176.037C200.744 175.673 200.935 175.166 200.935 174.516V174.373H198.829C198.421 174.373 198.083 174.464 197.815 174.646C197.555 174.82 197.425 175.084 197.425 175.439C197.425 175.795 197.559 176.072 197.828 176.271C198.105 176.471 198.46 176.57 198.894 176.57ZM204.304 177.272V168.172H205.331V177.272H204.304ZM210.403 177.454C209.761 177.454 209.198 177.32 208.713 177.051C208.227 176.774 207.85 176.388 207.582 175.894C207.313 175.4 207.179 174.828 207.179 174.178V174.022C207.179 173.364 207.313 172.787 207.582 172.293C207.85 171.799 208.223 171.418 208.7 171.149C209.176 170.872 209.722 170.733 210.338 170.733C210.936 170.733 211.464 170.863 211.924 171.123C212.383 171.375 212.743 171.739 213.003 172.215C213.263 172.692 213.393 173.251 213.393 173.892V174.36H208.206C208.232 175.045 208.453 175.582 208.869 175.972C209.285 176.354 209.805 176.544 210.429 176.544C210.975 176.544 211.395 176.419 211.69 176.167C211.984 175.916 212.21 175.617 212.366 175.27L213.25 175.699C213.12 175.968 212.938 176.237 212.704 176.505C212.478 176.774 212.179 176.999 211.807 177.181C211.443 177.363 210.975 177.454 210.403 177.454ZM208.219 173.515H212.353C212.318 172.926 212.114 172.467 211.742 172.137C211.378 171.808 210.91 171.643 210.338 171.643C209.757 171.643 209.28 171.808 208.908 172.137C208.535 172.467 208.305 172.926 208.219 173.515Z" fill="white"/>
<path d="M341.924 150.272H278.504C266.075 150.272 256 160.377 256 172.841C256 185.305 266.075 195.409 278.504 195.409H341.924C354.352 195.409 364.427 185.305 364.427 172.841C364.427 160.377 354.352 150.272 341.924 150.272Z" fill="white" stroke="#D4D1C8" stroke-width="1.2"/>
<path d="M296.736 177.454C295.653 177.454 294.786 177.142 294.136 176.518C293.495 175.886 293.174 174.967 293.174 173.762V171.682C293.174 170.478 293.495 169.563 294.136 168.939C294.786 168.307 295.653 167.99 296.736 167.99C297.828 167.99 298.695 168.307 299.336 168.939C299.986 169.563 300.311 170.478 300.311 171.682V173.762C300.311 174.967 299.986 175.886 299.336 176.518C298.695 177.142 297.828 177.454 296.736 177.454ZM296.736 176.479C297.525 176.479 298.136 176.245 298.569 175.777C299.003 175.301 299.219 174.642 299.219 173.801V171.643C299.219 170.803 299.003 170.148 298.569 169.68C298.136 169.204 297.525 168.965 296.736 168.965C295.956 168.965 295.35 169.204 294.916 169.68C294.483 170.148 294.266 170.803 294.266 171.643V173.801C294.266 174.642 294.483 175.301 294.916 175.777C295.35 176.245 295.956 176.479 296.736 176.479ZM304.509 177.272C304.145 177.272 303.864 177.173 303.664 176.973C303.474 176.774 303.378 176.501 303.378 176.154V171.812H301.467V170.915H303.378V168.653H304.405V170.915H306.485V171.812H304.405V175.998C304.405 176.258 304.531 176.388 304.782 176.388H306.199V177.272H304.509ZM308.149 177.272V168.172H309.176V171.929H309.358C309.445 171.739 309.575 171.561 309.748 171.396C309.93 171.223 310.16 171.08 310.437 170.967C310.723 170.855 311.083 170.798 311.516 170.798C311.993 170.798 312.417 170.902 312.79 171.11C313.171 171.31 313.475 171.604 313.7 171.994C313.925 172.376 314.038 172.852 314.038 173.424V177.272H313.011V173.502C313.011 172.87 312.851 172.41 312.53 172.124C312.218 171.838 311.793 171.695 311.256 171.695C310.641 171.695 310.138 171.895 309.748 172.293C309.367 172.692 309.176 173.286 309.176 174.074V177.272H308.149ZM319.034 177.454C318.392 177.454 317.829 177.32 317.344 177.051C316.858 176.774 316.481 176.388 316.213 175.894C315.944 175.4 315.81 174.828 315.81 174.178V174.022C315.81 173.364 315.944 172.787 316.213 172.293C316.481 171.799 316.854 171.418 317.331 171.149C317.807 170.872 318.353 170.733 318.969 170.733C319.567 170.733 320.095 170.863 320.555 171.123C321.014 171.375 321.374 171.739 321.634 172.215C321.894 172.692 322.024 173.251 322.024 173.892V174.36H316.837C316.863 175.045 317.084 175.582 317.5 175.972C317.916 176.354 318.436 176.544 319.06 176.544C319.606 176.544 320.026 176.419 320.321 176.167C320.615 175.916 320.841 175.617 320.997 175.27L321.881 175.699C321.751 175.968 321.569 176.237 321.335 176.505C321.109 176.774 320.81 176.999 320.438 177.181C320.074 177.363 319.606 177.454 319.034 177.454ZM316.85 173.515H320.984C320.949 172.926 320.745 172.467 320.373 172.137C320.009 171.808 319.541 171.643 318.969 171.643C318.388 171.643 317.911 171.808 317.539 172.137C317.166 172.467 316.936 172.926 316.85 173.515ZM323.815 177.272V170.915H324.816V171.695H324.998C325.111 171.418 325.284 171.214 325.518 171.084C325.752 170.954 326.06 170.889 326.441 170.889H327.195V171.825H326.376C325.917 171.825 325.544 171.955 325.258 172.215C324.981 172.467 324.842 172.861 324.842 173.398V177.272H323.815Z" fill="#1B3C2A"/>
</svg>
