<svg width="337" height="54" viewBox="0 0 337 54" fill="none" xmlns="http://www.w3.org/2000/svg">
<path d="M310 0H27C12.0883 0 0 12.0883 0 27C0 41.9117 12.0883 54 27 54H310C324.912 54 337 41.9117 337 27C337 12.0883 324.912 0 310 0Z" fill="#1B3C2A"/>
<path d="M147.35 33.224C146.486 33.224 145.724 33.0693 145.062 32.76C144.401 32.4507 143.884 32.008 143.51 31.432C143.137 30.856 142.95 30.1627 142.95 29.352V28.904H145.03V29.352C145.03 30.024 145.238 30.5307 145.654 30.872C146.07 31.2027 146.636 31.368 147.35 31.368C148.076 31.368 148.614 31.224 148.966 30.936C149.329 30.648 149.51 30.28 149.51 29.832C149.51 29.5227 149.42 29.272 149.238 29.08C149.068 28.888 148.812 28.7333 148.47 28.616C148.14 28.488 147.734 28.3707 147.254 28.264L146.886 28.184C146.118 28.0133 145.457 27.8 144.902 27.544C144.358 27.2773 143.937 26.9307 143.638 26.504C143.35 26.0773 143.206 25.5227 143.206 24.84C143.206 24.1573 143.366 23.576 143.686 23.096C144.017 22.6053 144.476 22.232 145.062 21.976C145.66 21.7093 146.358 21.576 147.158 21.576C147.958 21.576 148.668 21.7147 149.286 21.992C149.916 22.2587 150.406 22.664 150.758 23.208C151.121 23.7413 151.302 24.4133 151.302 25.224V25.704H149.222V25.224C149.222 24.7973 149.137 24.456 148.966 24.2C148.806 23.9333 148.572 23.7413 148.262 23.624C147.953 23.496 147.585 23.432 147.158 23.432C146.518 23.432 146.044 23.5547 145.734 23.8C145.436 24.0347 145.286 24.36 145.286 24.776C145.286 25.0533 145.356 25.288 145.494 25.48C145.644 25.672 145.862 25.832 146.15 25.96C146.438 26.088 146.806 26.2 147.254 26.296L147.622 26.376C148.422 26.5467 149.116 26.7653 149.702 27.032C150.3 27.2987 150.764 27.6507 151.094 28.088C151.425 28.5253 151.59 29.0853 151.59 29.768C151.59 30.4507 151.414 31.0533 151.062 31.576C150.721 32.088 150.23 32.4933 149.59 32.792C148.961 33.08 148.214 33.224 147.35 33.224ZM153.229 33V25.064H155.245V33H153.229ZM154.237 24.136C153.875 24.136 153.565 24.0187 153.309 23.784C153.064 23.5493 152.941 23.24 152.941 22.856C152.941 22.472 153.064 22.1627 153.309 21.928C153.565 21.6933 153.875 21.576 154.237 21.576C154.611 21.576 154.92 21.6933 155.165 21.928C155.411 22.1627 155.533 22.472 155.533 22.856C155.533 23.24 155.411 23.5493 155.165 23.784C154.92 24.0187 154.611 24.136 154.237 24.136ZM157.095 29.064V28.808C157.095 27.976 157.261 27.2667 157.591 26.68C157.922 26.0827 158.359 25.6293 158.903 25.32C159.458 25 160.061 24.84 160.711 24.84C161.437 24.84 161.986 24.968 162.359 25.224C162.733 25.48 163.005 25.7467 163.175 26.024H163.463V25.064H165.447V34.408C165.447 34.952 165.287 35.384 164.967 35.704C164.647 36.0347 164.221 36.2 163.687 36.2H158.375V34.44H162.983C163.282 34.44 163.431 34.28 163.431 33.96V31.896H163.143C163.037 32.0667 162.887 32.2427 162.695 32.424C162.503 32.5947 162.247 32.7387 161.927 32.856C161.607 32.9733 161.202 33.032 160.711 33.032C160.061 33.032 159.458 32.8773 158.903 32.568C158.359 32.248 157.922 31.7947 157.591 31.208C157.261 30.6107 157.095 29.896 157.095 29.064ZM161.287 31.272C161.906 31.272 162.423 31.0747 162.839 30.68C163.255 30.2853 163.463 29.7307 163.463 29.016V28.856C163.463 28.1307 163.255 27.576 162.839 27.192C162.434 26.7973 161.917 26.6 161.287 26.6C160.669 26.6 160.151 26.7973 159.735 27.192C159.319 27.576 159.111 28.1307 159.111 28.856V29.016C159.111 29.7307 159.319 30.2853 159.735 30.68C160.151 31.0747 160.669 31.272 161.287 31.272ZM167.683 33V25.064H169.667V26.104H169.955C170.083 25.8267 170.323 25.5653 170.674 25.32C171.027 25.064 171.56 24.936 172.275 24.936C172.893 24.936 173.432 25.08 173.891 25.368C174.36 25.6453 174.723 26.0347 174.979 26.536C175.235 27.0267 175.363 27.6027 175.363 28.264V33H173.347V28.424C173.347 27.8267 173.197 27.3787 172.899 27.08C172.611 26.7813 172.195 26.632 171.651 26.632C171.032 26.632 170.552 26.84 170.211 27.256C169.869 27.6613 169.699 28.232 169.699 28.968V33H167.683ZM181.604 33V25.064H183.62V33H181.604ZM182.612 24.136C182.25 24.136 181.94 24.0187 181.684 23.784C181.439 23.5493 181.316 23.24 181.316 22.856C181.316 22.472 181.439 22.1627 181.684 21.928C181.94 21.6933 182.25 21.576 182.612 21.576C182.986 21.576 183.295 21.6933 183.54 21.928C183.786 22.1627 183.908 22.472 183.908 22.856C183.908 23.24 183.786 23.5493 183.54 23.784C183.295 24.0187 182.986 24.136 182.612 24.136ZM185.854 33V25.064H187.838V26.104H188.126C188.254 25.8267 188.494 25.5653 188.846 25.32C189.198 25.064 189.732 24.936 190.446 24.936C191.065 24.936 191.604 25.08 192.062 25.368C192.532 25.6453 192.894 26.0347 193.15 26.536C193.406 27.0267 193.534 27.6027 193.534 28.264V33H191.518V28.424C191.518 27.8267 191.369 27.3787 191.07 27.08C190.782 26.7813 190.366 26.632 189.822 26.632C189.204 26.632 188.724 26.84 188.382 27.256C188.041 27.6613 187.87 28.232 187.87 28.968V33H185.854Z" fill="white"/>
</svg>
